<svg width="1904" height="270" viewBox="0 0 1904 270" fill="none" xmlns="http://www.w3.org/2000/svg">
<path d="M1492.37 56.8945C1510.89 56.8946 1526.51 63.1645 1538.94 75.542L1538.91 66.6221C1538.91 65.3294 1539.43 64.1012 1540.35 63.1963C1541.27 62.2916 1542.51 61.7744 1543.82 61.7744L1565.55 61.71C1568.23 61.71 1570.43 63.8754 1570.52 66.5254L1571.05 196.829C1571.15 218.514 1563.95 236.87 1550.3 249.991C1536.72 263.015 1517.67 269.964 1495.15 270.028H1494.89C1458.56 270.028 1431.04 252.383 1421.29 222.78C1420.5 220.324 1421.78 217.641 1424.23 216.736L1446.19 208.528C1447.4 208.044 1448.78 208.108 1449.99 208.657C1451.17 209.207 1452.12 210.209 1452.54 211.437C1459.22 230.245 1474.57 240.587 1495.81 240.587H1496C1522.71 240.425 1539.24 223.685 1539.17 196.894L1539.14 188.814C1526.64 201.257 1511.06 207.591 1492.67 207.655H1492.34C1471.62 207.655 1452.8 200.255 1439.25 186.746C1425.64 173.173 1418.08 154.138 1418.01 133.196C1417.85 89.1476 1449.01 57.0562 1492.08 56.8945H1492.37ZM100.778 8.38672C144.731 8.38687 184.037 38.0218 194.215 78.9355C194.575 80.2605 194.313 81.6824 193.527 82.8135C192.775 83.9769 191.531 84.7202 190.156 84.9141L166.593 88.1787C164.105 88.5019 161.782 86.9501 161.16 84.5586C154.484 58.1877 129.054 39.0879 100.68 39.0879H100.517C61.3093 39.2172 32.9668 70.1453 33.1631 112.578C33.3595 154.979 61.8324 185.713 100.876 185.713H101.138C128.956 185.584 154.418 166.968 161.716 141.47C162.403 139.046 164.858 137.527 167.378 138.012L190.483 142.407C191.792 142.633 192.97 143.409 193.69 144.54C194.41 145.671 194.64 147.029 194.312 148.321C184.56 187.652 145.483 216.317 101.334 216.479H101.007C73.1887 216.478 47.694 206.46 29.2031 188.266C9.86135 169.231 -0.807617 142.374 -0.807617 112.675C-1.03654 52.4999 41.5416 8.61295 100.418 8.38672H100.778ZM435.508 60.8691C456.944 60.8692 476.417 68.4313 490.358 82.166C504.366 95.9656 512.122 115.389 512.188 136.848C512.318 181.219 480.18 213.537 435.736 213.698H435.246C413.908 213.698 394.566 206.265 380.755 192.757C366.617 178.925 358.795 159.308 358.729 137.494C358.566 93.2515 390.737 61.0307 435.181 60.8691H435.508ZM598.495 60.2578C619.44 60.2578 638.521 67.7229 652.233 81.2314C666.077 94.8694 673.769 113.937 673.834 134.911C673.834 137.593 673.834 140.89 673.604 143.96C673.408 146.481 671.281 148.42 668.729 148.42L556.048 148.84C560.826 170.169 577.55 183.613 599.936 183.613H600.263C618.394 183.549 634.266 174.629 641.695 160.312C642.939 157.921 645.884 156.984 648.273 158.18L666.634 167.293C668.99 168.489 670.004 171.301 668.892 173.66C657.502 198.189 631.811 212.861 600.164 212.958H599.543C578.597 212.958 559.353 205.46 545.346 191.822C530.749 177.603 522.633 157.501 522.502 135.267C522.437 114.39 529.964 95.3549 543.742 81.6523C557.553 67.9498 576.862 60.3225 598.168 60.2578H598.495ZM1147.89 58.0273C1166.75 58.0274 1182.72 64.976 1195.58 78.7109L1195.55 67.9814C1195.55 66.6888 1196.07 65.4605 1196.99 64.5557C1197.9 63.6508 1199.15 63.1338 1200.46 63.1338L1222.51 63.0693C1225.23 63.0693 1227.42 65.2339 1227.42 67.8838L1227.91 200.58C1227.91 201.84 1227.39 203.1 1226.47 204.005C1225.56 204.91 1224.31 205.428 1223 205.428L1200.98 205.492C1199.67 205.492 1198.43 204.975 1197.51 204.07C1196.59 203.165 1196.07 201.937 1196.07 200.645L1196.04 189.818C1183.47 203.715 1167.43 210.792 1148.29 210.856H1147.83C1127.31 210.856 1108.62 203.197 1095.17 189.301C1081.69 175.404 1074.23 155.982 1074.09 134.652C1073.93 90.4097 1104.86 58.1889 1147.63 58.0273H1147.89ZM284.022 61.7754C300.811 61.7754 315.441 67.3987 326.339 78.0957C337.99 89.536 344.436 106.082 344.502 124.729L344.797 204.069C344.797 205.362 344.274 206.59 343.357 207.495C342.441 208.4 341.197 208.917 339.888 208.917L317.862 208.981H317.83C315.114 208.981 312.921 206.848 312.921 204.166L312.626 124.827C312.528 104.403 300.124 91.217 280.946 91.2168H280.815C260.459 91.2814 243.932 107.311 243.997 126.992L244.291 204.521C244.291 205.782 243.768 207.042 242.852 207.947C241.935 208.852 240.691 209.369 239.382 209.369H217.356C214.64 209.369 212.447 207.236 212.447 204.554L211.924 71.8906C211.924 70.598 212.415 69.3698 213.331 68.4326C214.247 67.5277 215.492 67.0107 216.801 67.0107L238.826 66.9463H238.858C241.575 66.9463 243.768 69.0794 243.768 71.7617L243.801 79.0654C254.077 67.916 267.921 61.84 283.695 61.7754H284.022ZM1898.55 60.3535C1899.93 60.3858 1901.14 60.8384 1902.05 61.7432C1903 62.6481 1903.53 63.8762 1903.53 65.1689L1903.98 197.864C1903.98 199.125 1903.46 200.385 1902.54 201.29C1901.63 202.195 1900.38 202.712 1899.08 202.712L1877.05 202.776C1874.33 202.776 1872.14 200.643 1872.14 197.961L1872.11 190.625C1861.96 201.516 1848.02 207.656 1832.54 207.721H1832.21C1815.26 207.721 1800.6 202.13 1789.77 191.498C1778.21 180.155 1771.8 163.575 1771.77 144.799L1771.47 65.6855C1771.47 64.4253 1771.99 63.1646 1772.91 62.2598C1773.83 61.3552 1775.07 60.838 1776.38 60.8379H1798.41C1801.12 60.8379 1803.31 62.9711 1803.31 65.6533L1803.61 144.767C1803.67 165.579 1815.85 178.345 1835.19 178.409C1855.91 178.312 1872.08 162.606 1872.01 142.602L1871.71 65.3955C1871.71 62.7133 1873.87 60.5472 1876.59 60.5146L1898.55 60.3535ZM849.778 59.5781C866.338 59.5781 881.327 65.9122 892.029 77.3848C902.698 88.8251 908.655 104.984 908.721 122.823L908.949 201.937C908.949 203.229 908.426 204.457 907.51 205.362C906.593 206.267 905.349 206.784 904.04 206.784L882.015 206.849H881.982C879.266 206.849 877.073 204.716 877.073 202.033L876.778 122.694C876.746 112.934 873.669 104.177 868.105 98.0039C862.673 91.9605 855.342 88.7607 846.964 88.7607H846.833C828.211 88.8254 815.251 102.884 815.316 122.953L815.611 202.292C815.611 203.585 815.087 204.813 814.171 205.718C813.255 206.623 812.011 207.14 810.702 207.14L788.677 207.204H788.644C785.927 207.204 783.734 205.071 783.734 202.389L783.44 123.05C783.408 112.773 780.527 104.144 775.095 98.0684C769.858 92.2189 762.56 89.1162 753.92 89.1162H753.789C734.906 89.1809 722.732 102.593 722.797 123.243L723.091 202.583C723.091 203.843 722.568 205.104 721.651 206.009C720.735 206.914 719.491 207.431 718.182 207.431H696.222C693.505 207.431 691.312 205.298 691.312 202.615L690.789 69.9521C690.789 68.6594 691.313 67.4313 692.229 66.5264C693.146 65.6216 694.389 65.1045 695.698 65.1045L716.905 65.04C719.556 64.9431 721.848 67.1731 721.848 69.8555L721.88 75.834C730.945 65.5895 744.003 59.7073 758.534 59.6426H758.764C777.222 59.6426 794.24 68.4982 803.764 82.6855C814.531 67.8195 830.535 59.6428 849.451 59.5781H849.778ZM1074.06 11.1348C1076.02 11.1348 1077.79 12.2656 1078.57 14.043C1079.36 15.8204 1078.97 17.8896 1077.62 19.3115L994.268 105.954L1081.09 197.833C1082.43 199.255 1082.8 201.291 1082.01 203.068C1081.22 204.846 1079.49 206.009 1077.53 206.009L1047.06 206.171C1045.65 206.332 1044.34 205.589 1043.39 204.587L969.166 124.343L969.493 201.614C969.493 202.875 968.969 204.135 968.053 205.04C967.136 205.945 965.893 206.462 964.584 206.462L940.398 206.526C937.682 206.526 935.489 204.393 935.489 201.711L934.736 16.499C934.736 15.2065 935.26 13.979 936.177 13.0742C937.093 12.1693 938.336 11.6514 939.646 11.6514L963.766 11.5869C966.482 11.5869 968.675 13.7201 968.675 16.4023L968.937 87.9531L1040.22 12.8154C1041.17 11.8459 1042.44 11.2959 1043.78 11.2959L1074.02 11.1348H1074.06ZM1417.92 62.4199C1419.82 62.4199 1421.55 63.5187 1422.37 65.2314C1423.19 66.9442 1422.89 68.9481 1421.65 70.4023L1368.96 131.062L1424.59 196.796C1425.81 198.218 1426.1 200.222 1425.28 201.935C1424.5 203.647 1422.76 204.746 1420.86 204.746L1394.91 204.811C1393.44 204.811 1392.06 204.164 1391.11 203.033L1345.3 148.094L1345.49 200.157C1345.49 201.45 1344.97 202.678 1344.05 203.583C1343.14 204.488 1341.89 205.005 1340.58 205.005L1318.56 205.069C1315.84 205.069 1313.65 202.936 1313.65 200.254L1313.45 147.867L1268.06 203.518C1267.11 204.649 1265.7 205.328 1264.23 205.328H1237.82C1235.92 205.328 1234.19 204.229 1233.37 202.549C1232.55 200.868 1232.81 198.864 1234.02 197.41L1289.17 131.256L1236.25 71.0166C1235.01 69.5947 1234.71 67.5585 1235.5 65.8457C1236.28 64.1329 1238.02 63.002 1239.95 63.002L1265.11 62.9365C1266.52 62.9365 1267.9 63.5508 1268.81 64.6172L1313.19 115.13L1312.99 67.5586C1312.99 66.2659 1313.52 65.0377 1314.43 64.1328C1315.35 63.228 1316.59 62.711 1317.9 62.7109L1339.93 62.6465C1342.65 62.6465 1344.84 64.7796 1344.84 67.4619L1345.03 114.71L1388.69 64.1973C1389.64 63.0985 1390.98 62.4844 1392.42 62.4844L1417.92 62.4199ZM1621.42 61.4844C1624.14 61.4844 1626.33 63.6175 1626.33 66.2998L1626.46 102.172L1650.15 102.043H1650.55C1668.64 102.043 1684.35 107.699 1694.83 117.911C1703.96 126.831 1708.8 138.756 1708.83 152.361C1708.87 167.583 1703.27 180.509 1692.63 189.752C1682.23 198.801 1667.69 203.616 1650.61 203.648L1599.95 203.875H1599.92C1598.61 203.875 1597.36 203.39 1596.45 202.485C1595.53 201.58 1595.01 200.352 1595.01 199.06L1594.48 66.3965C1594.48 65.1038 1595.01 63.8756 1595.92 62.9707C1596.84 62.066 1598.08 61.5488 1599.39 61.5488L1621.42 61.4844ZM1744.93 60.9688C1746.21 60.9688 1747.45 61.4536 1748.37 62.3584C1749.29 63.2633 1749.81 64.4916 1749.84 65.7842L1750.37 198.447C1750.37 201.129 1748.21 203.295 1745.49 203.327L1723.46 203.489H1723.43C1722.16 203.489 1720.91 203.004 1720 202.1C1719.05 201.195 1718.52 199.966 1718.52 198.674L1718 66.0107C1718 63.3284 1720.16 61.1623 1722.88 61.1299L1744.9 60.9688H1744.93ZM435.312 90.2783C422.908 90.3106 412.042 94.6083 403.926 102.688C395.286 111.284 390.573 123.597 390.639 137.364C390.704 150.776 395.253 162.831 403.435 171.33C411.518 179.733 422.875 184.354 435.475 184.354H435.736C461.722 184.29 480.508 164.382 480.442 137.041C480.279 109.927 461.395 90.2785 435.442 90.2783H435.312ZM1150.74 87.501C1138.37 87.5333 1127.54 91.8317 1119.39 99.9434C1110.72 108.572 1106 120.885 1106.07 134.588C1106.13 147.87 1110.72 159.892 1118.96 168.456C1127.18 176.955 1138.6 181.48 1151.2 181.545C1176.99 181.48 1195.64 161.572 1195.58 134.231C1195.41 107.117 1176.66 87.4688 1150.87 87.501H1150.74ZM1494.47 86.1094C1482.09 86.1417 1471.26 90.4401 1463.11 98.5518C1454.47 107.181 1449.73 119.494 1449.79 133.196C1449.96 159.696 1468.87 178.893 1494.79 178.893H1494.92C1520.94 178.763 1539.73 159.406 1539.6 132.873C1539.47 105.759 1520.55 86.1096 1494.6 86.1094H1494.47ZM1626.56 131.549L1626.75 174.401L1650.42 174.272C1658.76 174.24 1665.67 172.139 1670.41 168.196C1674.9 164.448 1677.25 159.115 1677.22 152.749C1677.15 139.596 1666.91 131.419 1650.45 131.419H1650.25L1626.56 131.549ZM597.514 89.667C577.157 89.7316 561.612 101.495 556.539 120.077L639.535 119.754C634.266 101.269 618.393 89.667 597.677 89.667H597.514ZM565.94 12.0059C577.362 12.0059 585.707 19.9557 585.806 30.9111C585.806 41.9313 577.559 49.9791 566.17 50.0762H565.974C560.574 50.0762 555.632 48.169 552.064 44.6465C548.497 41.1562 546.533 36.3409 546.533 31.1055C546.533 20.1499 554.682 12.1028 565.94 12.0059ZM629.513 11.7793C640.869 11.7793 649.084 19.7621 649.084 30.75C649.084 41.5437 640.738 49.7525 629.677 49.8496H629.48C624.146 49.8496 619.236 47.9425 615.669 44.4199C612.069 40.9296 610.105 36.1143 610.105 30.8789C610.105 19.9233 618.255 11.8763 629.513 11.7793ZM1871.92 0.0166016C1873.23 -0.112668 1874.47 0.533588 1875.39 1.43848C1876.31 2.34337 1876.83 3.57156 1876.83 4.86426C1876.86 16.046 1872.87 26.2587 1865.54 33.5947C1858.21 40.9631 1848 45.0351 1836.8 45.0674H1836.64C1825.42 45.0674 1815.2 41.0917 1807.87 33.8203C1800.54 26.5489 1796.48 16.4015 1796.45 5.1875C1796.42 2.50515 1798.61 0.307617 1801.33 0.307617L1819.62 0.243164C1822.31 0.178532 1824.53 2.37544 1824.56 5.05762C1824.6 9.51741 1825.78 13.2341 1827.97 15.7549C1830.03 18.1464 1832.94 19.3428 1836.58 19.3428H1836.71C1845.61 19.3427 1848.75 11.9093 1848.75 4.92871C1848.75 2.24637 1850.91 0.0810547 1853.63 0.0810547L1871.92 0.0166016Z" fill="white" fill-opacity="0.2"/>
</svg>
