<svg width="1920" height="625" viewBox="0 0 1920 625" fill="none" xmlns="http://www.w3.org/2000/svg">
<path d="M2704 362.259C2704.02 365.997 2703.51 369.685 2702.5 373.33L1978.07 428.713C1975.23 425.268 1972.18 421.842 1968.91 418.447L2704 362.259ZM2684.31 321.754C2687.62 325.261 2690.48 328.712 2692.92 332.113L1956.78 406.759C1953.02 403.39 1949.05 400.051 1944.87 396.737L2684.31 321.754ZM2679.76 406.396C2675.56 410.24 2670.86 414.065 2665.7 417.884L1994.04 452.288C1992.18 448.787 1990.11 445.304 1987.83 441.841L2679.76 406.396ZM2637.02 286.109C2642.53 289.198 2647.78 292.387 2652.75 295.675L1931.44 386.639C1926.85 383.363 1922.06 380.112 1917.05 376.899L2637.02 286.109ZM2610.67 450.859C2603.44 454.585 2595.88 458.323 2588.04 462.098L2003.54 477.143C2002.71 473.598 2001.66 470.073 2000.38 466.572L2610.67 450.859ZM2567.93 256.442C2575.98 259.151 2583.75 261.953 2591.25 264.867L1903.36 368.443C1898 365.267 1892.45 362.121 1886.71 359.013L2567.93 256.442ZM2521.88 492.175C2513.92 495.67 2505.81 499.202 2497.54 502.784L2005.76 502.784C2005.87 501.018 2005.93 499.251 2005.93 497.479C2005.93 495.707 2005.87 493.941 2005.76 492.175L2521.88 492.175ZM2482.75 233.321C2493.04 235.593 2503.07 237.958 2512.83 240.423L1873.62 352.142C1867.6 349.078 1861.37 346.046 1854.96 343.045L2482.75 233.321ZM2000.38 528.386C2001.66 524.885 2002.71 521.36 2003.54 517.815L2437.46 528.985C2429.97 532.293 2422.41 535.65 2414.81 539.057L2000.38 528.386ZM2390.3 216.079C2402.2 217.951 2413.87 219.904 2425.32 221.951L1843.16 337.652C1836.54 334.688 1829.73 331.767 1822.73 328.884L2390.3 216.079ZM1987.83 553.119C1990.11 549.656 1992.18 546.174 1994.04 542.673L2365.6 561.705C2358.85 564.9 2352.08 568.145 2345.35 571.434L1987.83 553.119ZM2298.77 203.362C2311.58 204.928 2324.22 206.557 2336.71 208.248L1812.71 324.828C1805.56 321.977 1798.23 319.162 1790.72 316.391L2298.77 203.362ZM1968.91 576.513C1972.18 573.118 1975.23 569.692 1978.07 566.248L2305.88 591.309C2299.84 594.454 2293.82 597.649 2287.82 600.887L1968.91 576.513ZM1944.87 598.223C1949.05 594.909 1953.02 591.57 1956.78 588.201L2256.24 618.566C2250.8 621.717 2245.37 624.913 2240.01 628.151L1944.87 598.223ZM2213.28 193.764L2213.3 193.764C2226.5 195.118 2239.57 196.515 2252.55 197.963L1782.8 313.509C1775.18 310.763 1767.4 308.06 1759.44 305.402L2213.28 193.764ZM1917.05 618.054C1922.06 614.84 1926.87 611.589 1931.46 608.313L2214.35 643.995C2209.08 647.283 2203.95 650.491 2199 653.611L1917.05 618.054ZM1886.71 635.946C1892.45 632.838 1898 629.693 1903.36 626.517L2176.82 667.69C2171.61 671.01 2166.61 674.23 2161.77 677.362L1886.71 635.946ZM2136.17 186.178C2149.38 187.42 2162.56 188.681 2175.64 189.966L1753.83 303.539C1745.8 300.899 1737.6 298.297 1729.23 295.745L2136.17 186.178ZM1854.99 651.915C1861.37 648.914 1867.6 645.881 1873.65 642.817L2142.64 689.831C2137.51 693.188 2132.58 696.446 2127.82 699.604L1854.99 651.915ZM1822.73 666.072C1829.73 663.189 1836.54 660.268 1843.16 657.304L2111.36 710.608C2106.3 714.015 2101.41 717.317 2096.69 720.524L1822.73 666.072ZM2067.68 179.887C2080.74 181.072 2093.79 182.258 2106.79 183.456L1725.99 294.758C1717.6 292.212 1709.04 289.71 1700.32 287.257L2067.68 179.887ZM1790.72 678.566C1798.23 675.795 1805.56 672.981 1812.71 670.129L2082.55 730.166C2077.52 733.605 2072.63 736.95 2067.84 740.226L1790.72 678.566ZM1759.44 689.556C1767.4 686.898 1775.18 684.195 1782.8 681.449L2055.66 748.563C2050.62 751.995 2045.64 755.372 2040.67 758.735L1759.44 689.556ZM2001.77 173.938C2014.56 175.099 2027.37 176.253 2040.18 177.407L1696.95 286.307C1688.22 283.861 1679.31 281.465 1670.28 279.118L2001.77 173.938ZM1729.23 699.215C1737.6 696.663 1745.8 694.06 1753.83 691.421L2030.1 765.805C2025.02 769.206 2019.85 772.607 2014.56 776.039L1729.23 699.215ZM1700.33 707.702C1709.04 705.249 1717.6 702.747 1725.99 700.201L2005.49 781.893C2000.26 785.25 1994.85 788.658 1989.24 792.146L1700.33 707.702ZM1670.28 715.84C1679.31 713.494 1688.22 711.097 1696.95 708.651L1979.33 798.244C1973.89 801.57 1968.21 804.983 1962.29 808.496L1670.28 715.84ZM1933.04 167.542C1945.45 168.734 1957.87 169.901 1970.34 171.049L1663.9 277.478C1654.81 275.15 1645.56 272.878 1636.17 270.651L1933.04 167.542ZM1636.17 724.307C1645.56 722.08 1654.81 719.808 1663.9 717.48L1948.8 816.421C1943.08 819.734 1937.14 823.147 1930.93 826.679L1636.17 724.307ZM1597.43 733.048C1607.19 730.958 1616.82 728.817 1626.3 726.621L1913.05 836.725C1908.63 839.183 1904.09 841.692 1899.39 844.269C1897.7 845.192 1896.02 846.11 1894.29 847.033L1597.43 733.048ZM1861.77 160.409C1873.71 161.67 1885.71 162.9 1897.77 164.098L1626.3 268.335C1616.82 266.139 1607.19 263.998 1597.44 261.908L1861.77 160.409ZM1553.56 741.949C1563.7 740.014 1573.69 738.023 1583.56 735.976L1870.33 859.241L1870.33 859.248C1863.57 862.53 1856.56 865.8 1849.28 869.057L1553.56 741.949ZM1788.33 152.098C1799.73 153.489 1811.22 154.838 1822.81 156.148L1583.56 258.982C1573.69 256.935 1563.7 254.944 1553.56 253.009L1788.33 152.098ZM1503.99 750.853C1514.47 749.094 1524.85 747.271 1535.12 745.405L1816.56 882.972C1808.93 886.048 1801.1 889.1 1793.03 892.127L1503.99 750.853ZM1448.22 759.547C1459.08 757.981 1469.85 756.359 1480.48 754.68L1749.73 907.441C1741.21 910.268 1732.52 913.058 1723.64 915.816L1448.22 759.547ZM1712.92 141.984C1723.73 143.588 1734.66 145.129 1745.72 146.62L1535.12 249.554C1524.85 247.688 1514.47 245.866 1503.99 244.106L1712.92 141.984ZM1385.96 767.752C1397.17 766.416 1408.27 765.012 1419.27 763.546L1667.87 931.946C1658.52 934.467 1648.97 936.939 1639.28 939.36L1385.96 767.752ZM1635.59 129.101C1637.75 129.5 1639.9 129.899 1642.06 130.298C1650.15 131.79 1658.33 133.244 1666.64 134.655L1480.48 240.278C1469.85 238.599 1459.09 236.976 1448.22 235.41L1635.59 129.101ZM1553.52 113.702C1563.72 115.643 1574.02 117.59 1584.41 119.55L1419.27 231.413C1408.27 229.947 1397.17 228.543 1385.96 227.207L1553.52 113.702ZM1317.13 775.159C1328.66 774.061 1340.08 772.9 1351.42 771.677L1569.45 955.354C1559.26 957.488 1548.91 959.567 1538.4 961.576L1317.13 775.159ZM1463.57 96.4362C1473.88 98.4268 1484.3 100.436 1494.83 102.464L1351.42 223.282C1340.08 222.059 1328.66 220.899 1317.13 219.801L1463.57 96.4362ZM1242.02 781.38C1253.8 780.55 1265.53 779.658 1277.14 778.704L1453.71 976.034C1442.76 977.682 1431.68 979.267 1420.44 980.771L1242.02 781.38ZM1364.04 77.2337C1374.6 79.2618 1385.28 81.3088 1396.04 83.3805L1277.14 216.254C1265.53 215.3 1253.8 214.408 1242.02 213.578L1364.04 77.2337ZM1161.36 786.048C1173.33 785.505 1185.25 784.899 1197.1 784.231L1321.65 991.94C1310.08 993.007 1298.4 993.999 1286.6 994.91L1161.36 786.048ZM1252.8 56.4027C1263.77 58.3933 1274.83 60.4222 1285.98 62.4939L1197.1 210.725C1185.25 210.057 1173.33 209.452 1161.36 208.909L1252.8 56.4027ZM1076.33 788.826C1088.45 788.582 1100.52 788.276 1112.49 787.902L1176.71 1001.01C1164.76 1001.43 1152.72 1001.76 1140.57 1002L1076.33 788.826ZM1127.86 35.1294C1139.39 36.939 1150.99 38.8052 1162.62 40.721L1112.49 207.056C1100.52 206.681 1088.45 206.376 1076.33 206.133L1127.86 35.1294ZM988.596 789.475C994.638 789.506 1000.68 789.526 1006.74 789.526C1012.81 789.526 1018.85 789.506 1024.89 789.475L1024.89 1001.84C1012.87 1001.58 1000.77 1001.22 988.596 1000.78L988.596 789.475ZM988.596 16.1594C1000.7 17.5259 1012.81 18.9736 1024.89 20.5024L1024.89 205.483C1018.85 205.452 1012.81 205.433 1006.74 205.433C1000.68 205.433 994.638 205.452 988.596 205.483L988.596 16.1594ZM839.673 3.59765C852.142 4.2716 864.525 5.03942 876.822 5.89434L937.158 206.133C925.031 206.376 912.967 206.681 900.99 207.056L839.673 3.59765ZM900.99 787.903C912.966 788.278 925.028 788.583 937.154 788.826L875.217 994.382C863.432 993.477 851.561 992.491 839.648 991.423L900.99 787.903ZM816.384 784.232C828.233 784.9 840.147 785.505 852.124 786.048L735.721 980.19C724.385 978.755 713.005 977.251 701.583 975.666L816.384 784.232ZM690.052 0.0533482C702.457 -0.027768 714.733 -0.0154395 726.902 0.0844135L852.124 208.909C840.146 209.452 828.23 210.057 816.381 210.725L690.052 0.0533482ZM547.112 4.78413C559.196 4.07893 571.132 3.45466 582.939 2.91175L771.461 213.578C759.676 214.408 747.953 215.3 736.339 216.255L547.112 4.78413ZM736.339 778.702C747.953 779.656 759.673 780.549 771.458 781.379L610.885 960.819C599.976 958.641 589.511 956.381 579.455 954.041L736.339 778.702ZM662.061 771.679C673.398 772.902 684.821 774.063 696.35 775.161L507.528 934.239C498.092 931.212 488.995 928.104 480.135 924.934L662.061 771.679ZM415.126 15.2439C426.42 14.1207 437.949 13.0352 449.67 11.9931L696.35 219.801C684.821 220.899 673.398 222.059 662.061 223.282L415.126 15.2439ZM594.212 763.546C605.207 765.012 616.312 766.416 627.52 767.752L426.422 903.977C418.266 900.576 410.217 897.138 402.126 893.662L594.212 763.546ZM296.372 29.6525C307.069 28.0987 318.001 26.5824 329.189 25.1222L627.517 227.207C616.308 228.543 605.204 229.947 594.209 231.413L296.372 29.6525ZM533.002 754.68C543.634 756.359 554.395 757.981 565.262 759.547L360.619 875.654C352.997 872.359 345.246 869.046 337.304 865.713L533.002 754.68ZM192.996 47.3722C202.924 45.3816 213.108 43.4344 223.548 41.5312L565.259 235.41C554.391 236.976 543.631 238.599 532.999 240.278L192.996 47.3722ZM478.366 745.406C488.614 747.272 498.991 749.088 509.474 750.854L302.995 851.784C295.309 848.77 287.409 845.756 279.233 842.742L478.366 745.406ZM105.949 67.5249C114.959 65.1286 124.226 62.7696 133.748 60.4607L509.468 244.107C498.985 245.872 488.61 247.688 478.363 249.554L105.949 67.5249ZM34.6652 89.0899C42.6929 86.3316 50.9983 83.611 59.5597 80.9277L459.92 253.009C449.779 254.944 439.785 256.935 429.921 258.982L34.6652 89.0899ZM429.918 735.977C439.782 738.024 449.772 740.015 459.914 741.95L249.742 832.291C241.693 829.564 233.408 826.837 224.825 824.128L429.918 735.977ZM387.179 726.622C396.659 728.819 406.289 730.959 416.046 733.049L199.168 816.32C195.091 815.122 190.906 813.924 186.679 812.726C182.132 811.44 177.498 810.18 172.801 808.938L387.179 726.622ZM-22.4055 111.061C-15.3387 108.01 -8.01707 104.983 -0.437906 101.994L416.043 261.908C406.286 263.998 396.656 266.139 387.176 268.335L-22.4055 111.061ZM349.58 717.481C358.675 719.809 367.921 722.08 377.315 724.308L150.17 803.204C140.926 800.958 131.425 798.773 121.69 796.626L349.58 717.481ZM-67.4761 132.634C-61.3059 129.351 -54.8778 126.094 -48.2167 122.862L377.315 270.651C367.921 272.878 358.676 275.15 349.58 277.478L-67.4761 132.634ZM316.529 708.649C325.261 711.095 334.165 713.491 343.196 715.838L101.916 792.4C92.0307 790.347 81.9322 788.325 71.6628 786.341L316.529 708.649ZM-102.853 153.246C-97.4511 149.795 -91.8574 146.356 -85.9861 142.943L343.196 279.119C334.165 281.465 325.261 283.861 316.529 286.307L-102.853 153.246ZM287.492 700.201C295.882 702.747 304.445 705.25 313.155 707.702L54.9475 783.172C44.5499 781.231 33.9791 779.316 23.2826 777.425L287.492 700.201ZM-130.587 172.561C-125.89 168.992 -120.958 165.421 -115.834 161.871L313.155 287.257C304.445 289.709 295.885 292.212 287.495 294.758L-130.587 172.561ZM259.651 691.42C267.679 694.06 275.878 696.662 284.247 699.214L5.37084 774.304C-5.47505 772.426 -16.4279 770.572 -27.4873 768.731L259.651 691.42ZM-154.353 192.075C-150.275 188.424 -145.984 184.768 -141.5 181.111L284.247 295.745C275.878 298.297 267.679 300.9 259.651 303.539L-154.353 192.075ZM-176.359 213.39C-172.857 209.689 -169.185 205.969 -165.32 202.244L254.039 305.402C246.076 308.06 238.304 310.763 230.682 313.509L-176.359 213.39ZM230.679 681.449C238.3 684.195 246.072 686.897 254.036 689.555L-51.6163 764.745C-62.8462 762.898 -74.1392 761.063 -85.4972 759.222L230.679 681.449ZM200.77 670.128C207.922 672.98 215.245 675.794 222.76 678.565L-116.879 754.129C-128.365 752.263 -139.897 750.384 -151.426 748.487L200.77 670.128ZM-196.496 236.441C-193.507 232.722 -190.391 228.978 -187.082 225.209L222.757 316.392C215.242 319.162 207.919 321.977 200.767 324.828L-196.496 236.441ZM170.324 657.306C176.942 660.269 183.752 663.19 190.754 666.073L-190.816 741.911C-202.367 739.952 -213.875 737.967 -225.34 735.939L170.324 657.306ZM-214.942 261.084C-212.337 257.383 -209.668 253.639 -206.85 249.857L190.754 328.885C183.752 331.767 176.939 334.688 170.321 337.652L-214.942 261.084ZM139.859 642.816C145.879 645.88 152.112 648.913 158.517 651.914L-272.672 727.279C-283.881 725.151 -294.982 722.973 -305.977 720.739L139.859 642.816ZM-232.407 287.081C-230.016 283.456 -227.603 279.755 -225.083 275.999L158.517 343.038L158.517 343.045C152.112 346.046 145.878 349.078 139.836 352.142L-232.407 287.081ZM110.114 626.515C115.473 629.692 121.025 632.837 126.768 635.945L-359.462 709.156C-369.774 706.772 -379.917 704.319 -389.866 701.798L110.114 626.515ZM-250.579 314.133C-248.081 310.633 -245.602 307.026 -243.104 303.326L126.765 359.013C121.022 362.121 115.473 365.267 110.114 368.443L-250.579 314.133ZM82.0387 608.32C86.6075 611.596 91.4115 614.841 96.4286 618.055L-445.206 686.361C-453.981 683.665 -462.499 680.895 -470.783 678.037L82.0387 608.32ZM-273.615 341.791C-270.263 338.527 -267.058 335.076 -263.962 331.457L96.4286 376.905C91.4116 380.119 86.6075 383.364 82.0387 386.64L-273.615 341.791ZM-315.437 369.024C-308.476 365.798 -302.283 362.677 -297.052 359.657L68.6137 396.737C64.4291 400.051 60.458 403.39 56.7004 406.759L-315.437 369.024ZM56.6972 588.2C60.4548 591.569 64.4259 594.908 68.6105 598.222L-521.575 658.072C-528.236 655.065 -534.642 651.976 -540.812 648.793L56.6972 588.2ZM35.4082 566.246C38.2478 569.691 41.3019 573.117 44.5683 576.511L-580.63 624.299C-584.986 621.048 -589.131 617.71 -593.016 614.29L35.4082 566.246ZM-383.417 396.694C-375.261 393.561 -367.34 390.516 -359.761 387.539L44.5683 418.447C41.3018 421.842 38.251 425.268 35.4114 428.713L-383.417 396.694ZM19.4391 542.671C21.2965 546.172 23.3655 549.654 25.6498 553.117L-617.805 586.079C-619.983 582.541 -621.753 579.046 -623.141 575.583L19.4391 542.671ZM-462.436 427.606C-454.537 424.355 -446.616 421.167 -438.738 418.053L25.6498 441.841C23.3654 445.304 21.2965 448.787 19.4391 452.288L-462.436 427.606ZM-626 544.845C-625.189 541.213 -623.992 537.631 -622.433 534.099L9.94126 517.818C10.7739 521.362 11.8187 524.888 13.0997 528.389L-626 544.845ZM-539.233 463.009C-532.785 459.564 -526.125 456.182 -519.314 452.863L13.0997 466.572C11.8187 470.073 10.7707 473.599 9.93803 477.143L-539.233 463.009ZM-598.413 502.784C-594.506 499.189 -590.259 495.657 -585.69 492.175L7.71873 492.175C7.61204 493.941 7.54832 495.707 7.54826 497.479C7.54826 499.251 7.61198 501.018 7.71873 502.784L-598.413 502.784Z" fill="url(#paint0_radial_12439_3840)" fill-opacity="0.1"/>
<defs>
<radialGradient id="paint0_radial_12439_3840" cx="0" cy="0" r="1" gradientTransform="matrix(-1679.7 107.426 -381.992 -503.296 941.722 501)" gradientUnits="userSpaceOnUse">
<stop offset="0.585652" stop-color="#FCF8EF" stop-opacity="0"/>
<stop offset="0.751632" stop-color="#FCF8EF" stop-opacity="0.293378"/>
<stop offset="0.882295" stop-color="#FCF8EF" stop-opacity="0.483324"/>
<stop offset="1" stop-color="#FCF8EF"/>
</radialGradient>
</defs>
</svg>
