<svg width="377" height="107" viewBox="0 0 377 107" fill="none" xmlns="http://www.w3.org/2000/svg">
<path d="M239.993 422C238.229 422.003 236.488 421.933 234.767 421.798L208.624 323.901C210.25 323.517 211.867 323.105 213.47 322.664L239.993 422ZM259.114 419.339C257.459 419.787 255.83 420.173 254.224 420.502L218.987 321.025C220.578 320.517 222.154 319.98 223.718 319.415L259.114 419.339ZM219.158 418.725C217.344 418.157 215.538 417.522 213.735 416.824L197.495 326.059C199.148 325.808 200.791 325.529 202.426 325.22L219.158 418.725ZM275.94 412.949C274.482 413.693 272.977 414.403 271.425 415.075L228.485 317.6C230.031 316.979 231.566 316.333 233.083 315.655L275.94 412.949ZM198.169 409.388C196.411 408.41 194.646 407.389 192.864 406.33L185.762 327.343C187.435 327.23 189.099 327.089 190.752 326.916L198.169 409.388ZM289.945 403.612C288.666 404.7 287.344 405.75 285.968 406.763L237.074 313.806C238.574 313.082 240.059 312.332 241.526 311.556L289.945 403.612ZM178.666 397.39C177.016 396.314 175.349 395.217 173.658 394.1V327.643C174.492 327.658 175.325 327.667 176.162 327.667C176.999 327.667 177.832 327.658 178.666 327.643V397.39ZM300.859 392.101C299.787 393.492 298.671 394.848 297.507 396.166L244.769 309.787C246.216 308.973 247.647 308.131 249.064 307.265L300.859 392.101ZM161.572 326.916C163.225 327.089 164.889 327.23 166.562 327.343L161.289 385.981C159.728 384.969 158.143 383.947 156.535 382.92L161.572 326.916ZM308.999 379.609C308.115 381.216 307.193 382.794 306.227 384.34L251.61 305.67C253.009 304.776 254.387 303.856 255.748 302.909L308.999 379.609ZM149.897 325.22C151.532 325.529 153.175 325.808 154.828 326.059L145.844 376.27C144.335 375.358 142.804 374.443 141.251 373.534L149.897 325.22ZM315.002 367.239C314.263 368.97 313.494 370.678 312.695 372.366L257.663 301.555C259.009 300.589 260.338 299.599 261.646 298.583L315.002 367.239ZM138.854 322.664C140.456 323.105 142.073 323.517 143.699 323.901L131.869 368.2C130.384 367.384 128.876 366.57 127.348 365.759L138.854 322.664ZM128.605 319.415C130.17 319.98 131.746 320.517 133.336 321.025L119.002 361.492C117.515 360.756 116.006 360.023 114.477 359.299L128.605 319.415ZM319.533 355.687V355.69C318.893 357.473 318.234 359.239 317.55 360.993L263.006 297.513C264.303 296.483 265.578 295.433 266.833 294.357L319.533 355.687ZM119.244 315.655C120.761 316.333 122.296 316.982 123.842 317.602L106.998 355.831C105.446 355.118 103.932 354.426 102.459 353.757L119.244 315.655ZM110.798 311.556C112.265 312.332 113.75 313.082 115.249 313.806L95.813 350.759C94.2459 350.055 92.7259 349.38 91.2471 348.725L110.798 311.556ZM323.113 345.266C322.527 347.052 321.932 348.832 321.325 350.601L267.713 293.598C268.959 292.514 270.187 291.406 271.392 290.275L323.113 345.266ZM103.26 307.269C104.676 308.131 106.108 308.974 107.555 309.79L85.3613 346.14C83.7765 345.448 82.2385 344.781 80.7479 344.138L103.26 307.269ZM96.5769 302.909C97.9379 303.856 99.3167 304.776 100.716 305.67L75.5532 341.914C73.9448 341.23 72.3864 340.569 70.8723 339.932L96.5769 302.909ZM326.083 336.01C325.524 337.776 324.964 339.539 324.398 341.296L271.858 289.836C273.06 288.702 274.241 287.545 275.399 286.368L326.083 336.01ZM90.6791 298.583C91.987 299.599 93.3156 300.589 94.6618 301.555L66.3207 338.021C64.6975 337.34 63.1183 336.679 61.5718 336.033L90.6791 298.583ZM85.491 294.357C86.7459 295.433 88.0217 296.483 89.3178 297.513L57.6362 334.386C56.0161 333.705 54.4223 333.033 52.8345 332.361L85.491 294.357ZM328.891 327.104C328.343 328.832 327.799 330.563 327.254 332.294L275.847 285.912C277.002 284.732 278.133 283.529 279.24 282.309L328.891 327.104ZM80.9314 290.275C82.1362 291.406 83.3647 292.514 84.6107 293.598L49.4972 330.932C47.8918 330.246 46.2863 329.548 44.6662 328.832L80.9314 290.275ZM76.9251 286.369C78.0828 287.546 79.264 288.703 80.4659 289.837L41.9027 327.606C40.3179 326.9 38.7095 326.169 37.0628 325.411L76.9251 286.369ZM73.0833 282.309C74.1909 283.529 75.3223 284.732 76.477 285.912L34.1843 324.071C32.6143 323.336 31.0028 322.568 29.3444 321.769L73.0833 282.309ZM331.911 317.817C331.348 319.493 330.797 321.172 330.255 322.857L280.015 281.446C281.114 280.217 282.186 278.968 283.238 277.698L331.911 317.817ZM69.0864 277.698C70.138 278.968 71.2104 280.217 72.3091 281.446L25.6038 319.946C24.0397 319.173 22.4285 318.371 20.7613 317.531L69.0864 277.698ZM64.9602 272.464C65.947 273.782 66.9574 275.084 67.9942 276.364L16.0191 315.115C14.8585 314.518 13.6744 313.904 12.4579 313.269C12.022 313.041 11.5889 312.813 11.153 312.579L64.9602 272.464ZM335.278 308.186C334.683 309.799 334.102 311.42 333.537 313.05L284.331 276.365C285.368 275.084 286.378 273.783 287.365 272.464L335.278 308.186ZM60.7586 266.535C61.6718 267.906 62.6118 269.256 63.578 270.589L5.39017 309.342H5.38707C3.83765 308.428 2.29401 307.481 0.756378 306.498L60.7586 266.535ZM339.201 298.26C338.544 299.801 337.908 301.353 337.289 302.92L288.746 270.589C289.712 269.256 290.652 267.906 291.566 266.535L339.201 298.26ZM56.5552 259.836C57.3859 261.253 58.2465 262.655 59.1272 264.043L-5.81213 302.075C-7.26436 301.045 -8.70503 299.986 -10.1337 298.896L56.5552 259.836ZM52.4512 252.3C53.1906 253.768 53.9565 255.222 54.7488 256.659L-17.3631 293.044C-18.6975 291.893 -20.0144 290.719 -21.3165 289.518L52.4512 252.3ZM343.976 288.071C343.218 289.53 342.491 291.008 341.787 292.502L293.197 264.043C294.077 262.655 294.937 261.253 295.768 259.836L343.976 288.071ZM48.5783 243.887C49.2086 245.401 49.8714 246.902 50.5636 248.388L-28.9305 281.983C-30.1206 280.719 -31.2874 279.429 -32.4304 278.119L48.5783 243.887ZM350.057 277.621C349.869 277.912 349.68 278.203 349.492 278.495C348.788 279.588 348.101 280.693 347.435 281.816L297.575 256.66C298.368 255.223 299.134 253.769 299.873 252.3L350.057 277.621ZM357.326 266.529C356.41 267.909 355.491 269.299 354.566 270.705L301.76 248.388C302.452 246.902 303.115 245.401 303.745 243.887L357.326 266.529ZM45.0815 234.585C45.5999 236.143 46.1479 237.687 46.7253 239.219L-39.9805 268.682C-40.9879 267.306 -41.9691 265.907 -42.9176 264.487L45.0815 234.585ZM365.477 254.375C364.537 255.768 363.588 257.176 362.631 258.599L305.598 239.219C306.176 237.687 306.723 236.143 307.242 234.585L365.477 254.375ZM42.1448 224.435C42.5366 226.028 42.9577 227.612 43.4084 229.181L-49.7428 253.042C-50.5205 251.562 -51.2688 250.064 -51.9787 248.547L42.1448 224.435ZM374.541 240.924C373.584 242.352 372.618 243.794 371.64 245.249L308.916 229.181C309.366 227.612 309.788 226.028 310.179 224.435L374.541 240.924ZM39.9414 213.535C40.1976 215.153 40.4838 216.763 40.799 218.365L-57.2512 235.197C-57.7549 233.633 -58.2233 232.055 -58.6533 230.459L39.9414 213.535ZM384.375 225.892C383.435 227.375 382.477 228.87 381.499 230.376L311.526 218.365C311.841 216.763 312.127 215.153 312.383 213.535L384.375 225.892ZM38.6302 202.044C38.7451 203.683 38.8896 205.313 39.0664 206.932L-61.5345 215.61C-61.7289 213.994 -61.8851 212.367 -62 210.725L38.6302 202.044ZM394.417 209.009C393.563 210.567 392.682 212.133 391.777 213.706L313.258 206.932C313.435 205.313 313.579 203.683 313.694 202.044L394.417 209.009ZM38.3238 190.189C38.309 191.005 38.2998 191.822 38.2998 192.641C38.2998 193.46 38.309 194.277 38.3238 195.094H-61.9267C-61.8 193.469 -61.6319 191.833 -61.4257 190.189H38.3238ZM403.372 190.189C402.727 191.825 402.043 193.461 401.322 195.094H314C314.015 194.277 314.024 193.46 314.024 192.641C314.024 191.822 314.015 191.005 314 190.189H403.372ZM409.302 170.064C408.984 171.749 408.621 173.422 408.218 175.084L313.694 183.238C313.579 181.599 313.435 179.969 313.258 178.35L409.302 170.064ZM39.0655 178.35C38.8888 179.968 38.7447 181.598 38.6298 183.237L-58.4037 174.867C-57.9766 173.275 -57.511 171.67 -57.0073 170.061L39.0655 178.35ZM40.7986 166.917C40.4834 168.518 40.1976 170.128 39.9414 171.746L-51.7046 156.016C-51.0271 154.484 -50.3169 152.947 -49.5687 151.403L40.7986 166.917ZM410.975 149.845C411.013 151.521 411.007 153.18 410.96 154.825L312.383 171.746C312.127 170.128 311.841 168.518 311.526 166.916L410.975 149.845ZM408.742 130.529C409.075 132.162 409.369 133.775 409.626 135.37L310.179 160.846C309.788 159.254 309.366 157.669 308.916 156.1L408.742 130.529ZM43.4093 156.1C42.9586 157.669 42.537 159.253 42.1452 160.846L-42.5601 139.147C-41.532 137.672 -40.4655 136.258 -39.3609 134.899L43.4093 156.1ZM46.7244 146.062C46.147 147.594 45.5991 149.138 45.0806 150.696L-30.0129 125.18C-28.5842 123.904 -27.1171 122.675 -25.6207 121.478L46.7244 146.062ZM403.804 112.693C404.334 114.219 404.847 115.777 405.339 117.361L307.242 150.696C306.723 149.138 306.176 147.594 305.598 146.062L403.804 112.693ZM50.5636 136.894C49.8714 138.379 49.2087 139.88 48.5783 141.395L-15.7277 114.219C-14.1223 113.117 -12.4993 112.029 -10.8585 110.936L50.5636 136.894ZM397.002 96.6449C397.736 98.0904 398.452 99.5678 399.141 101.08L303.745 141.394C303.115 139.88 302.452 138.379 301.76 136.893L397.002 96.6449ZM54.7488 128.622C53.9564 130.059 53.1906 131.513 52.4512 132.981L-2.35755 105.327C-0.802204 104.297 0.761864 103.249 2.33488 102.176L54.7488 128.622ZM388.638 82.6751C389.577 84.0167 390.497 85.393 391.395 86.8038L299.873 132.981C299.134 131.512 298.368 130.058 297.575 128.621L388.638 82.6751ZM59.1268 121.239C58.246 122.624 57.3888 124.026 56.5552 125.442L8.91049 97.5398C10.3333 96.5012 11.756 95.4337 13.1788 94.3287L59.1268 121.239ZM379.125 70.912C380.256 72.1296 381.369 73.3819 382.459 74.6686L295.768 125.442C294.935 124.025 294.077 122.623 293.197 121.238L379.125 70.912ZM368.945 61.2791C370.247 62.3639 371.531 63.4863 372.798 64.6432L291.566 118.746C290.652 117.376 289.712 116.025 288.746 114.692L368.945 61.2791ZM63.5776 114.692C62.6114 116.025 61.6713 117.375 60.7581 118.745L18.1124 90.3435C19.3997 89.2558 20.6869 88.1362 21.9653 86.9763L63.5776 114.692ZM67.9938 108.916C66.9569 110.197 65.9466 111.499 64.9598 112.817L25.6513 83.5092C26.2169 82.9582 26.7824 82.3927 27.348 81.8215C27.9548 81.207 28.5499 80.5808 29.1361 79.946L67.9938 108.916ZM358.573 53.5668C360.013 54.5218 361.442 55.5112 362.853 56.5354L287.365 112.817C286.378 111.498 285.368 110.197 284.331 108.916L358.573 53.5668ZM72.3087 103.835C71.2099 105.064 70.138 106.314 69.0864 107.583L31.8428 76.8879C32.9032 75.6386 33.9345 74.3548 34.9478 73.0392L72.3087 103.835ZM348.389 47.4762C349.939 48.31 351.477 49.1787 353.002 50.0788L283.238 107.583C282.186 106.314 281.114 105.064 280.015 103.835L348.389 47.4762ZM76.4779 99.3688C75.3232 100.549 74.1922 101.752 73.0846 102.972L36.9429 70.367C37.9121 69.0312 38.8665 67.6665 39.8032 66.2788L76.4779 99.3688ZM338.66 42.6956C340.289 43.4255 341.912 44.1814 343.523 44.9749L279.24 102.972C278.133 101.752 277.002 100.549 275.847 99.3688L338.66 42.6956ZM80.4659 95.4449C79.2641 96.5787 78.0828 97.7358 76.9251 98.9129L41.2991 64.0199C42.2153 62.6149 43.1194 61.1864 44.012 59.7409L80.4659 95.4449ZM329.542 38.9477C331.227 39.5824 332.912 40.2489 334.588 40.9414L275.399 98.9129C274.241 97.7358 273.06 96.5791 271.858 95.4453L329.542 38.9477ZM84.6111 91.6826C83.3651 92.7674 82.1366 93.8754 80.9318 95.0063L45.4852 57.3204C46.3719 55.8547 47.2469 54.3746 48.1159 52.8801L84.6111 91.6826ZM320.33 35.7361C322.053 36.2872 323.779 36.8671 325.506 37.473L271.392 95.0063C270.187 93.8754 268.959 92.7674 267.713 91.6826L320.33 35.7361ZM310.268 32.7623C312.015 33.2355 313.771 33.7318 315.53 34.254L266.833 90.9242C265.578 89.848 264.302 88.7978 263.006 87.7678L310.268 32.7623ZM89.3178 87.7674C88.0217 88.7974 86.7463 89.8476 85.4914 90.9238L49.9978 49.6194C50.8697 48.1019 51.7359 46.5758 52.6049 45.0409L89.3178 87.7674ZM94.6622 83.7257C93.316 84.6922 91.9874 85.6817 90.6795 86.6973L55.0091 40.8001C55.8899 39.2479 56.7767 37.6896 57.6722 36.1317L94.6622 83.7257ZM299.387 30.041C301.142 30.4449 302.91 30.866 304.689 31.3132L261.646 86.6969C260.338 85.6813 259.009 84.6917 257.663 83.7252L299.387 30.041ZM100.715 79.6114C99.3159 80.5057 97.9373 81.4259 96.5765 82.3722L60.7764 30.8086C61.7013 29.2477 62.6384 27.6925 63.5958 26.1432L100.715 79.6114ZM287.754 27.5484C289.501 27.9004 291.268 28.2611 293.053 28.6419L255.748 82.3722C254.387 81.4259 253.009 80.5053 251.61 79.6109L287.754 27.5484ZM107.555 75.4944C106.109 76.308 104.677 77.1503 103.26 78.0158L67.6837 19.747C68.6882 18.2323 69.7165 16.7321 70.771 15.2463L107.555 75.4944ZM275.482 25.1883C277.193 25.5114 278.94 25.8375 280.713 26.1779L249.067 78.0158H249.064C247.647 77.1503 246.215 76.3078 244.769 75.4914L275.482 25.1883ZM115.25 71.4749C113.75 72.1991 112.266 72.9493 110.799 73.7255L76.2389 8.01867C77.3642 6.62513 78.5221 5.2545 79.7122 3.91001L115.25 71.4749ZM262.711 22.7326C264.364 23.0701 266.067 23.4051 267.813 23.7427L241.526 73.725C240.059 72.9489 238.574 72.1991 237.074 71.4749L262.711 22.7326ZM123.839 67.6809C122.292 68.2983 120.761 68.9475 119.244 69.6255L86.9993 -3.56842C88.2718 -4.75415 89.5796 -5.9053 90.9287 -7.02468L123.839 67.6809ZM249.656 19.6197C251.196 20.0726 252.825 20.5057 254.534 20.924L233.08 69.6255C231.563 68.9475 230.031 68.2983 228.485 67.6809L249.656 19.6197ZM236.8 13.968C238.323 14.9086 239.796 15.7456 241.222 16.4524L223.718 65.8667C222.154 65.3012 220.578 64.7646 218.987 64.2568L236.8 13.968ZM133.337 64.2564C131.746 64.7642 130.17 65.3008 128.606 65.8663L100.353 -13.8885C101.773 -14.7887 103.231 -15.6543 104.733 -16.4881L133.337 64.2564ZM143.7 61.3795C142.074 61.7632 140.457 62.1759 138.855 62.6173L116.296 -21.869C117.831 -22.4575 119.406 -23.0177 121.021 -23.5428L143.7 61.3795ZM223.738 4.78146C225.217 5.8836 226.655 6.95401 228.06 7.97824L213.47 62.6173C211.867 62.1759 210.25 61.7637 208.624 61.3799L223.738 4.78146ZM154.829 59.2215C153.176 59.4725 151.533 59.7521 149.898 60.0608L134.338 -26.8925C136.008 -27.1868 137.658 -27.4261 139.293 -27.6136L154.829 59.2215ZM209.146 -5.89679C210.681 -4.82932 212.186 -3.75894 213.656 -2.69436L202.426 60.0608C200.791 59.7521 199.148 59.4725 197.495 59.2215L209.146 -5.89679ZM153.803 -28C155.517 -27.8904 157.208 -27.7286 158.875 -27.518L166.561 57.938C164.888 58.0505 163.223 58.1917 161.571 58.3648L153.803 -28ZM192.434 -16.2747C194.06 -15.4034 195.656 -14.5033 197.224 -13.583L190.752 58.3648C189.099 58.1917 187.435 58.0501 185.762 57.9376L192.434 -16.2747ZM173.658 -24.2721C175.355 -23.7441 177.022 -23.1701 178.666 -22.5526V57.6377C177.832 57.6232 176.999 57.6146 176.162 57.6146C175.325 57.6146 174.492 57.6232 173.658 57.6377V-24.2721Z" fill="url(#paint0_radial_12439_5025)" fill-opacity="0.25"/>
<defs>
<radialGradient id="paint0_radial_12439_5025" cx="0" cy="0" r="1" gradientTransform="matrix(-50.7111 -226.987 237.584 -51.6206 174.5 183.854)" gradientUnits="userSpaceOnUse">
<stop offset="0.585652" stop-color="#FCF8EF" stop-opacity="0"/>
<stop offset="0.751632" stop-color="#FCF8EF" stop-opacity="0.293378"/>
<stop offset="0.882295" stop-color="#FCF8EF" stop-opacity="0.483324"/>
<stop offset="1" stop-color="#FCF8EF"/>
</radialGradient>
</defs>
</svg>
