<svg width="40" height="40" viewBox="0 0 40 40" fill="none" xmlns="http://www.w3.org/2000/svg">
<path d="M31.9043 8.33313C34.9629 11.4455 36.6745 15.6361 36.6693 19.9998C36.672 22.1861 36.2432 24.3515 35.4075 26.3718C34.5718 28.3921 33.3457 30.2276 31.7993 31.7731M8.33595 31.9031C6.7505 30.353 5.49132 28.5012 4.63261 26.4569C3.7739 24.4126 3.33302 22.2171 3.33595 19.9998C3.33324 17.8079 3.76421 15.6372 4.60403 13.6126C5.44384 11.588 6.67592 9.74953 8.22929 8.20312M27.1443 13.4065C28.911 15.0981 30.0026 17.4148 30.0026 19.9698C30.0026 22.5565 28.886 24.8981 27.081 26.5931M13.0026 26.6665C11.1526 24.9648 10.0026 22.5931 10.0026 19.9698C10.0026 17.3781 11.1243 15.0298 12.9393 13.3331" stroke="#2B2B2D" stroke-width="2.5" stroke-linecap="round" stroke-linejoin="round"/>
<path d="M22.7652 17.4182C24.2585 18.5165 25.0052 19.0632 25.0052 19.9998C25.0052 20.9365 24.2585 21.4848 22.7652 22.5815C22.3757 22.8698 21.9765 23.145 21.5685 23.4065C21.2125 23.629 20.8495 23.8402 20.4802 24.0398C18.9902 24.8565 18.2469 25.2648 17.5785 24.8132C16.9102 24.3615 16.8502 23.4165 16.7285 21.5282C16.6952 20.9932 16.6719 20.4698 16.6719 19.9998C16.6719 19.5298 16.6935 19.0065 16.7285 18.4715C16.8485 16.5832 16.9102 15.6382 17.5785 15.1882C18.2452 14.7348 18.9902 15.1432 20.4785 15.9582C20.8669 16.1698 21.2402 16.3848 21.5685 16.5932C21.9452 16.8315 22.3535 17.1165 22.7652 17.4182Z" stroke="#2B2B2D" stroke-width="2.5"/>
</svg>
