<svg width="40" height="40" viewBox="0 0 40 40" fill="none" xmlns="http://www.w3.org/2000/svg">
<path d="M36.6693 18.3333V15C36.6693 10.2867 36.6693 7.92833 35.2043 6.465C33.7409 5 31.3826 5 26.6693 5H13.3359C8.6226 5 6.26427 5 4.80094 6.465C3.33594 7.92833 3.33594 10.2867 3.33594 15C3.33594 19.7133 3.33594 22.0717 4.80094 23.535C6.26427 25 8.6226 25 13.3359 25H18.3359M10.0026 13.3333V16.6667M25.0026 11.6667V18.3333M20.0026 14.1667V15.8333M30.0026 14.1667V15.8333M15.0026 11.6667V18.3333M29.0143 22.34C29.0928 22.142 29.2291 21.9722 29.4053 21.8526C29.5815 21.7329 29.7896 21.6689 30.0026 21.6689C30.2156 21.6689 30.4237 21.7329 30.5999 21.8526C30.7761 21.9722 30.9124 22.142 30.9909 22.34L31.0526 22.495C31.48 23.5787 32.1256 24.5629 32.9493 25.3866C33.7731 26.2103 34.7573 26.8559 35.8409 27.2833L35.9959 27.345C36.1939 27.4236 36.3637 27.5598 36.4834 27.736C36.603 27.9122 36.667 28.1203 36.667 28.3333C36.667 28.5463 36.603 28.7544 36.4834 28.9306C36.3637 29.1069 36.1939 29.2431 35.9959 29.3217L35.8409 29.3833C34.7573 29.8108 33.7731 30.4564 32.9493 31.2801C32.1256 32.1038 31.48 33.088 31.0526 34.1717L30.9909 34.3267C30.9124 34.5246 30.7761 34.6945 30.5999 34.8141C30.4237 34.9338 30.2156 34.9977 30.0026 34.9977C29.7896 34.9977 29.5815 34.9338 29.4053 34.8141C29.2291 34.6945 29.0928 34.5246 29.0143 34.3267L28.9526 34.1717C28.5252 33.088 27.8796 32.1038 27.0559 31.2801C26.2322 30.4564 25.2479 29.8108 24.1643 29.3833L24.0093 29.3217C23.8113 29.2431 23.6415 29.1069 23.5218 28.9306C23.4022 28.7544 23.3382 28.5463 23.3382 28.3333C23.3382 28.1203 23.4022 27.9122 23.5218 27.736C23.6415 27.5598 23.8113 27.4236 24.0093 27.345L24.1643 27.2833C25.2479 26.8559 26.2322 26.2103 27.0559 25.3866C27.8796 24.5629 28.5252 23.5787 28.9526 22.495L29.0143 22.34Z" stroke="#2B2B2D" stroke-width="2.5" stroke-linecap="round" stroke-linejoin="round"/>
</svg>
