<svg width="293" height="62" viewBox="0 0 293 62" fill="none" xmlns="http://www.w3.org/2000/svg">
<g clip-path="url(#clip0_12439_3517)">
<path d="M13.633 28.4352L0.672734 27.293C0.604782 27.5148 0.541995 27.7359 0.484375 27.9553L13.5741 29.1087C13.5896 28.8829 13.6091 28.6583 13.633 28.4352Z" fill="#C61A02"/>
<path d="M13.8692 26.8604L1.67873 24.7227C1.57779 24.9354 1.48202 25.1473 1.39062 25.3584L13.7536 27.526C13.7882 27.3029 13.8267 27.0811 13.8692 26.8604Z" fill="#C61A02"/>
<path d="M14.2222 25.3687L3.05656 22.4473C2.90754 22.6345 2.76369 22.8293 2.625 23.0325L14.0517 26.0227C14.1046 25.8032 14.1614 25.585 14.2222 25.3687Z" fill="#C61A02"/>
<path d="M14.6643 23.9854L4.905 20.5977C4.70313 20.7627 4.50523 20.932 4.3125 21.1077L14.4426 24.6239C14.5125 24.4092 14.5864 24.1965 14.6643 23.9854Z" fill="#C61A02"/>
<path d="M15.1849 22.7215L6.89906 19.1445C6.67772 19.2952 6.45876 19.4451 6.24219 19.597L14.917 23.3418C15.0021 23.133 15.0915 22.9263 15.1849 22.7215Z" fill="#C61A02"/>
<path d="M15.7505 21.5817L8.6799 17.9375C8.4677 18.0854 8.25669 18.2297 8.04688 18.3717L15.4406 22.1824C15.5403 21.9801 15.6436 21.7797 15.7505 21.5817Z" fill="#C61A02"/>
<path d="M16.3406 20.5656L10.1422 16.8574C9.95028 17.0097 9.75834 17.1568 9.56641 17.2999L15.9937 21.1449C16.1061 20.9497 16.2218 20.7565 16.3406 20.5656Z" fill="#C61A02"/>
<path d="M16.9379 19.6629L11.3245 15.8438C11.152 16.0036 10.9783 16.1578 10.8047 16.3077L16.5576 20.2215C16.6808 20.0326 16.8075 19.8466 16.9379 19.6629Z" fill="#C61A02"/>
<path d="M17.5362 18.8671L12.2943 14.875C12.2152 14.9625 12.135 15.0487 12.0531 15.1334C11.9768 15.2121 11.9005 15.2901 11.8242 15.366L17.1269 19.4046C17.26 19.2229 17.3963 19.0436 17.5362 18.8671Z" fill="#C61A02"/>
<path d="M18.119 18.1676L13.079 13.9238C12.9423 14.1051 12.8032 14.282 12.6602 14.4542L17.6843 18.684C17.8261 18.5091 17.9708 18.3369 18.119 18.1676Z" fill="#C61A02"/>
<path d="M18.6809 17.552L13.7335 12.9922C13.6071 13.1834 13.4784 13.3715 13.3477 13.5556L18.2231 18.0486C18.3726 17.8804 18.5251 17.7146 18.6809 17.552Z" fill="#C61A02"/>
<path d="M13.5323 30.4043C13.5323 30.2914 13.5334 30.1789 13.5354 30.0664H0.0792737C0.051457 30.293 0.0288062 30.5185 0.0117188 30.7423H13.5354C13.5334 30.6298 13.5323 30.5173 13.5323 30.4043Z" fill="#C61A02"/>
<path d="M13.575 31.6992L0 32.8955C0.0154979 33.1218 0.0365592 33.346 0.0627864 33.5686L13.6338 32.3727C13.6099 32.1497 13.5905 31.925 13.575 31.6992Z" fill="#C61A02"/>
<path d="M13.7535 33.2832L0.453125 35.6154C0.511143 35.8353 0.574327 36.0527 0.642279 36.2682L13.8692 33.9488C13.8266 33.7281 13.7881 33.5062 13.7535 33.2832Z" fill="#C61A02"/>
<path d="M14.0487 34.7852L1.35156 38.1077C1.44733 38.3168 1.54827 38.5232 1.65318 38.7271L14.2192 35.4392C14.1584 35.2229 14.1016 35.0046 14.0487 34.7852Z" fill="#C61A02"/>
<path d="M14.4452 36.1836L2.57422 40.3041C2.70218 40.4997 2.8345 40.6925 2.97041 40.8822L14.667 36.8221C14.5891 36.611 14.5152 36.3983 14.4452 36.1836Z" fill="#C61A02"/>
<path d="M14.9163 37.4668L3.98828 42.1841C4.14247 42.3646 4.29983 42.5423 4.46037 42.7164L15.1841 38.087C15.0907 37.8823 15.0013 37.6755 14.9163 37.4668Z" fill="#C61A02"/>
<path d="M15.4395 38.625L5.48828 43.7538C5.66392 43.9192 5.84155 44.081 6.02157 44.2396L15.7495 39.2257C15.6426 39.0277 15.5393 38.8274 15.4395 38.625Z" fill="#C61A02"/>
<path d="M15.9924 39.6641L6.99609 45.0465C7.18882 45.1968 7.38314 45.3427 7.57905 45.4846L16.3393 40.2437C16.2205 40.0525 16.1045 39.8593 15.9924 39.6641Z" fill="#C61A02"/>
<path d="M16.5591 40.5879L8.46484 46.0947C8.67228 46.2303 8.88051 46.3607 9.08953 46.4868H9.08993L16.9394 41.1465C16.8091 40.9628 16.6823 40.7767 16.5591 40.5879Z" fill="#C61A02"/>
<path d="M17.1258 41.4043L9.86719 46.9322C9.926 46.9644 9.98441 46.9958 10.0432 47.0272C10.2073 47.1147 10.3671 47.1994 10.5237 47.2817L17.5351 41.9418C17.3952 41.7653 17.2589 41.586 17.1258 41.4043Z" fill="#C61A02"/>
<path d="M17.6831 42.125L11.1641 47.614C11.389 47.7297 11.6063 47.8402 11.8174 47.9467L18.1179 42.6415C17.9696 42.4721 17.825 42.2999 17.6831 42.125Z" fill="#C61A02"/>
<path d="M18.2246 42.7598L12.3242 48.1974C12.5479 48.3076 12.7653 48.4133 12.9771 48.5147L18.6823 43.2563C18.5266 43.0937 18.374 42.9279 18.2246 42.7598Z" fill="#C61A02"/>
<path d="M50.6799 29.1083L63.4311 27.9848C63.4856 27.7558 63.5344 27.5252 63.5773 27.293L50.6211 28.4348C50.6449 28.6579 50.6644 28.8825 50.6799 29.1083Z" fill="#C61A02"/>
<path d="M63.8063 24.5078L50.3906 26.8603C50.4331 27.0809 50.4717 27.3028 50.5063 27.5258L63.8043 25.194C63.8106 24.9674 63.8114 24.7388 63.8063 24.5078Z" fill="#C61A02"/>
<path d="M50.2095 26.0235L63.6248 22.5128C63.5902 22.293 63.5505 22.0707 63.5056 21.8457L50.0391 25.3694C50.0999 25.5857 50.1567 25.804 50.2095 26.0235Z" fill="#C61A02"/>
<path d="M49.8116 24.6236L63.0448 20.03C62.9784 19.8117 62.9093 19.597 62.8378 19.3867L49.5898 23.9851C49.6677 24.1962 49.7416 24.4089 49.8116 24.6236Z" fill="#C61A02"/>
<path d="M49.3381 23.3422L62.207 17.7869C62.114 17.5785 62.0174 17.375 61.9185 17.1758L49.0703 22.722C49.1637 22.9268 49.2531 23.1335 49.3381 23.3422Z" fill="#C61A02"/>
<path d="M48.8178 22.1822L61.164 15.8189C61.0428 15.6245 60.9189 15.4349 60.7921 15.25L48.5078 21.5814C48.6147 21.7794 48.718 21.9798 48.8178 22.1822Z" fill="#C61A02"/>
<path d="M48.261 21.1431L59.9555 14.1466C59.8085 13.9692 59.6583 13.7967 59.5057 13.6289L47.9141 20.5639C48.0329 20.7547 48.1485 20.9479 48.261 21.1431Z" fill="#C61A02"/>
<path d="M47.6967 20.2217L58.6549 12.7663C58.484 12.6069 58.3108 12.4522 58.1351 12.3027L47.3164 19.6631C47.4467 19.8468 47.5735 20.0328 47.6967 20.2217Z" fill="#C61A02"/>
<path d="M47.1281 19.4049L57.3114 11.6493C57.121 11.5082 56.9283 11.3718 56.734 11.2402L46.7188 18.8674C46.8586 19.0439 46.9949 19.2232 47.1281 19.4049Z" fill="#C61A02"/>
<path d="M46.5715 18.6831L55.9827 10.759C55.7768 10.635 55.5694 10.5153 55.3604 10.4004L46.1367 18.1667C46.2849 18.3361 46.4296 18.5082 46.5715 18.6831Z" fill="#C61A02"/>
<path d="M46.0359 18.0484L54.7076 10.0563C54.4902 9.94694 54.2713 9.84277 54.0515 9.74219L45.5781 17.5518C45.7339 17.7144 45.8865 17.8802 46.0359 18.0484Z" fill="#C61A02"/>
<path d="M50.7258 30.4043C50.7258 30.5173 50.7246 30.6298 50.7227 30.7423H62.5023C62.5996 30.5173 62.6918 30.2918 62.7788 30.0664H50.7227C50.7246 30.1789 50.7258 30.2914 50.7258 30.4043Z" fill="#C61A02"/>
<path d="M50.6211 32.3727L61.2133 33.3062C61.3353 33.0895 61.4541 32.8737 61.5694 32.659L50.6799 31.6992C50.6644 31.925 50.6449 32.1497 50.6211 32.3727Z" fill="#C61A02"/>
<path d="M50.3906 33.9488L59.83 35.6039C59.962 35.3963 60.0911 35.1904 60.2179 34.986L50.5063 33.2832C50.4717 33.5062 50.4331 33.7281 50.3906 33.9488Z" fill="#C61A02"/>
<path d="M50.0391 35.4392L58.5005 37.6533C58.6325 37.4529 58.7628 37.2541 58.8919 37.0573L50.2095 34.7852C50.1567 35.0046 50.0999 35.2229 50.0391 35.4392Z" fill="#C61A02"/>
<path d="M49.5898 36.8221L57.2836 39.4926C57.4127 39.2966 57.5407 39.1026 57.6674 38.9106L49.8116 36.1836C49.7416 36.3983 49.6677 36.611 49.5898 36.8221Z" fill="#C61A02"/>
<path d="M49.0703 38.087L56.1938 41.1623C56.3186 40.9687 56.4425 40.777 56.5661 40.587L49.3381 37.4668C49.2531 37.6755 49.1637 37.8823 49.0703 38.087Z" fill="#C61A02"/>
<path d="M48.5078 39.2257L55.2339 42.6922C55.3237 42.5376 55.4163 42.3853 55.5113 42.2346C55.5367 42.1945 55.5621 42.1543 55.5876 42.1141L48.8178 38.625C48.718 38.8274 48.6147 39.0277 48.5078 39.2257Z" fill="#C61A02"/>
<path d="M47.9141 40.2437L54.4689 44.1654C54.5639 43.9595 54.662 43.7559 54.7641 43.5548L48.261 39.6641C48.1489 39.8593 48.0329 40.0525 47.9141 40.2437Z" fill="#C61A02"/>
<path d="M47.3164 41.1465L53.8649 45.6017C53.9483 45.3859 54.0341 45.172 54.1228 44.9597L47.6967 40.5879C47.5735 40.7767 47.4467 40.9628 47.3164 41.1465Z" fill="#C61A02"/>
<path d="M46.7188 41.9418L53.3566 46.997C53.4329 46.7724 53.5112 46.549 53.5915 46.3267L47.1281 41.4043C46.9949 41.586 46.8586 41.7653 46.7188 41.9418Z" fill="#C61A02"/>
<path d="M46.1367 42.6415L52.9141 48.3479C52.9872 48.1157 53.0615 47.8843 53.1374 47.6533L46.5715 42.125C46.4296 42.2999 46.2849 42.4721 46.1367 42.6415Z" fill="#C61A02"/>
<path d="M45.5781 43.2583L52.5128 49.6498C52.5864 49.4112 52.6599 49.1727 52.7338 48.9345L46.0359 42.7617C45.8865 42.9299 45.7339 43.0957 45.5781 43.2583Z" fill="#C61A02"/>
<path d="M31.7891 11.8009C31.9015 11.7989 32.014 11.7977 32.1268 11.7977C32.2397 11.7977 32.3522 11.7989 32.4646 11.8009V0.750628C32.2429 0.665547 32.018 0.586429 31.7891 0.513672V11.8009Z" fill="#C61A02"/>
<path d="M29.1094 0L30.1573 11.9011C30.3802 11.8773 30.6047 11.8578 30.8304 11.8423L29.7937 0.0663956C29.5687 0.0373724 29.3407 0.015108 29.1094 0Z" fill="#C61A02"/>
<path d="M26.4844 0.152129L28.5833 12.1343C28.8039 12.0918 29.0256 12.0532 29.2486 12.0186L27.1528 0.0527344C26.9322 0.078577 26.7097 0.111576 26.4844 0.152129Z" fill="#C61A02"/>
<path d="M27.7476 12.3156L24.6882 0.613281C24.4704 0.68564 24.2578 0.762771 24.0508 0.843877L27.0939 12.4862C27.3101 12.4253 27.5283 12.3685 27.7476 12.3156Z" fill="#C61A02"/>
<path d="M26.3479 12.7126L22.4893 1.58594C22.2867 1.70084 22.09 1.82011 21.8984 1.94416L25.7097 12.9344C25.9207 12.8565 26.1333 12.7825 26.3479 12.7126Z" fill="#C61A02"/>
<path d="M25.0712 13.1851L20.6317 2.89062C20.4497 3.04489 20.2732 3.20352 20.1016 3.36692L24.4513 13.4531C24.656 13.3597 24.8626 13.2702 25.0712 13.1851Z" fill="#C61A02"/>
<path d="M23.911 13.7089L19.117 4.39844C18.9564 4.58371 18.8002 4.77256 18.6484 4.96459L23.3105 14.019C23.5084 13.9121 23.7087 13.8087 23.911 13.7089Z" fill="#C61A02"/>
<path d="M22.8708 14.2612L17.9086 5.95898C17.7664 6.16374 17.6277 6.37048 17.4922 6.57921L22.2914 14.6087C22.4825 14.4894 22.6756 14.3733 22.8708 14.2612Z" fill="#C61A02"/>
<path d="M21.9502 14.8289L16.9428 7.46094C16.8136 7.67444 16.6873 7.88873 16.5625 8.10382L21.3919 15.2093C21.5755 15.0789 21.7615 14.9521 21.9502 14.8289Z" fill="#C61A02"/>
<path d="M21.1343 15.3963L16.1444 8.83789C16.0236 9.05258 15.904 9.26728 15.7852 9.48117L20.5971 15.8058C20.7735 15.6659 20.9527 15.5295 21.1343 15.3963Z" fill="#C61A02"/>
<path d="M20.4136 15.9522L15.4611 10.0645C15.3438 10.276 15.227 10.4863 15.1094 10.6954L19.8974 16.3871C20.0667 16.2388 20.2388 16.0941 20.4136 15.9522Z" fill="#C61A02"/>
<path d="M19.778 16.4916L14.8549 11.1445C14.7376 11.3505 14.6196 11.5544 14.5 11.7564L19.2817 16.9496C19.4442 16.7937 19.6099 16.6411 19.778 16.4916Z" fill="#C61A02"/>
<path d="M19.2211 17.0099L14.3035 12.0898C14.1831 12.289 14.0611 12.4858 13.9375 12.6795L18.7434 17.4878C18.8996 17.3256 19.059 17.1661 19.2211 17.0099Z" fill="#C61A02"/>
<path d="M33.4219 48.967L34.38 59.8515C34.6204 59.9975 34.8584 60.1382 35.0956 60.273L34.095 48.9082C33.8721 48.9321 33.6476 48.9515 33.4219 48.967Z" fill="#C61A02"/>
<path d="M35.0039 48.7895L37.1947 61.2969C37.4379 61.3932 37.6815 61.4806 37.9263 61.5589L35.6691 48.6738C35.4486 48.7164 35.2268 48.7549 35.0039 48.7895Z" fill="#C61A02"/>
<path d="M36.5078 48.4928L40.0346 61.9831C40.2667 62.0017 40.5015 62.0113 40.7395 62.0109L37.1615 48.3223C36.9453 48.3831 36.7272 48.4399 36.5078 48.4928Z" fill="#C61A02"/>
<path d="M37.9062 48.0968L42.6597 61.8049C42.8763 61.7596 43.0961 61.7063 43.3194 61.6447L38.5444 47.875C38.3334 47.9529 38.1208 48.0269 37.9062 48.0968Z" fill="#C61A02"/>
<path d="M39.1875 47.6234L44.9801 61.0556C45.1896 60.963 45.3926 60.8652 45.5893 60.7626L39.8078 47.3555C39.6032 47.4489 39.3961 47.538 39.1875 47.6234Z" fill="#C61A02"/>
<path d="M40.3438 47.1011L46.9395 59.9107C47.1251 59.7711 47.3035 59.6264 47.476 59.4765L40.9442 46.791C40.7463 46.898 40.546 47.0013 40.3438 47.1011Z" fill="#C61A02"/>
<path d="M41.3828 46.5467L48.4971 58.4498C48.6541 58.2681 48.8047 58.0812 48.9494 57.8896L41.9622 46.1992C41.7711 46.3185 41.5779 46.4346 41.3828 46.5467Z" fill="#C61A02"/>
<path d="M42.3047 45.9801L49.6726 56.8209C49.8029 56.6078 49.9273 56.3903 50.0465 56.1688L42.863 45.5996C42.6794 45.73 42.4934 45.8568 42.3047 45.9801Z" fill="#C61A02"/>
<path d="M43.125 45.4134L50.5489 55.1712C50.6566 54.9386 50.7603 54.7032 50.86 54.4647L43.6623 45.0039C43.4858 45.1439 43.3066 45.2802 43.125 45.4134Z" fill="#C61A02"/>
<path d="M43.8438 44.8568L51.2017 53.6043C51.2939 53.3626 51.3829 53.1193 51.4691 52.8736V52.8732L44.3599 44.4219C44.1907 44.5702 44.0186 44.7149 43.8438 44.8568Z" fill="#C61A02"/>
<path d="M44.4766 44.3174L51.7089 52.1723C51.7908 51.9286 51.871 51.6833 51.9501 51.4372L44.9729 43.8594C44.8104 44.0152 44.6447 44.1679 44.4766 44.3174Z" fill="#C61A02"/>
<path d="M45.0391 43.7982L52.1268 50.8894C52.2031 50.6473 52.2786 50.4044 52.3541 50.161L45.5167 43.3203C45.3605 43.4825 45.2012 43.642 45.0391 43.7982Z" fill="#C61A02"/>
<path d="M31.7891 49.0078V58.1656C32.0172 58.3195 32.2421 58.4706 32.4646 58.6189V49.0078C32.3522 49.0098 32.2397 49.011 32.1268 49.011C32.014 49.011 31.9015 49.0098 31.7891 49.0078Z" fill="#C61A02"/>
<path d="M29.4805 56.6256C29.6974 56.7671 29.9112 56.9079 30.1218 57.0474L30.8332 48.967C30.6074 48.9515 30.3829 48.9321 30.16 48.9082L29.4805 56.6256Z" fill="#C61A02"/>
<path d="M27.418 55.3317C27.6274 55.4569 27.834 55.5829 28.0375 55.7086L29.2495 48.7895C29.0266 48.7549 28.8048 48.7164 28.5843 48.6738L27.418 55.3317Z" fill="#C61A02"/>
<path d="M27.0951 48.3203L25.543 54.2589C25.7492 54.3707 25.9527 54.4828 26.1529 54.5953L27.7488 48.4909C27.5295 48.438 27.3113 48.3811 27.0951 48.3203Z" fill="#C61A02"/>
<path d="M25.7105 47.873L23.8047 53.3692C24.0109 53.469 24.2144 53.5699 24.4151 53.6713L26.3487 48.0949C26.1341 48.0249 25.9215 47.951 25.7105 47.873Z" fill="#C61A02"/>
<path d="M24.4518 47.3555L22.1875 52.6059C22.3862 52.6981 22.5904 52.7935 22.7999 52.8917L25.0721 47.6238C24.8635 47.5384 24.6564 47.4489 24.4518 47.3555Z" fill="#C61A02"/>
<path d="M23.3093 46.791L20.6719 51.913C20.8714 52.0033 21.0764 52.0963 21.2878 52.1933L23.9097 47.1011C23.7075 47.0013 23.5072 46.898 23.3093 46.791Z" fill="#C61A02"/>
<path d="M22.2946 46.1992L19.2578 51.2799C19.4589 51.3685 19.6663 51.4604 19.8801 51.5558L22.874 46.5467C22.6789 46.4342 22.4857 46.3181 22.2946 46.1992Z" fill="#C61A02"/>
<path d="M21.3894 45.5996L17.9219 50.7013C18.1261 50.7892 18.3363 50.8802 18.5533 50.9745L21.9478 45.9801C21.759 45.8568 21.573 45.73 21.3894 45.5996Z" fill="#C61A02"/>
<path d="M20.5984 45.0039L16.6719 50.1645C16.8805 50.2535 17.0935 50.3446 17.3125 50.4384L21.1357 45.4134C20.9541 45.2802 20.7748 45.1439 20.5984 45.0039Z" fill="#C61A02"/>
<path d="M19.8976 44.4219L15.4922 49.6588C15.7064 49.7514 15.9214 49.844 16.1399 49.9379L20.4138 44.8568C20.2389 44.7149 20.0669 44.5702 19.8976 44.4219Z" fill="#C61A02"/>
<path d="M19.2828 43.8594L14.3906 49.1726C14.6092 49.2712 14.8258 49.3674 15.0423 49.462L19.7791 44.3174C19.611 44.1679 19.4453 44.0152 19.2828 43.8594Z" fill="#C61A02"/>
<path d="M18.7407 43.3203L13.3633 48.7003C13.5854 48.8049 13.8024 48.9055 14.0162 49.0029L19.2183 43.7982C19.0562 43.642 18.8968 43.4825 18.7407 43.3203Z" fill="#C61A02"/>
<path d="M34.9681 1.98617C34.7567 1.85935 34.5413 1.7353 34.3219 1.61523L33.4219 11.8417C33.6476 11.8572 33.8721 11.8767 34.095 11.9006L34.9681 1.98617Z" fill="#C61A02"/>
<path d="M37.1839 3.48623C36.9857 3.33953 36.7826 3.19203 36.5756 3.04492L35.0039 12.0183C35.2268 12.0528 35.4486 12.0914 35.6691 12.134L37.1839 3.48623Z" fill="#C61A02"/>
<path d="M37.1615 12.4874L39.1297 4.95809C38.9402 4.81695 38.7463 4.66945 38.5468 4.51758L36.5078 12.3169C36.7272 12.3697 36.9453 12.4266 37.1615 12.4874Z" fill="#C61A02"/>
<path d="M38.5444 12.9348L40.9057 6.12552C40.7134 6.02811 40.5147 5.91281 40.3092 5.7832L37.9062 12.713C38.1208 12.783 38.3334 12.8569 38.5444 12.9348Z" fill="#C61A02"/>
<path d="M39.8074 13.4533L42.7016 6.74221C42.4711 6.68456 42.2513 6.62492 42.0435 6.5625L39.1875 13.1854C39.3961 13.2704 39.6028 13.3599 39.8074 13.4533Z" fill="#C61A02"/>
<path d="M40.9442 14.019L44.4904 7.13134C44.2548 7.08482 44.0251 7.0387 43.8022 6.99219L40.3438 13.7089C40.546 13.8087 40.7463 13.912 40.9442 14.019Z" fill="#C61A02"/>
<path d="M41.9622 14.6078C41.9622 14.6078 41.9622 14.6078 41.9626 14.6078L46.2317 7.46449C45.9924 7.41758 45.7568 7.37265 45.5259 7.32812L41.3828 14.2599C41.5779 14.3724 41.7711 14.4885 41.9622 14.6078Z" fill="#C61A02"/>
<path d="M42.863 15.2091L47.8955 7.80498C47.6546 7.7525 47.4162 7.7028 47.1806 7.6543L42.3047 14.8286C42.4934 14.9518 42.6794 15.0787 42.863 15.2091Z" fill="#C61A02"/>
<path d="M43.6623 15.8053L49.4688 8.17338C49.2288 8.11175 48.9904 8.05371 48.7535 7.99805L43.125 15.3958C43.3066 15.529 43.4858 15.6653 43.6623 15.8053Z" fill="#C61A02"/>
<path d="M44.3599 16.3878L50.9291 8.57859C50.6918 8.50663 50.455 8.43825 50.2193 8.37305L43.8438 15.9529C44.0186 16.0948 44.1907 16.2395 44.3599 16.3878Z" fill="#C61A02"/>
<path d="M44.9729 16.9507L52.2728 9.02254C52.0399 8.93905 51.8071 8.85914 51.5746 8.7832L44.4766 16.4926C44.6447 16.6421 44.8104 16.7948 44.9729 16.9507Z" fill="#C61A02"/>
<path d="M45.5167 17.4879L53.5013 9.49934C53.2752 9.40392 53.0479 9.31208 52.8206 9.22461L45.0391 17.01C45.2012 17.1662 45.3605 17.3257 45.5167 17.4879Z" fill="#C61A02"/>
<path d="M32.1261 16.0918C24.2253 16.0918 17.8203 22.5 17.8203 30.4046C17.8203 38.3093 24.2253 44.7174 32.1261 44.7174C40.0268 44.7174 46.4318 38.3093 46.4318 30.4046C46.4318 22.5 40.0268 16.0918 32.1261 16.0918ZM38.3793 31.5862C37.7713 32.4859 36.9284 33.3968 35.8698 34.2913C34.0784 35.8077 32.2592 36.775 32.2409 36.7849L32.1257 36.845L32.0104 36.7849C31.9926 36.775 30.1741 35.8077 28.3815 34.2913C27.3233 33.3952 26.4789 32.4859 25.8725 31.5862C25.1019 30.444 24.7117 29.3141 24.7117 28.2267C24.7117 26.8801 25.1059 25.7653 25.8506 25.0059C26.5095 24.334 27.4207 23.9638 28.4149 23.9638C29.2939 23.9638 30.1638 24.2529 30.8703 24.7769C31.4295 25.1936 31.8555 25.7327 32.1253 26.3597C32.3955 25.7315 32.8215 25.1936 33.3806 24.7769C34.0844 24.2529 34.9558 23.9638 35.8333 23.9638C36.8287 23.9638 37.7399 24.334 38.3999 25.0059C39.1446 25.7653 39.5388 26.8789 39.5388 28.2267C39.5396 29.3153 39.1494 30.4452 38.3793 31.5862Z" fill="url(#paint0_radial_12439_3517)"/>
</g>
<g clip-path="url(#clip1_12439_3517)">
<path d="M92.1485 22.352C92.1558 22.352 92.1594 22.352 92.1667 22.352C95.3215 22.352 98.1488 24.4919 98.8911 27.4466C98.9602 27.7145 99.2186 27.8883 99.4951 27.8521L102.115 27.4864C102.268 27.4647 102.406 27.3814 102.49 27.251C102.577 27.1243 102.606 26.965 102.566 26.8165C101.435 22.2325 97.0644 18.9121 92.1776 18.9121C92.163 18.9121 92.1521 18.9121 92.1376 18.9121C85.5915 18.9375 80.8574 23.8546 80.8829 30.5967C80.8829 33.9243 82.0691 36.9333 84.2197 39.066C86.2755 41.1046 89.1101 42.2271 92.2031 42.2271C92.214 42.2271 92.2249 42.2271 92.2395 42.2271C97.1481 42.209 101.493 38.9972 102.577 34.5906C102.614 34.4458 102.588 34.2937 102.508 34.167C102.428 34.0402 102.297 33.9533 102.151 33.928L99.5825 33.4355C99.3023 33.3812 99.0294 33.5514 98.953 33.823C98.1415 36.6799 95.3106 38.7655 92.2176 38.78C92.2067 38.78 92.1994 38.78 92.1885 38.78C87.8475 38.78 84.6818 35.3365 84.6599 30.5859C84.6381 25.8316 87.7893 22.3664 92.1485 22.352Z" fill="#C61A02"/>
<path d="M117.256 26.7231C116.045 25.5246 114.418 24.8945 112.551 24.8945C112.54 24.8945 112.526 24.8945 112.515 24.8945C110.761 24.9018 109.222 25.5825 108.079 26.8317L108.076 26.0134C108.076 25.7129 107.832 25.4739 107.53 25.4739C107.53 25.4739 107.53 25.4739 107.526 25.4739L105.077 25.4811C104.932 25.4811 104.794 25.5391 104.692 25.6404C104.59 25.7454 104.535 25.883 104.535 26.0279L104.593 40.8917C104.593 41.1922 104.837 41.4312 105.139 41.4312H107.588C107.734 41.4312 107.872 41.3732 107.974 41.2718C108.076 41.1705 108.134 41.0292 108.134 40.888L108.101 32.2015C108.094 29.9964 109.931 28.2004 112.195 28.1932C112.198 28.1932 112.206 28.1932 112.209 28.1932C114.342 28.1932 115.721 29.6705 115.732 31.9589L115.764 40.8482C115.764 41.1487 116.008 41.3877 116.31 41.3877C116.31 41.3877 116.31 41.3877 116.314 41.3877L118.763 41.3805C118.908 41.3805 119.047 41.3225 119.148 41.2212C119.25 41.1198 119.308 40.9822 119.308 40.8373L119.276 31.948C119.268 29.8588 118.552 28.0049 117.256 26.7231Z" fill="#C61A02"/>
<path d="M129.396 24.793C129.385 24.793 129.37 24.793 129.36 24.793C124.418 24.8111 120.841 28.4211 120.859 33.3781C120.867 35.8222 121.736 38.0201 123.308 39.5699C124.844 41.0834 126.994 41.9162 129.367 41.9162C129.385 41.9162 129.403 41.9162 129.421 41.9162C134.363 41.8981 137.936 38.2772 137.922 33.3057C137.914 30.9014 137.052 28.7253 135.495 27.1791C133.944 25.6403 131.779 24.793 129.396 24.793ZM129.389 28.088C132.274 28.088 134.374 30.2895 134.392 33.3274C134.399 36.3907 132.311 38.6212 129.421 38.6284C129.411 38.6284 129.403 38.6284 129.392 38.6284C127.991 38.6284 126.729 38.1106 125.83 37.1692C124.92 36.2169 124.415 34.8663 124.407 33.3636C124.4 31.8211 124.924 30.4416 125.885 29.4784C126.787 28.5732 127.995 28.0916 129.374 28.088C129.378 28.088 129.381 28.088 129.389 28.088Z" fill="#C61A02"/>
<path d="M147.516 24.7227C147.505 24.7227 147.49 24.7227 147.479 24.7227C145.11 24.7299 142.964 25.5844 141.428 27.1197C139.896 28.655 139.059 30.7877 139.066 33.1268C139.081 35.6179 139.983 37.8701 141.606 39.4633C143.164 40.9913 145.303 41.8314 147.632 41.8314C147.654 41.8314 147.679 41.8314 147.701 41.8314C151.22 41.8205 154.076 40.1766 155.343 37.4284C155.466 37.1641 155.354 36.849 155.092 36.7151L153.05 35.694C152.785 35.56 152.457 35.665 152.319 35.933C151.493 37.537 149.728 38.5364 147.712 38.5436C147.701 38.5436 147.69 38.5436 147.676 38.5436C145.187 38.5436 143.327 37.0373 142.796 34.6475L155.324 34.6005C155.608 34.6005 155.845 34.3832 155.867 34.1008C155.892 33.7568 155.892 33.3875 155.892 33.0869C155.885 30.737 155.03 28.6006 153.49 27.0726C151.966 25.5591 149.844 24.7227 147.516 24.7227ZM142.851 31.4249C143.415 29.3429 145.143 28.0249 147.406 28.0177C147.414 28.0177 147.417 28.0177 147.425 28.0177C149.728 28.0177 151.493 29.3176 152.079 31.3887L142.851 31.4249Z" fill="#C61A02"/>
<path d="M143.9 23.5838C143.907 23.5838 143.914 23.5838 143.922 23.5838C145.188 23.5729 146.105 22.6713 146.105 21.4366C146.094 20.2091 145.166 19.3184 143.896 19.3184C142.644 19.3292 141.738 20.2308 141.738 21.4583C141.738 22.0449 141.957 22.5844 142.353 22.9755C142.75 23.3701 143.299 23.5838 143.9 23.5838Z" fill="#C61A02"/>
<path d="M150.959 23.5584C150.966 23.5584 150.973 23.5584 150.981 23.5584C152.211 23.5475 153.138 22.6278 153.138 21.4184C153.138 20.1873 152.225 19.293 150.962 19.293C149.711 19.3038 148.805 20.2054 148.805 21.4329C148.805 22.0195 149.023 22.559 149.423 22.9501C149.82 23.3448 150.366 23.5584 150.959 23.5584Z" fill="#C61A02"/>
<path d="M180.152 26.6436C178.962 25.3581 177.296 24.6484 175.454 24.6484C175.443 24.6484 175.433 24.6484 175.418 24.6484C173.315 24.6557 171.535 25.5718 170.338 27.2374C169.279 25.6478 167.387 24.6557 165.335 24.6557C165.328 24.6557 165.317 24.6557 165.31 24.6557C163.694 24.6629 162.242 25.3219 161.234 26.4697L161.231 25.7999C161.231 25.4993 160.976 25.2495 160.681 25.2604L158.323 25.2676C158.178 25.2676 158.039 25.3255 157.937 25.4269C157.836 25.5283 157.777 25.6659 157.777 25.8107L157.836 40.6745C157.836 40.9751 158.079 41.214 158.381 41.214H160.823C160.969 41.214 161.107 41.1561 161.209 41.0547C161.311 40.9533 161.369 40.8121 161.369 40.6709L161.336 31.7816C161.329 29.4679 162.682 27.9652 164.782 27.9579C164.786 27.9579 164.793 27.9579 164.796 27.9579C165.757 27.9579 166.569 28.3055 167.151 28.9609C167.755 29.6417 168.075 30.6084 168.079 31.7599L168.111 40.6492C168.111 40.9497 168.355 41.1887 168.657 41.1887C168.657 41.1887 168.657 41.1887 168.661 41.1887L171.11 41.1815C171.255 41.1815 171.394 41.1235 171.495 41.0221C171.597 40.9208 171.656 40.7832 171.656 40.6383L171.623 31.749C171.616 29.5004 173.056 27.9253 175.127 27.9181C175.131 27.9181 175.134 27.9181 175.141 27.9181C176.073 27.9181 176.888 28.2766 177.492 28.9537C178.111 29.6453 178.453 30.6265 178.456 31.7201L178.489 40.6094C178.489 40.9099 178.733 41.1489 179.035 41.1489C179.035 41.1489 179.035 41.1489 179.039 41.1489L181.487 41.1416C181.633 41.1416 181.771 41.0837 181.873 40.9823C181.975 40.8809 182.033 40.7433 182.033 40.5985L182.008 31.7345C182.001 29.7358 181.338 27.9254 180.152 26.6436Z" fill="#C61A02"/>
<path d="M191.517 29.8425L200.785 20.1348C200.934 19.9755 200.978 19.7438 200.891 19.5446C200.803 19.3455 200.607 19.2188 200.389 19.2188C200.389 19.2188 200.389 19.2188 200.385 19.2188L197.023 19.2369C196.874 19.2369 196.732 19.2984 196.626 19.407L188.701 27.8256L188.672 19.809C188.672 19.5084 188.428 19.2694 188.126 19.2694L185.444 19.2767C185.299 19.2767 185.16 19.3346 185.059 19.436C184.957 19.5374 184.898 19.675 184.898 19.8198L184.982 40.5712C184.982 40.8717 185.226 41.1107 185.528 41.1107L188.217 41.1035C188.363 41.1035 188.501 41.0455 188.603 40.9441C188.705 40.8428 188.763 40.7015 188.763 40.5603L188.726 31.9028L196.979 40.8934C197.085 41.0057 197.23 41.089 197.387 41.0709L200.774 41.0528C200.993 41.0528 201.185 40.9224 201.273 40.7233C201.36 40.5241 201.32 40.296 201.171 40.1367L191.517 29.8425Z" fill="#C61A02"/>
<path d="M216.896 25.0395L214.444 25.0467C214.298 25.0467 214.16 25.1046 214.058 25.206C213.956 25.3074 213.898 25.445 213.898 25.5898L213.902 26.792C212.472 25.2531 210.696 24.4746 208.6 24.4746C208.589 24.4746 208.582 24.4746 208.571 24.4746C203.815 24.4927 200.376 28.1027 200.395 33.0598C200.409 35.4496 201.239 37.6257 202.738 39.1827C204.233 40.7397 206.311 41.5978 208.593 41.5978C208.611 41.5978 208.629 41.5978 208.644 41.5978C210.772 41.5906 212.555 40.7976 213.953 39.2406L213.956 40.4536C213.956 40.5985 214.014 40.7361 214.116 40.8374C214.218 40.9388 214.356 40.9968 214.502 40.9968L216.951 40.9895C217.096 40.9895 217.235 40.9316 217.337 40.8302C217.439 40.7288 217.497 40.5876 217.497 40.4464L217.442 25.579C217.442 25.2821 217.198 25.0395 216.896 25.0395ZM213.902 33.0127C213.909 36.076 211.835 38.3064 208.968 38.3137C207.567 38.3064 206.297 37.7995 205.383 36.8472C204.466 35.8877 203.957 34.5407 203.95 33.0525C203.942 31.5173 204.466 30.1377 205.431 29.1709C206.337 28.2621 207.541 27.7805 208.917 27.7769C208.92 27.7769 208.927 27.7769 208.931 27.7769C211.798 27.7732 213.883 29.9748 213.902 33.0127Z" fill="#C61A02"/>
<path d="M239.441 40.5982C239.532 40.4063 239.499 40.1818 239.365 40.0225L233.179 32.6576L239.037 25.8612C239.175 25.6982 239.208 25.4737 239.117 25.2818C239.026 25.0899 238.833 24.9668 238.622 24.9668L235.788 24.974C235.628 24.974 235.478 25.0428 235.373 25.1659L230.519 30.8254L230.497 25.5317C230.497 25.2311 230.253 24.9921 229.951 24.9921L227.502 24.9994C227.357 24.9994 227.218 25.0573 227.116 25.1587C227.015 25.2601 226.956 25.3977 226.956 25.5425L226.978 30.8725L222.044 25.213C221.942 25.0935 221.789 25.0247 221.633 25.0247L218.835 25.032C218.62 25.032 218.427 25.1587 218.34 25.3506C218.252 25.5425 218.285 25.7706 218.423 25.93L224.307 32.6793L218.176 40.0913C218.041 40.2542 218.012 40.4787 218.103 40.667C218.194 40.8553 218.387 40.9784 218.598 40.9784H221.535C221.698 40.9784 221.855 40.9024 221.96 40.7756L227.007 34.5405L227.029 40.4099C227.029 40.7105 227.273 40.9494 227.575 40.9494L230.024 40.9422C230.169 40.9422 230.308 40.8843 230.41 40.7829C230.511 40.6815 230.57 40.5439 230.57 40.3991L230.548 34.5658L235.642 40.7213C235.748 40.8481 235.9 40.9205 236.064 40.9205L238.95 40.9132C239.161 40.9132 239.354 40.7901 239.441 40.5982Z" fill="#C61A02"/>
<path d="M255.036 24.8872C255.033 24.8872 255.033 24.8872 255.036 24.8872L252.62 24.8944C252.475 24.8944 252.336 24.9523 252.235 25.0537C252.133 25.1551 252.074 25.2927 252.074 25.4375L252.078 26.4369C250.695 25.0501 248.96 24.3477 246.9 24.3477C246.889 24.3477 246.878 24.3477 246.867 24.3477C242.079 24.3658 238.615 27.9613 238.633 32.8966C238.64 35.2429 239.481 37.3756 240.994 38.8964C242.501 40.41 244.593 41.2391 246.896 41.2391C246.907 41.2391 246.922 41.2391 246.933 41.2391C248.978 41.2319 250.71 40.5222 252.1 39.1282L252.104 40.0334C252.111 43.0351 250.273 44.9107 247.304 44.9288C247.297 44.9288 247.289 44.9288 247.282 44.9288C244.921 44.9288 243.214 43.7702 242.472 41.6628C242.424 41.5252 242.319 41.4129 242.188 41.3514C242.053 41.2898 241.9 41.2826 241.766 41.3369L239.324 42.2566C239.051 42.358 238.909 42.6585 238.997 42.9337C240.081 46.2505 243.141 48.2275 247.18 48.2275C247.191 48.2275 247.199 48.2275 247.209 48.2275C249.713 48.2202 251.831 47.4417 253.341 45.9825C254.858 44.5124 255.659 42.4558 255.648 40.0261L255.589 25.4267C255.579 25.1298 255.335 24.8872 255.036 24.8872ZM252.151 32.8604C252.165 35.8331 250.077 38.0021 247.184 38.0165C247.18 38.0165 247.173 38.0165 247.169 38.0165C244.288 38.0165 242.184 35.8657 242.166 32.8966C242.159 31.3613 242.686 29.9818 243.647 29.015C244.553 28.1061 245.758 27.6246 247.133 27.6209C247.137 27.6209 247.144 27.6209 247.148 27.6209C250.033 27.6209 252.136 29.8225 252.151 32.8604Z" fill="#C61A02"/>
<path d="M264.487 29.4056C264.473 29.4056 264.458 29.4056 264.443 29.4056L261.809 29.42L261.794 25.4008C261.794 25.1003 261.551 24.8613 261.249 24.8613L258.8 24.8686C258.654 24.8686 258.516 24.9265 258.414 25.0279C258.312 25.1293 258.254 25.2669 258.254 25.4117L258.312 40.2755C258.312 40.4203 258.37 40.5579 258.472 40.6593C258.574 40.7607 258.712 40.815 258.858 40.815C258.858 40.815 258.858 40.815 258.862 40.815L264.494 40.7897C266.394 40.786 268.009 40.2465 269.167 39.2327C270.349 38.1971 270.971 36.7487 270.968 35.0433C270.964 33.5189 270.426 32.1828 269.41 31.1834C268.246 30.0392 266.499 29.4056 264.487 29.4056ZM261.842 37.5127L261.82 32.7114L264.454 32.6969C264.462 32.6969 264.469 32.6969 264.476 32.6969C266.306 32.6969 267.445 33.613 267.453 35.0867C267.456 35.8001 267.194 36.3975 266.696 36.8175C266.168 37.2593 265.4 37.4946 264.473 37.4983L261.842 37.5127Z" fill="#C61A02"/>
<path d="M275.365 24.9584C275.263 24.857 275.125 24.8027 274.983 24.8027H274.979L272.53 24.8208C272.228 24.8245 271.988 25.0671 271.988 25.3676L272.046 40.2314C272.046 40.3762 272.105 40.5138 272.21 40.6152C272.312 40.7166 272.45 40.7709 272.592 40.7709H272.596L275.045 40.7528C275.347 40.7492 275.587 40.5066 275.587 40.206L275.529 25.3422C275.525 25.1974 275.467 25.0598 275.365 24.9584Z" fill="#C61A02"/>
<path d="M292.612 25.2739C292.612 25.1291 292.554 24.9915 292.448 24.8901C292.346 24.7887 292.212 24.738 292.059 24.7344L289.617 24.7525C289.315 24.7561 289.075 24.9987 289.075 25.2992L289.108 33.9496C289.115 36.1909 287.318 37.9506 285.014 37.9615C282.864 37.9543 281.51 36.524 281.503 34.1922L281.47 25.3282C281.47 25.0277 281.226 24.7887 280.924 24.7887H278.476C278.33 24.7887 278.192 24.8466 278.09 24.948C277.988 25.0494 277.93 25.1906 277.93 25.3318L277.962 34.1958C277.966 36.2995 278.679 38.157 279.964 39.428C281.168 40.6193 282.798 41.2457 284.683 41.2457C284.694 41.2457 284.709 41.2457 284.72 41.2457C286.441 41.2384 287.991 40.5505 289.119 39.3302L289.122 40.1522C289.122 40.4527 289.366 40.6917 289.668 40.6917L292.117 40.6844C292.263 40.6844 292.401 40.6265 292.503 40.5251C292.605 40.4237 292.663 40.2825 292.663 40.1413L292.612 25.2739Z" fill="#C61A02"/>
<path d="M285.179 23.022C285.187 23.022 285.194 23.022 285.198 23.022C286.442 23.0184 287.577 22.5622 288.392 21.7366C289.207 20.9147 289.651 19.7705 289.648 18.5176C289.648 18.3728 289.59 18.2352 289.488 18.1338C289.386 18.0324 289.247 17.96 289.102 17.9745L287.068 17.9817C286.766 17.9817 286.526 18.2243 286.526 18.5249C286.526 19.307 286.176 20.1398 285.187 20.1398C285.183 20.1398 285.179 20.1398 285.172 20.1398C284.768 20.1398 284.444 20.0058 284.215 19.7379C283.971 19.4554 283.84 19.039 283.837 18.5394C283.833 18.2388 283.586 17.9926 283.287 17.9998L281.253 18.0071C280.951 18.0071 280.707 18.2533 280.711 18.5538C280.715 19.8103 281.166 20.9473 281.981 21.762C282.796 22.5767 283.931 23.022 285.179 23.022Z" fill="#C61A02"/>
</g>
<defs>
<radialGradient id="paint0_radial_12439_3517" cx="0" cy="0" r="1" gradientTransform="matrix(29.3455 7.42843 -40.6911 40.2836 17.4475 23.9391)" gradientUnits="userSpaceOnUse">
<stop offset="0.0614492" stop-color="#DED9B5"/>
<stop offset="0.579558" stop-color="#FD752B"/>
<stop offset="1" stop-color="#C61A02"/>
</radialGradient>
<clipPath id="clip0_12439_3517">
<rect width="63.8782" height="62" fill="white"/>
</clipPath>
<clipPath id="clip1_12439_3517">
<rect width="212.028" height="30.2512" fill="white" transform="translate(80.9727 17.9707)"/>
</clipPath>
</defs>
</svg>
