<svg width="829" height="582" viewBox="0 0 829 582" fill="none" xmlns="http://www.w3.org/2000/svg">
<path d="M429.502 1051C425.38 1051.01 421.313 1050.84 417.294 1050.53L356.218 821.885C360.017 820.988 363.795 820.026 367.539 818.995L429.502 1051ZM474.172 1044.79C470.304 1045.83 466.499 1046.73 462.748 1047.5L380.428 815.167C384.144 813.981 387.826 812.727 391.481 811.406L474.172 1044.79ZM380.829 1043.35C376.59 1042.02 372.371 1040.54 368.16 1038.91L330.22 826.925C334.08 826.339 337.921 825.685 341.74 824.964L380.829 1043.35ZM513.48 1029.86C510.074 1031.6 506.558 1033.26 502.931 1034.83L402.616 807.167C406.229 805.719 409.814 804.209 413.358 802.626L513.48 1029.86ZM331.795 1021.54C327.686 1019.26 323.564 1016.88 319.401 1014.4L302.81 829.923C306.718 829.661 310.606 829.33 314.467 828.926L331.795 1021.54ZM546.197 1008.05C543.21 1010.6 540.12 1013.05 536.906 1015.41L422.683 798.306C426.186 796.615 429.655 794.864 433.082 793.051L546.197 1008.05ZM286.232 993.521C282.378 991.008 278.483 988.447 274.533 985.839V830.625C276.48 830.659 278.428 830.68 280.383 830.68C282.337 830.68 284.284 830.659 286.232 830.625V993.521ZM571.695 981.169C569.19 984.417 566.581 987.584 563.863 990.664L440.66 788.92C444.038 787.02 447.382 785.052 450.692 783.031L571.695 981.169ZM246.299 828.926C250.159 829.33 254.048 829.661 257.956 829.923L245.638 966.876C241.991 964.511 238.288 962.126 234.53 959.727L246.299 828.926ZM590.71 951.992C588.645 955.746 586.491 959.431 584.234 963.043L456.64 779.305C459.908 777.216 463.129 775.067 466.308 772.857L590.71 951.992ZM219.023 824.964C222.843 825.685 226.682 826.339 230.543 826.925L209.554 944.194C206.031 942.065 202.452 939.929 198.826 937.806L219.023 824.964ZM604.734 923.103C603.007 927.146 601.211 931.135 599.346 935.076L470.781 769.695C473.926 767.438 477.03 765.125 480.085 762.753L604.734 923.103ZM193.225 818.995C196.968 820.026 200.746 820.988 204.545 821.885L176.907 925.347C173.439 923.44 169.916 921.54 166.345 919.646L193.225 818.995ZM169.283 811.406C172.937 812.727 176.619 813.981 180.336 815.167L146.849 909.68C143.374 907.962 139.85 906.25 136.278 904.559L169.283 811.406ZM615.318 896.122V896.129C613.825 900.293 612.284 904.418 610.688 908.515L483.264 760.254C486.292 757.849 489.273 755.396 492.204 752.882L615.318 896.122ZM147.414 802.626C150.958 804.209 154.543 805.725 158.156 807.173L118.806 896.459C115.18 894.795 111.643 893.177 108.202 891.614L147.414 802.626ZM127.683 793.051C131.11 794.863 134.578 796.615 138.08 798.306L92.6752 884.613C89.0142 882.969 85.4632 881.392 82.0087 879.863L127.683 793.051ZM623.684 871.783C622.314 875.954 620.924 880.112 619.506 884.243L494.259 751.111C497.17 748.577 500.04 745.99 502.854 743.348L623.684 871.783ZM110.072 783.039C113.382 785.053 116.726 787.021 120.105 788.927L68.2584 873.826C64.556 872.208 60.963 870.652 57.4809 869.149L110.072 783.039ZM94.4598 772.857C97.6392 775.067 100.86 777.216 104.129 779.305L45.3452 863.955C41.5877 862.358 37.9471 860.814 34.4099 859.325L94.4598 772.857ZM630.622 850.166C629.315 854.29 628.007 858.407 626.685 862.511L503.943 742.324C506.75 739.676 509.51 736.974 512.214 734.224L630.622 850.166ZM80.6816 762.753C83.7371 765.125 86.8408 767.438 89.9857 769.695L23.7766 854.862C19.9847 853.272 16.2955 851.728 12.6826 850.219L80.6816 762.753ZM68.5614 752.882C71.493 755.396 74.4734 757.849 77.5013 760.254L3.48843 846.372C-0.296448 844.782 -4.01987 843.212 -7.72903 841.642L68.5614 752.882ZM637.182 829.365C635.902 833.401 634.629 837.445 633.356 841.488L513.262 733.159C515.96 730.404 518.602 727.593 521.19 724.743L637.182 829.365ZM57.9094 743.348C60.724 745.99 63.594 748.577 66.5049 751.111L-15.5255 838.306C-19.2759 836.703 -23.0267 835.072 -26.8115 833.401L57.9094 743.348ZM48.5503 734.225C51.2548 736.975 54.0143 739.677 56.822 742.325L-33.2674 830.539C-36.9697 828.888 -40.7273 827.182 -44.5741 825.41L48.5503 734.225ZM39.575 724.743C42.1626 727.593 44.8057 730.403 47.5034 733.159L-51.2988 822.283C-54.9666 820.564 -58.7313 818.772 -62.6055 816.905L39.575 724.743ZM644.235 807.674C642.921 811.589 641.634 815.511 640.368 819.446L522.999 722.729C525.566 719.859 528.071 716.94 530.528 713.976L644.235 807.674ZM30.2377 713.976C32.6944 716.94 35.1997 719.859 37.7665 722.729L-71.3442 812.647C-74.9982 810.841 -78.7622 808.968 -82.6571 807.007L30.2377 713.976ZM20.5984 701.75C22.9037 704.83 25.264 707.868 27.6862 710.86L-93.7355 801.365C-96.4467 799.97 -99.213 798.535 -102.055 797.053C-103.073 796.52 -104.085 795.987 -105.103 795.442L20.5984 701.75ZM652.101 785.181C650.711 788.947 649.355 792.734 648.034 796.541L533.082 710.861C535.504 707.869 537.864 704.831 540.169 701.751L652.101 785.181ZM10.7827 687.903C12.9161 691.104 15.1122 694.258 17.3694 697.371L-118.566 787.882H-118.574C-122.193 785.746 -125.799 783.536 -129.392 781.238L10.7827 687.903ZM661.267 761.999C659.733 765.598 658.246 769.223 656.801 772.882L543.396 697.371C545.654 694.258 547.85 691.104 549.983 687.903L661.267 761.999ZM0.962921 672.258C2.90356 675.566 4.914 678.841 6.97165 682.082L-144.737 770.909C-148.129 768.503 -151.495 766.03 -154.832 763.483L0.962921 672.258ZM-8.62448 654.656C-6.89725 658.085 -5.10806 661.482 -3.25699 664.837L-171.721 749.817C-174.839 747.128 -177.915 744.385 -180.957 741.582L-8.62448 654.656ZM672.421 738.201C670.652 741.61 668.953 745.06 667.308 748.551L553.793 682.082C555.851 678.841 557.86 675.566 559.801 672.258L672.421 738.201ZM-17.6723 635.007C-16.1997 638.544 -14.6514 642.048 -13.0343 645.518L-198.745 723.982C-201.525 721.03 -204.251 718.017 -206.921 714.958L-17.6723 635.007ZM686.628 713.794C686.188 714.474 685.748 715.155 685.308 715.835C683.663 718.389 682.059 720.971 680.503 723.592L564.023 664.839C565.874 661.484 567.664 658.086 569.391 654.657L686.628 713.794ZM703.61 687.89C701.47 691.111 699.322 694.359 697.161 697.641L573.799 645.518C575.416 642.048 576.964 638.544 578.437 635.007L703.61 687.89ZM-25.8413 613.282C-24.6302 616.921 -23.35 620.526 -22.0012 624.104L-224.559 692.918C-226.913 689.703 -229.205 686.435 -231.421 683.12L-25.8413 613.282ZM722.651 659.502C720.456 662.756 718.239 666.045 716.003 669.367L582.766 624.104C584.115 620.526 585.394 616.921 586.605 613.282L722.651 659.502ZM-32.702 589.576C-31.7867 593.295 -30.8029 596.995 -29.75 600.661L-247.365 656.388C-249.182 652.932 -250.93 649.434 -252.589 645.89L-32.702 589.576ZM743.827 628.087C741.591 631.422 739.333 634.791 737.048 638.187L590.516 600.661C591.569 596.995 592.552 593.295 593.468 589.576L743.827 628.087ZM-37.8495 564.117C-37.2508 567.898 -36.5822 571.659 -35.8459 575.398L-264.906 614.71C-266.083 611.058 -267.177 607.372 -268.182 603.645L-37.8495 564.117ZM766.799 592.978C764.604 596.442 762.367 599.933 760.082 603.451L596.614 575.398C597.35 571.659 598.018 567.898 598.616 564.117L766.799 592.978ZM-40.9125 537.28C-40.6441 541.108 -40.3064 544.915 -39.8935 548.696L-274.913 568.965C-275.367 565.191 -275.732 561.391 -276 557.557L-40.9125 537.28ZM790.26 553.547C788.264 557.186 786.206 560.845 784.093 564.517L600.66 548.696C601.073 544.915 601.41 541.108 601.678 537.28L790.26 553.547ZM-41.6284 509.592C-41.6628 511.499 -41.6844 513.406 -41.6844 515.319C-41.6844 517.233 -41.6628 519.141 -41.6284 521.048H-275.829C-275.533 517.254 -275.14 513.433 -274.658 509.592H-41.6284ZM811.18 509.592C809.672 513.413 808.076 517.234 806.39 521.048H602.394C602.429 519.141 602.449 517.233 602.449 515.319C602.449 513.406 602.429 511.499 602.394 509.592H811.18ZM825.033 462.589C824.289 466.525 823.443 470.433 822.5 474.314L601.678 493.357C601.41 489.53 601.073 485.722 600.66 481.942L825.033 462.589ZM-39.8956 481.942C-40.3085 485.722 -40.6451 489.529 -40.9135 493.356L-267.599 473.808C-266.601 470.088 -265.513 466.341 -264.336 462.581L-39.8956 481.942ZM-35.8469 455.239C-36.5832 458.979 -37.2508 462.739 -37.8495 466.519L-251.948 429.781C-250.366 426.202 -248.707 422.611 -246.959 419.006L-35.8469 455.239ZM828.941 415.367C829.031 419.282 829.017 423.156 828.907 426.997L598.616 466.519C598.018 462.739 597.35 458.978 596.614 455.238L828.941 415.367ZM823.724 370.252C824.502 374.066 825.19 377.834 825.789 381.56L593.468 441.061C592.552 437.341 591.569 433.641 590.516 429.975L823.724 370.252ZM-29.7479 429.975C-30.8008 433.641 -31.7857 437.34 -32.7009 441.06L-230.585 390.38C-228.184 386.937 -225.692 383.634 -223.112 380.461L-29.7479 429.975ZM-22.0033 406.532C-23.3521 410.11 -24.6322 413.716 -25.8434 417.354L-201.273 357.759C-197.936 354.781 -194.508 351.91 -191.012 349.113L-22.0033 406.532ZM812.189 328.596C813.428 332.16 814.625 335.799 815.774 339.498L586.605 417.354C585.394 413.716 584.115 410.11 582.766 406.532L812.189 328.596ZM-13.0343 385.118C-14.6515 388.588 -16.1996 392.093 -17.6723 395.631L-167.901 332.161C-164.151 329.587 -160.359 327.046 -156.526 324.493L-13.0343 385.118ZM796.299 291.115C798.013 294.491 799.685 297.942 801.295 301.473L578.437 395.63C576.964 392.092 575.416 388.587 573.799 385.117L796.299 291.115ZM-3.25699 365.799C-5.10812 369.155 -6.89722 372.551 -8.62448 375.981L-136.666 311.392C-133.033 308.987 -129.379 306.54 -125.704 304.034L-3.25699 365.799ZM776.758 258.488C778.953 261.621 781.101 264.836 783.2 268.131L569.391 375.98C567.664 372.55 565.874 369.154 564.023 365.798L776.758 258.488ZM6.97061 348.555C4.91296 351.79 2.91046 355.065 0.962921 358.373L-110.342 293.205C-107.019 290.78 -103.695 288.286 -100.371 285.706L6.97061 348.555ZM754.534 231.015C757.177 233.858 759.778 236.783 762.324 239.788L559.801 358.371C557.853 355.063 555.851 351.788 553.793 348.554L754.534 231.015ZM730.752 208.516C733.794 211.05 736.794 213.671 739.753 216.373L549.983 342.733C547.85 339.533 545.654 336.378 543.396 333.265L730.752 208.516ZM17.3684 333.264C15.1112 336.377 12.915 339.531 10.7817 342.731L-88.8453 276.398C-85.838 273.857 -82.8308 271.242 -79.8442 268.534L17.3684 333.264ZM27.6852 319.775C25.2628 322.767 22.9028 325.807 20.5974 328.886L-71.2331 260.436C-69.9119 259.149 -68.5907 257.828 -67.2695 256.494C-65.8519 255.059 -64.4616 253.596 -63.0921 252.114L27.6852 319.775ZM706.522 190.504C709.887 192.734 713.225 195.045 716.522 197.437L540.169 328.885C537.864 325.806 535.504 322.766 533.082 319.774L706.522 190.504ZM37.7655 307.908C35.1987 310.779 32.6944 313.697 30.2377 316.662L-56.769 244.972C-54.2916 242.054 -51.8825 239.055 -49.5152 235.983L37.7655 307.908ZM682.732 176.279C686.352 178.226 689.944 180.255 693.509 182.357L530.528 316.662C528.071 313.697 525.566 310.779 522.999 307.908L682.732 176.279ZM47.5054 297.477C44.8079 300.233 42.1656 303.043 39.5782 305.893L-44.8543 229.742C-42.5902 226.622 -40.3605 223.434 -38.1722 220.193L47.5054 297.477ZM660.002 165.113C663.807 166.818 667.599 168.584 671.363 170.437L521.19 305.893C518.602 303.043 515.96 300.233 513.262 297.477L660.002 165.113ZM56.822 288.312C54.0144 290.961 51.2547 293.663 48.5503 296.412L-34.6775 214.918C-32.5373 211.636 -30.425 208.3 -28.3399 204.924L56.822 288.312ZM638.701 156.36C642.637 157.843 646.574 159.399 650.49 161.016L512.214 296.412C509.51 293.663 506.75 290.961 503.943 288.313L638.701 156.36ZM66.5059 279.525C63.595 282.059 60.725 284.647 57.9105 287.288L-24.8982 199.271C-22.8268 195.847 -20.7826 192.39 -18.7525 188.9L66.5059 279.525ZM617.181 148.859C621.207 150.146 625.239 151.501 629.272 152.916L502.854 287.288C500.04 284.647 497.17 282.059 494.259 279.525L617.181 148.859ZM593.675 141.914C597.756 143.019 601.858 144.178 605.967 145.398L492.204 277.754C489.273 275.241 486.292 272.788 483.264 270.382L593.675 141.914ZM77.5013 270.381C74.4735 272.787 71.4939 275.24 68.5624 277.753L-14.3562 181.284C-12.3192 177.74 -10.2955 174.176 -8.26547 170.591L77.5013 270.381ZM89.9868 260.942C86.8418 263.199 83.7381 265.51 80.6826 267.882L-2.64896 160.687C-0.591309 157.061 1.48044 153.422 3.57248 149.783L89.9868 260.942ZM568.254 135.558C572.355 136.501 576.484 137.485 580.641 138.529L480.085 267.881C477.03 265.509 473.926 263.198 470.781 260.94L568.254 135.558ZM104.127 251.332C100.859 253.421 97.638 255.57 94.4588 257.78L10.8242 137.351C12.9851 133.705 15.1743 130.073 17.4109 126.454L104.127 251.332ZM541.078 129.736C545.159 130.558 549.289 131.401 553.459 132.29L466.308 257.78C463.129 255.57 459.908 253.42 456.64 251.331L541.078 129.736ZM120.106 241.717C116.727 243.617 113.383 245.584 110.073 247.606L26.961 111.516C29.3076 107.978 31.7097 104.474 34.1733 101.004L120.106 241.717ZM512.408 124.224C516.407 124.979 520.488 125.74 524.63 126.536L450.699 247.606H450.692C447.382 245.584 444.038 243.617 440.66 241.71L512.408 124.224ZM138.083 232.329C134.58 234.02 131.111 235.773 127.684 237.585L46.9472 84.1236C49.576 80.8689 52.281 77.6677 55.0612 74.5276L138.083 232.329ZM482.575 118.489C486.436 119.277 490.414 120.059 494.494 120.848L433.082 237.584C429.655 235.772 426.186 234.02 422.683 232.329L482.575 118.489ZM158.148 223.468C154.535 224.91 150.957 226.426 147.413 228.01L72.0851 57.0613C75.0578 54.292 78.1131 51.6034 81.2647 48.989L158.148 223.468ZM452.075 111.218C455.674 112.276 459.48 113.288 463.471 114.265L413.351 228.01C409.807 226.426 406.229 224.91 402.616 223.468L452.075 111.218ZM422.042 98.0187C425.6 100.215 429.042 102.17 432.372 103.821L391.481 219.231C387.826 217.91 384.144 216.657 380.428 215.471L422.042 98.0187ZM180.337 215.47C176.62 216.656 172.938 217.909 169.284 219.23L103.281 32.9581C106.598 30.8558 110.005 28.834 113.514 26.8867L180.337 215.47ZM204.547 208.751C200.748 209.647 196.97 210.611 193.227 211.642L140.526 14.3194C144.111 12.9447 147.793 11.6365 151.564 10.4101L204.547 208.751ZM391.528 76.5629C394.983 79.137 398.342 81.637 401.624 84.0292L367.539 211.642C363.795 210.611 360.017 209.648 356.218 208.752L391.528 76.5629ZM230.545 203.711C226.685 204.297 222.845 204.95 219.026 205.671L182.675 2.58654C186.577 1.89922 190.431 1.34045 194.251 0.902448L230.545 203.711ZM357.438 51.6233C361.023 54.1164 364.54 56.6163 367.974 59.1027L341.74 205.671C337.921 204.95 334.08 204.297 330.22 203.711L357.438 51.6233ZM228.148 0C232.153 0.256059 236.104 0.633877 239.999 1.12578L257.953 200.713C254.044 200.976 250.156 201.306 246.296 201.71L228.148 0ZM318.396 27.3851C322.195 29.42 325.925 31.5223 329.586 33.6718L314.467 201.71C310.606 201.306 306.718 200.975 302.81 200.712L318.396 27.3851ZM274.533 8.70675C278.497 9.93988 282.392 11.2806 286.232 12.7226V200.012C284.284 199.978 282.337 199.958 280.383 199.958C278.428 199.958 276.48 199.978 274.533 200.012V8.70675Z" fill="url(#paint0_radial_12251_6584)" fill-opacity="0.1"/>
<defs>
<radialGradient id="paint0_radial_12251_6584" cx="0" cy="0" r="1" gradientTransform="matrix(-118.469 -530.14 555.032 -120.563 276.5 494.797)" gradientUnits="userSpaceOnUse">
<stop offset="0.585652" stop-color="#FCF8EF" stop-opacity="0"/>
<stop offset="0.751632" stop-color="#FCF8EF" stop-opacity="0.293378"/>
<stop offset="0.882295" stop-color="#FCF8EF" stop-opacity="0.483324"/>
<stop offset="1" stop-color="#FCF8EF"/>
</radialGradient>
</defs>
</svg>
