<svg width="40" height="40" viewBox="0 0 40 40" fill="none" xmlns="http://www.w3.org/2000/svg">
<path d="M8.33398 12.944C8.33398 10.354 11.1607 8.75229 13.3823 10.0856L25.1423 17.1423C27.3006 18.4373 27.3006 21.564 25.1423 22.859L13.384 29.9156C11.1623 31.249 8.33565 29.649 8.33565 27.0573L8.33398 12.944ZM30.0006 10.0006C30.4427 10.0006 30.8666 10.1762 31.1792 10.4888C31.4917 10.8013 31.6673 11.2253 31.6673 11.6673V28.334C31.6673 28.776 31.4917 29.1999 31.1792 29.5125C30.8666 29.825 30.4427 30.0006 30.0006 30.0006C29.5586 30.0006 29.1347 29.825 28.8221 29.5125C28.5096 29.1999 28.334 28.776 28.334 28.334V11.6673C28.334 11.2253 28.5096 10.8013 28.8221 10.4888C29.1347 10.1762 29.5586 10.0006 30.0006 10.0006Z" fill="black"/>
</svg>
