<svg width="40" height="40" viewBox="0 0 40 40" fill="none" xmlns="http://www.w3.org/2000/svg">
<path d="M31.666 12.944C31.666 10.354 28.8393 8.75229 26.6177 10.0856L14.8577 17.1423C12.6994 18.4373 12.6994 21.564 14.8577 22.859L26.616 29.9156C28.8377 31.249 31.6643 29.649 31.6643 27.0573L31.666 12.944ZM9.99935 10.0006C9.55732 10.0006 9.1334 10.1762 8.82084 10.4888C8.50828 10.8013 8.33268 11.2253 8.33268 11.6673V28.334C8.33268 28.776 8.50828 29.1999 8.82084 29.5125C9.1334 29.825 9.55732 30.0006 9.99935 30.0006C10.4414 30.0006 10.8653 29.825 11.1779 29.5125C11.4904 29.1999 11.666 28.776 11.666 28.334V11.6673C11.666 11.2253 11.4904 10.8013 11.1779 10.4888C10.8653 10.1762 10.4414 10.0006 9.99935 10.0006Z" fill="black"/>
</svg>
