<svg width="28" height="28" viewBox="0 0 28 28" fill="none" xmlns="http://www.w3.org/2000/svg">
<path d="M13.9993 16.3307C15.288 16.3307 16.3327 15.2861 16.3327 13.9974C16.3327 12.7087 15.288 11.6641 13.9993 11.6641C12.7107 11.6641 11.666 12.7087 11.666 13.9974C11.666 15.2861 12.7107 16.3307 13.9993 16.3307Z" stroke="white" stroke-width="2" stroke-linecap="round" stroke-linejoin="round"/>
<path d="M20.9993 12.8307C22.288 12.8307 23.3327 11.7861 23.3327 10.4974C23.3327 9.20873 22.288 8.16406 20.9993 8.16406C19.7107 8.16406 18.666 9.20873 18.666 10.4974C18.666 11.7861 19.7107 12.8307 20.9993 12.8307Z" stroke="white" stroke-width="2" stroke-linecap="round" stroke-linejoin="round"/>
<path d="M17.8711 4.23486C15.8942 3.45175 13.7262 3.28725 11.6539 3.76314C9.58152 4.23904 7.70248 5.33289 6.26534 6.89999C4.82821 8.46708 3.90071 10.4336 3.60556 12.5393C3.31041 14.645 3.66152 16.7907 4.61243 18.6925C5.56334 20.5943 7.06924 22.1627 8.9309 23.19C10.7926 24.2173 12.9222 24.6552 15.0382 24.4457C17.1542 24.2363 19.1567 23.3893 20.7808 22.017C22.4049 20.6446 23.5741 18.8115 24.1337 16.7602M23.3334 10.4987V2.33203L25.6667 4.66536" stroke="white" stroke-width="2" stroke-linecap="round" stroke-linejoin="round"/>
</svg>
