<svg width="28" height="28" viewBox="0 0 28 28" fill="none" xmlns="http://www.w3.org/2000/svg">
<path d="M17.5 4.66732V2.33398M17.5 4.66732V7.00065M17.5 4.66732H12.25M3.5 11.6673V22.1673C3.5 22.7862 3.74583 23.3796 4.18342 23.8172C4.621 24.2548 5.21449 24.5007 5.83333 24.5007H22.1667C22.7855 24.5007 23.379 24.2548 23.8166 23.8172C24.2542 23.3796 24.5 22.7862 24.5 22.1673V11.6673M3.5 11.6673H24.5M3.5 11.6673V7.00065C3.5 6.38181 3.74583 5.78832 4.18342 5.35074C4.621 4.91315 5.21449 4.66732 5.83333 4.66732H8.16667M24.5 11.6673V7.00065C24.5 6.38181 24.2542 5.78832 23.8166 5.35074C23.379 4.91315 22.7855 4.66732 22.1667 4.66732H21.5833M8.16667 2.33398V7.00065" stroke="#7D7D7D" stroke-width="2" stroke-linecap="round" stroke-linejoin="round"/>
</svg>
