<svg width="72" height="72" viewBox="0 0 72 72" fill="none" xmlns="http://www.w3.org/2000/svg">
<path d="M36 22.9883V66.9883M9 36.1883H63V58.1883C63 60.5222 62.0518 62.7605 60.364 64.4108C58.6761 66.0611 56.3869 66.9883 54 66.9883H18C15.6131 66.9883 13.3239 66.0611 11.636 64.4108C9.94821 62.7605 9 60.5222 9 58.1883V36.1883Z" stroke="#C61A02" stroke-width="3" stroke-linecap="round" stroke-linejoin="round"/>
<path d="M36 22.4438H22.7143C19.2556 18.9177 19.2556 12.4253 22.7143 8.89923C26.173 5.37314 36 6.64181 36 13.4141M36 22.4438V13.4141M36 22.4438H49.2857C52.7444 18.9177 52.7444 12.4253 49.2857 8.89923C45.827 5.37314 36 6.64181 36 13.4141M9.42857 22.4438H62.5714C63.746 22.4438 64.8724 22.9194 65.7029 23.7661C66.5334 24.6128 67 25.7612 67 26.9586V31.4734C67 32.6708 66.5334 33.8192 65.7029 34.6659C64.8724 35.5126 63.746 35.9883 62.5714 35.9883H9.42857C8.25404 35.9883 7.12762 35.5126 6.2971 34.6659C5.46658 33.8192 5 32.6708 5 31.4734V26.9586C5 25.7612 5.46658 24.6128 6.2971 23.7661C7.12762 22.9194 8.25404 22.4438 9.42857 22.4438Z" stroke="#C61A02" stroke-width="3" stroke-linecap="round" stroke-linejoin="round"/>
</svg>
