<svg width="72" height="72" viewBox="0 0 72 72" fill="none" xmlns="http://www.w3.org/2000/svg">
<path d="M56 9C58.6522 9 61.1957 10.0598 63.0711 11.9462C64.9464 13.8326 66 16.3911 66 19.0588V45.8824C66 48.5501 64.9464 51.1086 63.0711 52.995C61.1957 54.8814 58.6522 55.9412 56 55.9412H39.3333L22.6667 66V55.9412H16C13.3478 55.9412 10.8043 54.8814 8.92893 52.995C7.05357 51.1086 6 48.5501 6 45.8824V19.0588C6 16.3911 7.05357 13.8326 8.92893 11.9462C10.8043 10.0598 13.3478 9 16 9H56Z" stroke="#C61A02" stroke-width="3" stroke-linecap="round" stroke-linejoin="round"/>
<path d="M18 27.25V37.75M45 22V43M36 29.875V35.125M54 29.875V35.125M27 22V43" stroke="#C61A02" stroke-width="3" stroke-linecap="round" stroke-linejoin="round"/>
</svg>
