<svg width="40" height="40" viewBox="0 0 40 40" fill="none" xmlns="http://www.w3.org/2000/svg">
<path d="M28.3307 18.332C28.3307 20.5422 27.4528 22.6618 25.89 24.2246C24.3271 25.7874 22.2075 26.6654 19.9974 26.6654C17.7873 26.6654 15.6676 25.7874 14.1048 24.2246C12.542 22.6618 11.6641 20.5422 11.6641 18.332V11.6654C11.6641 9.45523 12.542 7.33561 14.1048 5.77281C15.6676 4.21 17.7873 3.33203 19.9974 3.33203M33.3307 18.332C33.3307 21.8683 31.926 25.2596 29.4255 27.7601C26.925 30.2606 23.5336 31.6654 19.9974 31.6654M19.9974 31.6654C16.4612 31.6654 13.0698 30.2606 10.5693 27.7601C8.06882 25.2596 6.66406 21.8683 6.66406 18.332M19.9974 31.6654V36.6654M23.8857 7.74203C24.8648 7.61791 25.7748 7.17184 26.4727 6.47399C27.1705 5.77614 27.6166 4.8661 27.7407 3.88703C27.7807 3.58203 28.0241 3.33203 28.3307 3.33203C28.6374 3.33203 28.8824 3.58203 28.9207 3.88703C29.0449 4.8661 29.4909 5.77614 30.1888 6.47399C30.8866 7.17184 31.7967 7.61791 32.7757 7.74203C33.0807 7.78036 33.3307 8.02536 33.3307 8.33203C33.3307 8.6387 33.0807 8.8837 32.7757 8.92203C31.7967 9.04615 30.8866 9.49222 30.1888 10.1901C29.4909 10.8879 29.0449 11.798 28.9207 12.777C28.8807 13.082 28.6374 13.332 28.3307 13.332C28.0241 13.332 27.7791 13.082 27.7407 12.777C27.6166 11.798 27.1705 10.8879 26.4727 10.1901C25.7748 9.49222 24.8648 9.04615 23.8857 8.92203C23.5807 8.88203 23.3307 8.6387 23.3307 8.33203C23.3307 8.02536 23.5807 7.78036 23.8857 7.74203Z" stroke="#2B2B2D" stroke-width="2.5" stroke-linecap="round" stroke-linejoin="round"/>
</svg>
