<svg width="28" height="28" viewBox="0 0 28 28" fill="none" xmlns="http://www.w3.org/2000/svg">
<g clip-path="url(#clip0_12882_2801)">
<path d="M16.782 6.22819C17.1017 6.73374 17.5388 7.10747 18.0933 7.34936L18.7525 7.63752C19.1958 7.83041 19.5552 8.10186 19.8305 8.45186V11.666C19.8305 13.2131 19.2159 14.6968 18.122 15.7908C17.028 16.8848 15.5443 17.4994 13.9972 17.4994C12.4501 17.4994 10.9663 16.8848 9.87238 15.7908C8.77841 14.6968 8.16383 13.2131 8.16383 11.666V6.99935C8.16383 5.91653 8.46523 4.85508 9.03427 3.93383C9.60331 3.01258 10.4175 2.2679 11.3858 1.78317C12.3541 1.29843 13.4382 1.09276 14.5167 1.1892C15.5952 1.28563 16.6256 1.68036 17.4925 2.32919C17.2125 2.53919 16.9753 2.79741 16.7808 3.10386C16.4837 3.57041 16.3277 4.1129 16.3317 4.66602C16.3317 5.23069 16.4822 5.75141 16.7832 6.22819M3.79276 14.1372C3.62623 13.4502 4.18116 12.8327 4.88807 12.8327C5.47674 12.8327 5.96715 13.2681 6.12419 13.8354C6.5521 15.3814 7.42831 16.7752 8.65294 17.8345C10.1374 19.1185 12.0345 19.8252 13.9972 19.8252C15.9599 19.8252 17.857 19.1185 19.3414 17.8345C20.5659 16.7753 21.442 15.3817 21.87 13.8359C22.0272 13.2683 22.5178 12.8327 23.1068 12.8327C23.814 12.8327 24.3692 13.4505 24.2026 14.1379C23.7501 16.0044 22.792 17.7201 21.4221 19.0901C19.7381 20.7743 17.5318 21.8363 15.165 22.1019V25.666C15.165 26.3104 14.6427 26.8327 13.9983 26.8327C13.354 26.8327 12.8317 26.3104 12.8317 25.666V22.1019C10.4647 21.8365 8.25808 20.7747 6.57387 19.0905C5.2036 17.7202 4.24529 16.0042 3.79276 14.1372Z" fill="white"/>
<path d="M24.167 8.31531L23.88 8.97564C23.6688 9.45864 22.9991 9.45864 22.7891 8.97564L22.5021 8.31531C21.998 7.14692 21.0744 6.2099 19.9133 5.68914L19.0266 5.29481C18.9195 5.24525 18.8288 5.16608 18.7653 5.06664C18.7017 4.9672 18.668 4.85165 18.668 4.73364C18.668 4.61563 18.7017 4.50008 18.7653 4.40064C18.8288 4.30121 18.9195 4.22203 19.0266 4.17247L19.8643 3.79914C21.0545 3.26356 21.9941 2.2919 22.4893 1.08431L22.7845 0.372641C22.8278 0.262221 22.9034 0.167423 23.0014 0.100604C23.0995 0.0337856 23.2153 -0.00195312 23.334 -0.00195312C23.4526 -0.00195312 23.5685 0.0337856 23.6665 0.100604C23.7645 0.167423 23.8401 0.262221 23.8835 0.372641L24.1798 1.08547C24.6756 2.29284 25.6155 3.26408 26.806 3.79914L27.6425 4.17131C27.7499 4.22073 27.8409 4.29991 27.9047 4.39947C27.9685 4.49904 28.0024 4.61481 28.0024 4.73306C28.0024 4.85131 27.9685 4.96708 27.9047 5.06664C27.8409 5.16621 27.7499 5.24539 27.6425 5.29481L26.757 5.69031C25.5957 6.21055 24.6716 7.14715 24.167 8.31531Z" fill="white"/>
</g>
<defs>
<clipPath id="clip0_12882_2801">
<rect width="28" height="28" fill="white"/>
</clipPath>
</defs>
</svg>
