<svg width="28" height="28" viewBox="0 0 28 28" fill="none" xmlns="http://www.w3.org/2000/svg">
<g clip-path="url(#clip0_12251_6983)">
<path d="M16.784 6.23014C17.1036 6.7357 17.5407 7.10942 18.0953 7.35131L18.7545 7.63947C19.1978 7.83236 19.5571 8.10381 19.8325 8.45381V11.668C19.8325 13.2151 19.2179 14.6988 18.1239 15.7928C17.0299 16.8867 15.5462 17.5013 13.9991 17.5013C12.452 17.5013 10.9683 16.8867 9.87433 15.7928C8.78037 14.6988 8.16579 13.2151 8.16579 11.668V7.00131C8.16579 5.91848 8.46718 4.85703 9.03622 3.93578C9.60527 3.01453 10.4195 2.26986 11.3878 1.78512C12.356 1.30038 13.4401 1.09472 14.5186 1.19115C15.5972 1.28759 16.6275 1.68231 17.4945 2.33114C17.2145 2.54114 16.9772 2.79936 16.7828 3.10581C16.4857 3.57237 16.3297 4.11485 16.3336 4.66797C16.3336 5.23264 16.4841 5.75336 16.7851 6.23014M3.79471 14.1392C3.62818 13.4522 4.18312 12.8346 4.89002 12.8346C5.47869 12.8346 5.96911 13.27 6.12614 13.8374C6.55405 15.3833 7.43027 16.7772 8.65489 17.8365C10.1393 19.1205 12.0364 19.8271 13.9991 19.8271C15.9618 19.8271 17.8589 19.1205 19.3433 17.8365C20.5678 16.7773 21.444 15.3836 21.872 13.8379C22.0291 13.2702 22.5198 12.8346 23.1087 12.8346C23.816 12.8346 24.3712 13.4525 24.2046 14.1398C23.752 16.0063 22.7939 17.722 21.424 19.0921C19.7401 20.7763 17.5338 21.8382 15.167 22.1038V25.668C15.167 26.3123 14.6446 26.8346 14.0003 26.8346C13.356 26.8346 12.8336 26.3123 12.8336 25.668V22.1038C10.4666 21.8385 8.26003 20.7766 6.57582 19.0924C5.20555 17.7222 4.24724 16.0061 3.79471 14.1392Z" fill="#C61A02"/>
<path d="M24.165 8.31726L23.878 8.97759C23.6668 9.46059 22.9972 9.46059 22.7872 8.97759L22.5002 8.31726C21.9961 7.14887 21.0724 6.21185 19.9113 5.69109L19.0247 5.29676C18.9176 5.2472 18.8269 5.16803 18.7633 5.06859C18.6998 4.96915 18.666 4.85361 18.666 4.73559C18.666 4.61758 18.6998 4.50203 18.7633 4.4026C18.8269 4.30316 18.9176 4.22399 19.0247 4.17443L19.8623 3.80109C21.0526 3.26552 21.9921 2.29385 22.4873 1.08626L22.7825 0.374595C22.8259 0.264174 22.9015 0.169376 22.9995 0.102557C23.0975 0.0357387 23.2134 0 23.332 0C23.4506 0 23.5665 0.0357387 23.6645 0.102557C23.7625 0.169376 23.8382 0.264174 23.8815 0.374595L24.1778 1.08743C24.6736 2.29479 25.6135 3.26604 26.804 3.80109L27.6405 4.17326C27.7479 4.22268 27.8389 4.30186 27.9027 4.40143C27.9665 4.50099 28.0004 4.61676 28.0004 4.73501C28.0004 4.85326 27.9665 4.96903 27.9027 5.06859C27.8389 5.16816 27.7479 5.24734 27.6405 5.29676L26.755 5.69226C25.5937 6.2125 24.6696 7.1491 24.165 8.31726Z" fill="#C61A02"/>
</g>
<defs>
<clipPath id="clip0_12251_6983">
<rect width="28" height="28" fill="white"/>
</clipPath>
</defs>
</svg>
