<svg width="64" height="64" viewBox="0 0 64 64" fill="none" xmlns="http://www.w3.org/2000/svg">
<rect width="64" height="64" rx="32" fill="url(#paint0_radial_11071_1933)"/>
<rect width="64" height="64" rx="32" fill="url(#paint1_radial_11071_1933)"/>
<path d="M36.3636 41C35.9738 41 35.6339 40.8505 35.344 40.5515C35.0541 40.2525 34.9091 39.902 34.9091 39.5V24.5C34.9091 24.098 35.0541 23.7475 35.344 23.4485C35.6339 23.1495 35.9738 23 36.3636 23H38.5455C38.9353 23 39.2752 23.1495 39.5651 23.4485C39.855 23.7475 40 24.098 40 24.5V39.5C40 39.902 39.855 40.2525 39.5651 40.5515C39.2752 40.8505 38.9353 41 38.5455 41H36.3636ZM25.4545 41C25.0647 41 24.7248 40.8505 24.4349 40.5515C24.145 40.2525 24 39.902 24 39.5V24.5C24 24.098 24.145 23.7475 24.4349 23.4485C24.7248 23.1495 25.0647 23 25.4545 23H27.6364C28.0262 23 28.3661 23.1495 28.656 23.4485C28.9459 23.7475 29.0909 24.098 29.0909 24.5V39.5C29.0909 39.902 28.9459 40.2525 28.656 40.5515C28.3661 40.8505 28.0262 41 27.6364 41H25.4545Z" fill="white"/>
<defs>
<radialGradient id="paint0_radial_11071_1933" cx="0" cy="0" r="1" gradientTransform="matrix(-64.7788 -7.93755 -2.42364 109.43 60.295 45.2385)" gradientUnits="userSpaceOnUse">
<stop offset="0.0614492" stop-color="#DED9B5"/>
<stop offset="0.579558" stop-color="#FD752B"/>
<stop offset="1" stop-color="#C61A02"/>
</radialGradient>
<radialGradient id="paint1_radial_11071_1933" cx="0" cy="0" r="1" gradientTransform="matrix(-162.5 -93.8194 -25.7781 493.519 75 61.6516)" gradientUnits="userSpaceOnUse">
<stop offset="0.0614492" stop-color="#E5063C"/>
<stop offset="0.4" stop-color="#FD752B"/>
<stop offset="0.969559" stop-color="#F32A8B"/>
</radialGradient>
</defs>
</svg>
