<svg width="28" height="28" viewBox="0 0 28 28" fill="none" xmlns="http://www.w3.org/2000/svg">
<path fill-rule="evenodd" clip-rule="evenodd" d="M6.61434 5.55346C6.64585 5.28856 6.73872 5.03466 6.88557 4.81195C7.03242 4.58923 7.22921 4.40385 7.46027 4.27053C7.69134 4.13721 7.95033 4.05964 8.21664 4.04398C8.48295 4.02831 8.74924 4.07499 8.99434 4.1803C10.2333 4.70996 13.01 5.9688 16.5333 8.0023C20.0578 10.037 22.537 11.8138 23.6138 12.62C24.5332 13.3095 24.5355 14.6768 23.615 15.3686C22.5487 16.1701 20.0998 17.9236 16.5333 19.984C12.9633 22.0443 10.2193 23.288 8.99201 23.8106C7.93501 24.2621 6.75201 23.5773 6.61434 22.4375C6.45334 21.1051 6.15234 18.08 6.15234 13.9943C6.15234 9.91096 6.45218 6.88696 6.61434 5.55346Z" fill="white"/>
</svg>
