<svg width="121" height="93" viewBox="0 0 121 93" fill="none" xmlns="http://www.w3.org/2000/svg">
<path d="M53.0716 8.22225e-05V25.3477C53.0716 32.8287 51.6634 40.6618 48.847 48.847C46.1186 57.1202 42.2461 65.0413 37.2294 72.6104C32.2127 80.1795 26.3158 86.6924 19.5389 92.1492L0.00010464 78.1552C5.19284 70.5861 9.68148 62.533 13.466 53.9957C17.3386 45.4585 19.2748 36.0412 19.2748 25.7437V8.22225e-05H53.0716ZM120.269 8.22225e-05V25.3477C120.269 32.8287 118.861 40.6618 116.045 48.847C113.316 57.1202 109.444 65.0413 104.427 72.6104C99.4102 80.1795 93.5134 86.6924 86.7364 92.1492L67.1976 78.1552C72.3904 70.5861 76.879 62.533 80.6635 53.9957C84.5361 45.4585 86.4724 36.0412 86.4724 25.7437V8.22225e-05H120.269Z" fill="#2B2B2D" fill-opacity="0.1"/>
</svg>
