<svg xmlns="http://www.w3.org/2000/svg" width="40" height="40" viewBox="0 0 40 40" fill="none">
    <path
        d="M35.0003 35.0003L27.762 27.762M27.762 27.762C29.0002 26.5239 29.9823 25.054 30.6524 23.4363C31.3225 21.8185 31.6674 20.0847 31.6674 18.3337C31.6674 16.5827 31.3225 14.8488 30.6524 13.2311C29.9823 11.6134 29.0002 10.1435 27.762 8.90534C26.5239 7.6672 25.054 6.68505 23.4363 6.01497C21.8185 5.34489 20.0847 5 18.3337 5C16.5827 5 14.8488 5.34489 13.2311 6.01497C11.6134 6.68505 10.1435 7.6672 8.90534 8.90534C6.40479 11.4059 5 14.7974 5 18.3337C5 21.87 6.40479 25.2615 8.90534 27.762C11.4059 30.2626 14.7974 31.6674 18.3337 31.6674C21.87 31.6674 25.2615 30.2626 27.762 27.762ZM18.3337 13.3337V23.3337M13.3337 18.3337H23.3337"
        stroke="white" stroke-width="2.5" stroke-linecap="round" stroke-linejoin="round" />
</svg>