<svg width="72" height="72" viewBox="0 0 72 72" fill="none" xmlns="http://www.w3.org/2000/svg">
<path d="M23.8538 69.0603C25.8963 69.0603 27.8552 68.2489 29.2995 66.8046C30.7438 65.3603 31.5552 63.4014 31.5552 61.3589C31.5552 59.3163 30.7438 57.3574 29.2995 55.9131C27.8552 54.4688 25.8963 53.6574 23.8538 53.6574C21.8112 53.6574 19.8523 54.4688 18.408 55.9131C16.9637 57.3574 16.1523 59.3163 16.1523 61.3589C16.1523 63.4014 16.9637 65.3603 18.408 66.8046C19.8523 68.2489 21.8112 69.0603 23.8538 69.0603ZM58.5115 59.4329C60.5533 59.4329 62.5116 58.6217 63.9554 57.1779C65.3992 55.7341 66.2103 53.7759 66.2103 51.734C66.2103 49.6921 65.3992 47.7339 63.9554 46.2901C62.5116 44.8463 60.5533 44.0352 58.5115 44.0352C56.4696 44.0352 54.5114 44.8463 53.0676 46.2901C51.6238 47.7339 50.8126 49.6921 50.8126 51.734C50.8126 53.7759 51.6238 55.7341 53.0676 57.1779C54.5114 58.6217 56.4696 59.4329 58.5115 59.4329Z" stroke="#C61A02" stroke-width="3" stroke-linecap="round" stroke-linejoin="round"/>
<path d="M66.2097 51.7327V21.5442C66.2081 21.2494 66.1389 20.959 66.0073 20.6953C65.8757 20.4316 65.6853 20.2016 65.4507 20.0232C65.2161 19.8447 64.9436 19.7226 64.6543 19.6662C64.365 19.6098 64.0667 19.6206 63.7822 19.6979L48.3794 23.9716M66.2097 30.5545L38.1605 38.3459M31.5571 61.355V45.731M10.3222 34.0619V45.7259M4.49023 39.8939H16.1542M24.4908 13.3567C26.7794 10.2659 28.1885 3.94531 28.1885 3.94531C28.1885 3.94531 29.5977 10.2659 31.8811 13.3567C34.1902 16.4733 41.5394 19.199 41.5394 19.199C41.5394 19.199 34.1851 21.9247 31.8811 25.0465C29.5977 28.1322 28.1885 34.4527 28.1885 34.4527C28.1885 34.4527 26.7794 28.1373 24.4908 25.0413C22.1868 21.9299 14.8377 19.199 14.8377 19.199C14.8377 19.199 22.1868 16.4733 24.4908 13.3567Z" stroke="#C61A02" stroke-width="3" stroke-linecap="round" stroke-linejoin="round"/>
</svg>
