<svg width="48" height="48" viewBox="0 0 48 48" fill="none" xmlns="http://www.w3.org/2000/svg">
<path d="M40.0009 4.00088V12.0009M44.0009 8.00088H36.0009M22.0349 5.62888C22.1206 5.17009 22.364 4.75571 22.7231 4.45752C23.0821 4.15933 23.5342 3.99609 24.0009 3.99609C24.4676 3.99609 24.9196 4.15933 25.2787 4.45752C25.6377 4.75571 25.8812 5.17009 25.9669 5.62888L28.0689 16.7449C28.2182 17.5352 28.6022 18.2621 29.1709 18.8308C29.7396 19.3995 30.4666 19.7836 31.2569 19.9329L42.3729 22.0349C42.8317 22.1206 43.246 22.364 43.5442 22.7231C43.8424 23.0821 44.0057 23.5342 44.0057 24.0009C44.0057 24.4676 43.8424 24.9196 43.5442 25.2787C43.246 25.6377 42.8317 25.8812 42.3729 25.9669L31.2569 28.0689C30.4666 28.2182 29.7396 28.6022 29.1709 29.1709C28.6022 29.7396 28.2182 30.4666 28.0689 31.2569L25.9669 42.3729C25.8812 42.8317 25.6377 43.246 25.2787 43.5442C24.9196 43.8424 24.4676 44.0057 24.0009 44.0057C23.5342 44.0057 23.0821 43.8424 22.7231 43.5442C22.364 43.246 22.1206 42.8317 22.0349 42.3729L19.9329 31.2569C19.7836 30.4666 19.3995 29.7396 18.8308 29.1709C18.2621 28.6022 17.5352 28.2182 16.7449 28.0689L5.62888 25.9669C5.17009 25.8812 4.75571 25.6377 4.45752 25.2787C4.15933 24.9196 3.99609 24.4676 3.99609 24.0009C3.99609 23.5342 4.15933 23.0821 4.45752 22.7231C4.75571 22.364 5.17009 22.1206 5.62888 22.0349L16.7449 19.9329C17.5352 19.7836 18.2621 19.3995 18.8308 18.8308C19.3995 18.2621 19.7836 17.5352 19.9329 16.7449L22.0349 5.62888Z" stroke="white" stroke-width="4" stroke-linecap="round" stroke-linejoin="round"/>
<path d="M8 44C10.2091 44 12 42.2091 12 40C12 37.7909 10.2091 36 8 36C5.79086 36 4 37.7909 4 40C4 42.2091 5.79086 44 8 44Z" stroke="white" stroke-width="4" stroke-linecap="round" stroke-linejoin="round"/>
</svg>
