<svg width="48" height="48" viewBox="0 0 48 48" fill="none" xmlns="http://www.w3.org/2000/svg">
<circle cx="24" cy="24" r="24" fill="#D9D9D9"/>
<circle cx="24" cy="24" r="24" fill="url(#paint0_linear_12439_3507)"/>
<path d="M15.2412 23.832C19.9062 21.8 23.0162 20.4604 24.5712 19.813C29.0162 17.9648 29.9387 17.6438 30.5412 17.6329C30.6737 17.6308 30.9687 17.6635 31.1612 17.8192C31.3212 17.9504 31.3662 18.1279 31.3887 18.2525C31.4087 18.377 31.4362 18.6608 31.4137 18.8823C31.1737 21.4123 30.1312 27.5518 29.6012 30.3855C29.3787 31.5845 28.9362 31.9865 28.5087 32.0258C27.5787 32.1113 26.8737 31.4118 25.9737 30.822C24.5662 29.8988 23.7712 29.3243 22.4037 28.4235C20.8237 27.3825 21.8487 26.8103 22.7487 25.8753C22.9837 25.6305 27.0787 21.9068 27.1562 21.569C27.1662 21.5268 27.1762 21.3693 27.0812 21.2863C26.9887 21.203 26.8512 21.2315 26.7512 21.254C26.6087 21.286 24.3612 22.773 20.0012 25.7148C19.3637 26.1533 18.7862 26.367 18.2662 26.3558C17.6962 26.3435 16.5962 26.0328 15.7787 25.7673C14.7787 25.4415 13.9812 25.2693 14.0512 24.716C14.0862 24.428 14.4837 24.1333 15.2412 23.832Z" fill="white"/>
<defs>
<linearGradient id="paint0_linear_12439_3507" x1="2400" y1="0" x2="2400" y2="4800" gradientUnits="userSpaceOnUse">
<stop stop-color="#2AABEE"/>
<stop offset="1" stop-color="#229ED9"/>
</linearGradient>
</defs>
</svg>
