<svg width="48" height="48" viewBox="0 0 48 48" fill="none" xmlns="http://www.w3.org/2000/svg">
<circle cx="24" cy="24" r="24" fill="#D9D9D9"/>
<circle cx="24" cy="24" r="24" fill="url(#paint0_linear_12439_3512)"/>
<g clip-path="url(#clip0_12439_3512)">
<path d="M13.0961 23.3588C13.0955 25.3608 13.6226 27.3151 14.6247 29.0378L13 34.924L19.0708 33.3445C20.7435 34.2495 22.6268 34.7266 24.5432 34.7273H24.5482C30.8595 34.7273 35.9973 29.6309 36 23.3679C36.0011 20.3326 34.8108 17.4784 32.6488 15.3313C30.4866 13.1844 27.6116 12.0012 24.5482 12C18.2357 12 13.0986 17.0957 13.0961 23.3588ZM16.7115 28.7411L16.4849 28.3841C15.532 26.8807 15.029 25.1434 15.0297 23.3595C15.0317 18.1537 19.3015 13.9184 24.5518 13.9184C27.0943 13.9195 29.4838 14.903 31.281 16.6874C33.0782 18.4719 34.0671 20.8441 34.0665 23.3672C34.0641 28.5729 29.7943 32.8088 24.5482 32.8088H24.5444C22.8362 32.8079 21.1609 32.3527 19.6998 31.4925L19.3521 31.2879L15.7496 32.2251L16.7115 28.7411Z" fill="url(#paint1_linear_12439_3512)"/>
<path d="M21.6833 18.6105C21.469 18.1377 21.2434 18.1282 21.0395 18.1199C20.8726 18.1128 20.6817 18.1133 20.4911 18.1133C20.3003 18.1133 19.9902 18.1845 19.7281 18.4685C19.4658 18.7527 18.7266 19.4394 18.7266 20.8363C18.7266 22.2331 19.7519 23.5832 19.8949 23.7728C20.038 23.9621 21.8744 26.9203 24.7828 28.0584C27.2 29.0041 27.6919 28.816 28.2165 28.7686C28.7412 28.7214 29.9095 28.082 30.1479 27.419C30.3864 26.7561 30.3864 26.1879 30.3149 26.0692C30.2434 25.9509 30.0525 25.8798 29.7664 25.7379C29.4802 25.596 28.0734 24.909 27.8111 24.8142C27.5488 24.7196 27.358 24.6723 27.1672 24.9566C26.9764 25.2404 26.4284 25.8798 26.2614 26.0692C26.0946 26.2589 25.9275 26.2826 25.6415 26.1406C25.3551 25.9981 24.4336 25.6987 23.3403 24.7315C22.4897 23.9789 21.9154 23.0496 21.7485 22.7653C21.5815 22.4814 21.7306 22.3276 21.8741 22.1861C22.0026 22.0589 22.1603 21.8545 22.3035 21.6888C22.4462 21.523 22.4938 21.4047 22.5892 21.2153C22.6847 21.0258 22.6369 20.86 22.5655 20.718C22.4938 20.576 21.9378 19.1718 21.6833 18.6105Z" fill="white"/>
</g>
<defs>
<linearGradient id="paint0_linear_12439_3512" x1="2400" y1="4800" x2="2400" y2="0" gradientUnits="userSpaceOnUse">
<stop stop-color="#1FAF38"/>
<stop offset="1" stop-color="#60D669"/>
</linearGradient>
<linearGradient id="paint1_linear_12439_3512" x1="1163" y1="2304.4" x2="1163" y2="12" gradientUnits="userSpaceOnUse">
<stop stop-color="#F9F9F9"/>
<stop offset="1" stop-color="white"/>
</linearGradient>
<clipPath id="clip0_12439_3512">
<rect width="23" height="23" fill="white" transform="translate(13 12)"/>
</clipPath>
</defs>
</svg>
