<svg width="869" height="843" viewBox="0 0 869 843" fill="none" xmlns="http://www.w3.org/2000/svg">
<g opacity="0.1">
<path d="M185.48 386.348L9.16408 370.828C8.23962 373.842 7.38545 376.846 6.60156 379.828L184.68 395.499C184.891 392.43 185.156 389.378 185.48 386.348Z" fill="url(#paint0_linear_11534_6701)"/>
<path d="M188.658 364.941L22.814 335.895C21.4408 338.785 20.1379 341.664 18.8945 344.532L187.085 373.983C187.555 370.953 188.08 367.939 188.658 364.941Z" fill="url(#paint1_linear_11534_6701)"/>
<path d="M193.449 344.689L41.5469 304.996C39.5196 307.54 37.5625 310.187 35.6758 312.948L191.129 353.575C191.849 350.593 192.622 347.628 193.449 344.689Z" fill="url(#paint2_linear_11534_6701)"/>
<path d="M199.535 325.897L66.7656 279.867C64.0193 282.109 61.3271 284.41 58.7051 286.798L196.519 334.572C197.47 331.655 198.476 328.765 199.535 325.897Z" fill="url(#paint3_linear_11534_6701)"/>
<path d="M206.58 308.73L93.8563 260.129C90.8451 262.176 87.8663 264.213 84.9199 266.276L202.936 317.157C204.093 314.321 205.309 311.512 206.58 308.73Z" fill="url(#paint4_linear_11534_6701)"/>
<path d="M214.262 293.242L118.071 243.729C115.184 245.738 112.313 247.699 109.459 249.627L210.046 301.405C211.403 298.655 212.808 295.932 214.262 293.242Z" fill="url(#paint5_linear_11534_6701)"/>
<path d="M222.295 279.419L137.97 229.035C135.359 231.104 132.748 233.103 130.137 235.047L217.576 287.289C219.106 284.637 220.679 282.012 222.295 279.419Z" fill="url(#paint6_linear_11534_6701)"/>
<path d="M230.464 267.162L154.097 215.271C151.75 217.443 149.388 219.539 147.025 221.575L225.29 274.752C226.966 272.186 228.691 269.658 230.464 267.162Z" fill="url(#paint7_linear_11534_6701)"/>
<path d="M238.567 256.348L167.255 202.107C166.179 203.296 165.087 204.468 163.973 205.619C162.935 206.688 161.897 207.747 160.859 208.779L232.999 263.651C234.81 261.183 236.664 258.746 238.567 256.348Z" fill="url(#paint8_linear_11534_6701)"/>
<path d="M246.487 246.834L177.921 189.174C176.061 191.637 174.169 194.041 172.223 196.38L240.573 253.851C242.503 251.474 244.47 249.135 246.487 246.834Z" fill="url(#paint9_linear_11534_6701)"/>
<path d="M254.136 238.472L186.829 176.518C185.11 179.116 183.359 181.671 181.58 184.172L247.908 245.219C249.941 242.934 252.017 240.681 254.136 238.472Z" fill="url(#paint10_linear_11534_6701)"/>
<path d="M184.073 413.103C184.073 411.569 184.09 410.04 184.117 408.512H1.05381C0.67538 411.591 0.36723 414.654 0.134766 417.695H184.117C184.09 416.166 184.073 414.637 184.073 413.103Z" fill="url(#paint11_linear_11534_6701)"/>
<path d="M184.679 430.709L0 446.963C0.21084 450.037 0.497366 453.084 0.854171 456.109L185.479 439.86C185.155 436.829 184.89 433.777 184.679 430.709Z" fill="url(#paint12_linear_11534_6701)"/>
<path d="M187.084 452.225L6.14062 483.912C6.92992 486.899 7.7895 489.854 8.71395 492.782L188.658 461.267C188.079 458.269 187.555 455.255 187.084 452.225Z" fill="url(#paint13_linear_11534_6701)"/>
<path d="M191.128 472.633L18.3906 517.776C19.6935 520.618 21.0667 523.421 22.4939 526.193L193.447 481.519C192.62 478.58 191.847 475.615 191.128 472.633Z" fill="url(#paint14_linear_11534_6701)"/>
<path d="M196.519 491.637L35.0215 547.622C36.7623 550.28 38.5625 552.9 40.4114 555.476L199.536 500.312C198.476 497.444 197.471 494.554 196.519 491.637Z" fill="url(#paint15_linear_11534_6701)"/>
<path d="M202.935 509.053L54.2656 573.146C56.3632 575.599 58.504 578.013 60.6881 580.379L206.578 517.48C205.308 514.698 204.092 511.889 202.935 509.053Z" fill="url(#paint16_linear_11534_6701)"/>
<path d="M210.045 524.805L74.6641 594.489C77.0536 596.736 79.4701 598.935 81.9191 601.09L214.262 532.967C212.807 530.277 211.402 527.554 210.045 524.805Z" fill="url(#paint17_linear_11534_6701)"/>
<path d="M217.575 538.914L95.1855 612.045C97.8075 614.087 100.451 616.069 103.116 617.998L222.295 546.79C220.678 544.192 219.1 541.566 217.575 538.914Z" fill="url(#paint18_linear_11534_6701)"/>
<path d="M225.29 551.459L115.172 626.281C117.994 628.123 120.827 629.895 123.67 631.607H123.676L230.463 559.049C228.69 556.553 226.966 554.025 225.29 551.459Z" fill="url(#paint19_linear_11534_6701)"/>
<path d="M232.999 562.559L134.25 637.666C135.05 638.104 135.845 638.531 136.645 638.958C138.878 640.146 141.051 641.297 143.181 642.415L238.567 569.862C236.664 567.464 234.81 565.027 232.999 562.559Z" fill="url(#paint20_linear_11534_6701)"/>
<path d="M240.573 572.359L151.885 646.938C154.945 648.51 157.902 650.012 160.772 651.459L246.487 579.376C244.47 577.075 242.503 574.736 240.573 572.359Z" fill="url(#paint21_linear_11534_6701)"/>
<path d="M247.909 580.99L167.639 654.872C170.682 656.368 173.639 657.805 176.521 659.183L254.137 587.737C252.018 585.528 249.942 583.275 247.909 580.99Z" fill="url(#paint22_linear_11534_6701)"/>
<path d="M689.484 395.501L862.956 380.235C863.697 377.124 864.362 373.991 864.946 370.836L688.684 386.35C689.008 389.381 689.273 392.433 689.484 395.501Z" fill="url(#paint23_linear_11534_6701)"/>
<path d="M868.015 332.979L685.504 364.942C686.082 367.94 686.607 370.954 687.077 373.984L867.988 342.302C868.075 339.223 868.086 336.117 868.015 332.979Z" fill="url(#paint24_linear_11534_6701)"/>
<path d="M683.034 353.576L865.54 305.877C865.07 302.89 864.529 299.87 863.918 296.812L680.715 344.689C681.542 347.628 682.315 350.594 683.034 353.576Z" fill="url(#paint25_linear_11534_6701)"/>
<path d="M677.644 334.572L857.674 272.158C856.771 269.193 855.83 266.276 854.857 263.418L674.627 325.896C675.687 328.765 676.692 331.655 677.644 334.572Z" fill="url(#paint26_linear_11534_6701)"/>
<path d="M671.226 317.156L846.298 241.676C845.033 238.845 843.72 236.079 842.374 233.373L667.582 308.729C668.852 311.511 670.069 314.32 671.226 317.156Z" fill="url(#paint27_linear_11534_6701)"/>
<path d="M664.117 301.404L832.081 214.947C830.432 212.305 828.745 209.729 827.021 207.217L659.9 293.242C661.355 295.932 662.76 298.655 664.117 301.404Z" fill="url(#paint28_linear_11534_6701)"/>
<path d="M656.587 287.289L815.684 192.227C813.684 189.817 811.64 187.473 809.564 185.193L651.867 279.419C653.484 282.012 655.057 284.637 656.587 287.289Z" fill="url(#paint29_linear_11534_6701)"/>
<path d="M648.873 274.751L797.953 173.455C795.628 171.289 793.271 169.187 790.882 167.156L643.699 267.162C645.472 269.657 647.197 272.185 648.873 274.751Z" fill="url(#paint30_linear_11534_6701)"/>
<path d="M641.164 263.65L779.702 158.275C777.112 156.358 774.49 154.505 771.847 152.717L635.596 256.347C637.499 258.745 639.353 261.181 641.164 263.65Z" fill="url(#paint31_linear_11534_6701)"/>
<path d="M633.59 253.85L761.624 146.185C758.823 144.5 756.001 142.874 753.158 141.312L627.676 246.833C629.692 249.134 631.66 251.473 633.59 253.85Z" fill="url(#paint32_linear_11534_6701)"/>
<path d="M626.253 245.22L744.226 136.631C741.269 135.145 738.29 133.73 735.301 132.363L620.025 238.473C622.145 240.682 624.221 242.935 626.253 245.22Z" fill="url(#paint33_linear_11534_6701)"/>
<path d="M690.09 413.103C690.09 414.637 690.074 416.166 690.047 417.695H850.301C851.626 414.637 852.88 411.575 854.064 408.512H690.047C690.074 410.04 690.09 411.569 690.09 413.103Z" fill="url(#paint34_linear_11534_6701)"/>
<path d="M688.684 439.86L832.784 452.543C834.444 449.599 836.061 446.666 837.628 443.749L689.484 430.709C689.273 433.777 689.008 436.829 688.684 439.86Z" fill="url(#paint35_linear_11534_6701)"/>
<path d="M685.504 461.267L813.922 483.756C815.716 480.936 817.473 478.138 819.198 475.361L687.077 452.225C686.607 455.255 686.082 458.269 685.504 461.267Z" fill="url(#paint36_linear_11534_6701)"/>
<path d="M680.715 481.519L795.828 511.602C797.623 508.88 799.396 506.179 801.153 503.505L683.034 472.633C682.315 475.615 681.542 478.58 680.715 481.519Z" fill="url(#paint37_linear_11534_6701)"/>
<path d="M674.627 500.312L779.295 536.597C781.052 533.934 782.793 531.297 784.518 528.688L677.644 491.637C676.692 494.554 675.687 497.444 674.627 500.312Z" fill="url(#paint38_linear_11534_6701)"/>
<path d="M667.582 517.48L764.493 559.263C766.19 556.633 767.877 554.029 769.558 551.447L671.226 509.053C670.069 511.889 668.852 514.698 667.582 517.48Z" fill="url(#paint39_linear_11534_6701)"/>
<path d="M659.9 532.967L751.405 580.066C752.627 577.965 753.886 575.896 755.178 573.849C755.524 573.303 755.87 572.757 756.216 572.212L664.117 524.805C662.76 527.554 661.355 530.277 659.9 532.967Z" fill="url(#paint40_linear_11534_6701)"/>
<path d="M651.867 546.79L741.042 600.074C742.334 597.276 743.669 594.51 745.058 591.777L656.587 538.914C655.062 541.566 653.484 544.192 651.867 546.79Z" fill="url(#paint41_linear_11534_6701)"/>
<path d="M643.699 559.049L732.787 619.582C733.922 616.649 735.09 613.743 736.296 610.858L648.873 551.459C647.197 554.025 645.472 556.553 643.699 559.049Z" fill="url(#paint42_linear_11534_6701)"/>
<path d="M635.596 569.862L725.9 638.547C726.938 635.495 728.003 632.459 729.095 629.439L641.164 562.559C639.353 565.027 637.499 567.464 635.596 569.862Z" fill="url(#paint43_linear_11534_6701)"/>
<path d="M627.676 579.376L719.878 656.91C720.872 653.755 721.883 650.611 722.916 647.473L633.59 572.359C631.66 574.736 629.692 577.075 627.676 579.376Z" fill="url(#paint44_linear_11534_6701)"/>
<path d="M620.025 587.737L714.368 674.578C715.368 671.337 716.368 668.096 717.374 664.86L626.253 580.99C624.221 583.275 622.145 585.528 620.025 587.737Z" fill="url(#paint45_linear_11534_6701)"/>
<path d="M432.486 160.34C434.016 160.313 435.546 160.297 437.082 160.297C438.617 160.297 440.147 160.313 441.677 160.34V10.2C438.66 9.04399 435.6 7.96902 432.486 6.98047V160.34Z" fill="url(#paint46_linear_11534_6701)"/>
<path d="M396.049 0L410.305 161.7C413.338 161.376 416.392 161.112 419.463 160.901L405.358 0.902116C402.298 0.507778 399.195 0.205272 396.049 0Z" fill="url(#paint47_linear_11534_6701)"/>
<path d="M360.324 2.07508L388.879 164.877C391.88 164.299 394.897 163.775 397.929 163.305L369.417 0.724609C366.417 1.07573 363.39 1.52409 360.324 2.07508Z" fill="url(#paint48_linear_11534_6701)"/>
<path d="M377.506 167.345L335.884 8.3457C332.922 9.32885 330.029 10.3768 327.213 11.4788L368.613 169.662C371.554 168.836 374.522 168.063 377.506 167.345Z" fill="url(#paint49_linear_11534_6701)"/>
<path d="M358.486 172.732L305.992 21.5547C303.235 23.1158 300.559 24.7364 297.953 26.4218L349.803 175.746C352.674 174.688 355.566 173.683 358.486 172.732Z" fill="url(#paint50_linear_11534_6701)"/>
<path d="M341.058 179.143L280.661 39.2715C278.185 41.3674 275.785 43.5228 273.449 45.743L332.625 182.784C335.409 181.514 338.22 180.299 341.058 179.143Z" fill="url(#paint51_linear_11534_6701)"/>
<path d="M325.293 186.248L260.073 59.7461C257.889 62.2634 255.764 64.8293 253.699 67.4384L317.124 190.461C319.816 189.008 322.541 187.604 325.293 186.248Z" fill="url(#paint52_linear_11534_6701)"/>
<path d="M311.172 193.771L243.666 80.9688C241.73 83.7507 239.843 86.5597 238 89.3957L303.29 198.492C305.89 196.872 308.518 195.294 311.172 193.771Z" fill="url(#paint53_linear_11534_6701)"/>
<path d="M298.619 201.479L230.496 101.371C228.739 104.272 227.02 107.184 225.322 110.106L291.023 206.649C293.521 204.877 296.051 203.154 298.619 201.479Z" fill="url(#paint54_linear_11534_6701)"/>
<path d="M287.508 209.184L219.623 120.074C217.98 122.991 216.353 125.908 214.736 128.814L280.199 214.748C282.6 212.846 285.038 210.993 287.508 209.184Z" fill="url(#paint55_linear_11534_6701)"/>
<path d="M277.702 216.751L210.325 136.754C208.731 139.628 207.141 142.485 205.541 145.327L270.68 222.66C272.983 220.645 275.324 218.679 277.702 216.751Z" fill="url(#paint56_linear_11534_6701)"/>
<path d="M269.064 224.08L202.087 151.43C200.493 154.228 198.887 156.999 197.26 159.743L262.312 230.303C264.523 228.185 266.777 226.111 269.064 224.08Z" fill="url(#paint57_linear_11534_6701)"/>
<path d="M261.458 231.126L194.557 164.277C192.919 166.984 191.259 169.658 189.578 172.288L254.96 237.619C257.085 235.415 259.253 233.249 261.458 231.126Z" fill="url(#paint58_linear_11534_6701)"/>
<path d="M454.699 665.309L467.733 813.197C471.004 815.179 474.242 817.092 477.47 818.923L463.857 664.51C460.824 664.834 457.77 665.099 454.699 665.309Z" fill="url(#paint59_linear_11534_6701)"/>
<path d="M476.232 662.904L506.037 832.842C509.345 834.149 512.659 835.338 515.989 836.402L485.282 661.332C482.282 661.91 479.265 662.434 476.232 662.904Z" fill="url(#paint60_linear_11534_6701)"/>
<path d="M496.656 658.864L544.636 842.156C547.793 842.41 550.988 842.539 554.226 842.534L505.549 656.547C502.608 657.373 499.64 658.146 496.656 658.864Z" fill="url(#paint61_linear_11534_6701)"/>
<path d="M515.676 653.479L580.344 839.731C583.29 839.115 586.28 838.391 589.318 837.554L524.358 650.465C521.487 651.524 518.595 652.528 515.676 653.479Z" fill="url(#paint62_linear_11534_6701)"/>
<path d="M533.105 647.065L611.911 829.568C614.76 828.309 617.522 826.98 620.198 825.586L541.544 643.424C538.76 644.693 535.944 645.903 533.105 647.065Z" fill="url(#paint63_linear_11534_6701)"/>
<path d="M548.869 639.961L638.6 814.005C641.125 812.109 643.552 810.143 645.899 808.106L557.038 635.748C554.346 637.201 551.621 638.606 548.869 639.961Z" fill="url(#paint64_linear_11534_6701)"/>
<path d="M562.99 632.438L659.776 794.165C661.912 791.697 663.961 789.158 665.929 786.554L570.872 627.717C568.272 629.337 565.645 630.915 562.99 632.438Z" fill="url(#paint65_linear_11534_6701)"/>
<path d="M575.543 624.728L675.778 772.022C677.552 769.126 679.244 766.171 680.866 763.163L583.139 619.559C580.641 621.33 578.111 623.054 575.543 624.728Z" fill="url(#paint66_linear_11534_6701)"/>
<path d="M586.652 617.025L687.65 749.604C689.115 746.444 690.526 743.246 691.883 740.004L593.961 611.461C591.561 613.362 589.123 615.215 586.652 617.025Z" fill="url(#paint67_linear_11534_6701)"/>
<path d="M596.459 609.458L696.559 728.311C697.813 725.027 699.024 721.721 700.197 718.382V718.377L603.482 603.549C601.179 605.564 598.838 607.53 596.459 609.458Z" fill="url(#paint68_linear_11534_6701)"/>
<path d="M605.1 602.127L703.491 708.853C704.605 705.541 705.697 702.208 706.773 698.864L611.852 595.904C609.641 598.022 607.386 600.096 605.1 602.127Z" fill="url(#paint69_linear_11534_6701)"/>
<path d="M612.705 595.083L709.129 691.431C710.167 688.141 711.194 684.841 712.221 681.535L619.203 588.59C617.079 590.794 614.911 592.96 612.705 595.083Z" fill="url(#paint70_linear_11534_6701)"/>
<path d="M432.486 665.871V790.298C435.589 792.389 438.649 794.442 441.677 796.456V665.871C440.147 665.898 438.617 665.914 437.082 665.914C435.546 665.914 434.016 665.898 432.486 665.871Z" fill="url(#paint71_linear_11534_6701)"/>
<path d="M401.059 769.366C404.01 771.289 406.919 773.201 409.784 775.097L419.461 665.309C416.39 665.099 413.336 664.834 410.303 664.51L401.059 769.366Z" fill="url(#paint72_linear_11534_6701)"/>
<path d="M373.014 751.792C375.863 753.494 378.674 755.206 381.442 756.913L397.931 662.904C394.898 662.434 391.881 661.91 388.881 661.332L373.014 751.792Z" fill="url(#paint73_linear_11534_6701)"/>
<path d="M368.612 656.547L347.496 737.235C350.302 738.753 353.07 740.276 355.795 741.805L377.506 658.864C374.521 658.146 371.553 657.373 368.612 656.547Z" fill="url(#paint74_linear_11534_6701)"/>
<path d="M349.805 650.465L323.877 725.141C326.683 726.496 329.451 727.869 332.181 729.246L358.487 653.479C355.568 652.528 352.675 651.524 349.805 650.465Z" fill="url(#paint75_linear_11534_6701)"/>
<path d="M332.625 643.424L301.82 714.761C304.523 716.015 307.302 717.311 310.151 718.645L341.064 647.07C338.225 645.909 335.409 644.693 332.625 643.424Z" fill="url(#paint76_linear_11534_6701)"/>
<path d="M317.125 635.75L281.244 705.343C283.958 706.569 286.748 707.833 289.624 709.151L325.293 639.963C322.542 638.608 319.817 637.203 317.125 635.75Z" fill="url(#paint77_linear_11534_6701)"/>
<path d="M303.29 627.721L261.977 696.751C264.712 697.956 267.534 699.204 270.443 700.5L311.172 632.442C308.518 630.913 305.891 629.336 303.29 627.721Z" fill="url(#paint78_linear_11534_6701)"/>
<path d="M291.024 619.559L243.85 688.876C246.628 690.069 249.488 691.307 252.44 692.587L298.619 624.728C296.051 623.054 293.521 621.33 291.024 619.559Z" fill="url(#paint79_linear_11534_6701)"/>
<path d="M280.199 611.461L226.781 681.578C229.619 682.788 232.517 684.025 235.496 685.299L287.508 617.025C285.038 615.215 282.6 613.362 280.199 611.461Z" fill="url(#paint80_linear_11534_6701)"/>
<path d="M270.681 603.549L210.748 674.703C213.662 675.961 216.587 677.22 219.56 678.495L277.703 609.458C275.324 607.53 272.984 605.564 270.681 603.549Z" fill="url(#paint81_linear_11534_6701)"/>
<path d="M262.311 595.904L195.756 668.095C198.729 669.435 201.676 670.742 204.622 672.028L269.063 602.127C266.776 600.096 264.522 598.022 262.311 595.904Z" fill="url(#paint82_linear_11534_6701)"/>
<path d="M254.959 588.59L181.803 661.688C184.825 663.109 187.777 664.476 190.685 665.799L261.457 595.083C259.251 592.96 257.083 590.794 254.959 588.59Z" fill="url(#paint83_linear_11534_6701)"/>
<path d="M475.735 26.9931C472.858 25.2699 469.928 23.5845 466.944 21.9531L454.699 160.901C457.77 161.111 460.824 161.376 463.857 161.7L475.735 26.9931Z" fill="url(#paint84_linear_11534_6701)"/>
<path d="M505.891 47.3789C503.193 45.3856 500.43 43.3815 497.614 41.3828L476.232 163.304C479.265 163.774 482.282 164.298 485.282 164.876L505.891 47.3789Z" fill="url(#paint85_linear_11534_6701)"/>
<path d="M505.549 169.661L532.326 67.3603C529.747 65.4426 527.109 63.4385 524.395 61.375L496.656 167.344C499.64 168.062 502.608 168.835 505.549 169.661Z" fill="url(#paint86_linear_11534_6701)"/>
<path d="M524.358 175.745L556.481 83.2272C553.865 81.9037 551.162 80.3372 548.367 78.5762L515.676 172.731C518.595 173.682 521.487 174.687 524.358 175.745Z" fill="url(#paint87_linear_11534_6701)"/>
<path d="M541.539 182.784L580.912 91.5999C577.776 90.8166 574.787 90.0063 571.959 89.1582L533.105 179.143C535.944 180.299 538.755 181.514 541.539 182.784Z" fill="url(#paint88_linear_11534_6701)"/>
<path d="M557.038 190.459L605.282 96.877C602.076 96.245 598.952 95.6183 595.919 94.9863L548.869 186.246C551.621 187.602 554.346 189.006 557.038 190.459Z" fill="url(#paint89_linear_11534_6701)"/>
<path d="M570.872 198.493C570.872 198.493 570.872 198.493 570.878 198.493L628.956 101.437C625.702 100.799 622.496 100.189 619.355 99.584L562.99 193.766C565.645 195.295 568.272 196.872 570.872 198.493Z" fill="url(#paint90_linear_11534_6701)"/>
<path d="M583.139 206.651L651.602 106.051C648.326 105.338 645.082 104.663 641.876 104.004L575.543 201.481C578.111 203.156 580.641 204.879 583.139 206.651Z" fill="url(#paint91_linear_11534_6701)"/>
<path d="M593.961 214.747L672.956 111.052C669.691 110.215 666.447 109.426 663.225 108.67L586.652 209.183C589.123 210.993 591.561 212.845 593.961 214.747Z" fill="url(#paint92_linear_11534_6701)"/>
<path d="M603.482 222.66L692.851 116.556C689.623 115.579 686.401 114.65 683.195 113.764L596.459 216.751C598.838 218.679 601.179 220.646 603.482 222.66Z" fill="url(#paint93_linear_11534_6701)"/>
<path d="M611.852 230.305L711.163 122.586C707.995 121.452 704.827 120.366 701.664 119.334L605.1 224.082C607.386 226.113 609.641 228.188 611.852 230.305Z" fill="url(#paint94_linear_11534_6701)"/>
<path d="M619.203 237.619L727.829 129.078C724.753 127.782 721.661 126.534 718.568 125.346L612.705 231.126C614.911 233.249 617.079 235.415 619.203 237.619Z" fill="url(#paint95_linear_11534_6701)"/>
<path d="M437.08 218.637C329.595 218.637 242.459 305.704 242.459 413.105C242.459 520.505 329.595 607.573 437.08 607.573C544.565 607.573 631.701 520.505 631.701 413.105C631.701 305.704 544.565 218.637 437.08 218.637ZM522.151 429.159C513.88 441.384 502.414 453.76 488.012 465.914C463.641 486.517 438.891 499.659 438.643 499.795L437.075 500.61L435.507 499.795C435.264 499.659 410.525 486.517 386.138 465.914C371.742 453.738 360.253 441.384 352.004 429.159C341.521 413.64 336.212 398.288 336.212 383.513C336.212 365.217 341.575 350.07 351.706 339.753C360.67 330.623 373.066 325.594 386.592 325.594C398.551 325.594 410.385 329.521 419.997 336.641C427.603 342.302 433.399 349.627 437.069 358.146C440.746 349.611 446.541 342.302 454.147 336.641C463.722 329.521 475.577 325.594 487.514 325.594C501.057 325.594 513.453 330.623 522.432 339.753C532.564 350.07 537.926 365.201 537.926 383.513C537.937 398.304 532.628 413.656 522.151 429.159Z" fill="url(#paint96_linear_11534_6701)"/>
</g>
<circle cx="442" cy="422" r="213" fill="white"/>
<path d="M558.855 311.199L344.512 305.479C342.745 305.565 331.85 306.14 327.625 306.37C323.715 306.729 320.711 309.733 320.711 313.484V366.189C319.274 365.916 310.478 369.494 309.069 370.141C293.92 377.27 282.738 389.142 278.398 402.696C268.897 432.634 272.735 464.584 283.256 485.34C290.614 499.741 300.977 507.546 311.197 510.305C317.434 511.973 324.032 511.915 330.514 511.312C331.649 516.529 336.78 520.05 342.256 518.857C347.502 528.832 357.664 537.384 365.77 538.217C358.756 564.06 401.17 586.094 422.139 560.826C430.806 567.538 443.928 572.957 456.059 572.957C474.959 572.957 488.944 560.179 491.23 546.166C504.668 548.077 519.156 541.825 526.73 530.773C533.701 520.582 534.693 506.899 529.921 495.617C532.853 493.762 534.822 490.399 534.463 486.432L558.854 486.317C563.108 486.202 566.572 482.667 566.572 478.412L566.558 319.103C566.558 314.849 563.095 311.314 558.855 311.199ZM331.55 369.868V393.798C331.55 394.891 329.911 394.891 329.911 393.798V369.868C329.911 368.775 331.55 368.775 331.55 369.868ZM328.934 330.229C328.934 329.137 330.572 329.137 330.572 330.229V356.086C330.572 357.178 328.934 357.178 328.934 356.086V330.229ZM311.615 508.697C301.841 506.052 291.866 498.578 284.723 484.565C274.418 464.227 270.551 432.81 279.966 403.172C284.105 390.251 295.244 378.45 309.775 371.609C312.923 370.158 319.275 368.016 319.793 367.901C320.483 382.475 318.729 398.529 325.672 425.952C326.893 431.198 327.785 435.711 331.248 439.663C323.386 441.072 316.157 445.14 310.882 451.147C310.163 451.967 311.399 453.059 312.118 452.225C317.206 446.433 324.191 442.524 331.809 441.216C332.053 441.173 332.24 441.014 332.355 440.799C332.786 441.201 333.246 441.561 333.706 441.891C332.513 442.279 331.723 443.443 331.234 444.392C329.524 447.727 328.086 451.248 326.98 454.856C326.664 455.905 328.23 456.379 328.561 455.344C329.639 451.837 331.033 448.402 332.7 445.154C333.318 443.961 333.864 443.386 334.454 443.372C334.813 443.358 335.057 443.084 335.158 442.768C341.094 445.686 347.605 443.343 354.188 442.28C370.443 439.621 386.67 433.785 391.527 431.054C391.987 430.796 394.99 429.057 395.465 429.33C396.615 430.192 396.485 437.781 396.73 439.635C399.389 460.03 408.846 480.613 421.336 495.371C423.535 497.987 428.436 502.558 429.069 503.046C429.586 503.477 430.046 504.095 430.448 504.685C427.128 504.541 427.028 505.188 423.995 504.871C422.285 504.699 412.037 504.613 411.692 504.627C350.204 504.138 328.272 513.152 311.615 508.697ZM438.971 433.139C453.359 426.686 456.118 415.058 465.791 415.432C468.68 415.633 471.181 417.832 471.856 420.779C473.15 426.485 464.9 434.735 460.502 438.572C459.683 439.291 460.746 440.527 461.58 439.808C463.908 437.767 465.805 435.884 467.43 434.045C471.669 437.35 476.643 439.636 481.917 440.628C481.975 440.642 482.018 440.642 482.076 440.642C483.067 440.642 483.211 439.19 482.219 439.003C477.246 438.084 472.546 435.913 468.522 432.809C469.772 431.271 471.396 428.971 472.302 427.218C490.368 442.626 517.474 428.066 515.723 404.451C514.731 390.668 503.477 379.342 489.492 379.169C471.67 378.896 458.734 396.359 463.822 413.88C455.572 415.03 452.54 423.165 442.608 429.273C433.194 410.976 435.954 387.346 451.103 372.315C479.949 343.714 528.444 362.959 531.388 403.318V403.332C532.753 422.045 522.951 439.552 507.443 448.49C491.072 457.904 470.391 456.697 455.055 444.494L454.178 443.287C451.692 445.084 449.119 446.952 446.374 448.332C441.602 450.747 438.785 450.473 437.693 450.632C436.629 450.632 436.543 452.284 437.807 452.284C443.93 452.284 449.076 448.95 453.761 445.601C461.695 451.997 471.181 455.633 481.07 456.251C480.408 457.875 479.675 459.571 478.727 461.569C473.021 473.843 463.793 483.315 454.049 486.908C444.232 490.53 431.785 492.068 419.583 490.516C411.103 479.262 404.247 465.536 400.582 450.933C408.214 439.434 426.81 438.745 438.971 433.139ZM481.715 396.128C481.701 395.955 481.787 395.869 481.859 395.812C481.902 395.783 481.974 395.74 482.075 395.74C482.118 395.74 482.175 395.754 482.247 395.783L502.872 405.025C503.045 405.096 503.074 405.255 503.088 405.341C503.088 405.413 503.088 405.571 502.944 405.671C482.851 418.319 483.929 418.018 483.512 417.831C483.455 417.802 483.297 417.701 483.282 417.486L481.715 396.128ZM421.866 558.513C410.367 549.659 413.702 538.348 421.578 538.348C430.073 538.348 427.457 551.053 421.866 558.513ZM489.836 544.255C488.931 544.083 487.996 543.853 486.976 543.565C484.259 542.775 481.773 540.949 480.925 539.095C478.324 533.447 491.086 530.86 489.836 544.255ZM528.441 496.338C532.968 507.103 532.005 520.124 525.379 529.841C518.15 540.39 504.309 546.341 491.474 544.53C492.696 531.479 481.614 530.732 479.386 535.691C477.475 539.873 482.074 543.869 486.515 545.148C487.608 545.464 488.628 545.709 489.591 545.895C487.608 558.055 476.497 568.432 462.843 570.732C450.626 572.816 436.9 569.107 424.18 560.254C423.835 560.024 423.49 559.779 423.159 559.521C430.648 549.589 430.878 536.194 421.176 536.711C412.351 537.113 407.766 549.719 420.831 559.794C400.881 583.724 360.378 562.467 367.449 538.263C374.636 538.062 377.999 531.077 375.541 526.952C375.326 526.564 374.837 526.449 374.449 526.65C370.712 528.662 367.823 532.183 366.256 536.596C358.596 536.021 348.75 527.598 343.834 518.342C347.442 516.876 349.972 513.341 349.986 509.201C417.482 502.935 435.474 509.345 432.299 504.588C432.285 504.573 432.27 504.544 432.256 504.53C434.987 502.23 434.987 496.194 434.512 492.586C442.073 492.083 451.53 490.258 458.271 486.794L514.757 486.521C514.226 493.909 521.571 499.241 528.441 496.338ZM368.024 536.583C369.375 533.119 371.618 530.303 374.478 528.535C375.513 531.495 373.04 536.138 368.024 536.583ZM564.919 478.404C564.919 481.767 562.174 484.57 558.825 484.656L461.206 485.13C471.583 478.547 478.209 467.696 482.794 456.313C512.502 457.089 535.082 431.592 533.025 403.233C530.007 361.553 479.832 341.474 449.936 371.153C434.356 386.618 431.323 411.068 441.197 430.138C431.194 435.758 421.119 435.945 410.612 440.903C404.963 434.493 399.028 430.052 397.288 429.19C396.139 426.344 393.609 427.968 390.706 429.606C386.221 432.136 370.354 437.943 353.911 440.645C348.435 441.521 342.384 443.491 337.425 441.91V313.475C337.425 310.054 340.314 307.122 344.209 307.122H344.267L558.797 312.842C562.16 312.929 564.906 315.731 564.906 319.094L564.919 478.404Z" fill="#C61A02" stroke="#C61A02" stroke-width="2"/>
<path d="M553.955 344.844C537.555 344.743 337.53 343.464 347.188 343.521C346.096 343.521 346.096 345.16 347.188 345.174C347.878 345.174 554.315 346.497 553.955 346.497C555.047 346.482 555.047 344.844 553.955 344.844Z" fill="#C61A02" stroke="#C61A02" stroke-width="2"/>
<path d="M363.152 335.862C366.745 335.862 369.634 332.068 369.634 327.382C369.634 322.726 366.731 318.945 363.152 318.945C359.559 318.945 356.627 322.74 356.627 327.382C356.627 332.082 359.559 335.862 363.152 335.862Z" fill="#C61A02" stroke="#C61A02" stroke-width="2"/>
<path d="M386.367 336.007C389.96 336.007 392.849 332.213 392.849 327.527C392.849 322.87 389.946 319.09 386.367 319.09C382.774 319.09 379.842 322.884 379.842 327.527C379.842 332.212 382.774 336.007 386.367 336.007Z" fill="#C61A02" stroke="#C61A02" stroke-width="2"/>
<path d="M408.603 336.665C412.196 336.665 415.085 332.871 415.085 328.185C415.085 323.528 412.182 319.748 408.603 319.748C405.01 319.748 402.078 323.542 402.078 328.185C402.078 332.87 405.01 336.665 408.603 336.665Z" fill="#C61A02" stroke="#C61A02" stroke-width="2"/>
<path d="M500.573 374.211C499.567 373.808 498.934 375.303 499.94 375.734C504.841 377.761 509.239 381.052 512.689 385.22C513.364 386.054 514.658 385.019 513.954 384.171C510.346 379.802 505.718 376.352 500.573 374.211Z" fill="#C61A02" stroke="#C61A02" stroke-width="2"/>
<path d="M498.558 439.476C503.875 437.708 508.719 434.589 512.585 430.449C513.333 429.645 512.111 428.538 511.378 429.328C507.699 433.281 503.085 436.256 498.026 437.923C497.005 438.268 497.537 439.835 498.558 439.476Z" fill="#C61A02" stroke="#C61A02" stroke-width="2"/>
<path d="M484.058 371.896C478.482 372.528 473.092 374.598 468.478 377.875C467.587 378.507 468.55 379.844 469.427 379.211C473.81 376.107 478.927 374.138 484.245 373.534C485.337 373.405 485.108 371.752 484.058 371.896Z" fill="#C61A02" stroke="#C61A02" stroke-width="2"/>
<path d="M520.736 415.875C522.202 410.615 522.461 404.894 521.239 399.203C521.009 398.125 519.399 398.484 519.629 399.548C520.793 404.981 520.549 410.399 519.155 415.444C518.882 416.436 520.448 416.953 520.736 415.875Z" fill="#C61A02" stroke="#C61A02" stroke-width="2"/>
<path d="M457.639 390.565C453.614 398.7 454.074 406.519 454.031 406.864C454.06 407.956 455.698 407.928 455.684 406.821C455.727 406.418 455.167 399.261 459.119 391.298C459.594 390.321 458.127 389.588 457.639 390.565Z" fill="#C61A02" stroke="#C61A02" stroke-width="2"/>
<path d="M462.745 428.551C463.363 428.982 464.183 429.025 464.772 428.58C465.792 427.789 467.833 425.188 468.394 424.081C469.86 421.177 467.948 417.512 463.795 417.541C461.567 417.599 459.152 420.861 458.405 422.112C458.089 422.644 458.103 423.333 458.462 423.923C459.612 425.834 461.006 427.344 462.745 428.551ZM459.813 422.96C460.748 421.408 462.717 419.223 463.838 419.194C466.727 419.209 467.819 421.566 466.914 423.348C466.468 424.239 464.557 426.668 463.68 427.214C460.46 424.972 459.396 421.997 459.813 422.96Z" fill="#C61A02" stroke="#C61A02" stroke-width="2"/>
<path d="M408.744 503.634C409.577 504.31 410.627 503.03 409.779 502.355C391.209 487.35 380.616 463.217 382.154 439.389C382.226 438.339 380.587 438.138 380.516 439.288C378.935 463.636 389.757 488.298 408.744 503.634Z" fill="#C61A02" stroke="#C61A02" stroke-width="2"/>
<path d="M353.018 459.856C355.936 459.856 358.322 457.499 358.322 454.552C358.322 451.634 355.936 449.277 353.018 449.277C350.101 449.277 347.715 451.634 347.715 454.552C347.715 457.499 350.101 459.856 353.018 459.856Z" fill="#C61A02" stroke="#C61A02" stroke-width="2"/>
<path d="M369.934 457.127C372.852 457.127 375.238 454.77 375.238 451.824C375.238 448.906 372.852 446.549 369.934 446.549C367.017 446.549 364.631 448.906 364.631 451.824C364.631 454.77 367.017 457.127 369.934 457.127Z" fill="#C61A02" stroke="#C61A02" stroke-width="2"/>
<path d="M425.557 363.643H425.543C425.485 363.643 425.442 363.7 425.385 363.7C425.126 362.824 424.45 362.148 423.574 361.889C423.588 361.832 423.631 361.803 423.631 361.731C423.631 361.271 423.257 360.912 422.812 360.912H359.312C358.852 360.912 358.493 361.286 358.493 361.731C358.493 361.789 358.55 361.832 358.55 361.889C357.674 362.148 356.998 362.824 356.739 363.7C356.682 363.686 356.653 363.643 356.596 363.643H356.581C356.136 363.643 355.762 364.002 355.762 364.462L355.518 383.592C355.518 384.052 355.877 384.412 356.337 384.426H356.351C356.409 384.426 356.452 384.369 356.509 384.369C356.768 385.245 357.444 385.921 358.32 386.18C358.306 386.237 358.263 386.28 358.263 386.338C358.263 386.798 358.636 387.157 359.082 387.157L422.582 387.143C423.042 387.143 423.401 386.769 423.401 386.323C423.401 386.266 423.344 386.223 423.344 386.165C424.22 385.906 424.896 385.231 425.155 384.354C425.212 384.369 425.241 384.412 425.298 384.412H425.313C425.758 384.412 426.132 384.052 426.132 383.592L426.376 364.462C426.376 364.017 426.017 363.643 425.557 363.643ZM371.731 372.64C370.653 372.64 370.638 371.016 371.716 370.987C382.007 370.872 410.163 370.585 409.673 370.585C410.751 370.585 410.766 372.209 409.688 372.238C399.397 372.338 371.241 372.64 371.731 372.64ZM399.872 379.597L391.967 380.675C390.846 380.775 390.703 379.18 391.752 379.036L399.657 377.958C400.764 377.858 400.907 379.453 399.872 379.597Z" fill="#C61A02" stroke="#C61A02" stroke-width="2"/>
<path d="M422.989 414.21C417.7 412.298 411.649 410.487 406.705 413.348C406.173 413.649 405.641 414.023 405.124 414.382C401.904 416.625 401.157 416.337 399.145 415.13C396.5 413.534 395.005 413.348 391.355 416.251L391.168 416.395C387.819 419.097 385.778 417.832 385.735 414.339C385.706 412.816 385.979 411.019 385.275 409.366C385.045 408.834 384.326 408.691 383.909 409.122C381.567 411.623 380.474 414.914 378.706 417.602C375.573 422.331 370.499 423.437 367.941 418.148C370.83 413.721 373.403 405.443 373.014 397.121C372.842 393.37 369.694 392.694 367.927 396.043C363.96 403.574 363.945 412.543 366.058 417.933C364.606 419.629 362.81 419.111 362.522 418.206C362.192 417.171 360.625 417.659 360.956 418.709C361.574 420.678 364.578 421.612 366.82 419.528C370.083 425.277 376.392 424.099 380.086 418.507C381.524 416.323 382.659 413.52 384.096 411.508C384.211 413.118 383.421 417.631 386.453 419.126C387.56 419.672 389.471 419.859 392.202 417.66C395.451 415.029 396.14 415.202 398.311 416.51C399.058 416.955 399.834 417.43 400.783 417.588C403.456 418.076 405.555 415.863 407.538 414.728C411.864 412.227 417.498 413.923 422.443 415.719C423.449 416.122 423.995 414.584 422.989 414.21ZM367.179 416.208C363.816 404.911 371.06 390.753 371.362 397.25C371.664 403.79 370.226 410.33 367.222 416.15C367.208 416.165 367.194 416.179 367.179 416.208Z" fill="#C61A02" stroke="#C61A02" stroke-width="2"/>
<path d="M536.921 415.228C542.914 437.635 528.929 460.746 506.264 465.791C505.214 466.021 505.545 467.63 506.623 467.4C530.18 462.14 544.738 438.137 538.516 414.795C538.229 413.732 536.648 414.179 536.921 415.228Z" fill="#C61A02" stroke="#C61A02" stroke-width="2"/>
<path d="M551.812 442.091C550.791 447.237 548.06 451.994 544.151 455.487C543.806 455.788 543.777 456.306 544.079 456.651C544.381 456.981 544.898 457.024 545.243 456.723C549.426 452.986 552.329 447.912 553.436 442.422C553.637 441.344 552.013 441.042 551.812 442.091Z" fill="#C61A02" stroke="#C61A02" stroke-width="2"/>
<path d="M287.883 413.217C288.084 412.153 286.474 411.837 286.273 412.915C282.752 431.528 284.75 451.42 291.907 468.953C292.309 469.959 293.847 469.341 293.431 468.335C286.373 451.087 284.419 431.511 287.883 413.217Z" fill="#C61A02" stroke="#C61A02" stroke-width="2"/>
<path d="M299.066 428.363L299.655 438.008C299.727 439.114 301.366 438.999 301.294 437.907L300.704 428.263C300.647 427.127 299.008 427.314 299.066 428.363Z" fill="#C61A02" stroke="#C61A02" stroke-width="2"/>
<path d="M594.988 303.005C586.609 301.826 577.899 303.177 570.252 306.785L576.72 284.507C576.921 283.803 576.159 283.199 575.541 283.558C569.188 287.008 564.143 292.498 561.226 299.095L543.878 286.548C543.174 286.045 542.254 286.835 542.671 287.597L549.613 300.605C550.116 301.553 551.582 300.791 551.064 299.828L545.804 289.969L561.111 301.036C561.557 301.366 562.16 301.151 562.362 300.676C564.762 294.74 569.16 289.494 574.578 286.045L568.168 308.136C567.967 308.826 568.685 309.429 569.347 309.099C576.547 305.304 584.869 303.68 592.947 304.428L575.513 319.519C574.693 320.238 575.771 321.474 576.591 320.755L595.433 304.442C595.936 303.982 595.678 303.091 594.988 303.005Z" fill="#C61A02" stroke="#C61A02" stroke-width="2"/>
<path d="M581.779 297.758L589.469 290.715C590.274 289.982 589.152 288.761 588.362 289.494L580.673 296.536C579.853 297.284 580.974 298.491 581.779 297.758Z" fill="#C61A02" stroke="#C61A02" stroke-width="2"/>
<path d="M557.102 271.773L556.326 286.247C556.268 287.339 557.907 287.425 557.964 286.333L558.74 271.845C558.798 270.753 557.159 270.71 557.102 271.773Z" fill="#C61A02" stroke="#C61A02" stroke-width="2"/>
<path d="M509.816 329.696H549.039C550.132 329.696 550.132 328.043 549.039 328.043L509.816 328.057C508.738 328.057 508.738 329.696 509.816 329.696Z" fill="#C61A02" stroke="#C61A02" stroke-width="2"/>
<defs>
<linearGradient id="paint0_linear_11534_6701" x1="96.0408" y1="370.828" x2="96.0408" y2="395.499" gradientUnits="userSpaceOnUse">
<stop stop-color="#C61A02"/>
<stop offset="1" stop-color="#F9ECEC"/>
</linearGradient>
<linearGradient id="paint1_linear_11534_6701" x1="103.776" y1="335.895" x2="103.776" y2="373.983" gradientUnits="userSpaceOnUse">
<stop stop-color="#C61A02"/>
<stop offset="1" stop-color="#F9ECEC"/>
</linearGradient>
<linearGradient id="paint2_linear_11534_6701" x1="114.562" y1="304.996" x2="114.562" y2="353.575" gradientUnits="userSpaceOnUse">
<stop stop-color="#C61A02"/>
<stop offset="1" stop-color="#F9ECEC"/>
</linearGradient>
<linearGradient id="paint3_linear_11534_6701" x1="129.12" y1="279.867" x2="129.12" y2="334.572" gradientUnits="userSpaceOnUse">
<stop stop-color="#C61A02"/>
<stop offset="1" stop-color="#F9ECEC"/>
</linearGradient>
<linearGradient id="paint4_linear_11534_6701" x1="145.75" y1="260.129" x2="145.75" y2="317.157" gradientUnits="userSpaceOnUse">
<stop stop-color="#C61A02"/>
<stop offset="1" stop-color="#F9ECEC"/>
</linearGradient>
<linearGradient id="paint5_linear_11534_6701" x1="161.861" y1="243.729" x2="161.861" y2="301.405" gradientUnits="userSpaceOnUse">
<stop stop-color="#C61A02"/>
<stop offset="1" stop-color="#F9ECEC"/>
</linearGradient>
<linearGradient id="paint6_linear_11534_6701" x1="176.216" y1="229.035" x2="176.216" y2="287.289" gradientUnits="userSpaceOnUse">
<stop stop-color="#C61A02"/>
<stop offset="1" stop-color="#F9ECEC"/>
</linearGradient>
<linearGradient id="paint7_linear_11534_6701" x1="188.745" y1="215.271" x2="188.745" y2="274.752" gradientUnits="userSpaceOnUse">
<stop stop-color="#C61A02"/>
<stop offset="1" stop-color="#F9ECEC"/>
</linearGradient>
<linearGradient id="paint8_linear_11534_6701" x1="199.713" y1="202.107" x2="199.713" y2="263.651" gradientUnits="userSpaceOnUse">
<stop stop-color="#C61A02"/>
<stop offset="1" stop-color="#F9ECEC"/>
</linearGradient>
<linearGradient id="paint9_linear_11534_6701" x1="209.355" y1="189.174" x2="209.355" y2="253.851" gradientUnits="userSpaceOnUse">
<stop stop-color="#C61A02"/>
<stop offset="1" stop-color="#F9ECEC"/>
</linearGradient>
<linearGradient id="paint10_linear_11534_6701" x1="217.858" y1="176.518" x2="217.858" y2="245.219" gradientUnits="userSpaceOnUse">
<stop stop-color="#C61A02"/>
<stop offset="1" stop-color="#F9ECEC"/>
</linearGradient>
<linearGradient id="paint11_linear_11534_6701" x1="92.1257" y1="408.512" x2="92.1257" y2="417.695" gradientUnits="userSpaceOnUse">
<stop stop-color="#C61A02"/>
<stop offset="1" stop-color="#F9ECEC"/>
</linearGradient>
<linearGradient id="paint12_linear_11534_6701" x1="92.7397" y1="430.709" x2="92.7397" y2="456.109" gradientUnits="userSpaceOnUse">
<stop stop-color="#C61A02"/>
<stop offset="1" stop-color="#F9ECEC"/>
</linearGradient>
<linearGradient id="paint13_linear_11534_6701" x1="97.3991" y1="452.225" x2="97.3991" y2="492.782" gradientUnits="userSpaceOnUse">
<stop stop-color="#C61A02"/>
<stop offset="1" stop-color="#F9ECEC"/>
</linearGradient>
<linearGradient id="paint14_linear_11534_6701" x1="105.919" y1="472.633" x2="105.919" y2="526.193" gradientUnits="userSpaceOnUse">
<stop stop-color="#C61A02"/>
<stop offset="1" stop-color="#F9ECEC"/>
</linearGradient>
<linearGradient id="paint15_linear_11534_6701" x1="117.279" y1="491.637" x2="117.279" y2="555.476" gradientUnits="userSpaceOnUse">
<stop stop-color="#C61A02"/>
<stop offset="1" stop-color="#F9ECEC"/>
</linearGradient>
<linearGradient id="paint16_linear_11534_6701" x1="130.422" y1="509.053" x2="130.422" y2="580.379" gradientUnits="userSpaceOnUse">
<stop stop-color="#C61A02"/>
<stop offset="1" stop-color="#F9ECEC"/>
</linearGradient>
<linearGradient id="paint17_linear_11534_6701" x1="144.463" y1="524.805" x2="144.463" y2="601.09" gradientUnits="userSpaceOnUse">
<stop stop-color="#C61A02"/>
<stop offset="1" stop-color="#F9ECEC"/>
</linearGradient>
<linearGradient id="paint18_linear_11534_6701" x1="158.74" y1="538.914" x2="158.74" y2="617.998" gradientUnits="userSpaceOnUse">
<stop stop-color="#C61A02"/>
<stop offset="1" stop-color="#F9ECEC"/>
</linearGradient>
<linearGradient id="paint19_linear_11534_6701" x1="172.818" y1="551.459" x2="172.818" y2="631.607" gradientUnits="userSpaceOnUse">
<stop stop-color="#C61A02"/>
<stop offset="1" stop-color="#F9ECEC"/>
</linearGradient>
<linearGradient id="paint20_linear_11534_6701" x1="186.408" y1="562.559" x2="186.408" y2="642.415" gradientUnits="userSpaceOnUse">
<stop stop-color="#C61A02"/>
<stop offset="1" stop-color="#F9ECEC"/>
</linearGradient>
<linearGradient id="paint21_linear_11534_6701" x1="199.186" y1="572.359" x2="199.186" y2="651.459" gradientUnits="userSpaceOnUse">
<stop stop-color="#C61A02"/>
<stop offset="1" stop-color="#F9ECEC"/>
</linearGradient>
<linearGradient id="paint22_linear_11534_6701" x1="210.888" y1="580.99" x2="210.888" y2="659.183" gradientUnits="userSpaceOnUse">
<stop stop-color="#C61A02"/>
<stop offset="1" stop-color="#F9ECEC"/>
</linearGradient>
<linearGradient id="paint23_linear_11534_6701" x1="776.815" y1="370.836" x2="776.815" y2="395.501" gradientUnits="userSpaceOnUse">
<stop stop-color="#C61A02"/>
<stop offset="1" stop-color="#F9ECEC"/>
</linearGradient>
<linearGradient id="paint24_linear_11534_6701" x1="776.783" y1="332.979" x2="776.783" y2="373.984" gradientUnits="userSpaceOnUse">
<stop stop-color="#C61A02"/>
<stop offset="1" stop-color="#F9ECEC"/>
</linearGradient>
<linearGradient id="paint25_linear_11534_6701" x1="773.128" y1="296.812" x2="773.128" y2="353.576" gradientUnits="userSpaceOnUse">
<stop stop-color="#C61A02"/>
<stop offset="1" stop-color="#F9ECEC"/>
</linearGradient>
<linearGradient id="paint26_linear_11534_6701" x1="766.15" y1="263.418" x2="766.15" y2="334.572" gradientUnits="userSpaceOnUse">
<stop stop-color="#C61A02"/>
<stop offset="1" stop-color="#F9ECEC"/>
</linearGradient>
<linearGradient id="paint27_linear_11534_6701" x1="756.94" y1="233.373" x2="756.94" y2="317.156" gradientUnits="userSpaceOnUse">
<stop stop-color="#C61A02"/>
<stop offset="1" stop-color="#F9ECEC"/>
</linearGradient>
<linearGradient id="paint28_linear_11534_6701" x1="745.991" y1="207.217" x2="745.991" y2="301.404" gradientUnits="userSpaceOnUse">
<stop stop-color="#C61A02"/>
<stop offset="1" stop-color="#F9ECEC"/>
</linearGradient>
<linearGradient id="paint29_linear_11534_6701" x1="733.776" y1="185.193" x2="733.776" y2="287.289" gradientUnits="userSpaceOnUse">
<stop stop-color="#C61A02"/>
<stop offset="1" stop-color="#F9ECEC"/>
</linearGradient>
<linearGradient id="paint30_linear_11534_6701" x1="720.826" y1="167.156" x2="720.826" y2="274.751" gradientUnits="userSpaceOnUse">
<stop stop-color="#C61A02"/>
<stop offset="1" stop-color="#F9ECEC"/>
</linearGradient>
<linearGradient id="paint31_linear_11534_6701" x1="707.649" y1="152.717" x2="707.649" y2="263.65" gradientUnits="userSpaceOnUse">
<stop stop-color="#C61A02"/>
<stop offset="1" stop-color="#F9ECEC"/>
</linearGradient>
<linearGradient id="paint32_linear_11534_6701" x1="694.65" y1="141.312" x2="694.65" y2="253.85" gradientUnits="userSpaceOnUse">
<stop stop-color="#C61A02"/>
<stop offset="1" stop-color="#F9ECEC"/>
</linearGradient>
<linearGradient id="paint33_linear_11534_6701" x1="682.126" y1="132.363" x2="682.126" y2="245.22" gradientUnits="userSpaceOnUse">
<stop stop-color="#C61A02"/>
<stop offset="1" stop-color="#F9ECEC"/>
</linearGradient>
<linearGradient id="paint34_linear_11534_6701" x1="772.055" y1="408.512" x2="772.055" y2="417.695" gradientUnits="userSpaceOnUse">
<stop stop-color="#C61A02"/>
<stop offset="1" stop-color="#F9ECEC"/>
</linearGradient>
<linearGradient id="paint35_linear_11534_6701" x1="763.156" y1="430.709" x2="763.156" y2="452.543" gradientUnits="userSpaceOnUse">
<stop stop-color="#C61A02"/>
<stop offset="1" stop-color="#F9ECEC"/>
</linearGradient>
<linearGradient id="paint36_linear_11534_6701" x1="752.351" y1="452.225" x2="752.351" y2="483.756" gradientUnits="userSpaceOnUse">
<stop stop-color="#C61A02"/>
<stop offset="1" stop-color="#F9ECEC"/>
</linearGradient>
<linearGradient id="paint37_linear_11534_6701" x1="740.934" y1="472.633" x2="740.934" y2="511.602" gradientUnits="userSpaceOnUse">
<stop stop-color="#C61A02"/>
<stop offset="1" stop-color="#F9ECEC"/>
</linearGradient>
<linearGradient id="paint38_linear_11534_6701" x1="729.572" y1="491.637" x2="729.572" y2="536.597" gradientUnits="userSpaceOnUse">
<stop stop-color="#C61A02"/>
<stop offset="1" stop-color="#F9ECEC"/>
</linearGradient>
<linearGradient id="paint39_linear_11534_6701" x1="718.57" y1="509.053" x2="718.57" y2="559.263" gradientUnits="userSpaceOnUse">
<stop stop-color="#C61A02"/>
<stop offset="1" stop-color="#F9ECEC"/>
</linearGradient>
<linearGradient id="paint40_linear_11534_6701" x1="708.058" y1="524.805" x2="708.058" y2="580.066" gradientUnits="userSpaceOnUse">
<stop stop-color="#C61A02"/>
<stop offset="1" stop-color="#F9ECEC"/>
</linearGradient>
<linearGradient id="paint41_linear_11534_6701" x1="698.463" y1="538.914" x2="698.463" y2="600.074" gradientUnits="userSpaceOnUse">
<stop stop-color="#C61A02"/>
<stop offset="1" stop-color="#F9ECEC"/>
</linearGradient>
<linearGradient id="paint42_linear_11534_6701" x1="689.997" y1="551.459" x2="689.997" y2="619.582" gradientUnits="userSpaceOnUse">
<stop stop-color="#C61A02"/>
<stop offset="1" stop-color="#F9ECEC"/>
</linearGradient>
<linearGradient id="paint43_linear_11534_6701" x1="682.345" y1="562.559" x2="682.345" y2="638.547" gradientUnits="userSpaceOnUse">
<stop stop-color="#C61A02"/>
<stop offset="1" stop-color="#F9ECEC"/>
</linearGradient>
<linearGradient id="paint44_linear_11534_6701" x1="675.296" y1="572.359" x2="675.296" y2="656.91" gradientUnits="userSpaceOnUse">
<stop stop-color="#C61A02"/>
<stop offset="1" stop-color="#F9ECEC"/>
</linearGradient>
<linearGradient id="paint45_linear_11534_6701" x1="668.7" y1="580.99" x2="668.7" y2="674.578" gradientUnits="userSpaceOnUse">
<stop stop-color="#C61A02"/>
<stop offset="1" stop-color="#F9ECEC"/>
</linearGradient>
<linearGradient id="paint46_linear_11534_6701" x1="437.082" y1="6.98047" x2="437.082" y2="160.34" gradientUnits="userSpaceOnUse">
<stop stop-color="#C61A02"/>
<stop offset="1" stop-color="#F9ECEC"/>
</linearGradient>
<linearGradient id="paint47_linear_11534_6701" x1="407.756" y1="0" x2="407.756" y2="161.7" gradientUnits="userSpaceOnUse">
<stop stop-color="#C61A02"/>
<stop offset="1" stop-color="#F9ECEC"/>
</linearGradient>
<linearGradient id="paint48_linear_11534_6701" x1="379.127" y1="0.724609" x2="379.127" y2="164.877" gradientUnits="userSpaceOnUse">
<stop stop-color="#C61A02"/>
<stop offset="1" stop-color="#F9ECEC"/>
</linearGradient>
<linearGradient id="paint49_linear_11534_6701" x1="352.36" y1="8.3457" x2="352.36" y2="169.662" gradientUnits="userSpaceOnUse">
<stop stop-color="#C61A02"/>
<stop offset="1" stop-color="#F9ECEC"/>
</linearGradient>
<linearGradient id="paint50_linear_11534_6701" x1="328.219" y1="21.5547" x2="328.219" y2="175.746" gradientUnits="userSpaceOnUse">
<stop stop-color="#C61A02"/>
<stop offset="1" stop-color="#F9ECEC"/>
</linearGradient>
<linearGradient id="paint51_linear_11534_6701" x1="307.254" y1="39.2715" x2="307.254" y2="182.784" gradientUnits="userSpaceOnUse">
<stop stop-color="#C61A02"/>
<stop offset="1" stop-color="#F9ECEC"/>
</linearGradient>
<linearGradient id="paint52_linear_11534_6701" x1="289.496" y1="59.7461" x2="289.496" y2="190.461" gradientUnits="userSpaceOnUse">
<stop stop-color="#C61A02"/>
<stop offset="1" stop-color="#F9ECEC"/>
</linearGradient>
<linearGradient id="paint53_linear_11534_6701" x1="274.586" y1="80.9687" x2="274.586" y2="198.492" gradientUnits="userSpaceOnUse">
<stop stop-color="#C61A02"/>
<stop offset="1" stop-color="#F9ECEC"/>
</linearGradient>
<linearGradient id="paint54_linear_11534_6701" x1="261.971" y1="101.371" x2="261.971" y2="206.649" gradientUnits="userSpaceOnUse">
<stop stop-color="#C61A02"/>
<stop offset="1" stop-color="#F9ECEC"/>
</linearGradient>
<linearGradient id="paint55_linear_11534_6701" x1="251.122" y1="120.074" x2="251.122" y2="214.748" gradientUnits="userSpaceOnUse">
<stop stop-color="#C61A02"/>
<stop offset="1" stop-color="#F9ECEC"/>
</linearGradient>
<linearGradient id="paint56_linear_11534_6701" x1="241.622" y1="136.754" x2="241.622" y2="222.66" gradientUnits="userSpaceOnUse">
<stop stop-color="#C61A02"/>
<stop offset="1" stop-color="#F9ECEC"/>
</linearGradient>
<linearGradient id="paint57_linear_11534_6701" x1="233.162" y1="151.43" x2="233.162" y2="230.303" gradientUnits="userSpaceOnUse">
<stop stop-color="#C61A02"/>
<stop offset="1" stop-color="#F9ECEC"/>
</linearGradient>
<linearGradient id="paint58_linear_11534_6701" x1="225.518" y1="164.277" x2="225.518" y2="237.619" gradientUnits="userSpaceOnUse">
<stop stop-color="#C61A02"/>
<stop offset="1" stop-color="#F9ECEC"/>
</linearGradient>
<linearGradient id="paint59_linear_11534_6701" x1="466.085" y1="664.51" x2="466.085" y2="818.923" gradientUnits="userSpaceOnUse">
<stop stop-color="#C61A02"/>
<stop offset="1" stop-color="#F9ECEC"/>
</linearGradient>
<linearGradient id="paint60_linear_11534_6701" x1="496.111" y1="661.332" x2="496.111" y2="836.402" gradientUnits="userSpaceOnUse">
<stop stop-color="#C61A02"/>
<stop offset="1" stop-color="#F9ECEC"/>
</linearGradient>
<linearGradient id="paint61_linear_11534_6701" x1="525.441" y1="656.547" x2="525.441" y2="842.534" gradientUnits="userSpaceOnUse">
<stop stop-color="#C61A02"/>
<stop offset="1" stop-color="#F9ECEC"/>
</linearGradient>
<linearGradient id="paint62_linear_11534_6701" x1="552.497" y1="650.465" x2="552.497" y2="839.731" gradientUnits="userSpaceOnUse">
<stop stop-color="#C61A02"/>
<stop offset="1" stop-color="#F9ECEC"/>
</linearGradient>
<linearGradient id="paint63_linear_11534_6701" x1="576.652" y1="643.424" x2="576.652" y2="829.568" gradientUnits="userSpaceOnUse">
<stop stop-color="#C61A02"/>
<stop offset="1" stop-color="#F9ECEC"/>
</linearGradient>
<linearGradient id="paint64_linear_11534_6701" x1="597.384" y1="635.748" x2="597.384" y2="814.005" gradientUnits="userSpaceOnUse">
<stop stop-color="#C61A02"/>
<stop offset="1" stop-color="#F9ECEC"/>
</linearGradient>
<linearGradient id="paint65_linear_11534_6701" x1="614.459" y1="627.717" x2="614.459" y2="794.165" gradientUnits="userSpaceOnUse">
<stop stop-color="#C61A02"/>
<stop offset="1" stop-color="#F9ECEC"/>
</linearGradient>
<linearGradient id="paint66_linear_11534_6701" x1="628.204" y1="619.559" x2="628.204" y2="772.022" gradientUnits="userSpaceOnUse">
<stop stop-color="#C61A02"/>
<stop offset="1" stop-color="#F9ECEC"/>
</linearGradient>
<linearGradient id="paint67_linear_11534_6701" x1="639.268" y1="611.461" x2="639.268" y2="749.604" gradientUnits="userSpaceOnUse">
<stop stop-color="#C61A02"/>
<stop offset="1" stop-color="#F9ECEC"/>
</linearGradient>
<linearGradient id="paint68_linear_11534_6701" x1="648.328" y1="603.549" x2="648.328" y2="728.311" gradientUnits="userSpaceOnUse">
<stop stop-color="#C61A02"/>
<stop offset="1" stop-color="#F9ECEC"/>
</linearGradient>
<linearGradient id="paint69_linear_11534_6701" x1="655.936" y1="595.904" x2="655.936" y2="708.853" gradientUnits="userSpaceOnUse">
<stop stop-color="#C61A02"/>
<stop offset="1" stop-color="#F9ECEC"/>
</linearGradient>
<linearGradient id="paint70_linear_11534_6701" x1="662.463" y1="588.59" x2="662.463" y2="691.431" gradientUnits="userSpaceOnUse">
<stop stop-color="#C61A02"/>
<stop offset="1" stop-color="#F9ECEC"/>
</linearGradient>
<linearGradient id="paint71_linear_11534_6701" x1="437.082" y1="665.871" x2="437.082" y2="796.456" gradientUnits="userSpaceOnUse">
<stop stop-color="#C61A02"/>
<stop offset="1" stop-color="#F9ECEC"/>
</linearGradient>
<linearGradient id="paint72_linear_11534_6701" x1="410.26" y1="664.51" x2="410.26" y2="775.097" gradientUnits="userSpaceOnUse">
<stop stop-color="#C61A02"/>
<stop offset="1" stop-color="#F9ECEC"/>
</linearGradient>
<linearGradient id="paint73_linear_11534_6701" x1="385.472" y1="661.332" x2="385.472" y2="756.913" gradientUnits="userSpaceOnUse">
<stop stop-color="#C61A02"/>
<stop offset="1" stop-color="#F9ECEC"/>
</linearGradient>
<linearGradient id="paint74_linear_11534_6701" x1="362.501" y1="656.547" x2="362.501" y2="741.805" gradientUnits="userSpaceOnUse">
<stop stop-color="#C61A02"/>
<stop offset="1" stop-color="#F9ECEC"/>
</linearGradient>
<linearGradient id="paint75_linear_11534_6701" x1="341.182" y1="650.465" x2="341.182" y2="729.246" gradientUnits="userSpaceOnUse">
<stop stop-color="#C61A02"/>
<stop offset="1" stop-color="#F9ECEC"/>
</linearGradient>
<linearGradient id="paint76_linear_11534_6701" x1="321.442" y1="643.424" x2="321.442" y2="718.645" gradientUnits="userSpaceOnUse">
<stop stop-color="#C61A02"/>
<stop offset="1" stop-color="#F9ECEC"/>
</linearGradient>
<linearGradient id="paint77_linear_11534_6701" x1="303.269" y1="635.75" x2="303.269" y2="709.151" gradientUnits="userSpaceOnUse">
<stop stop-color="#C61A02"/>
<stop offset="1" stop-color="#F9ECEC"/>
</linearGradient>
<linearGradient id="paint78_linear_11534_6701" x1="286.575" y1="627.721" x2="286.575" y2="700.5" gradientUnits="userSpaceOnUse">
<stop stop-color="#C61A02"/>
<stop offset="1" stop-color="#F9ECEC"/>
</linearGradient>
<linearGradient id="paint79_linear_11534_6701" x1="271.234" y1="619.559" x2="271.234" y2="692.587" gradientUnits="userSpaceOnUse">
<stop stop-color="#C61A02"/>
<stop offset="1" stop-color="#F9ECEC"/>
</linearGradient>
<linearGradient id="paint80_linear_11534_6701" x1="257.145" y1="611.461" x2="257.145" y2="685.299" gradientUnits="userSpaceOnUse">
<stop stop-color="#C61A02"/>
<stop offset="1" stop-color="#F9ECEC"/>
</linearGradient>
<linearGradient id="paint81_linear_11534_6701" x1="244.226" y1="603.549" x2="244.226" y2="678.495" gradientUnits="userSpaceOnUse">
<stop stop-color="#C61A02"/>
<stop offset="1" stop-color="#F9ECEC"/>
</linearGradient>
<linearGradient id="paint82_linear_11534_6701" x1="232.41" y1="595.904" x2="232.41" y2="672.028" gradientUnits="userSpaceOnUse">
<stop stop-color="#C61A02"/>
<stop offset="1" stop-color="#F9ECEC"/>
</linearGradient>
<linearGradient id="paint83_linear_11534_6701" x1="221.63" y1="588.59" x2="221.63" y2="665.799" gradientUnits="userSpaceOnUse">
<stop stop-color="#C61A02"/>
<stop offset="1" stop-color="#F9ECEC"/>
</linearGradient>
<linearGradient id="paint84_linear_11534_6701" x1="465.217" y1="21.9531" x2="465.217" y2="161.7" gradientUnits="userSpaceOnUse">
<stop stop-color="#C61A02"/>
<stop offset="1" stop-color="#F9ECEC"/>
</linearGradient>
<linearGradient id="paint85_linear_11534_6701" x1="491.061" y1="41.3828" x2="491.061" y2="164.876" gradientUnits="userSpaceOnUse">
<stop stop-color="#C61A02"/>
<stop offset="1" stop-color="#F9ECEC"/>
</linearGradient>
<linearGradient id="paint86_linear_11534_6701" x1="514.491" y1="61.375" x2="514.491" y2="169.661" gradientUnits="userSpaceOnUse">
<stop stop-color="#C61A02"/>
<stop offset="1" stop-color="#F9ECEC"/>
</linearGradient>
<linearGradient id="paint87_linear_11534_6701" x1="536.079" y1="78.5762" x2="536.079" y2="175.745" gradientUnits="userSpaceOnUse">
<stop stop-color="#C61A02"/>
<stop offset="1" stop-color="#F9ECEC"/>
</linearGradient>
<linearGradient id="paint88_linear_11534_6701" x1="557.009" y1="89.1582" x2="557.009" y2="182.784" gradientUnits="userSpaceOnUse">
<stop stop-color="#C61A02"/>
<stop offset="1" stop-color="#F9ECEC"/>
</linearGradient>
<linearGradient id="paint89_linear_11534_6701" x1="577.076" y1="94.9863" x2="577.076" y2="190.459" gradientUnits="userSpaceOnUse">
<stop stop-color="#C61A02"/>
<stop offset="1" stop-color="#F9ECEC"/>
</linearGradient>
<linearGradient id="paint90_linear_11534_6701" x1="595.973" y1="99.584" x2="595.973" y2="198.493" gradientUnits="userSpaceOnUse">
<stop stop-color="#C61A02"/>
<stop offset="1" stop-color="#F9ECEC"/>
</linearGradient>
<linearGradient id="paint91_linear_11534_6701" x1="613.573" y1="104.004" x2="613.573" y2="206.651" gradientUnits="userSpaceOnUse">
<stop stop-color="#C61A02"/>
<stop offset="1" stop-color="#F9ECEC"/>
</linearGradient>
<linearGradient id="paint92_linear_11534_6701" x1="629.804" y1="108.67" x2="629.804" y2="214.747" gradientUnits="userSpaceOnUse">
<stop stop-color="#C61A02"/>
<stop offset="1" stop-color="#F9ECEC"/>
</linearGradient>
<linearGradient id="paint93_linear_11534_6701" x1="644.655" y1="113.764" x2="644.655" y2="222.66" gradientUnits="userSpaceOnUse">
<stop stop-color="#C61A02"/>
<stop offset="1" stop-color="#F9ECEC"/>
</linearGradient>
<linearGradient id="paint94_linear_11534_6701" x1="658.131" y1="119.334" x2="658.131" y2="230.305" gradientUnits="userSpaceOnUse">
<stop stop-color="#C61A02"/>
<stop offset="1" stop-color="#F9ECEC"/>
</linearGradient>
<linearGradient id="paint95_linear_11534_6701" x1="670.267" y1="125.346" x2="670.267" y2="237.619" gradientUnits="userSpaceOnUse">
<stop stop-color="#C61A02"/>
<stop offset="1" stop-color="#F9ECEC"/>
</linearGradient>
<linearGradient id="paint96_linear_11534_6701" x1="437.08" y1="218.637" x2="437.08" y2="607.573" gradientUnits="userSpaceOnUse">
<stop stop-color="#C61A02"/>
<stop offset="1" stop-color="#F9ECEC"/>
</linearGradient>
</defs>
</svg>
