<svg width="869" height="843" viewBox="0 0 869 843" fill="none" xmlns="http://www.w3.org/2000/svg">
<g opacity="0.1">
<path d="M185.48 386.348L9.16408 370.828C8.23962 373.842 7.38545 376.846 6.60156 379.828L184.68 395.499C184.891 392.43 185.156 389.378 185.48 386.348Z" fill="url(#paint0_linear_11534_6291)"/>
<path d="M188.658 364.941L22.814 335.895C21.4408 338.785 20.1379 341.664 18.8945 344.532L187.085 373.983C187.555 370.953 188.08 367.939 188.658 364.941Z" fill="url(#paint1_linear_11534_6291)"/>
<path d="M193.449 344.689L41.5469 304.996C39.5196 307.54 37.5625 310.187 35.6758 312.948L191.129 353.575C191.849 350.593 192.622 347.628 193.449 344.689Z" fill="url(#paint2_linear_11534_6291)"/>
<path d="M199.535 325.897L66.7656 279.867C64.0193 282.109 61.3271 284.41 58.7051 286.798L196.519 334.572C197.47 331.655 198.476 328.765 199.535 325.897Z" fill="url(#paint3_linear_11534_6291)"/>
<path d="M206.58 308.73L93.8563 260.129C90.8451 262.176 87.8663 264.213 84.9199 266.276L202.936 317.157C204.093 314.321 205.309 311.512 206.58 308.73Z" fill="url(#paint4_linear_11534_6291)"/>
<path d="M214.262 293.242L118.071 243.729C115.184 245.738 112.313 247.699 109.459 249.627L210.046 301.405C211.403 298.655 212.808 295.932 214.262 293.242Z" fill="url(#paint5_linear_11534_6291)"/>
<path d="M222.295 279.419L137.97 229.035C135.359 231.104 132.748 233.103 130.137 235.047L217.576 287.289C219.106 284.637 220.679 282.012 222.295 279.419Z" fill="url(#paint6_linear_11534_6291)"/>
<path d="M230.464 267.162L154.097 215.271C151.75 217.443 149.388 219.539 147.025 221.575L225.29 274.752C226.966 272.186 228.691 269.658 230.464 267.162Z" fill="url(#paint7_linear_11534_6291)"/>
<path d="M238.567 256.348L167.255 202.107C166.179 203.296 165.087 204.468 163.973 205.619C162.935 206.688 161.897 207.747 160.859 208.779L232.999 263.651C234.81 261.183 236.664 258.746 238.567 256.348Z" fill="url(#paint8_linear_11534_6291)"/>
<path d="M246.487 246.834L177.921 189.174C176.061 191.637 174.169 194.041 172.223 196.38L240.573 253.851C242.503 251.474 244.47 249.135 246.487 246.834Z" fill="url(#paint9_linear_11534_6291)"/>
<path d="M254.136 238.472L186.829 176.518C185.11 179.116 183.359 181.671 181.58 184.172L247.908 245.219C249.941 242.934 252.017 240.681 254.136 238.472Z" fill="url(#paint10_linear_11534_6291)"/>
<path d="M184.073 413.103C184.073 411.569 184.09 410.04 184.117 408.512H1.05381C0.67538 411.591 0.36723 414.654 0.134766 417.695H184.117C184.09 416.166 184.073 414.637 184.073 413.103Z" fill="url(#paint11_linear_11534_6291)"/>
<path d="M184.679 430.709L0 446.963C0.21084 450.037 0.497366 453.084 0.854171 456.109L185.479 439.86C185.155 436.829 184.89 433.777 184.679 430.709Z" fill="url(#paint12_linear_11534_6291)"/>
<path d="M187.084 452.225L6.14062 483.912C6.92992 486.899 7.7895 489.854 8.71395 492.782L188.658 461.267C188.079 458.269 187.555 455.255 187.084 452.225Z" fill="url(#paint13_linear_11534_6291)"/>
<path d="M191.128 472.633L18.3906 517.776C19.6935 520.618 21.0667 523.421 22.4939 526.193L193.447 481.519C192.62 478.58 191.847 475.615 191.128 472.633Z" fill="url(#paint14_linear_11534_6291)"/>
<path d="M196.519 491.637L35.0215 547.622C36.7623 550.28 38.5625 552.9 40.4114 555.476L199.536 500.312C198.476 497.444 197.471 494.554 196.519 491.637Z" fill="url(#paint15_linear_11534_6291)"/>
<path d="M202.935 509.053L54.2656 573.146C56.3632 575.599 58.504 578.013 60.6881 580.379L206.578 517.48C205.308 514.698 204.092 511.889 202.935 509.053Z" fill="url(#paint16_linear_11534_6291)"/>
<path d="M210.045 524.805L74.6641 594.489C77.0536 596.736 79.4701 598.935 81.9191 601.09L214.262 532.967C212.807 530.277 211.402 527.554 210.045 524.805Z" fill="url(#paint17_linear_11534_6291)"/>
<path d="M217.575 538.914L95.1855 612.045C97.8075 614.087 100.451 616.069 103.116 617.998L222.295 546.79C220.678 544.192 219.1 541.566 217.575 538.914Z" fill="url(#paint18_linear_11534_6291)"/>
<path d="M225.29 551.459L115.172 626.281C117.994 628.123 120.827 629.895 123.67 631.607H123.676L230.463 559.049C228.69 556.553 226.966 554.025 225.29 551.459Z" fill="url(#paint19_linear_11534_6291)"/>
<path d="M232.999 562.559L134.25 637.666C135.05 638.104 135.845 638.531 136.645 638.958C138.878 640.146 141.051 641.297 143.181 642.415L238.567 569.862C236.664 567.464 234.81 565.027 232.999 562.559Z" fill="url(#paint20_linear_11534_6291)"/>
<path d="M240.573 572.359L151.885 646.938C154.945 648.51 157.902 650.012 160.772 651.459L246.487 579.376C244.47 577.075 242.503 574.736 240.573 572.359Z" fill="url(#paint21_linear_11534_6291)"/>
<path d="M247.909 580.99L167.639 654.872C170.682 656.368 173.639 657.805 176.521 659.183L254.137 587.737C252.018 585.528 249.942 583.275 247.909 580.99Z" fill="url(#paint22_linear_11534_6291)"/>
<path d="M689.484 395.501L862.956 380.235C863.697 377.124 864.362 373.991 864.946 370.836L688.684 386.35C689.008 389.381 689.273 392.433 689.484 395.501Z" fill="url(#paint23_linear_11534_6291)"/>
<path d="M868.015 332.979L685.504 364.942C686.082 367.94 686.607 370.954 687.077 373.984L867.988 342.302C868.075 339.223 868.086 336.117 868.015 332.979Z" fill="url(#paint24_linear_11534_6291)"/>
<path d="M683.034 353.576L865.54 305.877C865.07 302.89 864.529 299.87 863.918 296.812L680.715 344.689C681.542 347.628 682.315 350.594 683.034 353.576Z" fill="url(#paint25_linear_11534_6291)"/>
<path d="M677.644 334.572L857.674 272.158C856.771 269.193 855.83 266.276 854.857 263.418L674.627 325.896C675.687 328.765 676.692 331.655 677.644 334.572Z" fill="url(#paint26_linear_11534_6291)"/>
<path d="M671.226 317.156L846.298 241.676C845.033 238.845 843.72 236.079 842.374 233.373L667.582 308.729C668.852 311.511 670.069 314.32 671.226 317.156Z" fill="url(#paint27_linear_11534_6291)"/>
<path d="M664.117 301.404L832.081 214.947C830.432 212.305 828.745 209.729 827.021 207.217L659.9 293.242C661.355 295.932 662.76 298.655 664.117 301.404Z" fill="url(#paint28_linear_11534_6291)"/>
<path d="M656.587 287.289L815.684 192.227C813.684 189.817 811.64 187.473 809.564 185.193L651.867 279.419C653.484 282.012 655.057 284.637 656.587 287.289Z" fill="url(#paint29_linear_11534_6291)"/>
<path d="M648.873 274.751L797.953 173.455C795.628 171.289 793.271 169.187 790.882 167.156L643.699 267.162C645.472 269.657 647.197 272.185 648.873 274.751Z" fill="url(#paint30_linear_11534_6291)"/>
<path d="M641.164 263.65L779.702 158.275C777.112 156.358 774.49 154.505 771.847 152.717L635.596 256.347C637.499 258.745 639.353 261.181 641.164 263.65Z" fill="url(#paint31_linear_11534_6291)"/>
<path d="M633.59 253.85L761.624 146.185C758.823 144.5 756.001 142.874 753.158 141.312L627.676 246.833C629.692 249.134 631.66 251.473 633.59 253.85Z" fill="url(#paint32_linear_11534_6291)"/>
<path d="M626.253 245.22L744.226 136.631C741.269 135.145 738.29 133.73 735.301 132.363L620.025 238.473C622.145 240.682 624.221 242.935 626.253 245.22Z" fill="url(#paint33_linear_11534_6291)"/>
<path d="M690.09 413.103C690.09 414.637 690.074 416.166 690.047 417.695H850.301C851.626 414.637 852.88 411.575 854.064 408.512H690.047C690.074 410.04 690.09 411.569 690.09 413.103Z" fill="url(#paint34_linear_11534_6291)"/>
<path d="M688.684 439.86L832.784 452.543C834.444 449.599 836.061 446.666 837.628 443.749L689.484 430.709C689.273 433.777 689.008 436.829 688.684 439.86Z" fill="url(#paint35_linear_11534_6291)"/>
<path d="M685.504 461.267L813.922 483.756C815.716 480.936 817.473 478.138 819.198 475.361L687.077 452.225C686.607 455.255 686.082 458.269 685.504 461.267Z" fill="url(#paint36_linear_11534_6291)"/>
<path d="M680.715 481.519L795.828 511.602C797.623 508.88 799.396 506.179 801.153 503.505L683.034 472.633C682.315 475.615 681.542 478.58 680.715 481.519Z" fill="url(#paint37_linear_11534_6291)"/>
<path d="M674.627 500.312L779.295 536.597C781.052 533.934 782.793 531.297 784.518 528.688L677.644 491.637C676.692 494.554 675.687 497.444 674.627 500.312Z" fill="url(#paint38_linear_11534_6291)"/>
<path d="M667.582 517.48L764.493 559.263C766.19 556.633 767.877 554.029 769.558 551.447L671.226 509.053C670.069 511.889 668.852 514.698 667.582 517.48Z" fill="url(#paint39_linear_11534_6291)"/>
<path d="M659.9 532.967L751.405 580.066C752.627 577.965 753.886 575.896 755.178 573.849C755.524 573.303 755.87 572.757 756.216 572.212L664.117 524.805C662.76 527.554 661.355 530.277 659.9 532.967Z" fill="url(#paint40_linear_11534_6291)"/>
<path d="M651.867 546.79L741.042 600.074C742.334 597.276 743.669 594.51 745.058 591.777L656.587 538.914C655.062 541.566 653.484 544.192 651.867 546.79Z" fill="url(#paint41_linear_11534_6291)"/>
<path d="M643.699 559.049L732.787 619.582C733.922 616.649 735.09 613.743 736.296 610.858L648.873 551.459C647.197 554.025 645.472 556.553 643.699 559.049Z" fill="url(#paint42_linear_11534_6291)"/>
<path d="M635.596 569.862L725.9 638.547C726.938 635.495 728.003 632.459 729.095 629.439L641.164 562.559C639.353 565.027 637.499 567.464 635.596 569.862Z" fill="url(#paint43_linear_11534_6291)"/>
<path d="M627.676 579.376L719.878 656.91C720.872 653.755 721.883 650.611 722.916 647.473L633.59 572.359C631.66 574.736 629.692 577.075 627.676 579.376Z" fill="url(#paint44_linear_11534_6291)"/>
<path d="M620.025 587.737L714.368 674.578C715.368 671.337 716.368 668.096 717.374 664.86L626.253 580.99C624.221 583.275 622.145 585.528 620.025 587.737Z" fill="url(#paint45_linear_11534_6291)"/>
<path d="M432.486 160.34C434.016 160.313 435.546 160.297 437.082 160.297C438.617 160.297 440.147 160.313 441.677 160.34V10.2C438.66 9.04399 435.6 7.96902 432.486 6.98047V160.34Z" fill="url(#paint46_linear_11534_6291)"/>
<path d="M396.049 0L410.305 161.7C413.338 161.376 416.392 161.112 419.463 160.901L405.358 0.902116C402.298 0.507778 399.195 0.205272 396.049 0Z" fill="url(#paint47_linear_11534_6291)"/>
<path d="M360.324 2.07508L388.879 164.877C391.88 164.299 394.897 163.775 397.929 163.305L369.417 0.724609C366.417 1.07573 363.39 1.52409 360.324 2.07508Z" fill="url(#paint48_linear_11534_6291)"/>
<path d="M377.506 167.345L335.884 8.3457C332.922 9.32885 330.029 10.3768 327.213 11.4788L368.613 169.662C371.554 168.836 374.522 168.063 377.506 167.345Z" fill="url(#paint49_linear_11534_6291)"/>
<path d="M358.486 172.732L305.992 21.5547C303.235 23.1158 300.559 24.7364 297.953 26.4218L349.803 175.746C352.674 174.688 355.566 173.683 358.486 172.732Z" fill="url(#paint50_linear_11534_6291)"/>
<path d="M341.058 179.143L280.661 39.2715C278.185 41.3674 275.785 43.5228 273.449 45.743L332.625 182.784C335.409 181.514 338.22 180.299 341.058 179.143Z" fill="url(#paint51_linear_11534_6291)"/>
<path d="M325.293 186.248L260.073 59.7461C257.889 62.2634 255.764 64.8293 253.699 67.4384L317.124 190.461C319.816 189.008 322.541 187.604 325.293 186.248Z" fill="url(#paint52_linear_11534_6291)"/>
<path d="M311.172 193.771L243.666 80.9688C241.73 83.7507 239.843 86.5597 238 89.3957L303.29 198.492C305.89 196.872 308.518 195.294 311.172 193.771Z" fill="url(#paint53_linear_11534_6291)"/>
<path d="M298.619 201.479L230.496 101.371C228.739 104.272 227.02 107.184 225.322 110.106L291.023 206.649C293.521 204.877 296.051 203.154 298.619 201.479Z" fill="url(#paint54_linear_11534_6291)"/>
<path d="M287.508 209.184L219.623 120.074C217.98 122.991 216.353 125.908 214.736 128.814L280.199 214.748C282.6 212.846 285.038 210.993 287.508 209.184Z" fill="url(#paint55_linear_11534_6291)"/>
<path d="M277.702 216.751L210.325 136.754C208.731 139.628 207.141 142.485 205.541 145.327L270.68 222.66C272.983 220.645 275.324 218.679 277.702 216.751Z" fill="url(#paint56_linear_11534_6291)"/>
<path d="M269.064 224.08L202.087 151.43C200.493 154.228 198.887 156.999 197.26 159.743L262.312 230.303C264.523 228.185 266.777 226.111 269.064 224.08Z" fill="url(#paint57_linear_11534_6291)"/>
<path d="M261.458 231.126L194.557 164.277C192.919 166.984 191.259 169.658 189.578 172.288L254.96 237.619C257.085 235.415 259.253 233.249 261.458 231.126Z" fill="url(#paint58_linear_11534_6291)"/>
<path d="M454.699 665.309L467.733 813.197C471.004 815.179 474.242 817.092 477.47 818.923L463.857 664.51C460.824 664.834 457.77 665.099 454.699 665.309Z" fill="url(#paint59_linear_11534_6291)"/>
<path d="M476.232 662.904L506.037 832.842C509.345 834.149 512.659 835.338 515.989 836.402L485.282 661.332C482.282 661.91 479.265 662.434 476.232 662.904Z" fill="url(#paint60_linear_11534_6291)"/>
<path d="M496.656 658.864L544.636 842.156C547.793 842.41 550.988 842.539 554.226 842.534L505.549 656.547C502.608 657.373 499.64 658.146 496.656 658.864Z" fill="url(#paint61_linear_11534_6291)"/>
<path d="M515.676 653.479L580.344 839.731C583.29 839.115 586.28 838.391 589.318 837.554L524.358 650.465C521.487 651.524 518.595 652.528 515.676 653.479Z" fill="url(#paint62_linear_11534_6291)"/>
<path d="M533.105 647.065L611.911 829.568C614.76 828.309 617.522 826.98 620.198 825.586L541.544 643.424C538.76 644.693 535.944 645.903 533.105 647.065Z" fill="url(#paint63_linear_11534_6291)"/>
<path d="M548.869 639.961L638.6 814.005C641.125 812.109 643.552 810.143 645.899 808.106L557.038 635.748C554.346 637.201 551.621 638.606 548.869 639.961Z" fill="url(#paint64_linear_11534_6291)"/>
<path d="M562.99 632.438L659.776 794.165C661.912 791.697 663.961 789.158 665.929 786.554L570.872 627.717C568.272 629.337 565.645 630.915 562.99 632.438Z" fill="url(#paint65_linear_11534_6291)"/>
<path d="M575.543 624.728L675.778 772.022C677.552 769.126 679.244 766.171 680.866 763.163L583.139 619.559C580.641 621.33 578.111 623.054 575.543 624.728Z" fill="url(#paint66_linear_11534_6291)"/>
<path d="M586.652 617.025L687.65 749.604C689.115 746.444 690.526 743.246 691.883 740.004L593.961 611.461C591.561 613.362 589.123 615.215 586.652 617.025Z" fill="url(#paint67_linear_11534_6291)"/>
<path d="M596.459 609.458L696.559 728.311C697.813 725.027 699.024 721.721 700.197 718.382V718.377L603.482 603.549C601.179 605.564 598.838 607.53 596.459 609.458Z" fill="url(#paint68_linear_11534_6291)"/>
<path d="M605.1 602.127L703.491 708.853C704.605 705.541 705.697 702.208 706.773 698.864L611.852 595.904C609.641 598.022 607.386 600.096 605.1 602.127Z" fill="url(#paint69_linear_11534_6291)"/>
<path d="M612.705 595.083L709.129 691.431C710.167 688.141 711.194 684.841 712.221 681.535L619.203 588.59C617.079 590.794 614.911 592.96 612.705 595.083Z" fill="url(#paint70_linear_11534_6291)"/>
<path d="M432.486 665.871V790.298C435.589 792.389 438.649 794.442 441.677 796.456V665.871C440.147 665.898 438.617 665.914 437.082 665.914C435.546 665.914 434.016 665.898 432.486 665.871Z" fill="url(#paint71_linear_11534_6291)"/>
<path d="M401.059 769.366C404.01 771.289 406.919 773.201 409.784 775.097L419.461 665.309C416.39 665.099 413.336 664.834 410.303 664.51L401.059 769.366Z" fill="url(#paint72_linear_11534_6291)"/>
<path d="M373.014 751.792C375.863 753.494 378.674 755.206 381.442 756.913L397.931 662.904C394.898 662.434 391.881 661.91 388.881 661.332L373.014 751.792Z" fill="url(#paint73_linear_11534_6291)"/>
<path d="M368.612 656.547L347.496 737.235C350.302 738.753 353.07 740.276 355.795 741.805L377.506 658.864C374.521 658.146 371.553 657.373 368.612 656.547Z" fill="url(#paint74_linear_11534_6291)"/>
<path d="M349.805 650.465L323.877 725.141C326.683 726.496 329.451 727.869 332.181 729.246L358.487 653.479C355.568 652.528 352.675 651.524 349.805 650.465Z" fill="url(#paint75_linear_11534_6291)"/>
<path d="M332.625 643.424L301.82 714.761C304.523 716.015 307.302 717.311 310.151 718.645L341.064 647.07C338.225 645.909 335.409 644.693 332.625 643.424Z" fill="url(#paint76_linear_11534_6291)"/>
<path d="M317.125 635.75L281.244 705.343C283.958 706.569 286.748 707.833 289.624 709.151L325.293 639.963C322.542 638.608 319.817 637.203 317.125 635.75Z" fill="url(#paint77_linear_11534_6291)"/>
<path d="M303.29 627.721L261.977 696.751C264.712 697.956 267.534 699.204 270.443 700.5L311.172 632.442C308.518 630.913 305.891 629.336 303.29 627.721Z" fill="url(#paint78_linear_11534_6291)"/>
<path d="M291.024 619.559L243.85 688.876C246.628 690.069 249.488 691.307 252.44 692.587L298.619 624.728C296.051 623.054 293.521 621.33 291.024 619.559Z" fill="url(#paint79_linear_11534_6291)"/>
<path d="M280.199 611.461L226.781 681.578C229.619 682.788 232.517 684.025 235.496 685.299L287.508 617.025C285.038 615.215 282.6 613.362 280.199 611.461Z" fill="url(#paint80_linear_11534_6291)"/>
<path d="M270.681 603.549L210.748 674.703C213.662 675.961 216.587 677.22 219.56 678.495L277.703 609.458C275.324 607.53 272.984 605.564 270.681 603.549Z" fill="url(#paint81_linear_11534_6291)"/>
<path d="M262.311 595.904L195.756 668.095C198.729 669.435 201.676 670.742 204.622 672.028L269.063 602.127C266.776 600.096 264.522 598.022 262.311 595.904Z" fill="url(#paint82_linear_11534_6291)"/>
<path d="M254.959 588.59L181.803 661.688C184.825 663.109 187.777 664.476 190.685 665.799L261.457 595.083C259.251 592.96 257.083 590.794 254.959 588.59Z" fill="url(#paint83_linear_11534_6291)"/>
<path d="M475.735 26.9931C472.858 25.2699 469.928 23.5845 466.944 21.9531L454.699 160.901C457.77 161.111 460.824 161.376 463.857 161.7L475.735 26.9931Z" fill="url(#paint84_linear_11534_6291)"/>
<path d="M505.891 47.3789C503.193 45.3856 500.43 43.3815 497.614 41.3828L476.232 163.304C479.265 163.774 482.282 164.298 485.282 164.876L505.891 47.3789Z" fill="url(#paint85_linear_11534_6291)"/>
<path d="M505.549 169.661L532.326 67.3603C529.747 65.4426 527.109 63.4385 524.395 61.375L496.656 167.344C499.64 168.062 502.608 168.835 505.549 169.661Z" fill="url(#paint86_linear_11534_6291)"/>
<path d="M524.358 175.745L556.481 83.2272C553.865 81.9037 551.162 80.3372 548.367 78.5762L515.676 172.731C518.595 173.682 521.487 174.687 524.358 175.745Z" fill="url(#paint87_linear_11534_6291)"/>
<path d="M541.539 182.784L580.912 91.5999C577.776 90.8166 574.787 90.0063 571.959 89.1582L533.105 179.143C535.944 180.299 538.755 181.514 541.539 182.784Z" fill="url(#paint88_linear_11534_6291)"/>
<path d="M557.038 190.459L605.282 96.877C602.076 96.245 598.952 95.6183 595.919 94.9863L548.869 186.246C551.621 187.602 554.346 189.006 557.038 190.459Z" fill="url(#paint89_linear_11534_6291)"/>
<path d="M570.872 198.493C570.872 198.493 570.872 198.493 570.878 198.493L628.956 101.437C625.702 100.799 622.496 100.189 619.355 99.584L562.99 193.766C565.645 195.295 568.272 196.872 570.872 198.493Z" fill="url(#paint90_linear_11534_6291)"/>
<path d="M583.139 206.651L651.602 106.051C648.326 105.338 645.082 104.663 641.876 104.004L575.543 201.481C578.111 203.156 580.641 204.879 583.139 206.651Z" fill="url(#paint91_linear_11534_6291)"/>
<path d="M593.961 214.747L672.956 111.052C669.691 110.215 666.447 109.426 663.225 108.67L586.652 209.183C589.123 210.993 591.561 212.845 593.961 214.747Z" fill="url(#paint92_linear_11534_6291)"/>
<path d="M603.482 222.66L692.851 116.556C689.623 115.579 686.401 114.65 683.195 113.764L596.459 216.751C598.838 218.679 601.179 220.646 603.482 222.66Z" fill="url(#paint93_linear_11534_6291)"/>
<path d="M611.852 230.305L711.163 122.586C707.995 121.452 704.827 120.366 701.664 119.334L605.1 224.082C607.386 226.113 609.641 228.188 611.852 230.305Z" fill="url(#paint94_linear_11534_6291)"/>
<path d="M619.203 237.619L727.829 129.078C724.753 127.782 721.661 126.534 718.568 125.346L612.705 231.126C614.911 233.249 617.079 235.415 619.203 237.619Z" fill="url(#paint95_linear_11534_6291)"/>
<path d="M437.08 218.637C329.595 218.637 242.459 305.704 242.459 413.105C242.459 520.505 329.595 607.573 437.08 607.573C544.565 607.573 631.701 520.505 631.701 413.105C631.701 305.704 544.565 218.637 437.08 218.637ZM522.151 429.159C513.88 441.384 502.414 453.76 488.012 465.914C463.641 486.517 438.891 499.659 438.643 499.795L437.075 500.61L435.507 499.795C435.264 499.659 410.525 486.517 386.138 465.914C371.742 453.738 360.253 441.384 352.004 429.159C341.521 413.64 336.212 398.288 336.212 383.513C336.212 365.217 341.575 350.07 351.706 339.753C360.67 330.623 373.066 325.594 386.592 325.594C398.551 325.594 410.385 329.521 419.997 336.641C427.603 342.302 433.399 349.627 437.069 358.146C440.746 349.611 446.541 342.302 454.147 336.641C463.722 329.521 475.577 325.594 487.514 325.594C501.057 325.594 513.453 330.623 522.432 339.753C532.564 350.07 537.926 365.201 537.926 383.513C537.937 398.304 532.628 413.656 522.151 429.159Z" fill="url(#paint96_linear_11534_6291)"/>
</g>
<circle cx="442" cy="422" r="213" fill="white"/>
<path d="M433.579 337.131L397.607 370.021C397.179 370.411 397.109 371.056 397.443 371.531C425.454 410.977 423.749 409.471 424.767 409.565C424.799 409.569 424.832 409.569 424.866 409.569C425.772 409.569 423.715 411.007 458.341 376.756C458.717 376.38 458.786 375.797 458.511 375.344L435.331 337.382C435 336.836 434.184 336.585 433.579 337.131ZM425.021 406.652L399.898 371.034L434.099 339.766L456.08 375.766L425.021 406.652Z" fill="#C61A02" stroke="#C61A02" stroke-width="2"/>
<path d="M424.069 359.415C423.244 360.571 423.533 362.149 424.842 363.627C427.464 366.602 431.371 368.646 435.036 369.591C435.566 375.464 433.561 377.689 429.739 373.315C428.743 372.201 427.062 373.638 427.98 374.789C428.222 375.094 428.543 375.493 428.588 375.905C426.992 374.569 425.606 375.701 425.865 376.779C426.202 378.167 424.692 379.312 423.455 378.602C422.17 377.888 421.892 379.763 419.041 380.202C417.554 380.426 417.871 382.703 419.386 382.469C420.712 382.268 422.001 381.726 423.081 380.924C425.12 381.569 427.396 380.461 428.041 378.262C429.048 378.621 430.122 378.133 430.658 377.137C433.65 378.913 437.014 377.619 437.352 372.54C437.406 371.724 437.413 370.931 437.375 370.165C440.112 370.734 442.877 371.012 445.572 371.285C446.146 371.334 446.764 370.891 446.827 370.259C446.892 369.627 446.431 369.063 445.801 369C442.92 368.713 439.956 368.413 437.092 367.75C435.276 358.192 426.047 356.617 424.069 359.415ZM426.562 362.113C425.993 361.467 425.832 360.894 425.937 360.742C426.388 360.119 430.806 360.21 433.351 364.25C433.911 365.146 434.305 366.096 434.576 367.055C431.211 365.953 428.451 364.255 426.562 362.113Z" fill="#C61A02" stroke="#C61A02" stroke-width="2"/>
<path d="M396.51 425.773L376.099 395.944C375.741 395.424 375.026 395.285 374.504 395.648C373.98 396.007 373.847 396.719 374.204 397.244L394.614 427.073C395.484 428.325 397.359 427.024 396.51 425.773Z" fill="#C61A02" stroke="#C61A02" stroke-width="2"/>
<path d="M355.223 407.791C354.863 407.276 354.146 407.151 353.628 407.5C353.106 407.863 352.976 408.576 353.337 409.1L368.184 430.572C368.536 431.077 369.238 431.229 369.78 430.863C370.302 430.501 370.431 429.788 370.071 429.264L355.223 407.791Z" fill="#C61A02" stroke="#C61A02" stroke-width="2"/>
<path d="M522.346 570C522.379 570 522.413 570 522.447 570C530.803 570 538.75 565.138 541.793 558.152C545.663 549.267 541.784 538.395 545.964 530.259C547.804 526.674 552.041 523.457 556.255 524.563C559.532 525.414 561.816 528.511 564.52 531.092C567.421 533.861 572.158 536.285 575.982 533.996C578.077 532.737 579.132 530.456 579.818 528.605C582.237 522.068 582.629 514.746 580.918 507.989C580.545 506.487 578.324 507.1 578.695 508.553C580.293 514.862 579.927 521.705 577.667 527.808C577.111 529.304 576.284 531.137 574.801 532.029C572.079 533.673 568.423 531.643 566.106 529.434C563.364 526.821 560.829 523.383 556.833 522.341C551.476 520.943 546.168 524.837 543.923 529.21C539.262 538.28 543.454 548.593 539.691 557.238C537 563.413 529.921 567.705 522.449 567.705C521.97 567.604 513.672 568.168 504.902 560.56C509.134 555.379 510.103 547.944 506.79 541.797L505.072 538.602C529.231 539.838 549.604 511.312 542.239 488.86C539.539 480.628 533.08 473.423 523.564 468.024C508.415 459.429 490.363 457.301 474.03 462.18C473.426 462.36 473.078 463.001 473.26 463.605C473.443 464.21 474.075 464.578 474.689 464.376C490.419 459.671 507.825 461.737 522.431 470.022C528.715 473.584 536.875 479.871 540.061 489.577C547.063 510.929 526.745 538.784 503.804 536.246L485.927 503.014C491.344 504.466 495.617 506.957 498.507 510.579C499.435 511.736 501.255 510.343 500.3 509.145C488.936 494.915 468.499 501.498 454.895 496.968C449.073 495.116 443.243 490.327 443.474 484.047C443.475 484.025 443.469 484.005 443.47 483.982C444.276 474.308 457.706 471.038 467.123 471.227C476.546 471.402 486.064 475.516 493.236 482.51C493.686 482.958 494.416 482.945 494.858 482.492C495.299 482.04 495.29 481.309 494.835 480.87C487.424 473.641 477.624 469.35 467.585 468.981C439.265 416.712 441.553 419.759 440.061 419.284C445.969 413.945 466.923 395.069 472.995 390.02C476.101 387.457 479.963 384.267 478.478 379.315C476.632 373.111 472.585 367.888 469.261 362.642C427.069 296.444 442.397 320.781 438.976 315.176C438.761 314.313 437.99 313.756 436.971 313.819C436.946 313.655 436.947 313.484 436.848 313.339C436.543 312.882 435.956 312.729 435.452 312.922L402.654 326.788C407.776 301.162 391.624 278.271 365.375 274.521C321.83 268.432 286.24 317.048 309.258 351.653C315.403 360.931 324.805 367.266 336.038 369.865L312.212 393.605C311.836 393.977 311.766 394.564 312.042 395.016C312.054 395.035 312.077 395.043 312.09 395.062C312.064 395.145 312.014 395.218 311.995 395.303C311.789 396.195 312.196 397.019 312.497 397.62C314.92 402.407 310.047 395.068 342.447 441.864C346.335 447.577 350.423 459.089 360.668 459.089C365.539 459.089 370.205 456.414 374.929 454.536L391.998 447.787C394.669 452.618 398.257 457.033 401.715 461.27C406.832 467.412 405.44 465.941 419.046 483.434C413.627 484.235 408.755 490.021 408.332 496.549C408 501.684 410.617 506.774 414.506 509.409C404.963 514.388 410.403 533.608 428.529 529.116C424.81 536.137 429.244 544.406 436.599 547.062C440.262 548.379 444.177 548.272 447.542 547.797C445.801 553.242 450.427 558.784 457.628 558.784C461.847 558.784 466.075 556.759 468.864 553.201C469.254 552.703 469.166 551.982 468.669 551.592C468.167 551.198 467.448 551.288 467.058 551.785C461.851 558.43 452.597 557.418 450.087 552.582C449.132 550.745 449.356 548.236 450.573 547.102C450.817 546.877 450.895 546.564 450.888 546.245C454.238 543.438 456.933 539.798 458.493 535.73C458.719 535.138 458.424 534.475 457.832 534.247C457.243 534.018 456.577 534.314 456.351 534.905C454.774 539.017 451.96 542.683 448.429 545.32C444.941 545.91 441.034 546.226 437.379 544.902C429.291 541.982 427.09 532.503 432.289 527.96C433.429 527.557 434.552 527.118 435.661 526.683C435.941 526.575 436.137 526.358 436.259 526.102C440.744 524.647 442.964 521.656 444.739 518.008C445.017 517.439 444.779 516.753 444.21 516.475C443.648 516.202 442.955 516.435 442.678 517.004C442.138 518.111 441.528 519.281 440.726 520.311C438.981 522.552 436.252 524.071 433.429 524.375C432.98 524.426 432.699 524.761 432.554 525.158C432.079 525.381 431.6 525.59 431.162 525.926C425.972 527.736 420.374 528.588 416.016 525.236C413.305 523.152 411.766 519.455 412.273 516.238C412.72 513.371 415.311 510.543 418.019 510.982C418.568 511.126 418.938 511.181 419.399 510.737C419.749 510.829 420.1 510.879 420.443 510.879C423.165 510.879 429.386 507.649 433.056 501.557L478.388 560.197C484.373 567.903 495.801 569.242 503.356 562.251C508.994 567.159 515.783 569.964 522.346 570ZM448.464 439.368C449.271 438.898 449.727 438.836 450.237 438.898C451.395 439.033 451.952 440.542 450.678 441.555C439.307 450.683 426.277 455.71 425.16 455.71C423.877 455.71 423.027 453.535 424.229 453.101C432.913 449.973 441.232 445.086 448.464 439.368ZM437.307 316.856C457.404 348.24 466.843 363.207 469.467 367.154C480.379 383.623 476.932 383.323 469.825 389.707C445.237 411.569 487.969 373.162 421.185 433.119L377.567 369.267C377.655 369.215 377.745 369.168 377.832 369.117C397.413 353.689 416.623 336.037 434.913 316.687C435.486 316.496 436.051 316.344 436.783 316.18C436.856 316.48 437.021 316.717 437.307 316.856ZM324.714 357.95C322.241 357.95 320.879 346.828 320.424 344.853C319.118 345.436 313.846 348.834 312.749 347.088C311.423 344.977 318.324 342.194 319.616 341.622C318.54 336.778 317.894 333.695 317.192 328.696C315.94 329.254 304.671 334.755 303.668 333.162C303.056 331.12 315.061 325.013 316.789 324.253C316.02 317.999 315.586 313.597 315.981 307.289C314.936 307.701 310.326 308.501 310.326 306.885C310.73 304.866 314.849 304.091 315.981 303.654C316.095 302.437 317.192 295.496 318.786 295.814C319.616 295.98 319.756 301.161 319.616 302.442C325.79 300.167 330.196 298.728 336.58 297.191C336.84 294.899 340.215 277.018 342.873 276.936C344.658 276.592 341.319 293.124 341.023 295.576C350.357 293.473 358.125 292.847 367.681 292.344C367.908 290.398 370.346 277.449 372.431 277.917C373.74 278.211 371.96 290.34 371.721 292.344C376.782 292.147 379.983 292.085 385.05 292.344C385.453 290.729 386.665 289.25 387.404 289.308C388.931 289.427 388.748 291.345 388.685 292.344C390.115 292.437 396.495 292.708 396.495 294.364C396.495 295.776 389.67 296.071 388.281 295.98C388.028 301.487 388.273 305.038 388.685 310.52C390.387 310.587 400.732 311.548 400.732 313.572C400.732 314.963 390.836 314.227 389.089 314.156C389.646 320.187 390.129 325.854 391.488 331.787C391.629 332.405 391.244 333.019 390.625 333.162C390.036 333.286 388.815 332.364 388.685 331.787C382.763 331.475 378.015 331.39 372.124 331.787C372.372 334.068 374.144 350.642 372.641 350.768C369.796 351.005 368.746 334.691 368.489 332.332C359.255 333.097 351.968 334.317 343.043 336.775C343.73 340.179 351.733 365.904 350.566 366.46C346.966 368.184 339.633 341.071 339.004 337.986C333.258 339.665 329.174 340.874 323.655 343.237C324.046 344.955 327.499 357.95 324.714 357.95ZM338.765 370.382C367.212 375.334 395.193 356.118 402.078 329.523L431.294 317.17C413.655 335.649 395.209 352.506 376.54 367.226C358.157 378.052 338.616 386.225 316.908 392.162L338.765 370.382ZM374.082 452.403C366.922 455.244 361.077 459.239 354.684 454.859C351.373 452.614 349.222 448.845 347.143 445.198C344.634 440.803 347.304 444.909 320.112 405.466C318.207 402.7 317.238 401.963 315.286 398.059C315.185 397.857 314.231 396.039 314.231 395.818C314.285 395.58 314.454 395.363 314.637 395.142C336.813 389.325 356.731 381.228 375.564 370.401L419.338 434.48C411.264 437.676 420.405 434.081 374.082 452.403ZM431.332 500.026C429.295 503.593 426.098 506.456 422.33 508.092C421.12 508.611 420.224 508.728 419.679 508.405C419.207 508.134 418.672 508.294 418.316 508.669C413.824 507.43 410.277 502.01 410.621 496.701C410.993 490.948 415.564 485.651 420.208 485.584C420.344 485.582 420.447 485.467 420.57 485.406L431.67 499.764C431.555 499.854 431.409 499.891 431.332 500.026ZM423.421 486.222C422.007 486.831 420.85 484.098 422.229 483.514C429.121 480.566 435.228 475.91 439.891 470.049C440.846 468.851 442.941 470.91 442.001 472.085C437.101 478.246 430.662 483.126 423.421 486.222ZM481.565 528.256C476.526 533.144 470.822 537.271 464.607 540.52C463.255 541.231 461.668 538.625 463.004 537.923C469.022 534.777 475.091 530.541 479.969 525.805C480.426 525.366 481.148 526.177 481.587 526.634C482.029 527.086 482.02 527.812 481.565 528.256Z" fill="#C61A02" stroke="#C61A02" stroke-width="2"/>
<path d="M337.453 299.51C331.081 301.08 324.806 303.025 318.65 305.343C318.177 311.622 318.483 317.939 319.223 324.206C325.077 321.736 331.049 319.553 337.157 317.787C336.856 311.689 336.884 305.579 337.453 299.51Z" fill="#C61A02"/>
<path d="M367.732 312.112C367.591 306.377 367.734 300.626 368.283 294.906C358.704 295.433 349.19 296.773 339.844 298.931C339.236 304.978 339.147 311.065 339.421 317.147C348.683 314.615 358.171 312.978 367.732 312.112Z" fill="#C61A02"/>
<path d="M385.989 294.829C380.861 294.564 375.732 294.579 370.61 294.789C370.048 300.473 369.89 306.199 370.027 311.919C375.382 311.511 380.747 311.299 386.113 311.431C385.708 305.912 385.731 300.371 385.989 294.829Z" fill="#C61A02"/>
<path d="M339.52 319.488C339.842 324.563 340.493 329.614 341.409 334.612C350.398 332.154 359.603 330.535 368.9 329.761C368.383 324.699 367.954 319.579 367.762 314.418C358.222 315.293 348.753 316.932 339.52 319.488Z" fill="#C61A02"/>
<path d="M337.257 320.172C331.207 321.942 325.284 324.106 319.49 326.578C320.165 331.538 321.109 336.45 322.165 341.272C327.719 338.915 333.415 336.94 339.192 335.265C338.267 330.277 337.601 325.237 337.257 320.172Z" fill="#C61A02"/>
<path d="M371.193 329.596C377.009 329.2 382.855 329.13 388.703 329.409C387.644 324.217 386.843 318.987 386.369 313.726C380.928 313.585 375.488 313.807 370.059 314.226C370.248 319.391 370.676 324.522 371.193 329.596Z" fill="#C61A02"/>
<defs>
<linearGradient id="paint0_linear_11534_6291" x1="96.0408" y1="370.828" x2="96.0408" y2="395.499" gradientUnits="userSpaceOnUse">
<stop stop-color="#C61A02"/>
<stop offset="1" stop-color="#F9ECEC"/>
</linearGradient>
<linearGradient id="paint1_linear_11534_6291" x1="103.776" y1="335.895" x2="103.776" y2="373.983" gradientUnits="userSpaceOnUse">
<stop stop-color="#C61A02"/>
<stop offset="1" stop-color="#F9ECEC"/>
</linearGradient>
<linearGradient id="paint2_linear_11534_6291" x1="114.562" y1="304.996" x2="114.562" y2="353.575" gradientUnits="userSpaceOnUse">
<stop stop-color="#C61A02"/>
<stop offset="1" stop-color="#F9ECEC"/>
</linearGradient>
<linearGradient id="paint3_linear_11534_6291" x1="129.12" y1="279.867" x2="129.12" y2="334.572" gradientUnits="userSpaceOnUse">
<stop stop-color="#C61A02"/>
<stop offset="1" stop-color="#F9ECEC"/>
</linearGradient>
<linearGradient id="paint4_linear_11534_6291" x1="145.75" y1="260.129" x2="145.75" y2="317.157" gradientUnits="userSpaceOnUse">
<stop stop-color="#C61A02"/>
<stop offset="1" stop-color="#F9ECEC"/>
</linearGradient>
<linearGradient id="paint5_linear_11534_6291" x1="161.861" y1="243.729" x2="161.861" y2="301.405" gradientUnits="userSpaceOnUse">
<stop stop-color="#C61A02"/>
<stop offset="1" stop-color="#F9ECEC"/>
</linearGradient>
<linearGradient id="paint6_linear_11534_6291" x1="176.216" y1="229.035" x2="176.216" y2="287.289" gradientUnits="userSpaceOnUse">
<stop stop-color="#C61A02"/>
<stop offset="1" stop-color="#F9ECEC"/>
</linearGradient>
<linearGradient id="paint7_linear_11534_6291" x1="188.745" y1="215.271" x2="188.745" y2="274.752" gradientUnits="userSpaceOnUse">
<stop stop-color="#C61A02"/>
<stop offset="1" stop-color="#F9ECEC"/>
</linearGradient>
<linearGradient id="paint8_linear_11534_6291" x1="199.713" y1="202.107" x2="199.713" y2="263.651" gradientUnits="userSpaceOnUse">
<stop stop-color="#C61A02"/>
<stop offset="1" stop-color="#F9ECEC"/>
</linearGradient>
<linearGradient id="paint9_linear_11534_6291" x1="209.355" y1="189.174" x2="209.355" y2="253.851" gradientUnits="userSpaceOnUse">
<stop stop-color="#C61A02"/>
<stop offset="1" stop-color="#F9ECEC"/>
</linearGradient>
<linearGradient id="paint10_linear_11534_6291" x1="217.858" y1="176.518" x2="217.858" y2="245.219" gradientUnits="userSpaceOnUse">
<stop stop-color="#C61A02"/>
<stop offset="1" stop-color="#F9ECEC"/>
</linearGradient>
<linearGradient id="paint11_linear_11534_6291" x1="92.1257" y1="408.512" x2="92.1257" y2="417.695" gradientUnits="userSpaceOnUse">
<stop stop-color="#C61A02"/>
<stop offset="1" stop-color="#F9ECEC"/>
</linearGradient>
<linearGradient id="paint12_linear_11534_6291" x1="92.7397" y1="430.709" x2="92.7397" y2="456.109" gradientUnits="userSpaceOnUse">
<stop stop-color="#C61A02"/>
<stop offset="1" stop-color="#F9ECEC"/>
</linearGradient>
<linearGradient id="paint13_linear_11534_6291" x1="97.3991" y1="452.225" x2="97.3991" y2="492.782" gradientUnits="userSpaceOnUse">
<stop stop-color="#C61A02"/>
<stop offset="1" stop-color="#F9ECEC"/>
</linearGradient>
<linearGradient id="paint14_linear_11534_6291" x1="105.919" y1="472.633" x2="105.919" y2="526.193" gradientUnits="userSpaceOnUse">
<stop stop-color="#C61A02"/>
<stop offset="1" stop-color="#F9ECEC"/>
</linearGradient>
<linearGradient id="paint15_linear_11534_6291" x1="117.279" y1="491.637" x2="117.279" y2="555.476" gradientUnits="userSpaceOnUse">
<stop stop-color="#C61A02"/>
<stop offset="1" stop-color="#F9ECEC"/>
</linearGradient>
<linearGradient id="paint16_linear_11534_6291" x1="130.422" y1="509.053" x2="130.422" y2="580.379" gradientUnits="userSpaceOnUse">
<stop stop-color="#C61A02"/>
<stop offset="1" stop-color="#F9ECEC"/>
</linearGradient>
<linearGradient id="paint17_linear_11534_6291" x1="144.463" y1="524.805" x2="144.463" y2="601.09" gradientUnits="userSpaceOnUse">
<stop stop-color="#C61A02"/>
<stop offset="1" stop-color="#F9ECEC"/>
</linearGradient>
<linearGradient id="paint18_linear_11534_6291" x1="158.74" y1="538.914" x2="158.74" y2="617.998" gradientUnits="userSpaceOnUse">
<stop stop-color="#C61A02"/>
<stop offset="1" stop-color="#F9ECEC"/>
</linearGradient>
<linearGradient id="paint19_linear_11534_6291" x1="172.818" y1="551.459" x2="172.818" y2="631.607" gradientUnits="userSpaceOnUse">
<stop stop-color="#C61A02"/>
<stop offset="1" stop-color="#F9ECEC"/>
</linearGradient>
<linearGradient id="paint20_linear_11534_6291" x1="186.408" y1="562.559" x2="186.408" y2="642.415" gradientUnits="userSpaceOnUse">
<stop stop-color="#C61A02"/>
<stop offset="1" stop-color="#F9ECEC"/>
</linearGradient>
<linearGradient id="paint21_linear_11534_6291" x1="199.186" y1="572.359" x2="199.186" y2="651.459" gradientUnits="userSpaceOnUse">
<stop stop-color="#C61A02"/>
<stop offset="1" stop-color="#F9ECEC"/>
</linearGradient>
<linearGradient id="paint22_linear_11534_6291" x1="210.888" y1="580.99" x2="210.888" y2="659.183" gradientUnits="userSpaceOnUse">
<stop stop-color="#C61A02"/>
<stop offset="1" stop-color="#F9ECEC"/>
</linearGradient>
<linearGradient id="paint23_linear_11534_6291" x1="776.815" y1="370.836" x2="776.815" y2="395.501" gradientUnits="userSpaceOnUse">
<stop stop-color="#C61A02"/>
<stop offset="1" stop-color="#F9ECEC"/>
</linearGradient>
<linearGradient id="paint24_linear_11534_6291" x1="776.783" y1="332.979" x2="776.783" y2="373.984" gradientUnits="userSpaceOnUse">
<stop stop-color="#C61A02"/>
<stop offset="1" stop-color="#F9ECEC"/>
</linearGradient>
<linearGradient id="paint25_linear_11534_6291" x1="773.128" y1="296.812" x2="773.128" y2="353.576" gradientUnits="userSpaceOnUse">
<stop stop-color="#C61A02"/>
<stop offset="1" stop-color="#F9ECEC"/>
</linearGradient>
<linearGradient id="paint26_linear_11534_6291" x1="766.15" y1="263.418" x2="766.15" y2="334.572" gradientUnits="userSpaceOnUse">
<stop stop-color="#C61A02"/>
<stop offset="1" stop-color="#F9ECEC"/>
</linearGradient>
<linearGradient id="paint27_linear_11534_6291" x1="756.94" y1="233.373" x2="756.94" y2="317.156" gradientUnits="userSpaceOnUse">
<stop stop-color="#C61A02"/>
<stop offset="1" stop-color="#F9ECEC"/>
</linearGradient>
<linearGradient id="paint28_linear_11534_6291" x1="745.991" y1="207.217" x2="745.991" y2="301.404" gradientUnits="userSpaceOnUse">
<stop stop-color="#C61A02"/>
<stop offset="1" stop-color="#F9ECEC"/>
</linearGradient>
<linearGradient id="paint29_linear_11534_6291" x1="733.776" y1="185.193" x2="733.776" y2="287.289" gradientUnits="userSpaceOnUse">
<stop stop-color="#C61A02"/>
<stop offset="1" stop-color="#F9ECEC"/>
</linearGradient>
<linearGradient id="paint30_linear_11534_6291" x1="720.826" y1="167.156" x2="720.826" y2="274.751" gradientUnits="userSpaceOnUse">
<stop stop-color="#C61A02"/>
<stop offset="1" stop-color="#F9ECEC"/>
</linearGradient>
<linearGradient id="paint31_linear_11534_6291" x1="707.649" y1="152.717" x2="707.649" y2="263.65" gradientUnits="userSpaceOnUse">
<stop stop-color="#C61A02"/>
<stop offset="1" stop-color="#F9ECEC"/>
</linearGradient>
<linearGradient id="paint32_linear_11534_6291" x1="694.65" y1="141.312" x2="694.65" y2="253.85" gradientUnits="userSpaceOnUse">
<stop stop-color="#C61A02"/>
<stop offset="1" stop-color="#F9ECEC"/>
</linearGradient>
<linearGradient id="paint33_linear_11534_6291" x1="682.126" y1="132.363" x2="682.126" y2="245.22" gradientUnits="userSpaceOnUse">
<stop stop-color="#C61A02"/>
<stop offset="1" stop-color="#F9ECEC"/>
</linearGradient>
<linearGradient id="paint34_linear_11534_6291" x1="772.055" y1="408.512" x2="772.055" y2="417.695" gradientUnits="userSpaceOnUse">
<stop stop-color="#C61A02"/>
<stop offset="1" stop-color="#F9ECEC"/>
</linearGradient>
<linearGradient id="paint35_linear_11534_6291" x1="763.156" y1="430.709" x2="763.156" y2="452.543" gradientUnits="userSpaceOnUse">
<stop stop-color="#C61A02"/>
<stop offset="1" stop-color="#F9ECEC"/>
</linearGradient>
<linearGradient id="paint36_linear_11534_6291" x1="752.351" y1="452.225" x2="752.351" y2="483.756" gradientUnits="userSpaceOnUse">
<stop stop-color="#C61A02"/>
<stop offset="1" stop-color="#F9ECEC"/>
</linearGradient>
<linearGradient id="paint37_linear_11534_6291" x1="740.934" y1="472.633" x2="740.934" y2="511.602" gradientUnits="userSpaceOnUse">
<stop stop-color="#C61A02"/>
<stop offset="1" stop-color="#F9ECEC"/>
</linearGradient>
<linearGradient id="paint38_linear_11534_6291" x1="729.572" y1="491.637" x2="729.572" y2="536.597" gradientUnits="userSpaceOnUse">
<stop stop-color="#C61A02"/>
<stop offset="1" stop-color="#F9ECEC"/>
</linearGradient>
<linearGradient id="paint39_linear_11534_6291" x1="718.57" y1="509.053" x2="718.57" y2="559.263" gradientUnits="userSpaceOnUse">
<stop stop-color="#C61A02"/>
<stop offset="1" stop-color="#F9ECEC"/>
</linearGradient>
<linearGradient id="paint40_linear_11534_6291" x1="708.058" y1="524.805" x2="708.058" y2="580.066" gradientUnits="userSpaceOnUse">
<stop stop-color="#C61A02"/>
<stop offset="1" stop-color="#F9ECEC"/>
</linearGradient>
<linearGradient id="paint41_linear_11534_6291" x1="698.463" y1="538.914" x2="698.463" y2="600.074" gradientUnits="userSpaceOnUse">
<stop stop-color="#C61A02"/>
<stop offset="1" stop-color="#F9ECEC"/>
</linearGradient>
<linearGradient id="paint42_linear_11534_6291" x1="689.997" y1="551.459" x2="689.997" y2="619.582" gradientUnits="userSpaceOnUse">
<stop stop-color="#C61A02"/>
<stop offset="1" stop-color="#F9ECEC"/>
</linearGradient>
<linearGradient id="paint43_linear_11534_6291" x1="682.345" y1="562.559" x2="682.345" y2="638.547" gradientUnits="userSpaceOnUse">
<stop stop-color="#C61A02"/>
<stop offset="1" stop-color="#F9ECEC"/>
</linearGradient>
<linearGradient id="paint44_linear_11534_6291" x1="675.296" y1="572.359" x2="675.296" y2="656.91" gradientUnits="userSpaceOnUse">
<stop stop-color="#C61A02"/>
<stop offset="1" stop-color="#F9ECEC"/>
</linearGradient>
<linearGradient id="paint45_linear_11534_6291" x1="668.7" y1="580.99" x2="668.7" y2="674.578" gradientUnits="userSpaceOnUse">
<stop stop-color="#C61A02"/>
<stop offset="1" stop-color="#F9ECEC"/>
</linearGradient>
<linearGradient id="paint46_linear_11534_6291" x1="437.082" y1="6.98047" x2="437.082" y2="160.34" gradientUnits="userSpaceOnUse">
<stop stop-color="#C61A02"/>
<stop offset="1" stop-color="#F9ECEC"/>
</linearGradient>
<linearGradient id="paint47_linear_11534_6291" x1="407.756" y1="0" x2="407.756" y2="161.7" gradientUnits="userSpaceOnUse">
<stop stop-color="#C61A02"/>
<stop offset="1" stop-color="#F9ECEC"/>
</linearGradient>
<linearGradient id="paint48_linear_11534_6291" x1="379.127" y1="0.724609" x2="379.127" y2="164.877" gradientUnits="userSpaceOnUse">
<stop stop-color="#C61A02"/>
<stop offset="1" stop-color="#F9ECEC"/>
</linearGradient>
<linearGradient id="paint49_linear_11534_6291" x1="352.36" y1="8.3457" x2="352.36" y2="169.662" gradientUnits="userSpaceOnUse">
<stop stop-color="#C61A02"/>
<stop offset="1" stop-color="#F9ECEC"/>
</linearGradient>
<linearGradient id="paint50_linear_11534_6291" x1="328.219" y1="21.5547" x2="328.219" y2="175.746" gradientUnits="userSpaceOnUse">
<stop stop-color="#C61A02"/>
<stop offset="1" stop-color="#F9ECEC"/>
</linearGradient>
<linearGradient id="paint51_linear_11534_6291" x1="307.254" y1="39.2715" x2="307.254" y2="182.784" gradientUnits="userSpaceOnUse">
<stop stop-color="#C61A02"/>
<stop offset="1" stop-color="#F9ECEC"/>
</linearGradient>
<linearGradient id="paint52_linear_11534_6291" x1="289.496" y1="59.7461" x2="289.496" y2="190.461" gradientUnits="userSpaceOnUse">
<stop stop-color="#C61A02"/>
<stop offset="1" stop-color="#F9ECEC"/>
</linearGradient>
<linearGradient id="paint53_linear_11534_6291" x1="274.586" y1="80.9687" x2="274.586" y2="198.492" gradientUnits="userSpaceOnUse">
<stop stop-color="#C61A02"/>
<stop offset="1" stop-color="#F9ECEC"/>
</linearGradient>
<linearGradient id="paint54_linear_11534_6291" x1="261.971" y1="101.371" x2="261.971" y2="206.649" gradientUnits="userSpaceOnUse">
<stop stop-color="#C61A02"/>
<stop offset="1" stop-color="#F9ECEC"/>
</linearGradient>
<linearGradient id="paint55_linear_11534_6291" x1="251.122" y1="120.074" x2="251.122" y2="214.748" gradientUnits="userSpaceOnUse">
<stop stop-color="#C61A02"/>
<stop offset="1" stop-color="#F9ECEC"/>
</linearGradient>
<linearGradient id="paint56_linear_11534_6291" x1="241.622" y1="136.754" x2="241.622" y2="222.66" gradientUnits="userSpaceOnUse">
<stop stop-color="#C61A02"/>
<stop offset="1" stop-color="#F9ECEC"/>
</linearGradient>
<linearGradient id="paint57_linear_11534_6291" x1="233.162" y1="151.43" x2="233.162" y2="230.303" gradientUnits="userSpaceOnUse">
<stop stop-color="#C61A02"/>
<stop offset="1" stop-color="#F9ECEC"/>
</linearGradient>
<linearGradient id="paint58_linear_11534_6291" x1="225.518" y1="164.277" x2="225.518" y2="237.619" gradientUnits="userSpaceOnUse">
<stop stop-color="#C61A02"/>
<stop offset="1" stop-color="#F9ECEC"/>
</linearGradient>
<linearGradient id="paint59_linear_11534_6291" x1="466.085" y1="664.51" x2="466.085" y2="818.923" gradientUnits="userSpaceOnUse">
<stop stop-color="#C61A02"/>
<stop offset="1" stop-color="#F9ECEC"/>
</linearGradient>
<linearGradient id="paint60_linear_11534_6291" x1="496.111" y1="661.332" x2="496.111" y2="836.402" gradientUnits="userSpaceOnUse">
<stop stop-color="#C61A02"/>
<stop offset="1" stop-color="#F9ECEC"/>
</linearGradient>
<linearGradient id="paint61_linear_11534_6291" x1="525.441" y1="656.547" x2="525.441" y2="842.534" gradientUnits="userSpaceOnUse">
<stop stop-color="#C61A02"/>
<stop offset="1" stop-color="#F9ECEC"/>
</linearGradient>
<linearGradient id="paint62_linear_11534_6291" x1="552.497" y1="650.465" x2="552.497" y2="839.731" gradientUnits="userSpaceOnUse">
<stop stop-color="#C61A02"/>
<stop offset="1" stop-color="#F9ECEC"/>
</linearGradient>
<linearGradient id="paint63_linear_11534_6291" x1="576.652" y1="643.424" x2="576.652" y2="829.568" gradientUnits="userSpaceOnUse">
<stop stop-color="#C61A02"/>
<stop offset="1" stop-color="#F9ECEC"/>
</linearGradient>
<linearGradient id="paint64_linear_11534_6291" x1="597.384" y1="635.748" x2="597.384" y2="814.005" gradientUnits="userSpaceOnUse">
<stop stop-color="#C61A02"/>
<stop offset="1" stop-color="#F9ECEC"/>
</linearGradient>
<linearGradient id="paint65_linear_11534_6291" x1="614.459" y1="627.717" x2="614.459" y2="794.165" gradientUnits="userSpaceOnUse">
<stop stop-color="#C61A02"/>
<stop offset="1" stop-color="#F9ECEC"/>
</linearGradient>
<linearGradient id="paint66_linear_11534_6291" x1="628.204" y1="619.559" x2="628.204" y2="772.022" gradientUnits="userSpaceOnUse">
<stop stop-color="#C61A02"/>
<stop offset="1" stop-color="#F9ECEC"/>
</linearGradient>
<linearGradient id="paint67_linear_11534_6291" x1="639.268" y1="611.461" x2="639.268" y2="749.604" gradientUnits="userSpaceOnUse">
<stop stop-color="#C61A02"/>
<stop offset="1" stop-color="#F9ECEC"/>
</linearGradient>
<linearGradient id="paint68_linear_11534_6291" x1="648.328" y1="603.549" x2="648.328" y2="728.311" gradientUnits="userSpaceOnUse">
<stop stop-color="#C61A02"/>
<stop offset="1" stop-color="#F9ECEC"/>
</linearGradient>
<linearGradient id="paint69_linear_11534_6291" x1="655.936" y1="595.904" x2="655.936" y2="708.853" gradientUnits="userSpaceOnUse">
<stop stop-color="#C61A02"/>
<stop offset="1" stop-color="#F9ECEC"/>
</linearGradient>
<linearGradient id="paint70_linear_11534_6291" x1="662.463" y1="588.59" x2="662.463" y2="691.431" gradientUnits="userSpaceOnUse">
<stop stop-color="#C61A02"/>
<stop offset="1" stop-color="#F9ECEC"/>
</linearGradient>
<linearGradient id="paint71_linear_11534_6291" x1="437.082" y1="665.871" x2="437.082" y2="796.456" gradientUnits="userSpaceOnUse">
<stop stop-color="#C61A02"/>
<stop offset="1" stop-color="#F9ECEC"/>
</linearGradient>
<linearGradient id="paint72_linear_11534_6291" x1="410.26" y1="664.51" x2="410.26" y2="775.097" gradientUnits="userSpaceOnUse">
<stop stop-color="#C61A02"/>
<stop offset="1" stop-color="#F9ECEC"/>
</linearGradient>
<linearGradient id="paint73_linear_11534_6291" x1="385.472" y1="661.332" x2="385.472" y2="756.913" gradientUnits="userSpaceOnUse">
<stop stop-color="#C61A02"/>
<stop offset="1" stop-color="#F9ECEC"/>
</linearGradient>
<linearGradient id="paint74_linear_11534_6291" x1="362.501" y1="656.547" x2="362.501" y2="741.805" gradientUnits="userSpaceOnUse">
<stop stop-color="#C61A02"/>
<stop offset="1" stop-color="#F9ECEC"/>
</linearGradient>
<linearGradient id="paint75_linear_11534_6291" x1="341.182" y1="650.465" x2="341.182" y2="729.246" gradientUnits="userSpaceOnUse">
<stop stop-color="#C61A02"/>
<stop offset="1" stop-color="#F9ECEC"/>
</linearGradient>
<linearGradient id="paint76_linear_11534_6291" x1="321.442" y1="643.424" x2="321.442" y2="718.645" gradientUnits="userSpaceOnUse">
<stop stop-color="#C61A02"/>
<stop offset="1" stop-color="#F9ECEC"/>
</linearGradient>
<linearGradient id="paint77_linear_11534_6291" x1="303.269" y1="635.75" x2="303.269" y2="709.151" gradientUnits="userSpaceOnUse">
<stop stop-color="#C61A02"/>
<stop offset="1" stop-color="#F9ECEC"/>
</linearGradient>
<linearGradient id="paint78_linear_11534_6291" x1="286.575" y1="627.721" x2="286.575" y2="700.5" gradientUnits="userSpaceOnUse">
<stop stop-color="#C61A02"/>
<stop offset="1" stop-color="#F9ECEC"/>
</linearGradient>
<linearGradient id="paint79_linear_11534_6291" x1="271.234" y1="619.559" x2="271.234" y2="692.587" gradientUnits="userSpaceOnUse">
<stop stop-color="#C61A02"/>
<stop offset="1" stop-color="#F9ECEC"/>
</linearGradient>
<linearGradient id="paint80_linear_11534_6291" x1="257.145" y1="611.461" x2="257.145" y2="685.299" gradientUnits="userSpaceOnUse">
<stop stop-color="#C61A02"/>
<stop offset="1" stop-color="#F9ECEC"/>
</linearGradient>
<linearGradient id="paint81_linear_11534_6291" x1="244.226" y1="603.549" x2="244.226" y2="678.495" gradientUnits="userSpaceOnUse">
<stop stop-color="#C61A02"/>
<stop offset="1" stop-color="#F9ECEC"/>
</linearGradient>
<linearGradient id="paint82_linear_11534_6291" x1="232.41" y1="595.904" x2="232.41" y2="672.028" gradientUnits="userSpaceOnUse">
<stop stop-color="#C61A02"/>
<stop offset="1" stop-color="#F9ECEC"/>
</linearGradient>
<linearGradient id="paint83_linear_11534_6291" x1="221.63" y1="588.59" x2="221.63" y2="665.799" gradientUnits="userSpaceOnUse">
<stop stop-color="#C61A02"/>
<stop offset="1" stop-color="#F9ECEC"/>
</linearGradient>
<linearGradient id="paint84_linear_11534_6291" x1="465.217" y1="21.9531" x2="465.217" y2="161.7" gradientUnits="userSpaceOnUse">
<stop stop-color="#C61A02"/>
<stop offset="1" stop-color="#F9ECEC"/>
</linearGradient>
<linearGradient id="paint85_linear_11534_6291" x1="491.061" y1="41.3828" x2="491.061" y2="164.876" gradientUnits="userSpaceOnUse">
<stop stop-color="#C61A02"/>
<stop offset="1" stop-color="#F9ECEC"/>
</linearGradient>
<linearGradient id="paint86_linear_11534_6291" x1="514.491" y1="61.375" x2="514.491" y2="169.661" gradientUnits="userSpaceOnUse">
<stop stop-color="#C61A02"/>
<stop offset="1" stop-color="#F9ECEC"/>
</linearGradient>
<linearGradient id="paint87_linear_11534_6291" x1="536.079" y1="78.5762" x2="536.079" y2="175.745" gradientUnits="userSpaceOnUse">
<stop stop-color="#C61A02"/>
<stop offset="1" stop-color="#F9ECEC"/>
</linearGradient>
<linearGradient id="paint88_linear_11534_6291" x1="557.009" y1="89.1582" x2="557.009" y2="182.784" gradientUnits="userSpaceOnUse">
<stop stop-color="#C61A02"/>
<stop offset="1" stop-color="#F9ECEC"/>
</linearGradient>
<linearGradient id="paint89_linear_11534_6291" x1="577.076" y1="94.9863" x2="577.076" y2="190.459" gradientUnits="userSpaceOnUse">
<stop stop-color="#C61A02"/>
<stop offset="1" stop-color="#F9ECEC"/>
</linearGradient>
<linearGradient id="paint90_linear_11534_6291" x1="595.973" y1="99.584" x2="595.973" y2="198.493" gradientUnits="userSpaceOnUse">
<stop stop-color="#C61A02"/>
<stop offset="1" stop-color="#F9ECEC"/>
</linearGradient>
<linearGradient id="paint91_linear_11534_6291" x1="613.573" y1="104.004" x2="613.573" y2="206.651" gradientUnits="userSpaceOnUse">
<stop stop-color="#C61A02"/>
<stop offset="1" stop-color="#F9ECEC"/>
</linearGradient>
<linearGradient id="paint92_linear_11534_6291" x1="629.804" y1="108.67" x2="629.804" y2="214.747" gradientUnits="userSpaceOnUse">
<stop stop-color="#C61A02"/>
<stop offset="1" stop-color="#F9ECEC"/>
</linearGradient>
<linearGradient id="paint93_linear_11534_6291" x1="644.655" y1="113.764" x2="644.655" y2="222.66" gradientUnits="userSpaceOnUse">
<stop stop-color="#C61A02"/>
<stop offset="1" stop-color="#F9ECEC"/>
</linearGradient>
<linearGradient id="paint94_linear_11534_6291" x1="658.131" y1="119.334" x2="658.131" y2="230.305" gradientUnits="userSpaceOnUse">
<stop stop-color="#C61A02"/>
<stop offset="1" stop-color="#F9ECEC"/>
</linearGradient>
<linearGradient id="paint95_linear_11534_6291" x1="670.267" y1="125.346" x2="670.267" y2="237.619" gradientUnits="userSpaceOnUse">
<stop stop-color="#C61A02"/>
<stop offset="1" stop-color="#F9ECEC"/>
</linearGradient>
<linearGradient id="paint96_linear_11534_6291" x1="437.08" y1="218.637" x2="437.08" y2="607.573" gradientUnits="userSpaceOnUse">
<stop stop-color="#C61A02"/>
<stop offset="1" stop-color="#F9ECEC"/>
</linearGradient>
</defs>
</svg>
