<svg width="869" height="843" viewBox="0 0 869 843" fill="none" xmlns="http://www.w3.org/2000/svg">
<g opacity="0.1">
<path d="M185.48 386.348L9.16408 370.828C8.23962 373.842 7.38545 376.846 6.60156 379.828L184.68 395.499C184.891 392.43 185.156 389.378 185.48 386.348Z" fill="url(#paint0_linear_11534_6514)"/>
<path d="M188.658 364.941L22.814 335.895C21.4408 338.785 20.1379 341.664 18.8945 344.532L187.085 373.983C187.555 370.953 188.08 367.939 188.658 364.941Z" fill="url(#paint1_linear_11534_6514)"/>
<path d="M193.449 344.689L41.5469 304.996C39.5196 307.54 37.5625 310.187 35.6758 312.948L191.129 353.575C191.849 350.593 192.622 347.628 193.449 344.689Z" fill="url(#paint2_linear_11534_6514)"/>
<path d="M199.535 325.897L66.7656 279.867C64.0193 282.109 61.3271 284.41 58.7051 286.798L196.519 334.572C197.47 331.655 198.476 328.765 199.535 325.897Z" fill="url(#paint3_linear_11534_6514)"/>
<path d="M206.58 308.73L93.8563 260.129C90.8451 262.176 87.8663 264.213 84.9199 266.276L202.936 317.157C204.093 314.321 205.309 311.512 206.58 308.73Z" fill="url(#paint4_linear_11534_6514)"/>
<path d="M214.262 293.242L118.071 243.729C115.184 245.738 112.313 247.699 109.459 249.627L210.046 301.405C211.403 298.655 212.808 295.932 214.262 293.242Z" fill="url(#paint5_linear_11534_6514)"/>
<path d="M222.295 279.419L137.97 229.035C135.359 231.104 132.748 233.103 130.137 235.047L217.576 287.289C219.106 284.637 220.679 282.012 222.295 279.419Z" fill="url(#paint6_linear_11534_6514)"/>
<path d="M230.464 267.162L154.097 215.271C151.75 217.443 149.388 219.539 147.025 221.575L225.29 274.752C226.966 272.186 228.691 269.658 230.464 267.162Z" fill="url(#paint7_linear_11534_6514)"/>
<path d="M238.567 256.348L167.255 202.107C166.179 203.296 165.087 204.468 163.973 205.619C162.935 206.688 161.897 207.747 160.859 208.779L232.999 263.651C234.81 261.183 236.664 258.746 238.567 256.348Z" fill="url(#paint8_linear_11534_6514)"/>
<path d="M246.487 246.834L177.921 189.174C176.061 191.637 174.169 194.041 172.223 196.38L240.573 253.851C242.503 251.474 244.47 249.135 246.487 246.834Z" fill="url(#paint9_linear_11534_6514)"/>
<path d="M254.136 238.472L186.829 176.518C185.11 179.116 183.359 181.671 181.58 184.172L247.908 245.219C249.941 242.934 252.017 240.681 254.136 238.472Z" fill="url(#paint10_linear_11534_6514)"/>
<path d="M184.073 413.103C184.073 411.569 184.09 410.04 184.117 408.512H1.05381C0.67538 411.591 0.36723 414.654 0.134766 417.695H184.117C184.09 416.166 184.073 414.637 184.073 413.103Z" fill="url(#paint11_linear_11534_6514)"/>
<path d="M184.679 430.709L0 446.963C0.21084 450.037 0.497366 453.084 0.854171 456.109L185.479 439.86C185.155 436.829 184.89 433.777 184.679 430.709Z" fill="url(#paint12_linear_11534_6514)"/>
<path d="M187.084 452.225L6.14062 483.912C6.92992 486.899 7.7895 489.854 8.71395 492.782L188.658 461.267C188.079 458.269 187.555 455.255 187.084 452.225Z" fill="url(#paint13_linear_11534_6514)"/>
<path d="M191.128 472.633L18.3906 517.776C19.6935 520.618 21.0667 523.421 22.4939 526.193L193.447 481.519C192.62 478.58 191.847 475.615 191.128 472.633Z" fill="url(#paint14_linear_11534_6514)"/>
<path d="M196.519 491.637L35.0215 547.622C36.7623 550.28 38.5625 552.9 40.4114 555.476L199.536 500.312C198.476 497.444 197.471 494.554 196.519 491.637Z" fill="url(#paint15_linear_11534_6514)"/>
<path d="M202.935 509.053L54.2656 573.146C56.3632 575.599 58.504 578.013 60.6881 580.379L206.578 517.48C205.308 514.698 204.092 511.889 202.935 509.053Z" fill="url(#paint16_linear_11534_6514)"/>
<path d="M210.045 524.805L74.6641 594.489C77.0536 596.736 79.4701 598.935 81.9191 601.09L214.262 532.967C212.807 530.277 211.402 527.554 210.045 524.805Z" fill="url(#paint17_linear_11534_6514)"/>
<path d="M217.575 538.914L95.1855 612.045C97.8075 614.087 100.451 616.069 103.116 617.998L222.295 546.79C220.678 544.192 219.1 541.566 217.575 538.914Z" fill="url(#paint18_linear_11534_6514)"/>
<path d="M225.29 551.459L115.172 626.281C117.994 628.123 120.827 629.895 123.67 631.607H123.676L230.463 559.049C228.69 556.553 226.966 554.025 225.29 551.459Z" fill="url(#paint19_linear_11534_6514)"/>
<path d="M232.999 562.559L134.25 637.666C135.05 638.104 135.845 638.531 136.645 638.958C138.878 640.146 141.051 641.297 143.181 642.415L238.567 569.862C236.664 567.464 234.81 565.027 232.999 562.559Z" fill="url(#paint20_linear_11534_6514)"/>
<path d="M240.573 572.359L151.885 646.938C154.945 648.51 157.902 650.012 160.772 651.459L246.487 579.376C244.47 577.075 242.503 574.736 240.573 572.359Z" fill="url(#paint21_linear_11534_6514)"/>
<path d="M247.909 580.99L167.639 654.872C170.682 656.368 173.639 657.805 176.521 659.183L254.137 587.737C252.018 585.528 249.942 583.275 247.909 580.99Z" fill="url(#paint22_linear_11534_6514)"/>
<path d="M689.484 395.501L862.956 380.235C863.697 377.124 864.362 373.991 864.946 370.836L688.684 386.35C689.008 389.381 689.273 392.433 689.484 395.501Z" fill="url(#paint23_linear_11534_6514)"/>
<path d="M868.015 332.979L685.504 364.942C686.082 367.94 686.607 370.954 687.077 373.984L867.988 342.302C868.075 339.223 868.086 336.117 868.015 332.979Z" fill="url(#paint24_linear_11534_6514)"/>
<path d="M683.034 353.576L865.54 305.877C865.07 302.89 864.529 299.87 863.918 296.812L680.715 344.689C681.542 347.628 682.315 350.594 683.034 353.576Z" fill="url(#paint25_linear_11534_6514)"/>
<path d="M677.644 334.572L857.674 272.158C856.771 269.193 855.83 266.276 854.857 263.418L674.627 325.896C675.687 328.765 676.692 331.655 677.644 334.572Z" fill="url(#paint26_linear_11534_6514)"/>
<path d="M671.226 317.156L846.298 241.676C845.033 238.845 843.72 236.079 842.374 233.373L667.582 308.729C668.852 311.511 670.069 314.32 671.226 317.156Z" fill="url(#paint27_linear_11534_6514)"/>
<path d="M664.117 301.404L832.081 214.947C830.432 212.305 828.745 209.729 827.021 207.217L659.9 293.242C661.355 295.932 662.76 298.655 664.117 301.404Z" fill="url(#paint28_linear_11534_6514)"/>
<path d="M656.587 287.289L815.684 192.227C813.684 189.817 811.64 187.473 809.564 185.193L651.867 279.419C653.484 282.012 655.057 284.637 656.587 287.289Z" fill="url(#paint29_linear_11534_6514)"/>
<path d="M648.873 274.751L797.953 173.455C795.628 171.289 793.271 169.187 790.882 167.156L643.699 267.162C645.472 269.657 647.197 272.185 648.873 274.751Z" fill="url(#paint30_linear_11534_6514)"/>
<path d="M641.164 263.65L779.702 158.275C777.112 156.358 774.49 154.505 771.847 152.717L635.596 256.347C637.499 258.745 639.353 261.181 641.164 263.65Z" fill="url(#paint31_linear_11534_6514)"/>
<path d="M633.59 253.85L761.624 146.185C758.823 144.5 756.001 142.874 753.158 141.312L627.676 246.833C629.692 249.134 631.66 251.473 633.59 253.85Z" fill="url(#paint32_linear_11534_6514)"/>
<path d="M626.253 245.22L744.226 136.631C741.269 135.145 738.29 133.73 735.301 132.363L620.025 238.473C622.145 240.682 624.221 242.935 626.253 245.22Z" fill="url(#paint33_linear_11534_6514)"/>
<path d="M690.09 413.103C690.09 414.637 690.074 416.166 690.047 417.695H850.301C851.626 414.637 852.88 411.575 854.064 408.512H690.047C690.074 410.04 690.09 411.569 690.09 413.103Z" fill="url(#paint34_linear_11534_6514)"/>
<path d="M688.684 439.86L832.784 452.543C834.444 449.599 836.061 446.666 837.628 443.749L689.484 430.709C689.273 433.777 689.008 436.829 688.684 439.86Z" fill="url(#paint35_linear_11534_6514)"/>
<path d="M685.504 461.267L813.922 483.756C815.716 480.936 817.473 478.138 819.198 475.361L687.077 452.225C686.607 455.255 686.082 458.269 685.504 461.267Z" fill="url(#paint36_linear_11534_6514)"/>
<path d="M680.715 481.519L795.828 511.602C797.623 508.88 799.396 506.179 801.153 503.505L683.034 472.633C682.315 475.615 681.542 478.58 680.715 481.519Z" fill="url(#paint37_linear_11534_6514)"/>
<path d="M674.627 500.312L779.295 536.597C781.052 533.934 782.793 531.297 784.518 528.688L677.644 491.637C676.692 494.554 675.687 497.444 674.627 500.312Z" fill="url(#paint38_linear_11534_6514)"/>
<path d="M667.582 517.48L764.493 559.263C766.19 556.633 767.877 554.029 769.558 551.447L671.226 509.053C670.069 511.889 668.852 514.698 667.582 517.48Z" fill="url(#paint39_linear_11534_6514)"/>
<path d="M659.9 532.967L751.405 580.066C752.627 577.965 753.886 575.896 755.178 573.849C755.524 573.303 755.87 572.757 756.216 572.212L664.117 524.805C662.76 527.554 661.355 530.277 659.9 532.967Z" fill="url(#paint40_linear_11534_6514)"/>
<path d="M651.867 546.79L741.042 600.074C742.334 597.276 743.669 594.51 745.058 591.777L656.587 538.914C655.062 541.566 653.484 544.192 651.867 546.79Z" fill="url(#paint41_linear_11534_6514)"/>
<path d="M643.699 559.049L732.787 619.582C733.922 616.649 735.09 613.743 736.296 610.858L648.873 551.459C647.197 554.025 645.472 556.553 643.699 559.049Z" fill="url(#paint42_linear_11534_6514)"/>
<path d="M635.596 569.862L725.9 638.547C726.938 635.495 728.003 632.459 729.095 629.439L641.164 562.559C639.353 565.027 637.499 567.464 635.596 569.862Z" fill="url(#paint43_linear_11534_6514)"/>
<path d="M627.676 579.376L719.878 656.91C720.872 653.755 721.883 650.611 722.916 647.473L633.59 572.359C631.66 574.736 629.692 577.075 627.676 579.376Z" fill="url(#paint44_linear_11534_6514)"/>
<path d="M620.025 587.737L714.368 674.578C715.368 671.337 716.368 668.096 717.374 664.86L626.253 580.99C624.221 583.275 622.145 585.528 620.025 587.737Z" fill="url(#paint45_linear_11534_6514)"/>
<path d="M432.486 160.34C434.016 160.313 435.546 160.297 437.082 160.297C438.617 160.297 440.147 160.313 441.677 160.34V10.2C438.66 9.04399 435.6 7.96902 432.486 6.98047V160.34Z" fill="url(#paint46_linear_11534_6514)"/>
<path d="M396.049 0L410.305 161.7C413.338 161.376 416.392 161.112 419.463 160.901L405.358 0.902116C402.298 0.507778 399.195 0.205272 396.049 0Z" fill="url(#paint47_linear_11534_6514)"/>
<path d="M360.324 2.07508L388.879 164.877C391.88 164.299 394.897 163.775 397.929 163.305L369.417 0.724609C366.417 1.07573 363.39 1.52409 360.324 2.07508Z" fill="url(#paint48_linear_11534_6514)"/>
<path d="M377.506 167.345L335.884 8.3457C332.922 9.32885 330.029 10.3768 327.213 11.4788L368.613 169.662C371.554 168.836 374.522 168.063 377.506 167.345Z" fill="url(#paint49_linear_11534_6514)"/>
<path d="M358.486 172.732L305.992 21.5547C303.235 23.1158 300.559 24.7364 297.953 26.4218L349.803 175.746C352.674 174.688 355.566 173.683 358.486 172.732Z" fill="url(#paint50_linear_11534_6514)"/>
<path d="M341.058 179.143L280.661 39.2715C278.185 41.3674 275.785 43.5228 273.449 45.743L332.625 182.784C335.409 181.514 338.22 180.299 341.058 179.143Z" fill="url(#paint51_linear_11534_6514)"/>
<path d="M325.293 186.248L260.073 59.7461C257.889 62.2634 255.764 64.8293 253.699 67.4384L317.124 190.461C319.816 189.008 322.541 187.604 325.293 186.248Z" fill="url(#paint52_linear_11534_6514)"/>
<path d="M311.172 193.771L243.666 80.9688C241.73 83.7507 239.843 86.5597 238 89.3957L303.29 198.492C305.89 196.872 308.518 195.294 311.172 193.771Z" fill="url(#paint53_linear_11534_6514)"/>
<path d="M298.619 201.479L230.496 101.371C228.739 104.272 227.02 107.184 225.322 110.106L291.023 206.649C293.521 204.877 296.051 203.154 298.619 201.479Z" fill="url(#paint54_linear_11534_6514)"/>
<path d="M287.508 209.184L219.623 120.074C217.98 122.991 216.353 125.908 214.736 128.814L280.199 214.748C282.6 212.846 285.038 210.993 287.508 209.184Z" fill="url(#paint55_linear_11534_6514)"/>
<path d="M277.702 216.751L210.325 136.754C208.731 139.628 207.141 142.485 205.541 145.327L270.68 222.66C272.983 220.645 275.324 218.679 277.702 216.751Z" fill="url(#paint56_linear_11534_6514)"/>
<path d="M269.064 224.08L202.087 151.43C200.493 154.228 198.887 156.999 197.26 159.743L262.312 230.303C264.523 228.185 266.777 226.111 269.064 224.08Z" fill="url(#paint57_linear_11534_6514)"/>
<path d="M261.458 231.126L194.557 164.277C192.919 166.984 191.259 169.658 189.578 172.288L254.96 237.619C257.085 235.415 259.253 233.249 261.458 231.126Z" fill="url(#paint58_linear_11534_6514)"/>
<path d="M454.699 665.309L467.733 813.197C471.004 815.179 474.242 817.092 477.47 818.923L463.857 664.51C460.824 664.834 457.77 665.099 454.699 665.309Z" fill="url(#paint59_linear_11534_6514)"/>
<path d="M476.232 662.904L506.037 832.842C509.345 834.149 512.659 835.338 515.989 836.402L485.282 661.332C482.282 661.91 479.265 662.434 476.232 662.904Z" fill="url(#paint60_linear_11534_6514)"/>
<path d="M496.656 658.864L544.636 842.156C547.793 842.41 550.988 842.539 554.226 842.534L505.549 656.547C502.608 657.373 499.64 658.146 496.656 658.864Z" fill="url(#paint61_linear_11534_6514)"/>
<path d="M515.676 653.479L580.344 839.731C583.29 839.115 586.28 838.391 589.318 837.554L524.358 650.465C521.487 651.524 518.595 652.528 515.676 653.479Z" fill="url(#paint62_linear_11534_6514)"/>
<path d="M533.105 647.065L611.911 829.568C614.76 828.309 617.522 826.98 620.198 825.586L541.544 643.424C538.76 644.693 535.944 645.903 533.105 647.065Z" fill="url(#paint63_linear_11534_6514)"/>
<path d="M548.869 639.961L638.6 814.005C641.125 812.109 643.552 810.143 645.899 808.106L557.038 635.748C554.346 637.201 551.621 638.606 548.869 639.961Z" fill="url(#paint64_linear_11534_6514)"/>
<path d="M562.99 632.438L659.776 794.165C661.912 791.697 663.961 789.158 665.929 786.554L570.872 627.717C568.272 629.337 565.645 630.915 562.99 632.438Z" fill="url(#paint65_linear_11534_6514)"/>
<path d="M575.543 624.728L675.778 772.022C677.552 769.126 679.244 766.171 680.866 763.163L583.139 619.559C580.641 621.33 578.111 623.054 575.543 624.728Z" fill="url(#paint66_linear_11534_6514)"/>
<path d="M586.652 617.025L687.65 749.604C689.115 746.444 690.526 743.246 691.883 740.004L593.961 611.461C591.561 613.362 589.123 615.215 586.652 617.025Z" fill="url(#paint67_linear_11534_6514)"/>
<path d="M596.459 609.458L696.559 728.311C697.813 725.027 699.024 721.721 700.197 718.382V718.377L603.482 603.549C601.179 605.564 598.838 607.53 596.459 609.458Z" fill="url(#paint68_linear_11534_6514)"/>
<path d="M605.1 602.127L703.491 708.853C704.605 705.541 705.697 702.208 706.773 698.864L611.852 595.904C609.641 598.022 607.386 600.096 605.1 602.127Z" fill="url(#paint69_linear_11534_6514)"/>
<path d="M612.705 595.083L709.129 691.431C710.167 688.141 711.194 684.841 712.221 681.535L619.203 588.59C617.079 590.794 614.911 592.96 612.705 595.083Z" fill="url(#paint70_linear_11534_6514)"/>
<path d="M432.486 665.871V790.298C435.589 792.389 438.649 794.442 441.677 796.456V665.871C440.147 665.898 438.617 665.914 437.082 665.914C435.546 665.914 434.016 665.898 432.486 665.871Z" fill="url(#paint71_linear_11534_6514)"/>
<path d="M401.059 769.366C404.01 771.289 406.919 773.201 409.784 775.097L419.461 665.309C416.39 665.099 413.336 664.834 410.303 664.51L401.059 769.366Z" fill="url(#paint72_linear_11534_6514)"/>
<path d="M373.014 751.792C375.863 753.494 378.674 755.206 381.442 756.913L397.931 662.904C394.898 662.434 391.881 661.91 388.881 661.332L373.014 751.792Z" fill="url(#paint73_linear_11534_6514)"/>
<path d="M368.612 656.547L347.496 737.235C350.302 738.753 353.07 740.276 355.795 741.805L377.506 658.864C374.521 658.146 371.553 657.373 368.612 656.547Z" fill="url(#paint74_linear_11534_6514)"/>
<path d="M349.805 650.465L323.877 725.141C326.683 726.496 329.451 727.869 332.181 729.246L358.487 653.479C355.568 652.528 352.675 651.524 349.805 650.465Z" fill="url(#paint75_linear_11534_6514)"/>
<path d="M332.625 643.424L301.82 714.761C304.523 716.015 307.302 717.311 310.151 718.645L341.064 647.07C338.225 645.909 335.409 644.693 332.625 643.424Z" fill="url(#paint76_linear_11534_6514)"/>
<path d="M317.125 635.75L281.244 705.343C283.958 706.569 286.748 707.833 289.624 709.151L325.293 639.963C322.542 638.608 319.817 637.203 317.125 635.75Z" fill="url(#paint77_linear_11534_6514)"/>
<path d="M303.29 627.721L261.977 696.751C264.712 697.956 267.534 699.204 270.443 700.5L311.172 632.442C308.518 630.913 305.891 629.336 303.29 627.721Z" fill="url(#paint78_linear_11534_6514)"/>
<path d="M291.024 619.559L243.85 688.876C246.628 690.069 249.488 691.307 252.44 692.587L298.619 624.728C296.051 623.054 293.521 621.33 291.024 619.559Z" fill="url(#paint79_linear_11534_6514)"/>
<path d="M280.199 611.461L226.781 681.578C229.619 682.788 232.517 684.025 235.496 685.299L287.508 617.025C285.038 615.215 282.6 613.362 280.199 611.461Z" fill="url(#paint80_linear_11534_6514)"/>
<path d="M270.681 603.549L210.748 674.703C213.662 675.961 216.587 677.22 219.56 678.495L277.703 609.458C275.324 607.53 272.984 605.564 270.681 603.549Z" fill="url(#paint81_linear_11534_6514)"/>
<path d="M262.311 595.904L195.756 668.095C198.729 669.435 201.676 670.742 204.622 672.028L269.063 602.127C266.776 600.096 264.522 598.022 262.311 595.904Z" fill="url(#paint82_linear_11534_6514)"/>
<path d="M254.959 588.59L181.803 661.688C184.825 663.109 187.777 664.476 190.685 665.799L261.457 595.083C259.251 592.96 257.083 590.794 254.959 588.59Z" fill="url(#paint83_linear_11534_6514)"/>
<path d="M475.735 26.9931C472.858 25.2699 469.928 23.5845 466.944 21.9531L454.699 160.901C457.77 161.111 460.824 161.376 463.857 161.7L475.735 26.9931Z" fill="url(#paint84_linear_11534_6514)"/>
<path d="M505.891 47.3789C503.193 45.3856 500.43 43.3815 497.614 41.3828L476.232 163.304C479.265 163.774 482.282 164.298 485.282 164.876L505.891 47.3789Z" fill="url(#paint85_linear_11534_6514)"/>
<path d="M505.549 169.661L532.326 67.3603C529.747 65.4426 527.109 63.4385 524.395 61.375L496.656 167.344C499.64 168.062 502.608 168.835 505.549 169.661Z" fill="url(#paint86_linear_11534_6514)"/>
<path d="M524.358 175.745L556.481 83.2272C553.865 81.9037 551.162 80.3372 548.367 78.5762L515.676 172.731C518.595 173.682 521.487 174.687 524.358 175.745Z" fill="url(#paint87_linear_11534_6514)"/>
<path d="M541.539 182.784L580.912 91.5999C577.776 90.8166 574.787 90.0063 571.959 89.1582L533.105 179.143C535.944 180.299 538.755 181.514 541.539 182.784Z" fill="url(#paint88_linear_11534_6514)"/>
<path d="M557.038 190.459L605.282 96.877C602.076 96.245 598.952 95.6183 595.919 94.9863L548.869 186.246C551.621 187.602 554.346 189.006 557.038 190.459Z" fill="url(#paint89_linear_11534_6514)"/>
<path d="M570.872 198.493C570.872 198.493 570.872 198.493 570.878 198.493L628.956 101.437C625.702 100.799 622.496 100.189 619.355 99.584L562.99 193.766C565.645 195.295 568.272 196.872 570.872 198.493Z" fill="url(#paint90_linear_11534_6514)"/>
<path d="M583.139 206.651L651.602 106.051C648.326 105.338 645.082 104.663 641.876 104.004L575.543 201.481C578.111 203.156 580.641 204.879 583.139 206.651Z" fill="url(#paint91_linear_11534_6514)"/>
<path d="M593.961 214.747L672.956 111.052C669.691 110.215 666.447 109.426 663.225 108.67L586.652 209.183C589.123 210.993 591.561 212.845 593.961 214.747Z" fill="url(#paint92_linear_11534_6514)"/>
<path d="M603.482 222.66L692.851 116.556C689.623 115.579 686.401 114.65 683.195 113.764L596.459 216.751C598.838 218.679 601.179 220.646 603.482 222.66Z" fill="url(#paint93_linear_11534_6514)"/>
<path d="M611.852 230.305L711.163 122.586C707.995 121.452 704.827 120.366 701.664 119.334L605.1 224.082C607.386 226.113 609.641 228.188 611.852 230.305Z" fill="url(#paint94_linear_11534_6514)"/>
<path d="M619.203 237.619L727.829 129.078C724.753 127.782 721.661 126.534 718.568 125.346L612.705 231.126C614.911 233.249 617.079 235.415 619.203 237.619Z" fill="url(#paint95_linear_11534_6514)"/>
<path d="M437.08 218.637C329.595 218.637 242.459 305.704 242.459 413.105C242.459 520.505 329.595 607.573 437.08 607.573C544.565 607.573 631.701 520.505 631.701 413.105C631.701 305.704 544.565 218.637 437.08 218.637ZM522.151 429.159C513.88 441.384 502.414 453.76 488.012 465.914C463.641 486.517 438.891 499.659 438.643 499.795L437.075 500.61L435.507 499.795C435.264 499.659 410.525 486.517 386.138 465.914C371.742 453.738 360.253 441.384 352.004 429.159C341.521 413.64 336.212 398.288 336.212 383.513C336.212 365.217 341.575 350.07 351.706 339.753C360.67 330.623 373.066 325.594 386.592 325.594C398.551 325.594 410.385 329.521 419.997 336.641C427.603 342.302 433.399 349.627 437.069 358.146C440.746 349.611 446.541 342.302 454.147 336.641C463.722 329.521 475.577 325.594 487.514 325.594C501.057 325.594 513.453 330.623 522.432 339.753C532.564 350.07 537.926 365.201 537.926 383.513C537.937 398.304 532.628 413.656 522.151 429.159Z" fill="url(#paint96_linear_11534_6514)"/>
</g>
<circle cx="442" cy="422" r="213" fill="white"/>
<path d="M353.397 437.227C347.638 437.227 342.947 441.812 342.947 447.436C342.947 453.059 347.639 457.63 353.397 457.63C359.171 457.63 363.862 453.059 363.862 447.436C363.862 441.812 359.156 437.227 353.397 437.227ZM353.397 438.971C357.832 438.971 361.471 442.218 361.998 446.398C361.276 453.435 352.946 457.435 346.751 452.834C341.97 447.286 346.089 438.971 353.397 438.971Z" fill="#C61A02" stroke="#C61A02" stroke-width="0.708123"/>
<path d="M476.705 421.212C476.314 420.16 475.172 419.604 474.119 419.994L468.105 422.099C467.052 422.49 466.496 423.603 466.887 424.686L468.15 428.249L399.211 453.93C397.573 454.532 396.761 456.351 397.362 457.99L398.475 460.922C399.076 462.561 400.895 463.373 402.504 462.771L471.262 437.151L471.818 438.759C472.209 439.812 473.352 440.368 474.404 439.977L480.419 437.872C481.471 437.481 482.027 436.339 481.637 435.286L476.705 421.212Z" fill="#C61A02" stroke="#C61A02" stroke-width="0.708123"/>
<path d="M400.022 406.148L376.626 413.892C375.529 414.253 376.07 415.937 377.167 415.546L400.563 407.802C401.661 407.457 401.119 405.788 400.022 406.148Z" fill="#C61A02" stroke="#C61A02" stroke-width="2"/>
<path d="M392.024 423.019L383.769 426.717C382.732 427.183 383.409 428.792 384.491 428.311L392.746 424.612C393.798 424.146 393.076 422.537 392.024 423.019Z" fill="#C61A02" stroke="#C61A02" stroke-width="2"/>
<path d="M515.303 344.591C501.801 347.929 502.583 347.493 500.462 349.117C499.936 349.523 499.44 349.914 498.899 350.124C498.147 350.41 497.275 350.019 497.2 349.658C497.2 348.966 496.809 348.636 496.343 348.621C494.628 348.56 496.177 351.763 494.884 355.206C494.313 356.71 492.96 358.258 491.23 358.349C489.712 358.424 488.494 357.507 487.517 356.469C487.637 353.417 487.186 350.44 486.148 347.583C484.72 343.614 480.63 345.012 481.683 349.056C482.464 352.109 483.998 355.011 485.727 357.085C485.366 360.814 483.291 362.378 481.562 362.408C480.044 362.333 479.066 361.235 479.066 360.228C479.082 359.07 477.322 359.055 477.322 360.213C477.307 362.393 479.367 364.152 481.533 364.152H481.593C483.983 364.122 486.509 362.227 487.276 358.619C491.456 361.987 497.035 359.521 497.245 351.793C499.831 352.65 501.305 350.409 502.868 349.613C503.605 349.237 503.68 349.267 515.754 346.29C516.867 346.019 516.4 344.305 515.303 344.591ZM483.547 346.997H483.592C483.848 346.997 484.269 347.523 484.51 348.199C485.216 350.124 485.622 352.124 485.758 354.154C484.885 352.77 482.54 348.275 483.547 346.997Z" fill="#C61A02" stroke="#C61A02" stroke-width="2"/>
<path fill-rule="evenodd" clip-rule="evenodd" d="M554.77 461.433C557.913 453.389 559.612 444.969 560.74 437.286L570.257 433.692C575.55 431.677 578.241 425.723 576.257 420.416L535.571 312.759C534.007 308.518 529.692 305.677 525.001 306.158C512.446 303.557 512.551 303.076 509.89 303.482L485.217 312.534L452.74 324.803C449.327 317.285 445.718 310.128 441.974 303.467C439.719 299.453 436.982 294.912 433.028 291.905C428.577 288.537 423.134 287.89 419.135 290.281C412.044 294.502 414.168 304.65 415.192 309.542L415.195 309.557C416.398 315.09 417.751 320.578 419.27 325.976C413.496 312.849 406.775 288.612 394.717 282.011C390.657 279.785 385.485 279.891 381.23 282.281C373.201 286.807 373.516 294.49 376.057 303.106C380.538 318.262 386.958 332.215 392.416 347.598L389.108 348.846C378.493 324.579 377.786 317.106 365.652 312.054C359.172 309.408 353.789 312.881 352.661 319.812C351.098 328.743 358.601 351.327 361.111 359.416L357.879 360.634C352.661 352.785 345.94 341.508 337.52 344.215C328.92 346.982 328.183 362.303 329.491 371.37L307.073 379.835C302.216 381.654 299.766 387.082 301.615 391.938L342.932 500.119C344.15 503.367 346.503 504.456 350.179 506.073C353.854 507.691 354.542 508.119 357.911 508.892C361.28 509.664 365.966 510.84 368.823 509.757L379.017 505.908C398.985 538.099 433.791 551.105 476.555 533.995C517.498 517.516 543.993 488.997 554.77 461.433ZM561.04 435.301L569.656 432.053C574.046 430.384 576.271 425.439 574.632 421.019L563.942 392.722C564.919 400.343 562.213 426.836 561.04 435.301ZM420.049 291.769C414.726 294.911 415.478 302.324 416.921 309.165C418.861 318.156 421.251 327.028 424.048 335.643L451.128 325.419C447.745 317.976 444.181 310.909 440.467 304.324C438.302 300.459 435.671 296.099 431.987 293.287C428.108 290.355 423.432 289.754 420.049 291.769ZM382.082 283.785C374.835 287.875 375.451 294.836 377.737 302.595C380.456 311.799 383.928 320.629 387.449 329.583C389.69 335.284 391.951 341.035 394.051 346.966L422.002 336.41C421.19 334.546 420.363 332.682 419.536 330.862C417.489 326.323 415.574 321.464 413.671 316.633C408.027 302.31 402.483 288.24 393.87 283.529C390.367 281.605 385.856 281.665 382.082 283.785ZM364.987 313.661C359.559 311.451 355.334 314.247 354.386 320.096C353.037 327.838 359.181 347.424 362.049 356.565C362.312 357.403 362.547 358.153 362.746 358.798L387.48 349.461C385.413 344.731 383.718 340.683 382.258 337.197C375.83 321.844 373.968 317.398 364.987 313.661ZM338.057 345.882C334.028 347.175 332.284 352.318 331.607 355.28C330.54 360.076 330.434 365.263 331.171 370.721L356.19 361.279C355.877 360.805 355.557 360.318 355.231 359.822C350.56 352.71 344.663 343.732 338.057 345.882ZM380.653 505.293C400.365 536.838 434.587 548.912 475.889 532.387C516.65 515.967 542.6 487.729 553.155 460.8C559.56 444.41 561.59 417.648 562.327 400.176C562.477 396.657 562.537 393.515 561.755 390.568C560.372 385.381 557.486 384.689 552.283 385.245C528.963 387.666 518.242 423.467 518.528 447.028C521.61 449.795 524.963 452.231 528.587 454.215C529.579 454.757 528.782 456.305 527.745 455.749C523.836 453.599 520.182 450.968 516.889 447.946C513.431 448.186 495.222 452.306 493.388 452.908C485.329 455.539 477.6 459.117 470.413 463.568C469.451 464.184 468.504 462.696 469.496 462.079C476.803 457.553 484.667 453.915 492.847 451.238C493.042 451.163 511.431 446.622 516.768 446.277C516.753 443.39 516.904 440.488 517.159 437.586L391.415 484.992C386.558 486.812 381.266 484.225 379.506 479.624L348.262 399.004C346.488 394.237 348.908 388.9 353.63 387.095L509.205 328.442C514.001 326.622 519.309 329.028 521.113 333.81L541.728 387.005C547.577 383.667 557.365 381.261 561.349 385.892L533.939 313.374C532.345 309.074 527.474 306.698 522.963 308.427C468.066 329.147 340.428 377.337 321.467 384.494C317.092 386.178 314.866 391.125 316.52 395.516L357.164 503.173C358.848 507.563 363.75 509.788 368.185 508.119L452.943 476.108C453.981 475.672 454.673 477.341 453.56 477.747L380.653 505.293ZM390.799 483.341C385.776 485.245 433.625 467.202 472.012 452.727C494.862 444.111 514.36 436.759 517.356 435.631L517.355 435.638C519.175 419.292 526.392 396.98 540.21 387.928L519.491 334.444C518.017 330.58 513.732 328.61 509.838 330.084L354.262 388.737C350.443 390.196 348.504 394.496 349.902 398.345C353.598 407.876 359.041 421.91 364.58 436.189C364.606 436.257 364.633 436.325 364.659 436.394L364.661 436.399C365.814 439.372 366.971 442.353 368.116 445.307C373.083 458.112 377.841 470.38 381.176 478.981C382.695 483.025 387.236 484.694 390.799 483.341Z" fill="#C61A02"/>
<path d="M415.195 309.557C416.398 315.09 417.751 320.578 419.27 325.976C413.496 312.849 406.775 288.612 394.717 282.011C390.657 279.785 385.485 279.891 381.23 282.281C373.201 286.807 373.516 294.49 376.057 303.106C380.538 318.262 386.958 332.215 392.416 347.598L389.108 348.846C378.493 324.579 377.786 317.106 365.652 312.054C359.172 309.408 353.789 312.881 352.661 319.812C351.098 328.743 358.601 351.327 361.111 359.416L357.879 360.634C352.661 352.785 345.94 341.508 337.52 344.215C328.92 346.982 328.183 362.303 329.491 371.37L307.073 379.835C302.216 381.654 299.766 387.082 301.615 391.938L342.932 500.119C344.15 503.367 346.503 504.456 350.179 506.073C353.854 507.691 354.542 508.119 357.911 508.892C361.28 509.664 365.966 510.84 368.823 509.757L379.017 505.908C398.985 538.099 433.791 551.105 476.555 533.995C517.498 517.516 543.993 488.997 554.77 461.433C557.913 453.389 559.612 444.969 560.74 437.286L570.257 433.692C575.55 431.677 578.241 425.723 576.257 420.416L535.571 312.759C534.007 308.518 529.692 305.677 525.001 306.158C512.446 303.557 512.551 303.076 509.89 303.482L485.217 312.534L452.74 324.803C449.327 317.285 445.718 310.128 441.974 303.467C439.719 299.453 436.982 294.912 433.028 291.905C428.577 288.537 423.134 287.89 419.135 290.281C412.044 294.502 414.168 304.65 415.192 309.542M415.195 309.557L415.192 309.542M415.195 309.557C415.194 309.552 415.193 309.547 415.192 309.542M368.116 445.307C366.971 442.353 365.814 439.372 364.661 436.399M368.116 445.307C366.97 442.352 365.813 439.368 364.659 436.394M368.116 445.307C373.083 458.112 377.841 470.38 381.176 478.981C382.695 483.025 387.236 484.694 390.799 483.341C385.776 485.245 433.625 467.202 472.012 452.727C494.862 444.111 514.36 436.759 517.356 435.631L517.355 435.638C519.175 419.292 526.392 396.98 540.21 387.928L519.491 334.444C518.017 330.58 513.732 328.61 509.838 330.084L354.262 388.737C350.443 390.196 348.504 394.496 349.902 398.345C353.598 407.876 359.041 421.91 364.58 436.189C364.606 436.257 364.633 436.325 364.659 436.394M364.661 436.399L364.659 436.394M364.661 436.399L364.659 436.394M569.656 432.053L561.04 435.301C562.213 426.836 564.919 400.343 563.942 392.722L574.632 421.019C576.271 425.439 574.046 430.384 569.656 432.053ZM416.921 309.165C415.478 302.324 414.726 294.911 420.049 291.769C423.432 289.754 428.108 290.355 431.987 293.287C435.671 296.099 438.302 300.459 440.467 304.324C444.181 310.909 447.745 317.976 451.128 325.419L424.048 335.643C421.251 327.028 418.861 318.156 416.921 309.165ZM377.737 302.595C375.451 294.836 374.835 287.875 382.082 283.785C385.856 281.665 390.367 281.605 393.87 283.529C402.483 288.24 408.027 302.31 413.671 316.633C415.574 321.464 417.489 326.323 419.536 330.862C420.363 332.682 421.19 334.546 422.002 336.41L394.051 346.966C391.951 341.035 389.69 335.284 387.449 329.583C383.928 320.629 380.456 311.799 377.737 302.595ZM354.386 320.096C355.334 314.247 359.559 311.451 364.987 313.661C373.968 317.398 375.83 321.844 382.258 337.197C383.718 340.683 385.413 344.731 387.48 349.461L362.746 358.798C362.547 358.153 362.312 357.403 362.049 356.565C359.181 347.424 353.037 327.838 354.386 320.096ZM331.607 355.28C332.284 352.318 334.028 347.175 338.057 345.883C344.663 343.732 350.56 352.71 355.231 359.822C355.557 360.318 355.877 360.805 356.19 361.279L331.171 370.721C330.434 365.263 330.54 360.076 331.607 355.28ZM475.889 532.387C434.587 548.912 400.365 536.838 380.653 505.293L453.56 477.747C454.673 477.341 453.981 475.672 452.943 476.108L368.185 508.119C363.75 509.788 358.848 507.563 357.164 503.173L316.52 395.516C314.866 391.125 317.092 386.178 321.467 384.494C340.428 377.337 468.066 329.147 522.963 308.427C527.474 306.698 532.345 309.074 533.939 313.374L561.349 385.892C557.365 381.261 547.577 383.667 541.728 387.005L521.113 333.81C519.309 329.028 514.001 326.622 509.205 328.442L353.63 387.095C348.908 388.9 346.488 394.237 348.262 399.004L379.506 479.624C381.266 484.225 386.558 486.812 391.415 484.992L517.159 437.586C516.904 440.488 516.753 443.39 516.768 446.276C511.431 446.622 493.042 451.163 492.847 451.238C484.667 453.915 476.803 457.553 469.496 462.079C468.504 462.696 469.451 464.184 470.413 463.568C477.6 459.117 485.329 455.539 493.388 452.908C495.222 452.306 513.431 448.186 516.889 447.946C520.182 450.968 523.836 453.599 527.745 455.749C528.782 456.305 529.579 454.757 528.587 454.215C524.963 452.231 521.61 449.795 518.528 447.028C518.242 423.467 528.963 387.666 552.283 385.245C557.486 384.689 560.372 385.381 561.755 390.568C562.537 393.515 562.477 396.657 562.327 400.176C561.59 417.648 559.56 444.41 553.155 460.8C542.6 487.729 516.65 515.967 475.889 532.387Z" stroke="#C61A02" stroke-width="2"/>
<path d="M411.91 314.509L399.792 320.959C398.784 321.485 399.566 323.049 400.619 322.508L412.737 316.057C413.745 315.516 412.933 313.982 411.91 314.509Z" fill="#C61A02" stroke="#C61A02" stroke-width="2"/>
<path d="M435.579 323.357C439.217 321.778 442.796 319.974 446.194 317.99C447.201 317.403 446.299 315.885 445.322 316.486C441.969 318.426 438.466 320.2 434.872 321.749C433.82 322.215 434.496 323.808 435.579 323.357Z" fill="#C61A02" stroke="#C61A02" stroke-width="2"/>
<path d="M381.666 340.831C378.268 343.131 374.585 345.011 370.72 346.394C369.638 346.785 370.209 348.439 371.307 348.048C375.306 346.62 379.125 344.68 382.644 342.289C383.606 341.628 382.614 340.184 381.666 340.831Z" fill="#C61A02" stroke="#C61A02" stroke-width="2"/>
<path d="M361.863 521.623C361.652 531.667 362.915 541.635 365.622 551.288C360.329 545.98 355.818 539.981 352.179 533.396C349.172 527.952 345.624 528.238 342.015 533.14L330.513 548.747L339.414 529.546C339.73 528.87 340.692 526.795 339.369 525.412C338.091 524.104 338.392 524.615 310.395 525.457L334.016 516.089C335.084 515.668 334.467 514.045 333.37 514.466L305.087 525.682C304.23 526.013 304.366 527.276 305.433 527.366L336.572 526.359C338.181 526.329 338.873 526.569 337.82 528.81L325.265 555.889C324.814 556.852 326.152 557.619 326.769 556.777C357.758 516.272 339.579 529.757 366.808 554.852C367.469 555.468 368.507 554.792 368.236 553.95C364.943 543.485 363.38 532.629 363.605 521.653C363.635 520.495 361.893 520.45 361.863 521.623Z" fill="#C61A02" stroke="#C61A02" stroke-width="2"/>
<path d="M322.272 536.84L315.371 541.125C314.378 541.741 315.326 543.23 316.288 542.613L323.189 538.328C324.167 537.727 323.249 536.238 322.272 536.84Z" fill="#C61A02" stroke="#C61A02" stroke-width="2"/>
<path d="M347.039 552.67L347.986 563.616C348.091 564.774 349.82 564.623 349.73 563.465L348.783 552.519C348.677 551.316 346.948 551.542 347.039 552.67Z" fill="#C61A02" stroke="#C61A02" stroke-width="2"/>
<path d="M586.195 452.592C595.954 468.274 592.36 490.647 578.166 502.465C576.587 503.773 575.069 504.811 573.595 505.562C573.28 502.36 572.543 499.067 570.513 496.586C566.874 492.105 560.138 492.181 558.199 497.819C555.823 504.721 563.161 511.081 571.986 508.134C572.287 519.17 567.31 530.462 558.86 537.559C549.673 545.272 536.291 548.054 524.789 544.656C523.706 544.295 523.165 545.994 524.293 546.325C548.997 553.632 574.932 534.567 573.731 507.44C575.536 506.598 577.385 505.396 579.294 503.817C594.12 491.458 597.879 468.062 587.684 451.672C587.068 450.68 585.579 451.614 586.195 452.592ZM559.852 498.377C561.341 494.047 566.393 494.288 569.145 497.686C571.024 500.001 571.671 503.324 571.896 506.301C563.987 509.263 557.988 503.805 559.852 498.377Z" fill="#C61A02" stroke="#C61A02" stroke-width="2"/>
<path d="M339.326 309.422C340.394 308.971 339.702 307.362 338.65 307.813C317.254 316.88 303.782 338.532 305.15 361.763C305.225 362.921 306.969 362.831 306.894 361.658C305.571 339.195 318.592 318.217 339.326 309.422Z" fill="#C61A02" stroke="#C61A02" stroke-width="2"/>
<path d="M301.704 315.977C305.237 308.955 309.838 302.595 315.387 297.061C316.198 296.25 314.966 295.002 314.154 295.829C308.47 301.497 303.764 308.008 300.14 315.194C299.629 316.217 301.193 316.999 301.704 315.977Z" fill="#C61A02" stroke="#C61A02" stroke-width="2"/>
<path d="M415.389 394.223C416.075 380.322 427.201 369.163 441.104 368.483C441.243 367.878 441.791 367.43 442.437 367.43C457.954 367.43 470.584 380.043 470.585 395.543C470.585 396.204 470.108 396.751 469.483 396.874C469.014 406.603 463.446 414.967 455.385 419.36L453.156 413.447C456.524 411.508 459.094 408.435 460.408 404.778C460.542 404.393 460.6 403.985 460.577 403.578C460.554 403.171 460.451 402.772 460.274 402.405C460.097 402.037 459.849 401.708 459.545 401.437C459.241 401.165 458.885 400.957 458.5 400.822C457.723 400.55 456.87 400.597 456.128 400.954C455.385 401.311 454.816 401.948 454.543 402.725C453.993 404.165 453.138 405.469 452.037 406.548C451.006 407.559 449.781 408.351 448.437 408.876L447.897 409.08C446.541 409.573 445.098 409.787 443.655 409.708C442.117 409.624 440.614 409.21 439.251 408.492C438.895 408.291 438.504 408.163 438.099 408.114C437.694 408.065 437.283 408.096 436.89 408.206C436.498 408.315 436.13 408.501 435.809 408.752C435.488 409.003 435.22 409.316 435.019 409.671C434.819 410.026 434.691 410.417 434.641 410.822C434.592 411.226 434.623 411.637 434.733 412.03C434.842 412.423 435.028 412.791 435.279 413.112C435.531 413.433 435.843 413.701 436.198 413.901C439.591 415.779 443.54 416.394 447.344 415.638L449.624 421.685C447.743 422.202 445.779 422.523 443.756 422.621C443.623 423.235 443.072 423.692 442.419 423.692C426.919 423.692 414.289 411.079 414.324 395.543C414.325 394.896 414.782 394.359 415.389 394.223ZM435.213 376.9C433.173 377.67 431.522 379.217 430.624 381.204C429.725 383.19 429.653 385.452 430.422 387.492L434.676 398.773C435.445 400.813 436.993 402.464 438.979 403.362C440.965 404.261 443.227 404.334 445.267 403.565C447.307 402.796 448.958 401.247 449.856 399.261C450.755 397.274 450.828 395.012 450.059 392.972L445.805 381.691C445.036 379.651 443.487 378.001 441.501 377.102C439.515 376.204 437.253 376.131 435.213 376.9ZM437.404 382.712C437.903 382.524 438.456 382.541 438.941 382.761C439.427 382.98 439.806 383.384 439.994 383.882L444.247 395.164C444.435 395.662 444.417 396.215 444.198 396.701C443.978 397.187 443.575 397.565 443.076 397.753C442.577 397.941 442.024 397.923 441.539 397.704C441.053 397.484 440.675 397.08 440.487 396.582L436.234 385.3C436.046 384.802 436.063 384.249 436.282 383.763C436.502 383.278 436.906 382.9 437.404 382.712Z" fill="#C61A02"/>
<defs>
<linearGradient id="paint0_linear_11534_6514" x1="96.0408" y1="370.828" x2="96.0408" y2="395.499" gradientUnits="userSpaceOnUse">
<stop stop-color="#C61A02"/>
<stop offset="1" stop-color="#F9ECEC"/>
</linearGradient>
<linearGradient id="paint1_linear_11534_6514" x1="103.776" y1="335.895" x2="103.776" y2="373.983" gradientUnits="userSpaceOnUse">
<stop stop-color="#C61A02"/>
<stop offset="1" stop-color="#F9ECEC"/>
</linearGradient>
<linearGradient id="paint2_linear_11534_6514" x1="114.562" y1="304.996" x2="114.562" y2="353.575" gradientUnits="userSpaceOnUse">
<stop stop-color="#C61A02"/>
<stop offset="1" stop-color="#F9ECEC"/>
</linearGradient>
<linearGradient id="paint3_linear_11534_6514" x1="129.12" y1="279.867" x2="129.12" y2="334.572" gradientUnits="userSpaceOnUse">
<stop stop-color="#C61A02"/>
<stop offset="1" stop-color="#F9ECEC"/>
</linearGradient>
<linearGradient id="paint4_linear_11534_6514" x1="145.75" y1="260.129" x2="145.75" y2="317.157" gradientUnits="userSpaceOnUse">
<stop stop-color="#C61A02"/>
<stop offset="1" stop-color="#F9ECEC"/>
</linearGradient>
<linearGradient id="paint5_linear_11534_6514" x1="161.861" y1="243.729" x2="161.861" y2="301.405" gradientUnits="userSpaceOnUse">
<stop stop-color="#C61A02"/>
<stop offset="1" stop-color="#F9ECEC"/>
</linearGradient>
<linearGradient id="paint6_linear_11534_6514" x1="176.216" y1="229.035" x2="176.216" y2="287.289" gradientUnits="userSpaceOnUse">
<stop stop-color="#C61A02"/>
<stop offset="1" stop-color="#F9ECEC"/>
</linearGradient>
<linearGradient id="paint7_linear_11534_6514" x1="188.745" y1="215.271" x2="188.745" y2="274.752" gradientUnits="userSpaceOnUse">
<stop stop-color="#C61A02"/>
<stop offset="1" stop-color="#F9ECEC"/>
</linearGradient>
<linearGradient id="paint8_linear_11534_6514" x1="199.713" y1="202.107" x2="199.713" y2="263.651" gradientUnits="userSpaceOnUse">
<stop stop-color="#C61A02"/>
<stop offset="1" stop-color="#F9ECEC"/>
</linearGradient>
<linearGradient id="paint9_linear_11534_6514" x1="209.355" y1="189.174" x2="209.355" y2="253.851" gradientUnits="userSpaceOnUse">
<stop stop-color="#C61A02"/>
<stop offset="1" stop-color="#F9ECEC"/>
</linearGradient>
<linearGradient id="paint10_linear_11534_6514" x1="217.858" y1="176.518" x2="217.858" y2="245.219" gradientUnits="userSpaceOnUse">
<stop stop-color="#C61A02"/>
<stop offset="1" stop-color="#F9ECEC"/>
</linearGradient>
<linearGradient id="paint11_linear_11534_6514" x1="92.1257" y1="408.512" x2="92.1257" y2="417.695" gradientUnits="userSpaceOnUse">
<stop stop-color="#C61A02"/>
<stop offset="1" stop-color="#F9ECEC"/>
</linearGradient>
<linearGradient id="paint12_linear_11534_6514" x1="92.7397" y1="430.709" x2="92.7397" y2="456.109" gradientUnits="userSpaceOnUse">
<stop stop-color="#C61A02"/>
<stop offset="1" stop-color="#F9ECEC"/>
</linearGradient>
<linearGradient id="paint13_linear_11534_6514" x1="97.3991" y1="452.225" x2="97.3991" y2="492.782" gradientUnits="userSpaceOnUse">
<stop stop-color="#C61A02"/>
<stop offset="1" stop-color="#F9ECEC"/>
</linearGradient>
<linearGradient id="paint14_linear_11534_6514" x1="105.919" y1="472.633" x2="105.919" y2="526.193" gradientUnits="userSpaceOnUse">
<stop stop-color="#C61A02"/>
<stop offset="1" stop-color="#F9ECEC"/>
</linearGradient>
<linearGradient id="paint15_linear_11534_6514" x1="117.279" y1="491.637" x2="117.279" y2="555.476" gradientUnits="userSpaceOnUse">
<stop stop-color="#C61A02"/>
<stop offset="1" stop-color="#F9ECEC"/>
</linearGradient>
<linearGradient id="paint16_linear_11534_6514" x1="130.422" y1="509.053" x2="130.422" y2="580.379" gradientUnits="userSpaceOnUse">
<stop stop-color="#C61A02"/>
<stop offset="1" stop-color="#F9ECEC"/>
</linearGradient>
<linearGradient id="paint17_linear_11534_6514" x1="144.463" y1="524.805" x2="144.463" y2="601.09" gradientUnits="userSpaceOnUse">
<stop stop-color="#C61A02"/>
<stop offset="1" stop-color="#F9ECEC"/>
</linearGradient>
<linearGradient id="paint18_linear_11534_6514" x1="158.74" y1="538.914" x2="158.74" y2="617.998" gradientUnits="userSpaceOnUse">
<stop stop-color="#C61A02"/>
<stop offset="1" stop-color="#F9ECEC"/>
</linearGradient>
<linearGradient id="paint19_linear_11534_6514" x1="172.818" y1="551.459" x2="172.818" y2="631.607" gradientUnits="userSpaceOnUse">
<stop stop-color="#C61A02"/>
<stop offset="1" stop-color="#F9ECEC"/>
</linearGradient>
<linearGradient id="paint20_linear_11534_6514" x1="186.408" y1="562.559" x2="186.408" y2="642.415" gradientUnits="userSpaceOnUse">
<stop stop-color="#C61A02"/>
<stop offset="1" stop-color="#F9ECEC"/>
</linearGradient>
<linearGradient id="paint21_linear_11534_6514" x1="199.186" y1="572.359" x2="199.186" y2="651.459" gradientUnits="userSpaceOnUse">
<stop stop-color="#C61A02"/>
<stop offset="1" stop-color="#F9ECEC"/>
</linearGradient>
<linearGradient id="paint22_linear_11534_6514" x1="210.888" y1="580.99" x2="210.888" y2="659.183" gradientUnits="userSpaceOnUse">
<stop stop-color="#C61A02"/>
<stop offset="1" stop-color="#F9ECEC"/>
</linearGradient>
<linearGradient id="paint23_linear_11534_6514" x1="776.815" y1="370.836" x2="776.815" y2="395.501" gradientUnits="userSpaceOnUse">
<stop stop-color="#C61A02"/>
<stop offset="1" stop-color="#F9ECEC"/>
</linearGradient>
<linearGradient id="paint24_linear_11534_6514" x1="776.783" y1="332.979" x2="776.783" y2="373.984" gradientUnits="userSpaceOnUse">
<stop stop-color="#C61A02"/>
<stop offset="1" stop-color="#F9ECEC"/>
</linearGradient>
<linearGradient id="paint25_linear_11534_6514" x1="773.128" y1="296.812" x2="773.128" y2="353.576" gradientUnits="userSpaceOnUse">
<stop stop-color="#C61A02"/>
<stop offset="1" stop-color="#F9ECEC"/>
</linearGradient>
<linearGradient id="paint26_linear_11534_6514" x1="766.15" y1="263.418" x2="766.15" y2="334.572" gradientUnits="userSpaceOnUse">
<stop stop-color="#C61A02"/>
<stop offset="1" stop-color="#F9ECEC"/>
</linearGradient>
<linearGradient id="paint27_linear_11534_6514" x1="756.94" y1="233.373" x2="756.94" y2="317.156" gradientUnits="userSpaceOnUse">
<stop stop-color="#C61A02"/>
<stop offset="1" stop-color="#F9ECEC"/>
</linearGradient>
<linearGradient id="paint28_linear_11534_6514" x1="745.991" y1="207.217" x2="745.991" y2="301.404" gradientUnits="userSpaceOnUse">
<stop stop-color="#C61A02"/>
<stop offset="1" stop-color="#F9ECEC"/>
</linearGradient>
<linearGradient id="paint29_linear_11534_6514" x1="733.776" y1="185.193" x2="733.776" y2="287.289" gradientUnits="userSpaceOnUse">
<stop stop-color="#C61A02"/>
<stop offset="1" stop-color="#F9ECEC"/>
</linearGradient>
<linearGradient id="paint30_linear_11534_6514" x1="720.826" y1="167.156" x2="720.826" y2="274.751" gradientUnits="userSpaceOnUse">
<stop stop-color="#C61A02"/>
<stop offset="1" stop-color="#F9ECEC"/>
</linearGradient>
<linearGradient id="paint31_linear_11534_6514" x1="707.649" y1="152.717" x2="707.649" y2="263.65" gradientUnits="userSpaceOnUse">
<stop stop-color="#C61A02"/>
<stop offset="1" stop-color="#F9ECEC"/>
</linearGradient>
<linearGradient id="paint32_linear_11534_6514" x1="694.65" y1="141.312" x2="694.65" y2="253.85" gradientUnits="userSpaceOnUse">
<stop stop-color="#C61A02"/>
<stop offset="1" stop-color="#F9ECEC"/>
</linearGradient>
<linearGradient id="paint33_linear_11534_6514" x1="682.126" y1="132.363" x2="682.126" y2="245.22" gradientUnits="userSpaceOnUse">
<stop stop-color="#C61A02"/>
<stop offset="1" stop-color="#F9ECEC"/>
</linearGradient>
<linearGradient id="paint34_linear_11534_6514" x1="772.055" y1="408.512" x2="772.055" y2="417.695" gradientUnits="userSpaceOnUse">
<stop stop-color="#C61A02"/>
<stop offset="1" stop-color="#F9ECEC"/>
</linearGradient>
<linearGradient id="paint35_linear_11534_6514" x1="763.156" y1="430.709" x2="763.156" y2="452.543" gradientUnits="userSpaceOnUse">
<stop stop-color="#C61A02"/>
<stop offset="1" stop-color="#F9ECEC"/>
</linearGradient>
<linearGradient id="paint36_linear_11534_6514" x1="752.351" y1="452.225" x2="752.351" y2="483.756" gradientUnits="userSpaceOnUse">
<stop stop-color="#C61A02"/>
<stop offset="1" stop-color="#F9ECEC"/>
</linearGradient>
<linearGradient id="paint37_linear_11534_6514" x1="740.934" y1="472.633" x2="740.934" y2="511.602" gradientUnits="userSpaceOnUse">
<stop stop-color="#C61A02"/>
<stop offset="1" stop-color="#F9ECEC"/>
</linearGradient>
<linearGradient id="paint38_linear_11534_6514" x1="729.572" y1="491.637" x2="729.572" y2="536.597" gradientUnits="userSpaceOnUse">
<stop stop-color="#C61A02"/>
<stop offset="1" stop-color="#F9ECEC"/>
</linearGradient>
<linearGradient id="paint39_linear_11534_6514" x1="718.57" y1="509.053" x2="718.57" y2="559.263" gradientUnits="userSpaceOnUse">
<stop stop-color="#C61A02"/>
<stop offset="1" stop-color="#F9ECEC"/>
</linearGradient>
<linearGradient id="paint40_linear_11534_6514" x1="708.058" y1="524.805" x2="708.058" y2="580.066" gradientUnits="userSpaceOnUse">
<stop stop-color="#C61A02"/>
<stop offset="1" stop-color="#F9ECEC"/>
</linearGradient>
<linearGradient id="paint41_linear_11534_6514" x1="698.463" y1="538.914" x2="698.463" y2="600.074" gradientUnits="userSpaceOnUse">
<stop stop-color="#C61A02"/>
<stop offset="1" stop-color="#F9ECEC"/>
</linearGradient>
<linearGradient id="paint42_linear_11534_6514" x1="689.997" y1="551.459" x2="689.997" y2="619.582" gradientUnits="userSpaceOnUse">
<stop stop-color="#C61A02"/>
<stop offset="1" stop-color="#F9ECEC"/>
</linearGradient>
<linearGradient id="paint43_linear_11534_6514" x1="682.345" y1="562.559" x2="682.345" y2="638.547" gradientUnits="userSpaceOnUse">
<stop stop-color="#C61A02"/>
<stop offset="1" stop-color="#F9ECEC"/>
</linearGradient>
<linearGradient id="paint44_linear_11534_6514" x1="675.296" y1="572.359" x2="675.296" y2="656.91" gradientUnits="userSpaceOnUse">
<stop stop-color="#C61A02"/>
<stop offset="1" stop-color="#F9ECEC"/>
</linearGradient>
<linearGradient id="paint45_linear_11534_6514" x1="668.7" y1="580.99" x2="668.7" y2="674.578" gradientUnits="userSpaceOnUse">
<stop stop-color="#C61A02"/>
<stop offset="1" stop-color="#F9ECEC"/>
</linearGradient>
<linearGradient id="paint46_linear_11534_6514" x1="437.082" y1="6.98047" x2="437.082" y2="160.34" gradientUnits="userSpaceOnUse">
<stop stop-color="#C61A02"/>
<stop offset="1" stop-color="#F9ECEC"/>
</linearGradient>
<linearGradient id="paint47_linear_11534_6514" x1="407.756" y1="0" x2="407.756" y2="161.7" gradientUnits="userSpaceOnUse">
<stop stop-color="#C61A02"/>
<stop offset="1" stop-color="#F9ECEC"/>
</linearGradient>
<linearGradient id="paint48_linear_11534_6514" x1="379.127" y1="0.724609" x2="379.127" y2="164.877" gradientUnits="userSpaceOnUse">
<stop stop-color="#C61A02"/>
<stop offset="1" stop-color="#F9ECEC"/>
</linearGradient>
<linearGradient id="paint49_linear_11534_6514" x1="352.36" y1="8.3457" x2="352.36" y2="169.662" gradientUnits="userSpaceOnUse">
<stop stop-color="#C61A02"/>
<stop offset="1" stop-color="#F9ECEC"/>
</linearGradient>
<linearGradient id="paint50_linear_11534_6514" x1="328.219" y1="21.5547" x2="328.219" y2="175.746" gradientUnits="userSpaceOnUse">
<stop stop-color="#C61A02"/>
<stop offset="1" stop-color="#F9ECEC"/>
</linearGradient>
<linearGradient id="paint51_linear_11534_6514" x1="307.254" y1="39.2715" x2="307.254" y2="182.784" gradientUnits="userSpaceOnUse">
<stop stop-color="#C61A02"/>
<stop offset="1" stop-color="#F9ECEC"/>
</linearGradient>
<linearGradient id="paint52_linear_11534_6514" x1="289.496" y1="59.7461" x2="289.496" y2="190.461" gradientUnits="userSpaceOnUse">
<stop stop-color="#C61A02"/>
<stop offset="1" stop-color="#F9ECEC"/>
</linearGradient>
<linearGradient id="paint53_linear_11534_6514" x1="274.586" y1="80.9687" x2="274.586" y2="198.492" gradientUnits="userSpaceOnUse">
<stop stop-color="#C61A02"/>
<stop offset="1" stop-color="#F9ECEC"/>
</linearGradient>
<linearGradient id="paint54_linear_11534_6514" x1="261.971" y1="101.371" x2="261.971" y2="206.649" gradientUnits="userSpaceOnUse">
<stop stop-color="#C61A02"/>
<stop offset="1" stop-color="#F9ECEC"/>
</linearGradient>
<linearGradient id="paint55_linear_11534_6514" x1="251.122" y1="120.074" x2="251.122" y2="214.748" gradientUnits="userSpaceOnUse">
<stop stop-color="#C61A02"/>
<stop offset="1" stop-color="#F9ECEC"/>
</linearGradient>
<linearGradient id="paint56_linear_11534_6514" x1="241.622" y1="136.754" x2="241.622" y2="222.66" gradientUnits="userSpaceOnUse">
<stop stop-color="#C61A02"/>
<stop offset="1" stop-color="#F9ECEC"/>
</linearGradient>
<linearGradient id="paint57_linear_11534_6514" x1="233.162" y1="151.43" x2="233.162" y2="230.303" gradientUnits="userSpaceOnUse">
<stop stop-color="#C61A02"/>
<stop offset="1" stop-color="#F9ECEC"/>
</linearGradient>
<linearGradient id="paint58_linear_11534_6514" x1="225.518" y1="164.277" x2="225.518" y2="237.619" gradientUnits="userSpaceOnUse">
<stop stop-color="#C61A02"/>
<stop offset="1" stop-color="#F9ECEC"/>
</linearGradient>
<linearGradient id="paint59_linear_11534_6514" x1="466.085" y1="664.51" x2="466.085" y2="818.923" gradientUnits="userSpaceOnUse">
<stop stop-color="#C61A02"/>
<stop offset="1" stop-color="#F9ECEC"/>
</linearGradient>
<linearGradient id="paint60_linear_11534_6514" x1="496.111" y1="661.332" x2="496.111" y2="836.402" gradientUnits="userSpaceOnUse">
<stop stop-color="#C61A02"/>
<stop offset="1" stop-color="#F9ECEC"/>
</linearGradient>
<linearGradient id="paint61_linear_11534_6514" x1="525.441" y1="656.547" x2="525.441" y2="842.534" gradientUnits="userSpaceOnUse">
<stop stop-color="#C61A02"/>
<stop offset="1" stop-color="#F9ECEC"/>
</linearGradient>
<linearGradient id="paint62_linear_11534_6514" x1="552.497" y1="650.465" x2="552.497" y2="839.731" gradientUnits="userSpaceOnUse">
<stop stop-color="#C61A02"/>
<stop offset="1" stop-color="#F9ECEC"/>
</linearGradient>
<linearGradient id="paint63_linear_11534_6514" x1="576.652" y1="643.424" x2="576.652" y2="829.568" gradientUnits="userSpaceOnUse">
<stop stop-color="#C61A02"/>
<stop offset="1" stop-color="#F9ECEC"/>
</linearGradient>
<linearGradient id="paint64_linear_11534_6514" x1="597.384" y1="635.748" x2="597.384" y2="814.005" gradientUnits="userSpaceOnUse">
<stop stop-color="#C61A02"/>
<stop offset="1" stop-color="#F9ECEC"/>
</linearGradient>
<linearGradient id="paint65_linear_11534_6514" x1="614.459" y1="627.717" x2="614.459" y2="794.165" gradientUnits="userSpaceOnUse">
<stop stop-color="#C61A02"/>
<stop offset="1" stop-color="#F9ECEC"/>
</linearGradient>
<linearGradient id="paint66_linear_11534_6514" x1="628.204" y1="619.559" x2="628.204" y2="772.022" gradientUnits="userSpaceOnUse">
<stop stop-color="#C61A02"/>
<stop offset="1" stop-color="#F9ECEC"/>
</linearGradient>
<linearGradient id="paint67_linear_11534_6514" x1="639.268" y1="611.461" x2="639.268" y2="749.604" gradientUnits="userSpaceOnUse">
<stop stop-color="#C61A02"/>
<stop offset="1" stop-color="#F9ECEC"/>
</linearGradient>
<linearGradient id="paint68_linear_11534_6514" x1="648.328" y1="603.549" x2="648.328" y2="728.311" gradientUnits="userSpaceOnUse">
<stop stop-color="#C61A02"/>
<stop offset="1" stop-color="#F9ECEC"/>
</linearGradient>
<linearGradient id="paint69_linear_11534_6514" x1="655.936" y1="595.904" x2="655.936" y2="708.853" gradientUnits="userSpaceOnUse">
<stop stop-color="#C61A02"/>
<stop offset="1" stop-color="#F9ECEC"/>
</linearGradient>
<linearGradient id="paint70_linear_11534_6514" x1="662.463" y1="588.59" x2="662.463" y2="691.431" gradientUnits="userSpaceOnUse">
<stop stop-color="#C61A02"/>
<stop offset="1" stop-color="#F9ECEC"/>
</linearGradient>
<linearGradient id="paint71_linear_11534_6514" x1="437.082" y1="665.871" x2="437.082" y2="796.456" gradientUnits="userSpaceOnUse">
<stop stop-color="#C61A02"/>
<stop offset="1" stop-color="#F9ECEC"/>
</linearGradient>
<linearGradient id="paint72_linear_11534_6514" x1="410.26" y1="664.51" x2="410.26" y2="775.097" gradientUnits="userSpaceOnUse">
<stop stop-color="#C61A02"/>
<stop offset="1" stop-color="#F9ECEC"/>
</linearGradient>
<linearGradient id="paint73_linear_11534_6514" x1="385.472" y1="661.332" x2="385.472" y2="756.913" gradientUnits="userSpaceOnUse">
<stop stop-color="#C61A02"/>
<stop offset="1" stop-color="#F9ECEC"/>
</linearGradient>
<linearGradient id="paint74_linear_11534_6514" x1="362.501" y1="656.547" x2="362.501" y2="741.805" gradientUnits="userSpaceOnUse">
<stop stop-color="#C61A02"/>
<stop offset="1" stop-color="#F9ECEC"/>
</linearGradient>
<linearGradient id="paint75_linear_11534_6514" x1="341.182" y1="650.465" x2="341.182" y2="729.246" gradientUnits="userSpaceOnUse">
<stop stop-color="#C61A02"/>
<stop offset="1" stop-color="#F9ECEC"/>
</linearGradient>
<linearGradient id="paint76_linear_11534_6514" x1="321.442" y1="643.424" x2="321.442" y2="718.645" gradientUnits="userSpaceOnUse">
<stop stop-color="#C61A02"/>
<stop offset="1" stop-color="#F9ECEC"/>
</linearGradient>
<linearGradient id="paint77_linear_11534_6514" x1="303.269" y1="635.75" x2="303.269" y2="709.151" gradientUnits="userSpaceOnUse">
<stop stop-color="#C61A02"/>
<stop offset="1" stop-color="#F9ECEC"/>
</linearGradient>
<linearGradient id="paint78_linear_11534_6514" x1="286.575" y1="627.721" x2="286.575" y2="700.5" gradientUnits="userSpaceOnUse">
<stop stop-color="#C61A02"/>
<stop offset="1" stop-color="#F9ECEC"/>
</linearGradient>
<linearGradient id="paint79_linear_11534_6514" x1="271.234" y1="619.559" x2="271.234" y2="692.587" gradientUnits="userSpaceOnUse">
<stop stop-color="#C61A02"/>
<stop offset="1" stop-color="#F9ECEC"/>
</linearGradient>
<linearGradient id="paint80_linear_11534_6514" x1="257.145" y1="611.461" x2="257.145" y2="685.299" gradientUnits="userSpaceOnUse">
<stop stop-color="#C61A02"/>
<stop offset="1" stop-color="#F9ECEC"/>
</linearGradient>
<linearGradient id="paint81_linear_11534_6514" x1="244.226" y1="603.549" x2="244.226" y2="678.495" gradientUnits="userSpaceOnUse">
<stop stop-color="#C61A02"/>
<stop offset="1" stop-color="#F9ECEC"/>
</linearGradient>
<linearGradient id="paint82_linear_11534_6514" x1="232.41" y1="595.904" x2="232.41" y2="672.028" gradientUnits="userSpaceOnUse">
<stop stop-color="#C61A02"/>
<stop offset="1" stop-color="#F9ECEC"/>
</linearGradient>
<linearGradient id="paint83_linear_11534_6514" x1="221.63" y1="588.59" x2="221.63" y2="665.799" gradientUnits="userSpaceOnUse">
<stop stop-color="#C61A02"/>
<stop offset="1" stop-color="#F9ECEC"/>
</linearGradient>
<linearGradient id="paint84_linear_11534_6514" x1="465.217" y1="21.9531" x2="465.217" y2="161.7" gradientUnits="userSpaceOnUse">
<stop stop-color="#C61A02"/>
<stop offset="1" stop-color="#F9ECEC"/>
</linearGradient>
<linearGradient id="paint85_linear_11534_6514" x1="491.061" y1="41.3828" x2="491.061" y2="164.876" gradientUnits="userSpaceOnUse">
<stop stop-color="#C61A02"/>
<stop offset="1" stop-color="#F9ECEC"/>
</linearGradient>
<linearGradient id="paint86_linear_11534_6514" x1="514.491" y1="61.375" x2="514.491" y2="169.661" gradientUnits="userSpaceOnUse">
<stop stop-color="#C61A02"/>
<stop offset="1" stop-color="#F9ECEC"/>
</linearGradient>
<linearGradient id="paint87_linear_11534_6514" x1="536.079" y1="78.5762" x2="536.079" y2="175.745" gradientUnits="userSpaceOnUse">
<stop stop-color="#C61A02"/>
<stop offset="1" stop-color="#F9ECEC"/>
</linearGradient>
<linearGradient id="paint88_linear_11534_6514" x1="557.009" y1="89.1582" x2="557.009" y2="182.784" gradientUnits="userSpaceOnUse">
<stop stop-color="#C61A02"/>
<stop offset="1" stop-color="#F9ECEC"/>
</linearGradient>
<linearGradient id="paint89_linear_11534_6514" x1="577.076" y1="94.9863" x2="577.076" y2="190.459" gradientUnits="userSpaceOnUse">
<stop stop-color="#C61A02"/>
<stop offset="1" stop-color="#F9ECEC"/>
</linearGradient>
<linearGradient id="paint90_linear_11534_6514" x1="595.973" y1="99.584" x2="595.973" y2="198.493" gradientUnits="userSpaceOnUse">
<stop stop-color="#C61A02"/>
<stop offset="1" stop-color="#F9ECEC"/>
</linearGradient>
<linearGradient id="paint91_linear_11534_6514" x1="613.573" y1="104.004" x2="613.573" y2="206.651" gradientUnits="userSpaceOnUse">
<stop stop-color="#C61A02"/>
<stop offset="1" stop-color="#F9ECEC"/>
</linearGradient>
<linearGradient id="paint92_linear_11534_6514" x1="629.804" y1="108.67" x2="629.804" y2="214.747" gradientUnits="userSpaceOnUse">
<stop stop-color="#C61A02"/>
<stop offset="1" stop-color="#F9ECEC"/>
</linearGradient>
<linearGradient id="paint93_linear_11534_6514" x1="644.655" y1="113.764" x2="644.655" y2="222.66" gradientUnits="userSpaceOnUse">
<stop stop-color="#C61A02"/>
<stop offset="1" stop-color="#F9ECEC"/>
</linearGradient>
<linearGradient id="paint94_linear_11534_6514" x1="658.131" y1="119.334" x2="658.131" y2="230.305" gradientUnits="userSpaceOnUse">
<stop stop-color="#C61A02"/>
<stop offset="1" stop-color="#F9ECEC"/>
</linearGradient>
<linearGradient id="paint95_linear_11534_6514" x1="670.267" y1="125.346" x2="670.267" y2="237.619" gradientUnits="userSpaceOnUse">
<stop stop-color="#C61A02"/>
<stop offset="1" stop-color="#F9ECEC"/>
</linearGradient>
<linearGradient id="paint96_linear_11534_6514" x1="437.08" y1="218.637" x2="437.08" y2="607.573" gradientUnits="userSpaceOnUse">
<stop stop-color="#C61A02"/>
<stop offset="1" stop-color="#F9ECEC"/>
</linearGradient>
</defs>
</svg>
