<svg width="479" height="980" viewBox="0 0 479 980" fill="none" xmlns="http://www.w3.org/2000/svg">
<path d="M643.596 979.999C639.835 980.005 636.124 979.855 632.458 979.56L576.742 766.362C580.208 765.527 583.654 764.628 587.069 763.667L643.596 979.999ZM684.346 974.206C680.818 975.18 677.345 976.022 673.924 976.738L598.828 760.098C602.218 758.992 605.577 757.823 608.91 756.592L684.346 974.206ZM599.193 972.867C595.326 971.629 591.478 970.247 587.636 968.727L553.025 771.062C556.547 770.515 560.05 769.906 563.534 769.233L599.193 972.867ZM720.205 960.288C717.098 961.909 713.89 963.455 710.581 964.919L619.068 752.64C622.364 751.289 625.635 749.881 628.868 748.404L720.205 960.288ZM554.462 952.534C550.714 950.404 546.953 948.18 543.155 945.874L528.02 773.857C531.585 773.612 535.132 773.305 538.654 772.928L554.462 952.534ZM750.051 939.956C747.326 942.325 744.507 944.612 741.575 946.817L637.375 744.378C640.57 742.801 643.735 741.167 646.861 739.477L750.051 939.956ZM512.897 926.404C509.382 924.061 505.828 921.673 502.225 919.241V774.513C504.001 774.544 505.778 774.562 507.561 774.562C509.343 774.562 511.121 774.544 512.897 774.513V926.404ZM773.311 914.886C771.025 917.914 768.646 920.867 766.166 923.738L653.773 735.624C656.856 733.852 659.907 732.018 662.927 730.133L773.311 914.886ZM476.468 772.928C479.99 773.305 483.537 773.612 487.103 773.857L475.865 901.559C472.538 899.353 469.16 897.128 465.732 894.892L476.468 772.928ZM790.657 887.68C788.774 891.179 786.809 894.617 784.75 897.984L668.352 726.658C671.333 724.71 674.272 722.706 677.172 720.646L790.657 887.68ZM451.586 769.233C455.07 769.906 458.573 770.515 462.095 771.062L442.947 880.409C439.733 878.424 436.469 876.432 433.16 874.453L451.586 769.233ZM803.451 860.743C801.875 864.513 800.236 868.233 798.535 871.908L681.252 717.698C684.121 715.593 686.952 713.438 689.739 711.227L803.451 860.743ZM428.051 763.667C431.466 764.628 434.913 765.527 438.378 766.362L413.166 862.836C410.002 861.058 406.788 859.285 403.529 857.52L428.051 763.667ZM406.21 756.592C409.544 757.823 412.903 758.992 416.293 760.098L385.744 848.227C382.574 846.624 379.36 845.028 376.102 843.451L406.21 756.592ZM813.107 835.585V835.591C811.745 839.474 810.338 843.319 808.882 847.14L692.641 708.896C695.403 706.652 698.122 704.365 700.796 702.021L813.107 835.585ZM386.26 748.404C389.493 749.881 392.764 751.295 396.06 752.646L360.162 835.898C356.854 834.347 353.627 832.839 350.488 831.381L386.26 748.404ZM368.26 739.477C371.386 741.167 374.551 742.801 377.746 744.378L336.324 824.854C332.984 823.32 329.745 821.85 326.594 820.424L368.26 739.477ZM820.738 812.89C819.489 816.779 818.221 820.656 816.928 824.508L702.67 700.369C705.325 698.007 707.943 695.594 710.511 693.131L820.738 812.89ZM352.194 730.14C355.214 732.018 358.265 733.853 361.348 735.631L314.05 814.794C310.672 813.286 307.395 811.835 304.219 810.434L352.194 730.14ZM337.953 720.646C340.853 722.706 343.792 724.71 346.773 726.658L293.147 805.589C289.72 804.1 286.399 802.661 283.172 801.272L337.953 720.646ZM827.067 792.732C825.875 796.578 824.682 800.418 823.477 804.244L711.504 692.176C714.065 689.706 716.583 687.187 719.05 684.623L827.067 792.732ZM325.384 711.227C328.171 713.438 331.002 715.593 333.871 717.698L273.472 797.112C270.013 795.629 266.647 794.191 263.352 792.783L325.384 711.227ZM314.327 702.021C317.002 704.365 319.72 706.652 322.482 708.896L254.964 789.195C251.511 787.712 248.114 786.248 244.73 784.784L314.327 702.021ZM833.052 773.337C831.884 777.101 830.723 780.871 829.562 784.641L720.006 683.631C722.467 681.061 724.878 678.441 727.238 675.783L833.052 773.337ZM304.609 693.131C307.177 695.594 309.795 698.007 312.45 700.369L237.618 781.675C234.197 780.179 230.775 778.659 227.322 777.101L304.609 693.131ZM296.071 684.624C298.538 687.188 301.056 689.707 303.617 692.177L221.434 774.431C218.056 772.891 214.628 771.302 211.119 769.649L296.071 684.624ZM287.884 675.783C290.244 678.441 292.655 681.061 295.116 683.631L204.984 766.733C201.638 765.131 198.204 763.46 194.67 761.72L287.884 675.783ZM839.486 753.111C838.287 756.762 837.113 760.419 835.958 764.089L728.889 673.905C731.23 671.229 733.516 668.508 735.757 665.743L839.486 753.111ZM279.365 665.743C281.606 668.508 283.892 671.229 286.233 673.905L186.698 757.749C183.365 756.065 179.93 754.319 176.377 752.49L279.365 665.743ZM270.572 654.344C272.675 657.215 274.828 660.049 277.038 662.839L166.271 747.229C163.798 745.929 161.274 744.59 158.682 743.208C157.753 742.712 156.83 742.215 155.9 741.706L270.572 654.344ZM846.662 732.138C845.394 735.65 844.158 739.181 842.952 742.731L738.086 662.84C740.296 660.05 742.449 657.216 744.552 654.345L846.662 732.138ZM261.618 641.432C263.564 644.416 265.567 647.357 267.626 650.26L143.619 734.656H143.613C140.311 732.664 137.021 730.604 133.744 728.461L261.618 641.432ZM855.023 710.522C853.623 713.878 852.268 717.258 850.949 720.67L747.496 650.26C749.555 647.357 751.558 644.416 753.504 641.432L855.023 710.522ZM252.66 626.843C254.431 629.928 256.264 632.982 258.141 636.004L119.745 718.83C116.65 716.587 113.58 714.28 110.535 711.905L252.66 626.843ZM243.914 610.431C245.49 613.629 247.122 616.796 248.811 619.925L95.1279 699.163C92.284 696.656 89.478 694.098 86.7031 691.484L243.914 610.431ZM865.198 688.331C863.585 691.51 862.034 694.727 860.534 697.981L756.98 636.004C758.858 632.982 760.691 629.928 762.461 626.843L865.198 688.331ZM235.66 592.108C237.004 595.407 238.415 598.674 239.891 601.91L70.4756 675.072C67.9394 672.32 65.4533 669.512 63.0176 666.659L235.66 592.108ZM878.159 665.573C877.757 666.208 877.356 666.843 876.954 667.478C875.454 669.859 873.991 672.265 872.572 674.709L766.312 619.926C768.001 616.797 769.633 613.63 771.209 610.432L878.159 665.573ZM893.65 641.419C891.698 644.422 889.739 647.452 887.768 650.512L775.23 601.91C776.706 598.674 778.118 595.407 779.462 592.108L893.65 641.419ZM228.207 571.852C229.312 575.244 230.48 578.606 231.71 581.942L46.9268 646.107C44.7798 643.11 42.6894 640.063 40.668 636.972L228.207 571.852ZM911.021 614.948C909.018 617.983 906.996 621.05 904.956 624.147L783.41 581.942C784.641 578.606 785.808 575.245 786.913 571.852L911.021 614.948ZM221.948 549.747C222.783 553.215 223.681 556.665 224.642 560.083L26.1221 612.046C24.4647 608.823 22.8704 605.561 21.3574 602.256L221.948 549.747ZM930.339 585.656C928.299 588.766 926.239 591.908 924.155 595.074L790.48 560.083C791.441 556.665 792.339 553.215 793.174 549.747L930.339 585.656ZM217.254 526.009C217.8 529.534 218.408 533.04 219.08 536.527L10.1211 573.184C9.04757 569.778 8.04938 566.341 7.13281 562.866L217.254 526.009ZM951.295 552.92C949.292 556.149 947.252 559.405 945.168 562.685L796.043 536.527C796.715 533.04 797.324 529.534 797.87 526.009L951.295 552.92ZM214.459 500.983C214.704 504.552 215.011 508.102 215.388 511.627L0.992188 530.527C0.577847 527.009 0.244838 523.465 0 519.89L214.459 500.983ZM972.696 516.151C970.876 519.544 968.998 522.956 967.071 526.38L799.734 511.627C800.111 508.102 800.418 504.552 800.663 500.983L972.696 516.151ZM213.806 475.166C213.774 476.944 213.755 478.722 213.755 480.507C213.755 482.291 213.774 484.07 213.806 485.848H0.15625C0.426199 482.31 0.784181 478.747 1.22363 475.166H213.806ZM991.781 475.166C990.406 478.729 988.95 482.291 987.412 485.848H801.316C801.348 484.07 801.366 482.291 801.366 480.507C801.366 478.722 801.348 476.944 801.316 475.166H991.781ZM1004.42 431.339C1003.74 435.008 1002.97 438.652 1002.11 442.271L800.664 460.028C800.419 456.46 800.111 452.91 799.734 449.385L1004.42 431.339ZM215.387 449.384C215.01 452.909 214.703 456.459 214.458 460.027L7.66406 441.8C8.57434 438.332 9.56615 434.838 10.6396 431.332L215.387 449.384ZM219.08 424.484C218.408 427.972 217.799 431.478 217.253 435.003L21.9414 400.746C23.3853 397.41 24.8986 394.061 26.4932 390.699L219.08 424.484ZM1007.98 387.307C1008.07 390.957 1008.05 394.57 1007.95 398.151L797.87 435.003C797.324 431.478 796.715 427.972 796.043 424.484L1007.98 387.307ZM1003.23 345.24C1003.93 348.796 1004.56 352.309 1005.11 355.783L793.174 411.265C792.339 407.796 791.441 404.347 790.48 400.929L1003.23 345.24ZM224.644 400.928C223.683 404.346 222.785 407.795 221.95 411.264L41.4297 364.008C43.6206 360.797 45.8929 357.718 48.2471 354.759L224.644 400.928ZM231.709 379.069C230.479 382.406 229.311 385.767 228.206 389.16L68.1699 333.591C71.2147 330.814 74.3411 328.137 77.5303 325.529L231.709 379.069ZM992.702 306.396C993.832 309.72 994.924 313.113 995.973 316.562L786.913 389.159C785.808 385.766 784.641 382.405 783.41 379.068L992.702 306.396ZM239.891 359.101C238.415 362.336 237.003 365.604 235.659 368.902L98.6133 309.721C102.035 307.321 105.494 304.952 108.99 302.57L239.891 359.101ZM978.207 271.449C979.77 274.597 981.296 277.814 982.765 281.106L779.462 368.902C778.118 365.604 776.706 362.336 775.23 359.101L978.207 271.449ZM248.811 341.087C247.122 344.216 245.49 347.382 243.914 350.58L127.107 290.355C130.422 288.112 133.756 285.832 137.108 283.494L248.811 341.087ZM960.381 241.025C962.383 243.947 964.342 246.944 966.257 250.017L771.209 350.58C769.633 347.382 768.001 344.215 766.312 341.086L960.381 241.025ZM258.141 325.008C256.264 328.024 254.436 331.078 252.659 334.163L151.121 273.397C154.153 271.135 157.186 268.811 160.218 266.404L258.141 325.008ZM940.106 215.408C942.517 218.06 944.89 220.787 947.213 223.589L762.461 334.162C760.684 331.077 758.858 328.023 756.98 325.007L940.106 215.408ZM267.625 310.751C265.566 313.654 263.563 316.594 261.617 319.578L170.732 257.727C173.476 255.358 176.22 252.919 178.944 250.394L267.625 310.751ZM918.412 194.429C921.187 196.791 923.924 199.235 926.623 201.755L753.504 319.578C751.558 316.594 749.555 313.654 747.496 310.751L918.412 194.429ZM277.037 298.172C274.827 300.962 272.674 303.796 270.571 306.667L186.799 242.842C188.004 241.642 189.21 240.41 190.415 239.166C191.708 237.828 192.976 236.464 194.226 235.082L277.037 298.172ZM896.308 177.634C899.377 179.714 902.423 181.868 905.43 184.099L744.553 306.667C742.45 303.796 740.296 300.962 738.086 298.172L896.308 177.634ZM286.233 287.107C283.892 289.784 281.606 292.505 279.365 295.27L199.994 228.422C202.254 225.701 204.452 222.905 206.611 220.04L286.233 287.107ZM874.604 164.37C877.907 166.186 881.184 168.078 884.436 170.038L735.757 295.27C733.516 292.505 731.23 289.784 728.889 287.107L874.604 164.37ZM853.869 153.959C857.341 155.549 860.8 157.195 864.234 158.923L727.238 285.229C724.878 282.571 722.467 279.951 720.006 277.381L853.869 153.959ZM295.119 277.38C292.658 279.95 290.247 282.57 287.887 285.228L210.863 214.221C212.929 211.312 214.963 208.34 216.959 205.317L295.119 277.38ZM303.617 268.835C301.056 271.304 298.538 273.824 296.071 276.388L220.146 200.398C222.099 197.338 224.027 194.228 225.929 191.08L303.617 268.835ZM834.438 145.797C838.028 147.179 841.619 148.631 845.191 150.139L719.05 276.388C716.583 273.824 714.065 271.305 711.504 268.836L834.438 145.797ZM312.451 260.643C309.796 263.005 307.178 265.418 304.61 267.881L229.068 185.809C230.958 182.617 232.823 179.393 234.675 176.139L312.451 260.643ZM814.806 138.803C818.478 140.003 822.157 141.265 825.836 142.585L710.511 267.88C707.943 265.417 705.325 263.004 702.67 260.642L814.806 138.803ZM793.363 132.326C797.086 133.357 800.827 134.437 804.575 135.574L700.796 258.99C698.122 256.647 695.403 254.359 692.641 252.116L793.363 132.326ZM322.482 252.115C319.72 254.358 317.002 256.646 314.328 258.989L238.686 169.038C240.544 165.733 242.389 162.409 244.241 159.066L322.482 252.115ZM770.172 126.4C773.914 127.28 777.681 128.197 781.473 129.171L689.739 249.785C686.952 247.573 684.121 245.417 681.252 243.312L770.172 126.4ZM333.872 243.312C331.003 245.417 328.171 247.572 325.384 249.784L249.365 149.83C251.242 146.45 253.132 143.057 255.04 139.664L333.872 243.312ZM346.771 234.354C343.79 236.301 340.851 238.305 337.951 240.366L261.656 128.072C263.627 124.673 265.624 121.286 267.664 117.912L346.771 234.354ZM745.381 120.972C749.104 121.738 752.87 122.524 756.675 123.354L677.172 240.366C674.272 238.305 671.333 236.301 668.352 234.354L745.381 120.972ZM719.227 115.832C722.874 116.536 726.597 117.246 730.376 117.987L662.933 230.879H662.927C659.907 228.994 656.856 227.159 653.773 225.381L719.227 115.832ZM361.349 225.387C358.266 227.159 355.215 228.993 352.195 230.878L276.377 103.981C278.518 100.683 280.709 97.4155 282.956 94.1797L361.349 225.387ZM377.747 216.635C374.552 218.212 371.388 219.845 368.262 221.535L294.609 78.4404C297.007 75.4057 299.475 72.4211 302.011 69.4932L377.747 216.635ZM692.012 110.484C695.534 111.219 699.162 111.948 702.885 112.684L646.861 221.534C643.735 219.844 640.57 218.211 637.375 216.634L692.012 110.484ZM396.053 208.371C392.757 209.716 389.492 211.13 386.259 212.606L317.541 53.2061C320.253 50.6236 323.041 48.1166 325.916 45.6787L396.053 208.371ZM664.188 103.705C667.471 104.692 670.943 105.634 674.584 106.545L628.862 212.606C625.629 211.13 622.364 209.716 619.068 208.371L664.188 103.705ZM416.294 200.914C412.904 202.02 409.544 203.188 406.211 204.42L346 30.7314C349.026 28.7711 352.133 26.8861 355.335 25.0703L416.294 200.914ZM636.791 91.3965C640.037 93.4447 643.175 95.2673 646.214 96.8066L608.91 204.42C605.577 203.188 602.218 202.02 598.828 200.914L636.791 91.3965ZM608.954 71.3906C612.106 73.7908 615.169 76.122 618.164 78.3525L587.069 197.345C583.654 196.383 580.208 195.485 576.742 194.649L608.954 71.3906ZM438.38 194.648C434.915 195.484 431.468 196.382 428.053 197.344L379.977 13.3516C383.247 12.0698 386.606 10.8506 390.046 9.70703L438.38 194.648ZM462.097 189.949C458.575 190.496 455.072 191.105 451.588 191.777L418.428 2.41309C421.987 1.77219 425.503 1.25021 428.987 0.841797L462.097 189.949ZM577.854 48.1357C581.125 50.4605 584.333 52.7918 587.466 55.1104L563.534 191.777C560.05 191.105 556.547 190.496 553.025 189.949L577.854 48.1357ZM459.91 0C463.564 0.238763 467.167 0.590152 470.721 1.04883L487.1 187.153C483.534 187.398 479.987 187.706 476.465 188.083L459.91 0ZM542.239 25.5352C545.704 27.4326 549.107 29.3932 552.446 31.3975L538.654 188.083C535.132 187.706 531.585 187.398 528.02 187.153L542.239 25.5352ZM502.225 8.11816C505.841 9.268 509.394 10.5187 512.897 11.8633V186.5C511.121 186.469 509.343 186.449 507.561 186.449C505.778 186.449 504.001 186.469 502.225 186.5V8.11816Z" fill="url(#paint0_linear_12439_3740)" fill-opacity="0.1"/>
<defs>
<linearGradient id="paint0_linear_12439_3740" x1="319.5" y1="717.499" x2="411.304" y2="194.202" gradientUnits="userSpaceOnUse">
<stop stop-color="#FCF8EF" stop-opacity="0"/>
<stop offset="1" stop-color="#FCF8EF"/>
</linearGradient>
</defs>
</svg>
