<svg width="416" height="927" viewBox="0 0 416 927" fill="none" xmlns="http://www.w3.org/2000/svg">
<path d="M70.79 927C67.2332 927.006 63.7237 926.863 60.2559 926.584L7.55273 724.917C10.8307 724.127 14.0908 723.277 17.3213 722.367L70.79 927ZM109.334 921.52C105.997 922.441 102.713 923.237 99.4766 923.914L28.4414 718.99C31.6481 717.944 34.8253 716.839 37.9785 715.674L109.334 921.52ZM28.7881 920.253C25.1301 919.082 21.4897 917.774 17.8555 916.336L-14.8828 729.361C-11.5515 728.844 -8.23804 728.268 -4.94238 727.632L28.7881 920.253ZM143.255 908.354C140.315 909.888 137.281 911.351 134.151 912.735L47.5879 711.936C50.7054 710.658 53.7993 709.326 56.8574 707.93L143.255 908.354ZM-13.5225 901.021C-17.0676 899.006 -20.6251 896.902 -24.2178 894.721L-38.5352 732.007C-35.1622 731.775 -31.807 731.484 -28.4756 731.127L-13.5225 901.021ZM171.486 889.122C168.909 891.363 166.243 893.526 163.47 895.612L64.9043 704.12C67.9269 702.628 70.9197 701.083 73.877 699.484L171.486 889.122ZM-52.8418 876.302C-56.1673 874.085 -59.5289 871.826 -62.9375 869.526V732.625C-61.2569 732.655 -59.5761 732.673 -57.8896 732.673C-56.2032 732.673 -54.5223 732.655 -52.8418 732.625V876.302ZM193.488 865.407C191.327 868.272 189.076 871.066 186.73 873.782L80.416 695.841C83.3317 694.165 86.2179 692.43 89.0742 690.646L193.488 865.407ZM-87.3008 731.127C-83.9695 731.484 -80.6141 731.775 -77.2412 732.007L-87.8701 852.801C-91.0175 850.715 -94.2127 848.611 -97.4551 846.495L-87.3008 731.127ZM209.896 839.673C208.115 842.983 206.256 846.234 204.309 849.42L94.2051 687.359C97.0258 685.517 99.8054 683.621 102.549 681.672L209.896 839.673ZM-110.837 727.632C-107.541 728.268 -104.227 728.844 -100.896 729.361L-119.008 832.795C-122.048 830.917 -125.136 829.033 -128.266 827.161L-110.837 727.632ZM221.999 814.193C220.508 817.759 218.958 821.278 217.349 824.755L106.408 678.885C109.122 676.894 111.8 674.855 114.437 672.763L221.999 814.193ZM-133.098 722.367C-129.867 723.277 -126.607 724.127 -123.329 724.917L-147.178 816.173C-150.171 814.491 -153.211 812.815 -156.293 811.145L-133.098 722.367ZM-153.758 715.674C-150.605 716.839 -147.427 717.944 -144.221 718.99L-173.117 802.353C-176.116 800.837 -179.156 799.328 -182.238 797.836L-153.758 715.674ZM231.133 790.395V790.4C229.844 794.073 228.514 797.711 227.137 801.324L117.182 670.557C119.794 668.435 122.366 666.272 124.896 664.055L231.133 790.395ZM-172.63 707.93C-169.572 709.326 -166.478 710.664 -163.36 711.941L-197.315 790.692C-200.445 789.224 -203.498 787.798 -206.467 786.419L-172.63 707.93ZM-189.655 699.484C-186.698 701.083 -183.705 702.628 -180.683 704.12L-219.864 780.244C-223.023 778.794 -226.087 777.403 -229.068 776.054L-189.655 699.484ZM238.351 768.927C237.169 772.606 235.969 776.273 234.746 779.916L126.668 662.491C129.18 660.257 131.656 657.974 134.085 655.645L238.351 768.927ZM-204.854 690.652C-201.997 692.429 -199.111 694.165 -196.195 695.847L-240.935 770.729C-244.129 769.302 -247.23 767.929 -250.234 766.604L-204.854 690.652ZM-218.324 681.672C-215.581 683.621 -212.802 685.517 -209.981 687.359L-260.706 762.021C-263.948 760.613 -267.09 759.252 -270.143 757.938L-218.324 681.672ZM244.337 749.86C243.209 753.498 242.081 757.129 240.94 760.749L135.023 654.741C137.446 652.406 139.827 650.022 142.161 647.598L244.337 749.86ZM-230.214 672.763C-227.577 674.855 -224.898 676.894 -222.185 678.885L-279.318 754.004C-282.59 752.601 -285.773 751.24 -288.891 749.908L-230.214 672.763ZM-240.671 664.055C-238.141 666.272 -235.57 668.435 -232.957 670.557L-296.824 746.514C-300.09 745.111 -303.303 743.727 -306.504 742.342L-240.671 664.055ZM249.999 731.513C248.895 735.073 247.796 738.638 246.697 742.204L143.066 646.658C145.394 644.227 147.674 641.748 149.907 639.234L249.999 731.513ZM-249.865 655.645C-247.436 657.974 -244.96 660.257 -242.448 662.491L-313.233 739.399C-316.47 737.985 -319.707 736.547 -322.973 735.073L-249.865 655.645ZM-257.94 647.598C-255.607 650.022 -253.225 652.406 -250.803 654.741L-328.542 732.547C-331.737 731.091 -334.979 729.588 -338.299 728.024L-257.94 647.598ZM-265.685 639.234C-263.452 641.748 -261.172 644.227 -258.844 646.658L-344.101 725.266C-347.266 723.75 -350.514 722.169 -353.857 720.522L-265.685 639.234ZM256.085 712.382C254.951 715.835 253.841 719.294 252.748 722.765L151.469 637.459C153.684 634.927 155.845 632.353 157.965 629.738L256.085 712.382ZM-273.741 629.738C-271.621 632.353 -269.46 634.927 -267.245 637.459L-361.397 716.769C-364.551 715.176 -367.799 713.523 -371.16 711.794L-273.741 629.738ZM-282.061 618.956C-280.071 621.672 -278.035 624.352 -275.944 626.991L-380.721 706.818C-383.06 705.588 -385.448 704.322 -387.9 703.015C-388.779 702.545 -389.652 702.075 -390.531 701.594L-282.061 618.956ZM262.874 692.542C261.674 695.864 260.504 699.205 259.364 702.562L160.17 626.991C162.26 624.352 164.297 621.672 166.286 618.956L262.874 692.542ZM-290.529 606.742C-288.688 609.565 -286.794 612.347 -284.847 615.093L-402.147 694.925H-402.153C-405.277 693.041 -408.389 691.092 -411.488 689.065L-290.529 606.742ZM270.78 672.097C269.456 675.27 268.174 678.468 266.927 681.695L169.068 615.093C171.016 612.347 172.91 609.565 174.751 606.742L270.78 672.097ZM-299.005 592.941C-297.33 595.86 -295.596 598.748 -293.82 601.606L-424.731 679.953C-427.659 677.831 -430.563 675.65 -433.443 673.403L-299.005 592.941ZM-307.277 577.418C-305.787 580.443 -304.243 583.439 -302.646 586.398L-448.017 661.352C-450.707 658.98 -453.362 656.561 -455.986 654.089L-307.277 577.418ZM280.406 651.104C278.88 654.111 277.413 657.155 275.994 660.233L178.041 601.606C179.817 598.748 181.551 595.859 183.226 592.941L280.406 651.104ZM-315.085 560.086C-313.814 563.206 -312.478 566.297 -311.083 569.357L-471.336 638.563C-473.735 635.96 -476.087 633.303 -478.391 630.604L-315.085 560.086ZM292.665 629.578C292.285 630.178 291.905 630.779 291.525 631.379C290.106 633.631 288.722 635.908 287.38 638.22L186.867 586.398C188.465 583.439 190.008 580.443 191.499 577.418L292.665 629.578ZM307.32 606.73C305.474 609.571 303.62 612.436 301.756 615.33L195.305 569.357C196.7 566.297 198.037 563.206 199.308 560.086L307.32 606.73ZM-322.135 540.925C-321.09 544.134 -319.984 547.314 -318.82 550.47L-493.61 611.164C-495.641 608.329 -497.619 605.447 -499.531 602.522L-322.135 540.925ZM323.752 581.691C321.858 584.562 319.946 587.463 318.016 590.394L203.043 550.471C204.207 547.315 205.311 544.135 206.356 540.926L323.752 581.691ZM-328.055 520.016C-327.265 523.296 -326.415 526.56 -325.507 529.793L-513.29 578.945C-514.858 575.896 -516.366 572.811 -517.797 569.685L-328.055 520.016ZM342.025 553.982C340.095 556.924 338.147 559.896 336.176 562.892L209.73 529.793C210.639 526.56 211.489 523.296 212.278 520.016L342.025 553.982ZM-332.497 497.562C-331.98 500.896 -331.404 504.212 -330.769 507.511L-528.427 542.185C-529.442 538.963 -530.387 535.712 -531.254 532.426L-332.497 497.562ZM361.846 523.018C359.951 526.072 358.021 529.152 356.05 532.254L214.99 507.511C215.626 504.212 216.202 500.896 216.719 497.562L361.846 523.018ZM-335.14 473.889C-334.908 477.265 -334.617 480.623 -334.261 483.957L-537.062 501.835C-537.453 498.507 -537.768 495.154 -538 491.772L-335.14 473.889ZM382.093 488.236C380.371 491.446 378.595 494.673 376.771 497.912L218.484 483.957C218.841 480.623 219.132 477.265 219.363 473.889L382.093 488.236ZM-335.757 449.468C-335.787 451.15 -335.805 452.832 -335.805 454.52C-335.805 456.207 -335.787 457.889 -335.757 459.571H-537.852C-537.596 456.225 -537.257 452.855 -536.842 449.468H-335.757ZM400.143 449.468C398.842 452.838 397.465 456.207 396.01 459.571H219.979C220.008 457.889 220.026 456.207 220.026 454.52C220.026 452.832 220.008 451.15 219.979 449.468H400.143ZM-334.262 425.081C-334.618 428.415 -334.909 431.774 -335.141 435.149L-530.75 417.907C-529.889 414.627 -528.951 411.322 -527.936 408.006L-334.262 425.081ZM412.099 408.012C411.457 411.483 410.728 414.93 409.914 418.354L219.363 435.149C219.132 431.774 218.841 428.415 218.484 425.081L412.099 408.012ZM-330.77 401.528C-331.405 404.827 -331.98 408.143 -332.497 411.478L-517.246 379.074C-515.88 375.918 -514.449 372.75 -512.94 369.57L-330.77 401.528ZM415.47 366.359C415.547 369.813 415.534 373.23 415.439 376.618L216.719 411.477C216.202 408.142 215.626 404.825 214.99 401.526L415.47 366.359ZM410.97 326.568C411.641 329.932 412.234 333.254 412.751 336.541L212.278 389.022C211.489 385.742 210.639 382.478 209.73 379.245L410.97 326.568ZM-325.507 379.245C-326.415 382.478 -327.265 385.741 -328.055 389.021L-498.812 344.321C-496.74 341.284 -494.59 338.372 -492.363 335.572L-325.507 379.245ZM-318.821 358.568C-319.985 361.724 -321.09 364.904 -322.135 368.113L-473.516 315.549C-470.636 312.922 -467.678 310.39 -464.661 307.924L-318.821 358.568ZM401.017 289.826C402.085 292.97 403.119 296.18 404.11 299.442L206.356 368.113C205.311 364.904 204.207 361.724 203.043 358.568L401.017 289.826ZM-311.084 339.681C-312.479 342.741 -313.815 345.832 -315.086 348.952L-444.721 292.971C-441.484 290.7 -438.212 288.46 -434.904 286.207L-311.084 339.681ZM387.304 256.769C388.782 259.746 390.226 262.789 391.615 265.903L199.308 348.951C198.037 345.831 196.7 342.741 195.305 339.68L387.304 256.769ZM-302.645 322.64C-304.242 325.599 -305.786 328.595 -307.276 331.62L-417.766 274.652C-414.63 272.531 -411.477 270.373 -408.306 268.162L-302.645 322.64ZM370.44 227.99C372.335 230.754 374.187 233.589 375.998 236.495L191.499 331.62C190.008 328.595 188.465 325.599 186.867 322.64L370.44 227.99ZM-293.819 307.432C-295.595 310.284 -297.323 313.173 -299.004 316.091L-395.051 258.612C-392.183 256.473 -389.314 254.273 -386.446 251.997L-293.819 307.432ZM351.264 203.759C353.544 206.267 355.788 208.846 357.985 211.497L183.226 316.09C181.545 313.172 179.817 310.283 178.041 307.431L351.264 203.759ZM330.74 183.914C333.365 186.149 335.954 188.46 338.508 190.844L174.751 302.296C172.91 299.473 171.016 296.691 169.068 293.945L330.74 183.914ZM-284.848 293.944C-286.795 296.69 -288.689 299.472 -290.53 302.295L-376.5 243.787C-373.905 241.546 -371.31 239.241 -368.732 236.852L-284.848 293.944ZM-275.946 282.046C-278.037 284.685 -280.074 287.366 -282.063 290.082L-361.305 229.708C-360.165 228.573 -359.024 227.408 -357.884 226.231C-356.661 224.966 -355.461 223.676 -354.279 222.368L-275.946 282.046ZM309.835 168.027C312.739 169.995 315.618 172.034 318.463 174.144L166.286 290.082C164.297 287.366 162.26 284.686 160.17 282.047L309.835 168.027ZM-267.245 271.58C-269.46 274.112 -271.621 276.686 -273.741 279.301L-348.82 216.068C-346.683 213.495 -344.604 210.85 -342.562 208.14L-267.245 271.58ZM289.305 155.48C292.428 157.198 295.528 158.988 298.604 160.842L157.965 279.3C155.845 276.685 153.684 274.112 151.469 271.58L289.305 155.48ZM269.69 145.633C272.974 147.136 276.246 148.694 279.494 150.328L149.907 269.804C147.674 267.29 145.394 264.811 143.066 262.38L269.69 145.633ZM-258.842 262.379C-261.17 264.81 -263.451 267.289 -265.684 269.803L-338.541 202.636C-336.587 199.884 -334.664 197.073 -332.775 194.214L-258.842 262.379ZM-250.803 254.296C-253.226 256.632 -255.608 259.016 -257.941 261.44L-329.76 189.561C-327.913 186.666 -326.09 183.724 -324.291 180.746L-250.803 254.296ZM251.309 137.911C254.705 139.219 258.103 140.591 261.481 142.018L142.161 261.439C139.827 259.015 137.446 256.632 135.023 254.296L251.309 137.911ZM232.739 131.297C236.213 132.432 239.693 133.627 243.173 134.875L134.085 253.394C131.656 251.064 129.18 248.781 126.668 246.546L232.739 131.297ZM-242.447 246.546C-244.959 248.781 -247.436 251.063 -249.864 253.393L-321.32 175.76C-319.533 172.741 -317.769 169.691 -316.018 166.612L-242.447 246.546ZM212.457 125.17C215.978 126.145 219.517 127.167 223.062 128.243L124.896 244.983C122.366 242.767 119.794 240.603 117.182 238.481L212.457 125.17ZM-232.957 238.48C-235.57 240.602 -238.141 242.766 -240.671 244.982L-312.223 159.896C-310.465 156.77 -308.719 153.626 -306.967 150.464L-232.957 238.48ZM-222.185 230.154C-224.898 232.145 -227.577 234.184 -230.214 236.276L-302.121 141.728C-300.346 138.53 -298.558 135.321 -296.753 132.111L-222.185 230.154ZM190.52 119.564C194.059 120.396 197.621 121.264 201.208 122.186L114.437 236.275C111.8 234.183 109.122 232.145 106.408 230.154L190.52 119.564ZM-209.981 221.679C-212.802 223.521 -215.582 225.418 -218.325 227.367L-290.494 121.146C-288.63 117.93 -286.741 114.727 -284.812 111.535L-209.981 221.679ZM167.069 114.43C170.591 115.155 174.153 115.898 177.752 116.683L102.549 227.367C99.8053 225.418 97.0258 223.521 94.2051 221.679L167.069 114.43ZM-196.194 213.198C-199.11 214.874 -201.996 216.61 -204.853 218.393L-276.57 98.3584C-274.545 95.2382 -272.473 92.1477 -270.347 89.0869L-196.194 213.198ZM142.329 109.566C145.779 110.232 149.301 110.904 152.876 111.605L89.0801 218.391H89.0742C86.2179 216.608 83.3317 214.872 80.416 213.19L142.329 109.566ZM-180.683 204.919C-183.705 206.411 -186.698 207.956 -189.655 209.555L-259.324 74.1992C-257.056 71.3286 -254.722 68.5049 -252.323 65.7354L-180.683 204.919ZM116.586 104.51C119.917 105.205 123.35 105.894 126.871 106.59L73.877 209.555C70.9196 207.956 67.9269 206.41 64.9043 204.918L116.586 104.51ZM-163.367 197.103C-166.485 198.374 -169.574 199.712 -172.632 201.108L-237.633 50.3291C-235.067 47.8864 -232.431 45.515 -229.711 43.209L-163.367 197.103ZM90.2666 98.0957C93.3723 99.0288 96.6564 99.9204 100.101 100.782L56.8516 201.107C53.7934 199.711 50.7054 198.373 47.5879 197.102L90.2666 98.0957ZM-144.221 190.048C-147.427 191.094 -150.605 192.199 -153.758 193.364L-210.713 29.0703C-207.851 27.216 -204.911 25.4325 -201.883 23.7148L-144.221 190.048ZM64.3506 86.4531C67.4207 88.3907 70.3905 90.1142 73.2646 91.5703L37.9785 193.364C34.8253 192.199 31.6481 191.094 28.4414 190.048L64.3506 86.4531ZM38.0225 67.5293C41.0035 69.7997 43.9018 72.0043 46.7344 74.1143L17.3213 186.672C14.0908 185.763 10.8307 184.913 7.55273 184.122L38.0225 67.5293ZM-123.33 184.121C-126.608 184.912 -129.868 185.762 -133.099 186.671L-178.574 12.6289C-175.48 11.4164 -172.303 10.2633 -169.049 9.18164L-123.33 184.121ZM-100.894 179.676C-104.225 180.193 -107.539 180.769 -110.835 181.405L-142.201 2.28223C-138.834 1.676 -135.509 1.18222 -132.213 0.795898L-100.894 179.676ZM8.60352 45.5322C11.6974 47.7313 14.7321 49.9368 17.6953 52.1299L-4.94238 181.405C-8.23804 180.769 -11.5515 180.193 -14.8828 179.676L8.60352 45.5322ZM-102.961 0C-99.5049 0.225844 -96.0964 0.558335 -92.7354 0.992188L-77.2422 177.031C-80.6151 177.263 -83.9704 177.555 -87.3018 177.911L-102.961 0ZM-25.085 24.1543C-21.807 25.9492 -18.588 27.8033 -15.4287 29.6992L-28.4756 177.911C-31.807 177.555 -35.1622 177.263 -38.5352 177.031L-25.085 24.1543ZM-62.9375 7.67969C-59.517 8.76734 -56.1554 9.94978 -52.8418 11.2217V176.414C-54.5223 176.384 -56.2032 176.366 -57.8896 176.366C-59.5761 176.366 -61.2569 176.384 -62.9375 176.414V7.67969Z" fill="url(#paint0_linear_12439_3642)" fill-opacity="0.1"/>
<defs>
<linearGradient id="paint0_linear_12439_3642" x1="227.76" y1="922.5" x2="-196.243" y2="-4.12555" gradientUnits="userSpaceOnUse">
<stop stop-color="white" stop-opacity="0"/>
<stop offset="1" stop-color="white"/>
</linearGradient>
</defs>
</svg>
