<svg width="425" height="142" viewBox="0 0 425 142" fill="none" xmlns="http://www.w3.org/2000/svg">
<g clip-path="url(#clip0_12439_5127)">
<path d="M413.667 0H11.3333C5.07411 0 0 5.07411 0 11.3333V130.333C0 136.593 5.07411 141.667 11.3333 141.667H413.667C419.926 141.667 425 136.593 425 130.333V11.3333C425 5.07411 419.926 0 413.667 0Z" fill="#F6F6F6"/>
<path d="M45.3301 22.668C34.9884 22.668 26.6055 30.7863 26.6055 40.8013C26.6055 45.8069 28.6998 50.3394 32.0871 53.6207C35.4752 56.9037 43.4575 61.6546 43.9256 66.641C43.9959 67.3887 44.5549 68.0013 45.3301 68.0013C46.1053 68.0013 46.664 67.3887 46.7346 66.641C47.2024 61.6546 55.1847 56.9037 58.5728 53.6207C61.9601 50.3394 64.0547 45.8069 64.0547 40.8013C64.0547 30.7863 55.6718 22.668 45.3301 22.668Z" fill="#FF3D00"/>
<path d="M45.3301 22.668C34.9884 22.668 26.6055 30.7863 26.6055 40.8013C26.6055 45.8069 28.6998 50.3394 32.0871 53.6207C35.4752 56.9037 43.4575 61.6546 43.9256 66.641C43.9959 67.3887 44.5549 68.0013 45.3301 68.0013C46.1053 68.0013 46.664 67.3887 46.7346 66.641C47.2024 61.6546 55.1847 56.9037 58.5728 53.6207C61.9601 50.3394 64.0547 45.8069 64.0547 40.8013C64.0547 30.7863 55.6718 22.668 45.3301 22.668Z" fill="url(#paint0_linear_12439_5127)"/>
<path d="M45.3348 47.1383C48.8334 47.1383 51.6695 44.3021 51.6695 40.8035C51.6695 37.3049 48.8334 34.4688 45.3348 34.4688C41.8362 34.4688 39 37.3049 39 40.8035C39 44.3021 41.8362 47.1383 45.3348 47.1383Z" fill="white"/>
<path d="M86.5934 43.0707C85.5934 43.0707 84.6928 42.8718 83.8917 42.4741C83.0906 42.0763 82.4485 41.5309 81.9656 40.8377C81.4826 40.1445 81.2184 39.3548 81.1729 38.4684H83.2184C83.2979 39.2582 83.6559 39.9116 84.2923 40.4286C84.9343 40.94 85.7013 41.1957 86.5934 41.1957C87.3093 41.1957 87.9457 41.0281 88.5025 40.6928C89.065 40.3576 89.5053 39.8974 89.8235 39.3121C90.1474 38.7212 90.3093 38.0536 90.3093 37.3093C90.3093 36.5479 90.1417 35.869 89.8065 35.2724C89.4769 34.6701 89.0224 34.1957 88.4428 33.8491C87.8633 33.5025 87.2013 33.3263 86.457 33.3207C85.9229 33.315 85.3746 33.3974 84.8121 33.5678C84.2496 33.7326 83.7866 33.9457 83.4229 34.207L81.4457 33.9684L82.5025 25.3775H91.5707V27.2525H84.2752L83.6616 32.4002H83.7638C84.1218 32.1161 84.5707 31.8803 85.1104 31.6928C85.6502 31.5053 86.2127 31.4116 86.7979 31.4116C87.8661 31.4116 88.8178 31.6673 89.6531 32.1786C90.494 32.6843 91.1531 33.3775 91.6303 34.2582C92.1133 35.1388 92.3548 36.1445 92.3548 37.2752C92.3548 38.3888 92.1048 39.3832 91.6048 40.2582C91.1104 41.1275 90.4286 41.815 89.5593 42.3207C88.69 42.8207 87.7013 43.0707 86.5934 43.0707ZM98.1183 40.4457L97.9819 41.3661C97.8853 42.0138 97.7376 42.707 97.5387 43.4457C97.3455 44.1843 97.1438 44.8803 96.9336 45.5337C96.7234 46.1871 96.5501 46.707 96.4137 47.0934H94.8796C94.9535 46.7298 95.0501 46.2496 95.1694 45.6531C95.2887 45.0565 95.408 44.3888 95.5273 43.6502C95.6523 42.9173 95.7546 42.1673 95.8342 41.4002L95.9364 40.4457H98.1183ZM106.895 43.0707C105.61 43.0707 104.517 42.7212 103.613 42.0224C102.71 41.3178 102.02 40.2979 101.542 38.9627C101.065 37.6218 100.826 36.0025 100.826 34.1048C100.826 32.2184 101.065 30.6076 101.542 29.2724C102.025 27.9315 102.718 26.9087 103.622 26.2042C104.531 25.494 105.622 25.1388 106.895 25.1388C108.167 25.1388 109.255 25.494 110.159 26.2042C111.068 26.9087 111.761 27.9315 112.238 29.2724C112.721 30.6076 112.963 32.2184 112.963 34.1048C112.963 36.0025 112.724 37.6218 112.247 38.9627C111.77 40.2979 111.079 41.3178 110.176 42.0224C109.272 42.7212 108.179 43.0707 106.895 43.0707ZM106.895 41.1957C108.167 41.1957 109.156 40.582 109.86 39.3548C110.565 38.1275 110.917 36.3775 110.917 34.1048C110.917 32.5934 110.755 31.3065 110.431 30.244C110.113 29.1815 109.653 28.3718 109.051 27.815C108.454 27.2582 107.735 26.9798 106.895 26.9798C105.633 26.9798 104.647 27.6019 103.937 28.8462C103.227 30.0849 102.872 31.8377 102.872 34.1048C102.872 35.6161 103.031 36.9002 103.349 37.957C103.667 39.0138 104.125 39.8178 104.721 40.369C105.324 40.9201 106.048 41.1957 106.895 41.1957Z" fill="black"/>
<path fill-rule="evenodd" clip-rule="evenodd" d="M192.769 54.7149L183.149 60.594C182.067 61.2556 180.728 60.2705 181.036 59.0402L183.826 47.9313L175.736 41.6356C174.717 40.8429 175.203 39.212 176.489 39.1058L187.073 38.2325L191.485 27.9424C191.976 26.7961 193.602 26.7984 194.09 27.946L198.467 38.2325L209.124 39.1066C210.412 39.212 210.897 40.8466 209.875 41.6382L201.753 47.9313L204.537 59.0482C204.845 60.2773 203.508 61.2616 202.426 60.602L192.769 54.7149Z" fill="#FFCC00"/>
<path fill-rule="evenodd" clip-rule="evenodd" d="M238.105 54.7149L228.485 60.594C227.403 61.2556 226.064 60.2705 226.372 59.0402L229.162 47.9313L221.072 41.6356C220.053 40.8429 220.539 39.212 221.825 39.1058L232.409 38.2325L236.821 27.9424C237.312 26.7961 238.938 26.7984 239.426 27.946L243.803 38.2325L254.459 39.1066C255.748 39.212 256.233 40.8466 255.211 41.6382L247.089 47.9313L249.873 59.0482C250.181 60.2773 248.844 61.2616 247.761 60.602L238.105 54.7149Z" fill="#FFCC00"/>
<path fill-rule="evenodd" clip-rule="evenodd" d="M283.436 54.7149L273.817 60.594C272.735 61.2556 271.396 60.2705 271.704 59.0402L274.494 47.9313L266.404 41.6356C265.385 40.8429 265.871 39.212 267.157 39.1058L277.741 38.2325L282.153 27.9424C282.644 26.7961 284.271 26.7984 284.759 27.946L289.136 38.2325L299.792 39.1066C301.079 39.212 301.566 40.8466 300.543 41.6382L292.42 47.9313L295.205 59.0482C295.514 60.2773 294.177 61.2616 293.094 60.602L283.436 54.7149Z" fill="#FFCC00"/>
<path fill-rule="evenodd" clip-rule="evenodd" d="M328.768 54.7149L319.149 60.594C318.066 61.2556 316.729 60.2705 317.038 59.0402L319.826 47.9313L311.737 41.6356C310.717 40.8429 311.204 39.212 312.49 39.1058L323.073 38.2325L327.484 27.9424C327.977 26.7961 329.604 26.7984 330.091 27.946L334.468 38.2325L345.125 39.1066C346.411 39.212 346.898 40.8466 345.875 41.6382L337.752 47.9313L340.537 59.0482C340.846 60.2773 339.509 61.2616 338.427 60.602L328.768 54.7149Z" fill="#FFCC00"/>
<path fill-rule="evenodd" clip-rule="evenodd" d="M374.104 54.7149L364.484 60.594C363.402 61.2556 362.065 60.2705 362.374 59.0402L365.162 47.9313L357.072 41.6356C356.052 40.8429 356.54 39.212 357.826 39.1058L368.409 38.2325L372.82 27.9424C373.313 26.7961 374.939 26.7984 375.427 27.946L379.804 38.2325L390.46 39.1066C391.747 39.212 392.234 40.8466 391.211 41.6382L383.088 47.9313L385.873 59.0482C386.182 60.2773 384.845 61.2616 383.762 60.602L374.104 54.7149Z" fill="#FFCC00"/>
<path d="M24.5703 97.0825H29.761C31.6046 97.0825 33.0326 97.4678 34.045 98.2385C35.0726 98.9941 35.5863 100.18 35.5863 101.797C35.5863 103.021 35.3293 104.018 34.8156 104.789C34.317 105.56 33.6143 106.126 32.7076 106.489C31.816 106.837 30.7733 107.01 29.5796 107.01H26.701V113.334H24.5703V97.0825ZM29.5796 105.084C30.728 105.084 31.6573 104.834 32.3676 104.336C33.078 103.837 33.433 102.998 33.433 101.82C33.433 100.838 33.1156 100.127 32.481 99.6892C31.8463 99.2508 30.9396 99.0318 29.761 99.0318H26.701V105.084H29.5796ZM42.7708 113.561C40.8064 113.561 39.3028 113.025 38.2601 111.952C37.2325 110.864 36.7188 109.36 36.7188 107.441C36.7188 106.157 36.9605 105.061 37.4441 104.154C37.9278 103.248 38.5925 102.553 39.4388 102.069C40.2851 101.586 41.2371 101.344 42.2948 101.344C44.0931 101.344 45.4151 101.941 46.2615 103.134C47.1078 104.313 47.3798 105.93 47.0775 107.985H38.7815C38.9478 110.509 40.3378 111.77 42.9521 111.77C44.3878 111.77 45.7098 111.362 46.9188 110.546V112.337C46.3748 112.715 45.7401 113.017 45.0148 113.244C44.2895 113.455 43.5415 113.561 42.7708 113.561ZM42.2495 103.112C41.3881 103.112 40.6478 103.376 40.0281 103.905C39.4085 104.434 39.0158 105.235 38.8495 106.308H45.1735C45.2188 105.295 44.9845 104.51 44.4708 103.95C43.9571 103.391 43.2165 103.112 42.2495 103.112ZM54.8314 100.006C53.6375 100.006 52.7461 99.7118 52.1568 99.1225C51.5674 98.5181 51.2728 97.7852 51.2728 96.9238H53.2674C53.2674 97.4981 53.4034 97.9135 53.6754 98.1705C53.9625 98.4275 54.3478 98.5558 54.8314 98.5558C55.3148 98.5558 55.6928 98.4275 55.9648 98.1705C56.2368 97.9135 56.3728 97.4981 56.3728 96.9238H58.3674C58.3674 97.7852 58.0728 98.5181 57.4834 99.1225C56.9091 99.7118 56.0251 100.006 54.8314 100.006ZM51.7488 101.57V110.569L57.8008 101.57H59.8181V113.334H57.8234V104.358L51.7941 113.334H49.7541V101.57H51.7488ZM62.1276 101.57H71.5796V103.27H67.8169V113.334H65.8222V103.27H62.1276V101.57ZM75.8763 101.57V110.569L81.9283 101.57H83.9456V113.334H81.951V104.358L75.9216 113.334H73.8816V101.57H75.8763ZM89.2018 101.57V106.421H94.8911V101.57H96.8858V113.334H94.8911V108.121H89.2018V113.334H87.2071V101.57H89.2018ZM100.156 113.334V101.57H107.636V103.27H102.151V113.334H100.156ZM119.417 113.561C118.344 113.561 117.377 113.327 116.515 112.858C115.669 112.375 114.997 111.68 114.498 110.773C113.999 109.851 113.75 108.741 113.75 107.441C113.75 106.142 113.999 105.038 114.498 104.132C114.997 103.225 115.669 102.538 116.515 102.069C117.377 101.586 118.344 101.344 119.417 101.344C120.505 101.344 121.479 101.586 122.341 102.069C123.202 102.538 123.882 103.225 124.381 104.132C124.879 105.038 125.129 106.142 125.129 107.441C125.129 108.741 124.879 109.851 124.381 110.773C123.882 111.68 123.202 112.375 122.341 112.858C121.479 113.327 120.505 113.561 119.417 113.561ZM119.417 111.77C120.474 111.77 121.351 111.423 122.046 110.728C122.741 110.018 123.089 108.922 123.089 107.441C123.089 105.96 122.741 104.872 122.046 104.177C121.351 103.467 120.474 103.112 119.417 103.112C118.374 103.112 117.505 103.467 116.81 104.177C116.13 104.872 115.79 105.96 115.79 107.441C115.79 108.922 116.13 110.018 116.81 110.728C117.505 111.423 118.374 111.77 119.417 111.77ZM127.56 101.57H129.305L129.509 103.86C129.887 103.104 130.408 102.5 131.073 102.046C131.753 101.578 132.584 101.344 133.567 101.344C134.488 101.344 135.335 101.57 136.105 102.024C136.891 102.462 137.526 103.134 138.009 104.041C138.493 104.933 138.735 106.066 138.735 107.441C138.735 108.816 138.485 109.957 137.987 110.864C137.503 111.77 136.861 112.45 136.06 112.904C135.274 113.342 134.413 113.561 133.476 113.561C132.584 113.561 131.806 113.35 131.141 112.926C130.476 112.503 129.948 111.922 129.555 111.181V117.346H127.56V101.57ZM136.672 107.441C136.672 106.021 136.347 104.948 135.697 104.222C135.048 103.482 134.209 103.112 133.181 103.112C132.154 103.112 131.285 103.474 130.575 104.2C129.88 104.91 129.532 105.99 129.532 107.441C129.532 108.907 129.88 109.995 130.575 110.705C131.285 111.415 132.154 111.77 133.181 111.77C134.209 111.77 135.048 111.408 135.697 110.682C136.347 109.957 136.672 108.877 136.672 107.441ZM141.151 113.334V101.57H148.631V103.27H143.146V113.334H141.151ZM154.703 103.112C153.449 103.112 152.179 103.497 150.895 104.268V102.477C151.454 102.13 152.096 101.858 152.822 101.661C153.562 101.45 154.28 101.344 154.975 101.344C156.456 101.344 157.582 101.654 158.352 102.273C159.123 102.893 159.508 103.837 159.508 105.106V111.43C159.508 111.687 159.516 112.02 159.531 112.428C159.561 112.821 159.591 113.123 159.622 113.334H157.808C157.763 113.123 157.718 112.828 157.672 112.45C157.642 112.058 157.627 111.718 157.627 111.43L157.604 111.09C157.423 111.453 157.174 111.831 156.856 112.224C156.539 112.602 156.116 112.919 155.587 113.176C155.073 113.433 154.431 113.561 153.66 113.561C152.603 113.561 151.749 113.259 151.099 112.654C150.449 112.05 150.124 111.196 150.124 110.093C150.124 108.809 150.578 107.864 151.484 107.26C152.391 106.655 153.668 106.353 155.315 106.353H157.514V105.378C157.514 104.562 157.302 103.981 156.879 103.633C156.456 103.286 155.731 103.112 154.703 103.112ZM157.514 108.801V107.94H155.519C154.325 107.94 153.456 108.114 152.912 108.461C152.383 108.809 152.119 109.315 152.119 109.98C152.119 110.509 152.278 110.939 152.595 111.272C152.927 111.604 153.426 111.77 154.091 111.77C154.711 111.77 155.239 111.65 155.678 111.408C156.116 111.151 156.471 110.849 156.743 110.501C157.015 110.138 157.211 109.798 157.332 109.481C157.453 109.164 157.514 108.937 157.514 108.801ZM164.639 101.57V106.421H170.329V101.57H172.323V113.334H170.329V108.121H164.639V113.334H162.645V101.57H164.639ZM177.588 101.57V110.569L183.64 101.57H185.658V113.334H183.663V104.358L177.634 113.334H175.594V101.57H177.588ZM192.342 113.561C191.602 113.561 190.884 113.478 190.189 113.312C189.509 113.146 188.95 112.919 188.512 112.632V110.841C188.995 111.128 189.569 111.355 190.234 111.521C190.899 111.687 191.587 111.77 192.297 111.77C193.158 111.77 193.876 111.634 194.45 111.362C195.04 111.075 195.334 110.592 195.334 109.912C195.334 109.247 195.085 108.778 194.586 108.506C194.103 108.234 193.355 108.098 192.342 108.098H190.778V106.489H192.41C193.241 106.489 193.876 106.338 194.314 106.036C194.752 105.734 194.971 105.295 194.971 104.721C194.971 104.117 194.707 103.701 194.178 103.474C193.664 103.233 193.037 103.112 192.297 103.112C190.967 103.112 189.781 103.429 188.738 104.064V102.273C189.192 101.971 189.743 101.744 190.393 101.593C191.058 101.427 191.745 101.344 192.456 101.344C193.891 101.344 194.972 101.616 195.697 102.16C196.437 102.704 196.808 103.49 196.808 104.517C196.808 105.288 196.596 105.9 196.173 106.353C195.75 106.791 195.168 107.086 194.427 107.237C195.349 107.358 196.052 107.653 196.536 108.121C197.019 108.59 197.261 109.186 197.261 109.912C197.261 110.788 197.027 111.498 196.558 112.042C196.105 112.571 195.508 112.957 194.768 113.198C194.027 113.44 193.219 113.561 192.342 113.561ZM204.176 103.112C202.922 103.112 201.652 103.497 200.368 104.268V102.477C200.927 102.13 201.569 101.858 202.294 101.661C203.035 101.45 203.753 101.344 204.448 101.344C205.929 101.344 207.054 101.654 207.825 102.273C208.596 102.893 208.981 103.837 208.981 105.106V111.43C208.981 111.687 208.989 112.02 209.004 112.428C209.034 112.821 209.064 113.123 209.094 113.334H207.281C207.236 113.123 207.19 112.828 207.145 112.45C207.115 112.058 207.1 111.718 207.1 111.43L207.077 111.09C206.896 111.453 206.646 111.831 206.329 112.224C206.012 112.602 205.589 112.919 205.06 113.176C204.546 113.433 203.904 113.561 203.133 113.561C202.075 113.561 201.222 113.259 200.572 112.654C199.922 112.05 199.597 111.196 199.597 110.093C199.597 108.809 200.05 107.864 200.957 107.26C201.864 106.655 203.141 106.353 204.788 106.353H206.986V105.378C206.986 104.562 206.775 103.981 206.352 103.633C205.929 103.286 205.203 103.112 204.176 103.112ZM206.986 108.801V107.94H204.992C203.798 107.94 202.929 108.114 202.385 108.461C201.856 108.809 201.592 109.315 201.592 109.98C201.592 110.509 201.75 110.939 202.068 111.272C202.4 111.604 202.899 111.77 203.564 111.77C204.183 111.77 204.712 111.65 205.15 111.408C205.589 111.151 205.944 110.849 206.216 110.501C206.488 110.138 206.684 109.798 206.805 109.481C206.926 109.164 206.986 108.937 206.986 108.801ZM212.117 113.334V101.57H214.112V111.634H219.665V101.57H221.66V111.634H223.428V116.689H221.728L221.479 113.334H212.117ZM227.504 101.57V110.569L233.556 101.57H235.573V113.334H233.579V104.358L227.549 113.334H225.509V101.57H227.504ZM240.83 101.57V110.569L246.882 101.57H248.899V113.334H246.904V104.358L240.875 113.334H238.835V101.57H240.83ZM261.277 113.334H256.698V101.57H261.322C262.727 101.57 263.793 101.82 264.518 102.318C265.259 102.802 265.629 103.565 265.629 104.608C265.629 105.288 265.447 105.839 265.085 106.262C264.737 106.686 264.239 106.988 263.589 107.169C265.266 107.441 266.105 108.37 266.105 109.957C266.105 110.758 265.893 111.408 265.47 111.906C265.062 112.405 264.495 112.768 263.77 112.994C263.045 113.221 262.214 113.334 261.277 113.334ZM261.299 103.27H258.693V106.466H261.141C261.896 106.466 262.501 106.33 262.954 106.058C263.423 105.786 263.657 105.394 263.657 104.88C263.657 104.26 263.453 103.837 263.045 103.61C262.637 103.384 262.055 103.27 261.299 103.27ZM261.254 108.053H258.693V111.634H261.254C262.1 111.634 262.78 111.514 263.294 111.272C263.808 111.015 264.065 110.554 264.065 109.889C264.065 109.224 263.831 108.756 263.362 108.484C262.894 108.197 262.191 108.053 261.254 108.053ZM273.79 102.001C273.79 100.838 274.04 99.9008 274.538 99.1905C275.037 98.4652 275.732 97.9362 276.624 97.6038C277.515 97.2562 278.543 97.0825 279.706 97.0825H284.761V113.334H282.608V106.965H279.457L275.173 113.334H272.566L277.304 106.534C276.17 106.262 275.301 105.756 274.697 105.016C274.093 104.26 273.79 103.255 273.79 102.001ZM279.48 105.038H282.608V99.0318H279.706C278.633 99.0318 277.749 99.2508 277.054 99.6892C276.374 100.127 276.034 100.898 276.034 102.001C276.034 103.044 276.329 103.814 276.918 104.313C277.523 104.797 278.377 105.038 279.48 105.038ZM290.28 101.57V106.421H295.97V101.57H297.964V113.334H295.97V108.121H290.28V113.334H288.286V101.57H290.28ZM301.506 116.689H299.715V111.634H300.826C301.31 111.151 301.65 110.471 301.846 109.594C302.058 108.718 302.186 107.622 302.231 106.308C302.277 104.978 302.299 103.399 302.299 101.57H310.799V111.634H312.567V116.689H310.822L310.573 113.334H301.71L301.506 116.689ZM308.805 103.27H304.158C304.144 105.416 304.067 107.154 303.931 108.484C303.812 109.798 303.501 110.849 303.002 111.634H308.805V103.27ZM319.639 113.561C317.676 113.561 316.171 113.025 315.129 111.952C314.103 110.864 313.587 109.36 313.587 107.441C313.587 106.157 313.831 105.061 314.313 104.154C314.797 103.248 315.463 102.553 316.307 102.069C317.154 101.586 318.106 101.344 319.163 101.344C320.962 101.344 322.286 101.941 323.13 103.134C323.977 104.313 324.249 105.93 323.946 107.985H315.65C315.817 110.509 317.208 111.77 319.821 111.77C321.257 111.77 322.58 111.362 323.787 110.546V112.337C323.243 112.715 322.609 113.017 321.883 113.244C321.158 113.455 320.41 113.561 319.639 113.561ZM319.118 103.112C318.257 103.112 317.517 103.376 316.897 103.905C316.279 104.434 315.885 105.235 315.718 106.308H322.042C322.087 105.295 321.855 104.51 321.339 103.95C320.826 103.391 320.087 103.112 319.118 103.112ZM336.234 113.334H333.809L329.661 108.325H328.618V113.334H326.623V101.57H328.618V106.625H329.751L333.877 101.57H336.143L331.315 107.373L336.234 113.334ZM343.079 113.561C341.249 113.561 339.807 113.025 338.75 111.952C337.69 110.864 337.163 109.36 337.163 107.441C337.163 105.522 337.699 104.026 338.773 102.953C339.844 101.88 341.311 101.344 343.17 101.344C343.878 101.344 344.544 101.427 345.165 101.593C345.782 101.744 346.281 101.971 346.661 102.273V104.064C345.632 103.429 344.476 103.112 343.193 103.112C341.833 103.112 340.827 103.474 340.178 104.2C339.526 104.91 339.203 105.99 339.203 107.441C339.203 108.892 339.512 109.98 340.133 110.705C340.767 111.415 341.748 111.77 343.079 111.77C344.363 111.77 345.556 111.461 346.661 110.841V112.632C345.678 113.251 344.485 113.561 343.079 113.561ZM354.549 113.561C352.582 113.561 351.081 113.025 350.038 111.952C349.01 110.864 348.497 109.36 348.497 107.441C348.497 106.157 348.738 105.061 349.222 104.154C349.704 103.248 350.37 102.553 351.217 102.069C352.061 101.586 353.013 101.344 354.073 101.344C355.869 101.344 357.192 101.941 358.039 103.134C358.884 104.313 359.156 105.93 358.855 107.985H350.559C350.724 110.509 352.115 111.77 354.73 111.77C356.164 111.77 357.487 111.362 358.697 110.546V112.337C358.153 112.715 357.518 113.017 356.793 113.244C356.067 113.455 355.319 113.561 354.549 113.561ZM354.027 103.112C353.166 103.112 352.424 103.376 351.806 103.905C351.186 104.434 350.792 105.235 350.627 106.308H356.951C356.997 105.295 356.762 104.51 356.249 103.95C355.733 103.391 354.994 103.112 354.027 103.112Z" fill="#4D4D4D"/>
</g>
<defs>
<linearGradient id="paint0_linear_12439_5127" x1="45.3301" y1="22.668" x2="45.3301" y2="68.0013" gradientUnits="userSpaceOnUse">
<stop stop-color="#FF6122"/>
<stop offset="1" stop-color="#F22411"/>
</linearGradient>
<clipPath id="clip0_12439_5127">
<rect width="425" height="141.667" fill="white"/>
</clipPath>
</defs>
</svg>
