<svg width="573" height="674" viewBox="0 0 573 674" fill="none" xmlns="http://www.w3.org/2000/svg">
<path d="M399.871 847C396.547 847.005 393.268 846.875 390.027 846.619L340.779 662.356C343.842 661.634 346.889 660.858 349.908 660.027L399.871 847ZM435.89 841.992C432.771 842.834 429.702 843.562 426.678 844.181L360.301 656.942C363.297 655.986 366.266 654.976 369.213 653.912L435.89 841.992ZM360.624 840.836C357.206 839.766 353.804 838.571 350.408 837.257L319.816 666.418C322.929 665.945 326.026 665.419 329.105 664.838L360.624 840.836ZM467.585 829.963C464.839 831.364 462.003 832.7 459.079 833.965L378.192 650.495C381.105 649.328 383.996 648.111 386.854 646.835L467.585 829.963ZM321.086 823.262C317.773 821.421 314.449 819.499 311.092 817.506L297.714 668.835C300.866 668.623 304.001 668.356 307.114 668.03L321.086 823.262ZM493.966 812.391C491.558 814.438 489.066 816.415 486.475 818.321L394.373 643.354C397.197 641.991 399.994 640.58 402.758 639.119L493.966 812.391ZM284.347 800.678C281.24 798.652 278.099 796.588 274.914 794.487V669.4C276.484 669.427 278.055 669.444 279.631 669.444C281.207 669.444 282.777 669.427 284.347 669.4V800.678ZM514.526 790.723C512.506 793.341 510.403 795.893 508.211 798.375L408.868 635.79C411.592 634.259 414.288 632.673 416.957 631.044L514.526 790.723ZM252.148 668.03C255.261 668.356 258.396 668.623 261.548 668.835L251.615 779.205C248.674 777.299 245.688 775.376 242.658 773.443L252.148 668.03ZM529.858 767.21C528.194 770.235 526.457 773.205 524.637 776.116L421.753 628.041C424.388 626.358 426.985 624.626 429.549 622.845L529.858 767.21ZM230.155 664.838C233.234 665.419 236.33 665.945 239.443 666.418L222.519 760.925C219.678 759.209 216.793 757.488 213.868 755.777L230.155 664.838ZM541.166 743.928C539.774 747.186 538.325 750.401 536.822 753.577L433.156 620.296C435.691 618.477 438.194 616.614 440.658 614.702L541.166 743.928ZM209.352 660.027C212.371 660.858 215.417 661.634 218.48 662.356L196.195 745.737C193.398 744.2 190.558 742.668 187.678 741.142L209.352 660.027ZM190.047 653.912C192.994 654.976 195.963 655.986 198.959 656.942L171.958 733.11C169.156 731.725 166.314 730.346 163.434 728.983L190.047 653.912ZM549.701 722.184V722.19C548.497 725.546 547.255 728.869 545.967 732.171L443.221 612.688C445.663 610.749 448.066 608.773 450.43 606.747L549.701 722.184ZM172.413 646.835C175.271 648.111 178.162 649.333 181.075 650.5L149.346 722.455C146.422 721.114 143.57 719.81 140.795 718.551L172.413 646.835ZM156.503 639.119C159.267 640.58 162.063 641.991 164.888 643.354L128.276 712.909C125.324 711.584 122.46 710.313 119.675 709.08L156.503 639.119ZM556.446 702.569C555.342 705.931 554.221 709.282 553.078 712.611L452.086 605.32C454.434 603.278 456.748 601.192 459.017 599.064L556.446 702.569ZM142.303 631.05C144.972 632.674 147.669 634.259 150.393 635.796L108.588 704.215C105.602 702.912 102.705 701.657 99.8972 700.446L142.303 631.05ZM129.715 622.845C132.278 624.626 134.876 626.358 137.511 628.041L90.1118 696.26C87.082 694.973 84.1465 693.729 81.2943 692.529L129.715 622.845ZM562.041 685.148C560.987 688.471 559.932 691.79 558.867 695.097L459.895 598.238C462.159 596.104 464.384 593.926 466.565 591.711L562.041 685.148ZM118.605 614.702C121.069 616.614 123.571 618.477 126.107 620.296L72.7203 688.933C69.6628 687.651 66.688 686.407 63.7748 685.191L118.605 614.702ZM108.832 606.747C111.196 608.773 113.599 610.75 116.04 612.688L56.3613 682.091C53.3094 680.809 50.3071 679.544 47.3162 678.279L108.832 606.747ZM567.33 668.385C566.298 671.637 565.272 674.896 564.245 678.154L467.41 590.853C469.585 588.632 471.715 586.367 473.802 584.07L567.33 668.385ZM100.243 599.064C102.512 601.192 104.826 603.278 107.174 605.32L41.0296 675.59C38.0055 674.298 34.9812 672.984 31.9294 671.637L100.243 599.064ZM92.6962 591.712C94.8769 593.927 97.102 596.105 99.366 598.239L26.7237 669.33C23.7384 668 20.7085 666.625 17.6067 665.197L92.6962 591.712ZM85.4592 584.07C87.5456 586.367 89.6768 588.631 91.852 590.853L12.1844 662.677C9.2269 661.292 6.19136 659.848 3.0674 658.343L85.4592 584.07ZM573.018 650.904C571.958 654.059 570.921 657.22 569.9 660.391L475.261 582.447C477.331 580.133 479.351 577.782 481.332 575.392L573.018 650.904ZM77.9301 575.392C79.9111 577.782 81.9312 580.133 84.0009 582.447L-3.97887 654.911C-6.92525 653.456 -9.96031 651.946 -13.1009 650.366L77.9301 575.392ZM70.1576 565.54C72.0164 568.022 73.9197 570.471 75.8728 572.882L-22.0338 645.819C-24.22 644.695 -26.4505 643.539 -28.7421 642.344C-29.5633 641.915 -30.379 641.485 -31.2002 641.046L70.1576 565.54ZM579.36 632.776C578.24 635.812 577.146 638.864 576.081 641.932L483.391 572.882C485.344 570.471 487.247 568.022 489.106 565.541L579.36 632.776ZM62.2429 554.38C63.9631 556.96 65.7339 559.502 67.554 562.011L-42.0557 634.953H-42.0616C-44.9802 633.232 -47.888 631.451 -50.7845 629.599L62.2429 554.38ZM586.751 614.094C585.514 616.994 584.315 619.916 583.15 622.865L491.708 562.011C493.528 559.502 495.299 556.96 497.019 554.38L586.751 614.094ZM54.3249 541.772C55.8897 544.438 57.5108 547.077 59.1699 549.69L-63.1577 621.275C-65.8933 619.336 -68.6072 617.343 -71.2984 615.291L54.3249 541.772ZM46.5942 527.586C47.9869 530.35 49.4296 533.088 50.9222 535.792L-84.9165 604.277C-87.4302 602.11 -89.9109 599.899 -92.3636 597.64L46.5942 527.586ZM595.745 594.915C594.319 597.663 592.949 600.443 591.622 603.256L500.091 549.69C501.75 547.078 503.37 544.438 504.935 541.772L595.745 594.915ZM39.2986 511.751C40.486 514.602 41.7345 517.426 43.0384 520.223L-106.706 583.456C-108.948 581.078 -111.146 578.65 -113.299 576.184L39.2986 511.751ZM607.201 575.246C606.846 575.794 606.491 576.343 606.136 576.891C604.81 578.949 603.516 581.03 602.262 583.142L508.34 535.793C509.832 533.089 511.276 530.351 512.668 527.587L607.201 575.246ZM620.893 554.37C619.168 556.966 617.436 559.584 615.694 562.228L516.223 520.223C517.526 517.426 518.775 514.602 519.962 511.751L620.893 554.37ZM32.7116 494.243C33.6883 497.176 34.7205 500.081 35.8081 502.965L-127.521 558.422C-129.419 555.831 -131.267 553.197 -133.054 550.526L32.7116 494.243ZM636.247 531.492C634.477 534.115 632.69 536.765 630.886 539.442L523.453 502.965C524.54 500.082 525.572 497.176 526.548 494.243L636.247 531.492ZM27.1797 475.139C27.9177 478.136 28.711 481.118 29.56 484.072L-145.911 528.983C-147.376 526.197 -148.785 523.379 -150.123 520.522L27.1797 475.139ZM653.322 506.174C651.519 508.863 649.698 511.578 647.856 514.314L529.702 484.072C530.551 481.118 531.344 478.136 532.082 475.139L653.322 506.174ZM23.0291 454.622C23.5118 457.668 24.0509 460.699 24.6446 463.713L-160.055 495.395C-161.003 492.451 -161.886 489.48 -162.696 486.477L23.0291 454.622ZM671.846 477.881C670.075 480.672 668.271 483.486 666.429 486.32L534.619 463.713C535.213 460.699 535.751 457.668 536.234 454.622L671.846 477.881ZM20.5593 432.994C20.7757 436.078 21.0479 439.147 21.3809 442.193L-168.123 458.528C-168.489 455.487 -168.784 452.424 -169 449.334L20.5593 432.994ZM690.762 446.103C689.153 449.035 687.494 451.984 685.79 454.944L537.882 442.193C538.215 439.147 538.486 436.078 538.703 432.994L690.762 446.103ZM19.982 410.68C19.9542 412.216 19.9368 413.753 19.9368 415.295C19.9368 416.838 19.9542 418.375 19.982 419.912H-168.862C-168.623 416.854 -168.307 413.775 -167.918 410.68H19.982ZM707.631 410.68C706.416 413.759 705.128 416.838 703.769 419.912H539.28C539.308 418.375 539.324 416.838 539.324 415.295C539.324 413.753 539.308 412.216 539.28 410.68H707.631ZM718.801 372.8C718.202 375.972 717.519 379.121 716.759 382.249L538.703 397.596C538.486 394.511 538.215 391.443 537.882 388.396L718.801 372.8ZM21.3792 388.396C21.0463 391.443 20.7748 394.511 20.5584 397.595L-162.226 381.841C-161.421 378.844 -160.544 375.824 -159.595 372.794L21.3792 388.396ZM24.6438 366.877C24.0501 369.891 23.5118 372.921 23.0291 375.967L-149.606 346.36C-148.33 343.476 -146.992 340.582 -145.583 337.677L24.6438 366.877ZM721.953 334.744C722.025 337.899 722.014 341.021 721.925 344.117L536.234 375.967C535.751 372.921 535.213 369.89 534.619 366.876L721.953 334.744ZM717.746 298.386C718.373 301.46 718.928 304.496 719.411 307.499L532.082 355.45C531.344 352.453 530.551 349.471 529.702 346.517L717.746 298.386ZM29.5616 346.517C28.7127 349.471 27.9185 352.452 27.1805 355.45L-132.381 314.607C-130.444 311.832 -128.435 309.171 -126.354 306.613L29.5616 346.517ZM35.8064 327.624C34.7188 330.507 33.6866 333.413 32.71 336.345L-108.745 288.318C-106.054 285.918 -103.29 283.604 -100.472 281.35L35.8064 327.624ZM708.445 264.815C709.444 267.688 710.409 270.62 711.336 273.601L526.548 336.345C525.572 333.413 524.54 330.507 523.453 327.624L708.445 264.815ZM43.0384 310.366C41.7344 313.163 40.4861 315.987 39.2986 318.838L-81.836 267.688C-78.8119 265.614 -75.7545 263.566 -72.6638 261.508L43.0384 310.366ZM695.632 234.609C697.014 237.33 698.362 240.111 699.661 242.956L519.962 318.838C518.775 315.987 517.527 313.162 516.223 310.365L695.632 234.609ZM50.9222 294.797C49.4296 297.501 47.9869 300.239 46.5942 303.003L-56.6503 250.951C-53.7204 249.012 -50.7742 247.041 -47.811 245.02L50.9222 294.797ZM679.876 208.315C681.646 210.84 683.377 213.431 685.07 216.086L512.668 303.002C511.276 300.238 509.832 297.501 508.34 294.796L679.876 208.315ZM59.1691 280.9C57.5099 283.507 55.8952 286.146 54.3249 288.813L-35.4244 236.294C-32.7443 234.339 -30.0643 232.33 -27.3842 230.25L59.1691 280.9ZM661.956 186.174C664.086 188.466 666.184 190.823 668.237 193.245L504.935 288.811C503.365 286.145 501.75 283.506 500.091 280.899L661.956 186.174ZM642.779 168.043C645.232 170.085 647.651 172.197 650.037 174.375L497.019 276.208C495.299 273.629 493.528 271.087 491.708 268.578L642.779 168.043ZM67.5531 268.577C65.7331 271.086 63.9623 273.627 62.2421 276.207L-18.0907 222.749C-15.6658 220.701 -13.241 218.594 -10.8327 216.411L67.5531 268.577ZM75.872 257.707C73.9187 260.118 72.0157 262.567 70.1568 265.049L-3.88936 209.885C-2.82402 208.848 -1.75868 207.784 -0.693344 206.708C0.449753 205.552 1.57077 204.373 2.67502 203.178L75.872 257.707ZM623.242 153.527C625.955 155.324 628.647 157.187 631.305 159.114L489.106 265.048C487.247 262.566 485.344 260.117 483.391 257.706L623.242 153.527ZM84 248.143C81.9303 250.456 79.9111 252.808 77.9301 255.197L7.77357 197.422C9.77118 195.071 11.7138 192.654 13.6226 190.178L84 248.143ZM604.059 142.063C606.978 143.632 609.874 145.267 612.749 146.962L481.332 255.197C479.351 252.808 477.331 250.457 475.261 248.143L604.059 142.063ZM91.8537 239.736C89.6786 241.957 87.548 244.222 85.4617 246.519L17.3808 185.149C19.2064 182.634 21.0043 180.066 22.7689 177.454L91.8537 239.736ZM585.731 133.065C588.799 134.439 591.857 135.862 594.892 137.355L473.802 246.519C471.715 244.222 469.585 241.957 467.41 239.736L585.731 133.065ZM99.366 232.351C97.1021 234.485 94.8769 236.663 92.6962 238.878L25.5867 173.202C27.3125 170.557 29.0156 167.869 30.697 165.148L99.366 232.351ZM568.555 126.01C571.729 127.205 574.904 128.46 578.061 129.763L466.565 238.878C464.384 236.663 462.159 234.486 459.895 232.352L568.555 126.01ZM107.174 225.269C104.827 227.311 102.513 229.397 100.244 231.525L33.4722 160.592C35.1424 157.833 36.7907 155.047 38.4276 152.234L107.174 225.269ZM551.203 119.966C554.449 121.003 557.701 122.094 560.952 123.235L459.017 231.525C456.748 229.397 454.434 227.311 452.086 225.269L551.203 119.966ZM532.249 114.368C535.54 115.259 538.848 116.193 542.16 117.176L450.43 223.842C448.066 221.816 445.663 219.839 443.221 217.901L532.249 114.368ZM116.04 217.9C113.599 219.839 111.196 221.815 108.833 223.841L41.9725 146.097C43.615 143.241 45.2468 140.368 46.8837 137.479L116.04 217.9ZM126.108 210.293C123.572 212.112 121.069 213.974 118.606 215.886L51.4125 129.497C53.0716 126.576 54.7421 123.643 56.429 120.71L126.108 210.293ZM511.751 109.246C515.059 110.006 518.388 110.799 521.739 111.641L440.658 215.885C438.194 213.973 435.691 212.111 433.156 210.292L511.751 109.246ZM137.51 202.548C134.874 204.232 132.277 205.964 129.714 207.745L62.2764 110.691C64.0188 107.753 65.784 104.826 67.5874 101.909L137.51 202.548ZM489.839 104.554C493.129 105.217 496.459 105.896 499.822 106.613L429.549 207.745C426.985 205.964 424.389 204.231 421.753 202.548L489.839 104.554ZM150.394 194.8C147.67 196.331 144.973 197.916 142.304 199.545L75.288 89.8705C77.1801 87.0195 79.1171 84.1958 81.1036 81.3992L150.394 194.8ZM466.721 100.112C469.945 100.72 473.236 101.334 476.576 101.975L416.963 199.545H416.957C414.288 197.916 411.592 196.331 408.868 194.794L466.721 100.112ZM164.889 187.234C162.065 188.597 159.268 190.009 156.504 191.47L91.4036 67.7951C93.5233 65.1722 95.7044 62.5924 97.9462 60.0617L164.889 187.234ZM442.666 95.4899C445.779 96.1253 448.986 96.7558 452.276 97.3912L402.758 191.469C399.994 190.008 397.197 188.597 394.373 187.234L442.666 95.4899ZM181.068 180.093C178.155 181.255 175.27 182.477 172.412 183.753L111.673 45.9857C114.07 43.7539 116.534 41.5871 119.075 39.4802L181.068 180.093ZM418.072 89.6308C420.975 90.4834 424.043 91.2985 427.261 92.0859L386.848 183.753C383.99 182.477 381.105 181.255 378.192 180.093L418.072 89.6308ZM393.856 78.9931C396.724 80.7635 399.5 82.3389 402.185 83.6693L369.213 176.678C366.266 175.614 363.297 174.604 360.301 173.648L393.856 78.9931ZM198.96 173.647C195.964 174.603 192.995 175.613 190.048 176.677L136.828 26.5609C139.502 24.8666 142.249 23.2373 145.079 21.6679L198.96 173.647ZM218.482 168.232C215.419 168.954 212.372 169.731 209.354 170.562L166.859 11.54C169.75 10.4322 172.719 9.37786 175.76 8.38951L218.482 168.232ZM369.251 61.702C372.037 63.7765 374.745 65.7912 377.392 67.719L349.908 170.562C346.889 169.731 343.842 168.955 340.779 168.233L369.251 61.702ZM239.445 164.17C236.332 164.643 233.236 165.169 230.156 165.75L200.846 2.08449C203.992 1.53058 207.1 1.08027 210.18 0.727282L239.445 164.17ZM341.763 41.6032C344.654 43.6124 347.49 45.6271 350.258 47.6308L329.105 165.75C326.026 165.169 322.929 164.643 319.816 164.17L341.763 41.6032ZM237.512 0C240.742 0.206357 243.927 0.510841 247.068 0.907262L261.545 161.754C258.393 161.966 255.258 162.232 252.145 162.558L237.512 0ZM310.282 22.0696C313.345 23.7096 316.353 25.4038 319.305 27.1361L307.114 162.558C304.001 162.232 300.866 161.965 297.714 161.754L310.282 22.0696ZM274.914 7.01676C278.11 8.01054 281.251 9.091 284.347 10.2531V161.189C282.777 161.162 281.207 161.146 279.631 161.146C278.055 161.146 276.484 161.162 274.914 161.189V7.01676Z" fill="url(#paint0_radial_12251_6791)" fill-opacity="0.2"/>
<defs>
<radialGradient id="paint0_radial_12251_6791" cx="0" cy="0" r="1" gradientTransform="matrix(-95.5255 -427.239 447.541 -97.1614 276.5 398.757)" gradientUnits="userSpaceOnUse">
<stop offset="0.585652" stop-color="#FCF8EF" stop-opacity="0"/>
<stop offset="0.751632" stop-color="#FCF8EF" stop-opacity="0.293378"/>
<stop offset="0.882295" stop-color="#FCF8EF" stop-opacity="0.483324"/>
<stop offset="1" stop-color="#FCF8EF"/>
</radialGradient>
</defs>
</svg>
